<?xml version="1.0" encoding="UTF-8"?>
<svg id="Layer_2" data-name="Layer 2" xmlns="http://www.w3.org/2000/svg" viewBox="0 0 359.62 547.78">
  <defs>
    <style>
      .cls-1 {
        fill: #9fedd7;
      }

      .cls-2 {
        stroke: #fff;
      }

      .cls-2, .cls-3, .cls-4, .cls-5 {
        fill: none;
        stroke-linejoin: round;
        stroke-width: 6px;
      }

      .cls-2, .cls-3, .cls-5 {
        stroke-linecap: round;
      }

      .cls-2, .cls-5 {
        opacity: .9;
      }

      .cls-6 {
        opacity: .2;
      }

      .cls-6, .cls-7 {
        fill: #01b1b0;
      }

      .cls-3, .cls-4 {
        stroke: #01b1b0;
      }

      .cls-7 {
        opacity: .23;
      }

      .cls-5 {
        stroke: #012b2d;
      }
    </style>
  </defs>
  <g id="Layer_1-2" data-name="Layer 1">
    <path class="cls-6" d="m329.49,526.91s-15.13-13.34-44.86-57.95c-29.72-44.61-28.42-66.55-28.56-71.74-.15-5.2,20.88-108.3,21.81-115.85.93-7.55-8.43-21.79-11.64-28.53s-8.47-22.66-16.05-47.34c4.26-24.76-31.22-19.35-31.22-19.35,0,0-34.61-.74-37.88-4.69-3.27-3.95-12.99-5.49-17.99-.15-5,5.34-7.9,3.3-7.9,3.3,0,0-30.01-.24-30.45,6.52-.45,6.76,5.71,9.04,17.13,14,11.42,4.95,9.77,7.62,8.23,7.34-1.54-.28-20.17-.25-20.81,1.92-.64,2.17.54,8.4,3.82,15.91s19.32,12.73,19.32,12.73c0,0,2.03,4.45-6.41,2.17-8.44-2.27-6.97,2.47-4.49,11.34,2.47,8.87,17.92,13.62,17.92,13.62,0,0,.99,15.71,4.33,58.06,3.35,42.34,22.81,116.58,22.81,116.58l33.59,82.44c44.66,23.41,76.32,31.24,109.29-.31Z"/>
    <path class="cls-7" d="m248.64,527.35c37.41,15.77,88.48,35.63,108.68,0l-18.77-28.45s-4.2-5.32-33.92-49.93c-29.72-44.61-28.42-66.55-28.56-71.74-.15-5.2,20.88-108.3,21.81-115.85.93-7.55-8.43-21.79-11.64-28.53s-8.47-22.66-16.05-47.34c4.26-24.76-31.22-19.35-31.22-19.35,0,0-34.61-.74-37.88-4.69-3.27-3.95-12.99-5.49-17.99-.15-5,5.34-7.9,3.3-7.9,3.3,0,0-30.01-.24-30.45,6.52-.45,6.76,5.71,9.04,17.13,14,11.42,4.95,9.77,7.62,8.23,7.34-1.54-.28-20.17-.25-20.81,1.92-.64,2.17.54,8.4,3.82,15.91s19.32,12.73,19.32,12.73c0,0,2.03,4.45-6.41,2.17-8.44-2.27-6.97,2.47-4.49,11.34,2.47,8.87,17.92,13.62,17.92,13.62,0,0,.99,15.71,4.33,58.06,3.35,42.34,22.81,116.58,22.81,116.58l42.03,102.56Z"/>
    <g>
      <path class="cls-1" d="m203.89,197.44c1.91,5.27,9.42,5.1,11.08-.25,4.82-15.48,12.06-37.3,17.13-46.26,3.9-6.89,12.56-9.62,20.48-9.62h10.66c14.69,0,26.6-11.91,26.6-26.6V26.6C289.85,11.84,277.83-.1,263.07,0L26.43,1.56C11.8,1.66,0,13.54,0,28.17v86.55c0,14.69,11.91,26.6,26.6,26.6h136.02c7.07,0,13.84,2.81,18.83,7.81,6.72,6.74,16.29,31.4,22.44,48.32Z"/>
      <path class="cls-3" d="m272.93,62.94v-17.74s4.2-28.1-21.22-28.1h-43.46"/>
    </g>
    <g>
      <g>
        <line class="cls-2" x1="163.54" y1="110.5" x2="36.53" y2="110.5"/>
        <line class="cls-2" x1="163.54" y1="91.86" x2="36.53" y2="91.86"/>
        <line class="cls-2" x1="163.54" y1="73.22" x2="36.53" y2="73.22"/>
        <line class="cls-2" x1="163.54" y1="54.58" x2="36.53" y2="54.58"/>
        <line class="cls-2" x1="163.54" y1="34.88" x2="36.53" y2="34.88"/>
      </g>
      <path class="cls-5" d="m239.52,110.5h-56.68c-1.44,0-2.61-2.17-2.61-4.86V39.73c0-2.68,1.17-4.86,2.61-4.86h56.68c1.44,0,2.61,2.17,2.61,4.86v65.91c0,2.68-1.17,4.86-2.61,4.86Z"/>
    </g>
    <g>
      <path class="cls-3" d="m177.39,227.8c-5.16-.57-10.88-1.25-15.37-2-6.11-1.02-6.37,14.97,16.03,21.59"/>
      <path class="cls-3" d="m234.37,205.26c-1.43-4.54-2.81-8.59-3.77-10.55-2.67-5.44-13.84-2.46-13.84-2.46"/>
      <path class="cls-4" d="m353.8,523.18c-11.76-13.33-16.08-23.22-28.16-39.95-18-26-33-50-45-78-5-11-6-24-3-36,6-33,11-63,19-96,2-7,2-14-1-21-11-24-20-49-27-75-5-17-30.85-7.68-42.74-12.26"/>
      <path class="cls-4" d="m355.21,524.75c-.48-.53-.95-1.05-1.41-1.57"/>
      <path class="cls-3" d="m356.62,526.27c-.48-.51-.95-1.02-1.41-1.53"/>
      <path class="cls-3" d="m235.9,258.91s-10.2-14.9-13-25.47c0,0-3.07.98-7.05-.62"/>
      <path class="cls-3" d="m176.79,222.52s-29.54-1.47-27.49-28.13c0,0,15.2-4.7,25.87-.64"/>
      <path class="cls-3" d="m239.65,236.73s-13.71-20.29-15.94-29.07l-6.35-1.02"/>
      <path class="cls-3" d="m180.68,164.72s-28.84-1.13-34.24,3.27c-5.4,4.41,1.16,17.88,30.59,19.28"/>
      <path class="cls-3" d="m248.64,527.35c-29-66-57-132.12-63-205.12-1-6-2-11-3-17-1-14-1-27-3-41-2-23-2-45-3-68,0-9-1-18,2-26,1-4,2-9,6-11,6-3,14,0,19,5,18,22,14,50,11,76-2,10-4,25,8,29,7,3,12-5,14-11,3-10,4-20,4-30-1-8-4-15-6.27-22.96"/>
      <path class="cls-3" d="m179.26,179.46s.22-15.18,8.97-17.77,15.66,3.82,18.29,18.37c2.63,14.54-7.6,18.34-13.25,18.32-5.88-.02-13.35-3.27-14.02-18.91Z"/>
    </g>
  </g>
</svg>