<?xml version="1.0" encoding="UTF-8"?>
<svg id="Layer_2" data-name="Layer 2" xmlns="http://www.w3.org/2000/svg" viewBox="0 0 268.52 447.69">
  <defs>
    <style>
      .cls-1 {
        opacity: .9;
      }

      .cls-2 {
        stroke: #fff;
      }

      .cls-2, .cls-3, .cls-4 {
        stroke-linecap: round;
      }

      .cls-2, .cls-3, .cls-4, .cls-5, .cls-6 {
        fill: none;
        stroke-width: 6px;
      }

      .cls-2, .cls-3, .cls-4, .cls-6 {
        stroke-linejoin: round;
      }

      .cls-7 {
        fill: #edeae5;
      }

      .cls-3, .cls-5 {
        stroke: #012b2d;
      }

      .cls-8 {
        opacity: .2;
      }

      .cls-8, .cls-9 {
        fill: #01b1b0;
      }

      .cls-4, .cls-6 {
        stroke: #01b1b0;
      }

      .cls-5 {
        stroke-miterlimit: 10;
      }

      .cls-9 {
        opacity: .12;
      }
    </style>
  </defs>
  <g id="Layer_1-2" data-name="Layer 1">
    <g>
      <path class="cls-8" d="m185.61,242.55c-1.1-5.16-13.9-32.64-13.9-32.64l-75.2-15.33s-29,31.92-39.47,40.7c-10.47,8.77-30.65,16.51-39.36,52.12C11.17,332.51,0,403.52,0,403.52l3.24,39.56c18.04,5.45,50.08,8.7,71.49-5.79l-5.11-16.34,3.45-16.95,22.65-43.02,13.69-29.66,17.58-36.9,9.35-13.09s21.73,6.22,27.99.99c6.26-5.23,9.32-15.96,9.32-15.96l-15.83-9.05s11.96,3.21,19.13.26c7.17-2.95,9.75-9.85,8.65-15.02Z"/>
      <path class="cls-9" d="m205.61,222.55c-1.1-5.16-22.04-14.61-22.04-14.61l-83.12-20.04s-12.93,18.6-23.41,27.37c-10.47,8.77-30.65,16.51-39.36,52.12-6.52,45.12-17.69,116.14-17.69,116.14l-4.99,51.51c7.93,8.26,55.8,14.26,68.48.09l.24-31.74,9.34-19.37,22.65-43.02,13.69-29.66,17.58-36.9,9.35-13.09s21.73,6.22,27.99.99c6.26-5.23,9.32-15.96,9.32-15.96l-15.83-9.05s11.96,3.21,19.13.26c7.17-2.95,9.75-9.85,8.65-15.02Z"/>
      <g>
        <path class="cls-7" d="m87.65,191.75l-31.36,1.82c-3.33.19-5.86-2.96-4.96-6.17l8.99-31.85c-2.52-5.41-4.63-11.1-6.28-17.04C38.09,81.12,71.65,20.93,128.87,4.35c58.67-17,119.86,17.37,135.86,76.32,15.66,57.68-18.56,117.81-76.14,133.84-36.66,10.21-74.18.44-100.94-22.76Z"/>
        <path class="cls-2" d="m76.41,146.08s-21.46-47.54,8.69-88.09"/>
        <path class="cls-2" d="m94.99,46.22c3.7-5.13,9.09-10.32,16.62-13.9"/>
      </g>
      <g>
        <g class="cls-1">
          <circle class="cls-5" cx="183.34" cy="142.59" r="9.32"/>
          <path class="cls-3" d="m190.85,120.21l1.8-58.98c.12-2.07-1.55-3.81-3.66-3.81h-11.31c-2.11,0-3.78,1.74-3.66,3.81l1.8,58.98c.14,1.91,2.19,3.4,4.67,3.4h5.67c2.48,0,4.54-1.49,4.68-3.4Z"/>
        </g>
        <g class="cls-1">
          <circle class="cls-5" cx="134.7" cy="66.73" r="9.32"/>
          <path class="cls-3" d="m127.19,89.11l-1.8,58.98c-.12,2.07,1.55,3.81,3.66,3.81h11.31c2.11,0,3.78-1.74,3.66-3.81l-1.8-58.98c-.14-1.91-2.19-3.4-4.67-3.4h-5.67c-2.48,0-4.54,1.49-4.68,3.4Z"/>
        </g>
      </g>
      <path class="cls-6" d="m119.58,217.87c1.51-2.05,2.96-5.71,2.96-5.71"/>
      <g>
        <path class="cls-6" d="m15.08,430.67c.2-6.08.85-9.95,1.69-16.68,0-5,1-10,2-15,7-48,13-95,21-142,7-17,21-29,36-40,7-6,12.64-13.66,17.81-20.44"/>
        <path class="cls-4" d="m15.01,434.37c0-1.33.02-2.56.06-3.7"/>
        <path class="cls-6" d="m171.72,232.47s-.64.1,10.26,3.56c10.9,3.46,19.75,2.02,22.36-3.28,2.45-4.99-9.15-12.68-11.52-19.52"/>
        <path class="cls-4" d="m100.46,241.51s29.91-16.48,33.3-18.76c3.39-2.29,7.26-.94,7.26-.94"/>
        <path class="cls-4" d="m129.73,249.94l-13.59.48s-7.17,12.55-16.77,12.74-3.32,9.57-3.32,9.57"/>
        <path class="cls-4" d="m83.49,434.37c-1.72-12.16-1.73-23.38,2.27-35.38,7-17,16-31,25-47,14-28,24-56,39-84,8-14,16-27,24-41,4-7,0-16-8-17-3,0-5.74.17-8.74,2.17-13,11-21.26,24.83-26.26,39.83-5,11-13,20-22,29-6-2-12-5-15-11-1-5-1-9,0-14,5-16,16-26,25.82-38.12"/>
        <path class="cls-4" d="m156.35,257.45s7.57,5.66,18.7,5.41c11.13-.25,12.62-5.79,14.99-8.87,2.37-3.08,2.8-6.82,1-7.88s-22.5-8.8-22.5-8.8l-12.19,20.14Z"/>
        <path class="cls-4" d="m165.77,209.99c-7.47-1.32-11.72,13.22-11.43,18.47,1.53,4.47,10.56,6.57,10.56,6.57,0,0,7.73.74,10.43-16.49"/>
      </g>
    </g>
  </g>
</svg>