<?xml version="1.0" encoding="UTF-8"?>
<svg id="Layer_2" data-name="Layer 2" xmlns="http://www.w3.org/2000/svg" viewBox="0 0 1349.74 737.62">
  <defs>
    <style>
      .cls-1 {
        fill: #9fedd7;
      }

      .cls-2 {
        stroke: #fce181;
      }

      .cls-2, .cls-3, .cls-4, .cls-5, .cls-6, .cls-7, .cls-8, .cls-9, .cls-10, .cls-11, .cls-12, .cls-13 {
        fill: none;
      }

      .cls-2, .cls-3, .cls-4, .cls-5, .cls-6, .cls-8, .cls-9, .cls-10, .cls-11, .cls-12, .cls-13 {
        stroke-width: 6px;
      }

      .cls-2, .cls-3, .cls-4, .cls-5, .cls-6, .cls-8, .cls-9, .cls-10, .cls-12, .cls-13 {
        stroke-linejoin: round;
      }

      .cls-2, .cls-3, .cls-4, .cls-5, .cls-6, .cls-9, .cls-10, .cls-13 {
        stroke-linecap: round;
      }

      .cls-14, .cls-4, .cls-7, .cls-13 {
        opacity: .9;
      }

      .cls-3, .cls-4 {
        stroke: #fff;
      }

      .cls-15, .cls-16 {
        fill: #b3e5ff;
      }

      .cls-5 {
        stroke: #ffc425;
      }

      .cls-17 {
        fill: #edeae5;
      }

      .cls-6, .cls-7, .cls-11, .cls-13 {
        stroke: #012b2d;
      }

      .cls-7 {
        stroke-width: 8px;
      }

      .cls-7, .cls-11 {
        stroke-miterlimit: 10;
      }

      .cls-18, .cls-19, .cls-20 {
        fill: #01b1b0;
      }

      .cls-18, .cls-21, .cls-22 {
        opacity: .2;
      }

      .cls-8, .cls-10 {
        stroke: #02a5d9;
      }

      .cls-9, .cls-12 {
        stroke: #01b1b0;
      }

      .cls-16 {
        opacity: .5;
      }

      .cls-19 {
        opacity: .23;
      }

      .cls-23 {
        fill: #fce181;
      }

      .cls-24 {
        fill: #ffc425;
      }

      .cls-21 {
        fill: #012b2d;
      }

      .cls-22 {
        fill: #02a5d9;
      }

      .cls-20 {
        opacity: .12;
      }
    </style>
  </defs>
  <g id="Layer_1-2" data-name="Layer 1">
    <path class="cls-22" d="m614.9,717.07c-8.77-7.23-21.44-31.68-20.68-47.41.76-15.73,7.57-11.38,12.3-26.09s10.03-46.81,14.86-57.26c4.83-10.45,18.74-22.02,22.21-41.22-15.92.25-22.72-1.11-35.1,15.58-12.37,16.7-17.18,31.09-29.42,31.76-12.25.67-22.48-.14-33.67-29.27-11.19-29.14,10.03-35.97,10.03-35.97,0,0,13.57-9.12,17.76-16.29,4.19-7.17,5.7-10.69.81-11.95-4.88-1.27,3.55-9.14,4.25-12.23s1-13.26-.87-12.7-27.57,15.93-29.43,19.68,2.13-9.11,5.21-13.18c3.07-4.07,5.69-18.13,5.69-18.13h-15.17s2.19-31.08-2.55-34.88c-4.74-3.8-9.06,2.6-10.79,11.85-1.73,9.25-15.45,80.97-15.45,80.97,0,0-6.13,29.98-3.16,53.31,2.96,23.32,15.63,63.34,15.63,63.34l9.36,33.44c2.67.7,2.51,35.36,1.1,46.65,13.39,13.86,61.26,18.99,77.09,0Z"/>
    <path class="cls-16" d="m626.43,717.07s-12.96-51.68-12.2-67.41c.76-15.73,7.57-11.38,12.3-26.09s10.03-46.81,14.86-57.26c4.83-10.45,18.74-22.02,22.21-41.22-15.92.25-22.72-1.11-35.1,15.58-12.37,16.7-17.18,31.09-29.42,31.76-12.25.67-22.48-.14-33.67-29.27-11.19-29.14,10.03-35.97,10.03-35.97,0,0,13.57-9.12,17.76-16.29,4.19-7.17,5.7-10.69.81-11.95-4.88-1.27,3.55-9.14,4.25-12.23s1-13.26-.87-12.7-27.57,15.93-29.43,19.68,2.13-9.11,5.21-13.18c3.07-4.07,5.69-18.13,5.69-18.13h-15.17s2.19-31.08-2.55-34.88c-4.74-3.8-9.06,2.6-10.79,11.85-1.73,9.25-15.45,80.97-15.45,80.97,0,0-6.13,29.98-3.16,53.31,2.96,23.32,15.63,63.34,15.63,63.34l9.36,33.44s-2.15,56.36-3.95,66.65c47.84,24.01,73.66,0,73.66,0Z"/>
    <path class="cls-18" d="m1319.62,716.76s-15.13-13.34-44.86-57.95c-29.72-44.61-28.42-66.55-28.56-71.74-.15-5.2,20.88-108.3,21.81-115.85.93-7.55-8.43-21.79-11.64-28.53s-8.47-22.66-16.05-47.34c4.26-24.76-31.22-19.35-31.22-19.35,0,0-34.61-.74-37.88-4.69-3.27-3.95-12.99-5.49-17.99-.15-5,5.34-7.9,3.3-7.9,3.3,0,0-30.01-.24-30.45,6.52-.45,6.76,5.71,9.04,17.13,14,11.42,4.95,9.77,7.62,8.23,7.34-1.54-.28-20.17-.25-20.81,1.92-.64,2.17.54,8.4,3.82,15.91s19.32,12.73,19.32,12.73c0,0,2.03,4.45-6.41,2.17-8.44-2.27-6.97,2.47-4.49,11.34,2.47,8.87,17.92,13.62,17.92,13.62,0,0,.99,15.71,4.33,58.06,3.35,42.34,22.81,116.58,22.81,116.58l33.59,82.44c44.66,23.41,76.32,31.24,109.29-.31Z"/>
    <path class="cls-21" d="m1238.19,210.85l-142.46.94c6.91-16.34,8.12-35.18,2.03-53.35-12.91-38.52-54.65-60.07-93.52-48.24-40.69,12.39-62.99,55.74-49.73,95.9,4.19,12.68,11.43,23.5,20.63,31.93-.01.33-.02.65-.02.98v59.81c-9.04,1.6-18,4.4-26.69,8.47-2.59,1.22-5.12,2.52-7.57,3.92V88.84c0-2.93-2.37-5.3-5.3-5.3h-77.98c-1.41,0-2.75-.56-3.75-1.55-5.18-5.19-21.98-22.03-29.83-29.93-2.2-2.22-5.83-2.05-7.82.35l-24.23,29.22c-1.01,1.21-2.5,1.92-4.08,1.92h-125.43c-2.93,0-5.3,2.37-5.3,5.3v157.66s-51.18.34-51.18.34v-81.86c0-2.29-1.86-4.15-4.15-4.15h-149.6v-25.66c0-33.37-27.05-60.41-60.41-60.41h-44.42c-17.98,0-38.07-5.97-46.5-21.85-3-5.64-6.64-18.56-9.32-29.07-.97-3.82-6.41-3.78-7.33.05-2.95,12.25-7.46,28.01-12.53,33.1-11.34,11.37-26.73,17.76-42.79,17.76h0c-33.37,0-60.41,27.05-60.41,60.41v170.64c-17.72-4.04-36.7-3.71-55.41,1.86-56.8,16.91-89.92,76.87-74.04,133.96,1.65,5.93,3.76,11.61,6.28,17.02l-8.99,31.85c-.91,3.21,1.62,6.36,4.96,6.17l31.36-1.82c26.82,23.25,64.43,33.01,101.16,22.7,53.08-14.89,85.94-66.53,78.77-119.65l13.4.09v49.14c0,2.29,1.86,4.15,4.15,4.15h96.57c1.1,0,2.15.43,2.92,1.21,5.18,5.19,25.7,25.74,35.73,35.85,2.99,3.01,7.93,2.79,10.64-.48l29.1-35.08c.79-.95,1.96-1.5,3.19-1.5h56.44c4.64,7.77,13.14,12.97,22.85,12.97h113.33c12.4,0,13.84,2.81,18.83,7.81,5.91,5.92,14.01,25.67,20.06,41.85,2.74,7.32,13.17,7.06,15.55-.38,4.66-14.56,10.66-31.92,15.05-39.66,3.9-6.89,12.56-9.62,20.48-9.62h33.36c14.69,0,26.6-11.91,26.6-26.6v-28.75l95.37.63c.34,15.55,3.88,31.35,10.94,46.43,2.66,5.68,5.72,11.04,9.13,16.06l-21.85,44c-3.74,7.53,4.37,15.44,11.8,11.51l43.56-23.04c30.73,19.4,69.79,23.4,104.43,7.17,54.79-25.67,77.76-92.23,51.32-148.66-1.76-3.75-3.69-7.36-5.78-10.83h48.03c7.07,0,13.84,2.81,18.83,7.81,6.72,6.74,16.29,31.4,22.44,48.32,1.91,5.27,9.42,5.1,11.08-.25,4.82-15.48,12.06-37.3,17.13-46.26,3.9-6.89,12.56-9.62,20.48-9.62h10.66c14.69,0,26.6-11.91,26.6-26.6v-88.12c0-14.76-12.02-26.7-26.78-26.6Z"/>
    <path class="cls-19" d="m1238.77,717.19c37.41,15.77,88.48,35.63,108.68,0l-18.77-28.45s-4.2-5.32-33.92-49.93c-29.72-44.61-28.42-66.55-28.56-71.74-.15-5.2,20.88-108.3,21.81-115.85.93-7.55-8.43-21.79-11.64-28.53s-8.47-22.66-16.05-47.34c4.26-24.76-31.22-19.35-31.22-19.35,0,0-34.61-.74-37.88-4.69-3.27-3.95-12.99-5.49-17.99-.15-5,5.34-7.9,3.3-7.9,3.3,0,0-30.01-.24-30.45,6.52-.45,6.76,5.71,9.04,17.13,14,11.42,4.95,9.77,7.62,8.23,7.34-1.54-.28-20.17-.25-20.81,1.92-.64,2.17.54,8.4,3.82,15.91s19.32,12.73,19.32,12.73c0,0,2.03,4.45-6.41,2.17-8.44-2.27-6.97,2.47-4.49,11.34,2.47,8.87,17.92,13.62,17.92,13.62,0,0,.99,15.71,4.33,58.06,3.35,42.34,22.81,116.58,22.81,116.58l42.03,102.56Z"/>
    <g>
      <path class="cls-24" d="m831.18,31.42l-24.22,29.2c-1.01,1.21-2.5,1.92-4.08,1.92h-125.43c-2.93,0-5.3,2.37-5.3,5.3v313.89c0,2.91,2.35,5.28,5.27,5.3l273.12,1.81c2.94.02,5.34-2.36,5.34-5.3V67.84c0-2.93-2.37-5.3-5.3-5.3h-77.98c-1.41,0-2.75-.56-3.75-1.55-5.17-5.18-21.97-22.01-29.82-29.92-2.2-2.22-5.84-2.06-7.84.35Z"/>
      <polyline class="cls-2" points="867.74 363.41 936.66 363.41 936.66 304.53"/>
    </g>
    <g>
      <path class="cls-15" d="m299.23,2.89c.92-3.83,6.36-3.86,7.33-.05,2.68,10.51,6.32,23.42,9.32,29.06,8.43,15.88,28.52,21.85,46.5,21.85h44.42c33.37,0,60.41,27.05,60.41,60.41v203.23c0,33.52-27.29,60.63-60.81,60.41l-162.89-1.08c-33.21-.22-60.01-27.2-60.01-60.41V114.17c0-33.37,27.05-60.41,60.41-60.41h0c16.06,0,31.45-6.39,42.79-17.76,5.07-5.09,9.58-20.84,12.53-33.1Z"/>
      <path class="cls-10" d="m386.92,78.15s53.35-7.34,54.04,41.54"/>
    </g>
    <g class="cls-14">
      <path class="cls-6" d="m906.83,271.97h-56.68c-1.44,0-2.61-.95-2.61-2.12v-38.26c0-1.46,1.17-2.64,2.61-2.64h56.68c1.44,0,2.61,1.18,2.61,2.64v38.26c0,1.17-1.17,2.12-2.61,2.12Z"/>
      <path class="cls-6" d="m906.83,331.48h-56.68c-1.44,0-2.61-1.18-2.61-2.64v-38.26c0-1.17,1.17-2.12,2.61-2.12h56.68c1.44,0,2.61.95,2.61,2.12v38.26c0,1.46-1.17,2.64-2.61,2.64Z"/>
      <path class="cls-6" d="m833.14,331.48h-56.68c-1.44,0-2.61-2.93-2.61-6.54v-88.79c0-3.61,1.17-6.54,2.61-6.54h56.68c1.44,0,2.61,2.93,2.61,6.54v88.79c0,3.61-1.17,6.54-2.61,6.54Z"/>
    </g>
    <g class="cls-14">
      <path class="cls-6" d="m411.45,302.85h-172.17c-1.38,0-2.5-1.44-2.5-3.21v-5.09c0-1.77,1.12-3.21,2.5-3.21h172.17c1.38,0,2.5,1.44,2.5,3.21v5.09c0,1.77-1.12,3.21-2.5,3.21Z"/>
      <path class="cls-6" d="m411.45,272.95h-172.17c-1.38,0-2.5-1.44-2.5-3.21v-5.09c0-1.77,1.12-3.21,2.5-3.21h172.17c1.38,0,2.5,1.44,2.5,3.21v5.09c0,1.77-1.12,3.21-2.5,3.21Z"/>
      <path class="cls-6" d="m411.45,243.06h-172.17c-1.38,0-2.5-1.44-2.5-3.21v-5.09c0-1.77,1.12-3.21,2.5-3.21h172.17c1.38,0,2.5,1.44,2.5,3.21v5.09c0,1.77-1.12,3.21-2.5,3.21Z"/>
      <path class="cls-6" d="m411.45,182.95h-172.17c-1.38,0-2.5-8.03-2.5-17.93v-28.46c0-9.9,1.12-17.93,2.5-17.93h172.17c1.38,0,2.5,8.03,2.5,17.93v28.46c0,9.9-1.12,17.93-2.5,17.93Z"/>
      <path class="cls-6" d="m411.45,213.17h-172.17c-1.38,0-2.5-1.44-2.5-3.21v-5.09c0-1.77,1.12-3.21,2.5-3.21h172.17c1.38,0,2.5,1.44,2.5,3.21v5.09c0,1.77-1.12,3.21-2.5,3.21Z"/>
    </g>
    <g>
      <path class="cls-17" d="m954.76,483.48l-43.57,23.04c-7.43,3.93-15.54-3.97-11.8-11.51l21.85-44c-3.41-5.02-6.47-10.38-9.13-16.06-26.44-56.43-3.47-122.99,51.32-148.66,54.79-25.67,120.63-.73,147.08,55.7,26.44,56.43,3.47,122.99-51.32,148.66-34.64,16.23-73.7,12.23-104.43-7.17Z"/>
      <path class="cls-3" d="m1067.43,463.69s-37.36,31.38-81.52,14.5"/>
    </g>
    <g>
      <circle class="cls-7" cx="1051.1" cy="386.03" r="12.6"/>
      <circle class="cls-7" cx="1010.31" cy="386.03" r="12.6"/>
      <circle class="cls-7" cx="969.53" cy="386.03" r="12.6"/>
    </g>
    <g>
      <path class="cls-1" d="m1194.02,387.29c1.91,5.27,9.42,5.1,11.08-.25,4.82-15.48,12.06-37.3,17.13-46.26,3.9-6.89,12.56-9.62,20.48-9.62h10.66c14.69,0,26.6-11.91,26.6-26.6v-88.12c0-14.76-12.02-26.7-26.78-26.6l-236.64,1.56c-14.62.1-26.43,11.98-26.43,26.6v86.55c0,14.69,11.91,26.6,26.6,26.6h136.02c7.07,0,13.84,2.81,18.83,7.81,6.72,6.74,16.29,31.4,22.44,48.32Z"/>
      <path class="cls-9" d="m1263.05,252.79v-17.74s4.2-28.1-21.22-28.1h-43.46"/>
    </g>
    <g>
      <path class="cls-23" d="m430.99,466.84l29.09-35.07c.79-.95,1.96-1.5,3.19-1.5h153.54c2.29,0,4.15-1.86,4.15-4.15V143.98c0-2.29-1.86-4.15-4.15-4.15h-331.69c-2.29,0-4.15,1.86-4.15,4.15v282.14c0,2.29,1.86,4.15,4.15,4.15h96.56c1.1,0,2.15.43,2.93,1.21,5.18,5.19,25.68,25.73,35.72,35.84,3,3.02,7.94,2.8,10.65-.48Z"/>
      <polyline class="cls-5" points="374.68 162.63 305.76 162.63 305.76 221.5"/>
    </g>
    <g>
      <path class="cls-13" d="m385.54,304.4c-4.1,0-7.2-3.72-6.49-7.76.34-1.95.83-3.71,1.46-5.27,1.38-3.42,4.16-7.24,8.3-11.51,4.14-4.25,6.62-7.04,7.42-8.37,1.26-2.07,1.88-4.38,1.88-6.89,0-3.49-1.1-6.48-3.31-8.99-2.21-2.49-5.17-3.73-8.92-3.73s-6.62,1.31-9.06,3.9c-.71.77-1.5,2.19-2.21,3.65-1.36,2.83-4.53,4.3-7.57,3.52l-1.17-.3c-3.96-1.01-6.06-5.34-4.39-9.07,1.08-2.41,2.67-5.07,5-7.4,4.78-5.32,11.02-7.98,18.78-7.98,8.14,0,14.63,2.7,19.46,8.09,4.81,5.39,7.23,11.65,7.23,18.82,0,3.95-.9,7.7-2.66,11.23-1.78,3.53-5.55,8.35-11.35,14.44-2.3,2.42-4.91,4.02-6,8.55-.71,2.96-3.36,5.06-6.41,5.06h0Z"/>
      <circle class="cls-13" cx="385.64" cy="323.38" r="9.32"/>
    </g>
    <g>
      <path class="cls-3" d="m723.69,170.52h79.18c2.01,0,3.65.95,3.65,2.12v38.26c0,1.46-1.63,2.64-3.65,2.64h-79.18c-2.01,0-3.65-1.18-3.65-2.64v-38.26c0-1.17,1.63-2.12,3.65-2.12Z"/>
      <path class="cls-3" d="m723.69,111.01h79.18c2.01,0,3.65,1.18,3.65,2.64v38.26c0,1.17-1.63,2.12-3.65,2.12h-79.18c-2.01,0-3.65-.95-3.65-2.12v-38.26c0-1.46,1.63-2.64,3.65-2.64Z"/>
      <path class="cls-3" d="m826.61,111.01h79.18c2.01,0,3.65,2.93,3.65,6.54v88.79c0,3.61-1.63,6.54-3.65,6.54h-79.18c-2.01,0-3.65-2.93-3.65-6.54v-88.79c0-3.61,1.63-6.54,3.65-6.54Z"/>
    </g>
    <g class="cls-14">
      <path class="cls-6" d="m523.78,335.07h-85.96c-.69,0-1.25-1.44-1.25-3.21v-5.09c0-1.77.56-3.21,1.25-3.21h85.96c.69,0,1.25,1.44,1.25,3.21v5.09c0,1.77-.56,3.21-1.25,3.21Z"/>
      <path class="cls-6" d="m523.78,305.18h-85.96c-.69,0-1.25-1.44-1.25-3.21v-5.09c0-1.77.56-3.21,1.25-3.21h85.96c.69,0,1.25,1.44,1.25,3.21v5.09c0,1.77-.56,3.21-1.25,3.21Z"/>
      <path class="cls-6" d="m523.78,275.29h-85.96c-.69,0-1.25-1.44-1.25-3.21v-5.09c0-1.77.56-3.21,1.25-3.21h85.96c.69,0,1.25,1.44,1.25,3.21v5.09c0,1.77-.56,3.21-1.25,3.21Z"/>
      <path class="cls-6" d="m523.78,245.4h-85.96c-.69,0-1.25-1.44-1.25-3.21v-5.09c0-1.77.56-3.21,1.25-3.21h85.96c.69,0,1.25,1.44,1.25,3.21v5.09c0,1.77-.56,3.21-1.25,3.21Z"/>
    </g>
    <g>
      <path class="cls-1" d="m694.77,492.88c2.74,7.32,13.17,7.06,15.56-.38,4.66-14.56,10.66-31.9,15.04-39.64,3.9-6.89,12.56-9.62,20.48-9.62h33.36c14.69,0,26.6-11.91,26.6-26.6v-165.24c0-14.76-12.02-26.7-26.78-26.6l-236.64,1.56c-14.62.1-26.43,11.98-26.43,26.6v163.68c0,14.69,11.91,26.6,26.6,26.6h113.33c7.07,0,13.84,2.81,18.83,7.81,5.9,5.92,14.01,25.66,20.05,41.84Z"/>
      <path class="cls-9" d="m539.87,346.88v44.41s-4.2,28.1,21.22,28.1h43.46"/>
      <line class="cls-9" x1="539.61" y1="327.71" x2="539.61" y2="292.65"/>
      <path class="cls-9" d="m781.15,292.65v-17.74s4.2-28.1-21.22-28.1h-43.46"/>
    </g>
    <g>
      <rect class="cls-3" x="571.27" y="275.13" width="179.22" height="117.68" rx="7.56" ry="7.56"/>
      <line class="cls-13" x1="690.08" y1="376.28" x2="631.68" y2="376.28"/>
      <line class="cls-13" x1="724.39" y1="367.02" x2="597.37" y2="367.02"/>
      <g>
        <path class="cls-3" d="m648.66,303.47c1.51-6.78,6.99-11.81,13.51-11.81,7.69,0,13.93,6.98,13.93,15.6s-6.23,15.6-13.93,15.6c-5.87,0-10.9-4.07-12.94-9.83"/>
        <path class="cls-3" d="m673.35,324.18c.72.3,6.08,1.82,7.52,3.94,1.64,2.43.69,19.65.72,23.33h-38.51c.03-3.68-.93-20.9.72-23.33,1.43-2.12,6.8-3.64,7.52-3.94"/>
      </g>
    </g>
    <g>
      <g>
        <line class="cls-4" x1="1153.66" y1="300.35" x2="1026.65" y2="300.35"/>
        <line class="cls-4" x1="1153.66" y1="281.71" x2="1026.65" y2="281.71"/>
        <line class="cls-4" x1="1153.66" y1="263.06" x2="1026.65" y2="263.06"/>
        <line class="cls-4" x1="1153.66" y1="244.42" x2="1026.65" y2="244.42"/>
        <line class="cls-4" x1="1153.66" y1="224.72" x2="1026.65" y2="224.72"/>
      </g>
      <path class="cls-13" d="m1229.64,300.35h-56.68c-1.44,0-2.61-2.17-2.61-4.86v-65.91c0-2.68,1.17-4.86,2.61-4.86h56.68c1.44,0,2.61,2.17,2.61,4.86v65.91c0,2.68-1.17,4.86-2.61,4.86Z"/>
    </g>
    <g>
      <path class="cls-18" d="m185.61,524.63c-1.1-5.16-13.9-32.64-13.9-32.64l-75.2-15.33s-29,31.92-39.47,40.7c-10.47,8.77-30.65,16.51-39.36,52.12-6.52,45.12-17.69,116.14-17.69,116.14l3.24,39.56c18.04,5.45,50.08,8.7,71.49-5.79l-5.11-16.34,3.45-16.95,22.65-43.02,13.69-29.66,17.58-36.9,9.35-13.09s21.73,6.22,27.99.99c6.26-5.23,9.32-15.96,9.32-15.96l-15.83-9.05s11.96,3.21,19.13.26c7.17-2.95,9.75-9.85,8.65-15.02Z"/>
      <path class="cls-20" d="m205.61,504.63c-1.1-5.16-22.04-14.61-22.04-14.61l-83.12-20.04s-12.93,18.6-23.41,27.37c-10.47,8.77-30.65,16.51-39.36,52.12-6.52,45.12-17.69,116.14-17.69,116.14l-4.99,51.51c7.93,8.26,55.8,14.26,68.48.09l.24-31.74,9.34-19.37,22.65-43.02,13.69-29.66,17.58-36.9,9.35-13.09s21.73,6.22,27.99.99c6.26-5.23,9.32-15.96,9.32-15.96l-15.83-9.05s11.96,3.21,19.13.26c7.17-2.95,9.75-9.85,8.65-15.02Z"/>
      <g>
        <path class="cls-17" d="m87.65,473.84l-31.36,1.82c-3.33.19-5.86-2.96-4.96-6.17l8.99-31.85c-2.52-5.41-4.63-11.1-6.28-17.04-15.95-57.4,17.61-117.59,74.83-134.17,58.67-17,119.86,17.37,135.86,76.32,15.66,57.68-18.56,117.81-76.14,133.84-36.66,10.21-74.18.44-100.94-22.76Z"/>
        <path class="cls-3" d="m76.41,428.17s-21.46-47.54,8.69-88.09"/>
        <path class="cls-3" d="m94.99,328.3c3.7-5.13,9.09-10.32,16.62-13.9"/>
      </g>
      <g>
        <g class="cls-14">
          <circle class="cls-11" cx="183.34" cy="424.67" r="9.32"/>
          <path class="cls-6" d="m190.85,402.3l1.8-58.98c.12-2.07-1.55-3.81-3.66-3.81h-11.31c-2.11,0-3.78,1.74-3.66,3.81l1.8,58.98c.14,1.91,2.19,3.4,4.67,3.4h5.67c2.48,0,4.54-1.49,4.68-3.4Z"/>
        </g>
        <g class="cls-14">
          <circle class="cls-11" cx="134.7" cy="348.82" r="9.32"/>
          <path class="cls-6" d="m127.19,371.2l-1.8,58.98c-.12,2.07,1.55,3.81,3.66,3.81h11.31c2.11,0,3.78-1.74,3.66-3.81l-1.8-58.98c-.14-1.91-2.19-3.4-4.67-3.4h-5.67c-2.48,0-4.54,1.49-4.68,3.4Z"/>
        </g>
      </g>
      <path class="cls-12" d="m119.58,499.95c1.51-2.05,2.96-5.71,2.96-5.71"/>
      <g>
        <path class="cls-12" d="m15.08,712.75c.2-6.08.85-9.95,1.69-16.68,0-5,1-10,2-15,7-48,13-95,21-142,7-17,21-29,36-40,7-6,12.64-13.66,17.81-20.44"/>
        <path class="cls-9" d="m15.01,716.45c0-1.33.02-2.56.06-3.7"/>
        <path class="cls-12" d="m171.72,514.55s-.64.1,10.26,3.56c10.9,3.46,19.75,2.02,22.36-3.28,2.45-4.99-9.15-12.68-11.52-19.52"/>
        <path class="cls-9" d="m100.46,523.6s29.91-16.48,33.3-18.76c3.39-2.29,7.26-.94,7.26-.94"/>
        <path class="cls-9" d="m129.73,532.02l-13.59.48s-7.17,12.55-16.77,12.74-3.32,9.57-3.32,9.57"/>
        <path class="cls-9" d="m83.49,716.45c-1.72-12.16-1.73-23.38,2.27-35.38,7-17,16-31,25-47,14-28,24-56,39-84,8-14,16-27,24-41,4-7,0-16-8-17-3,0-5.74.17-8.74,2.17-13,11-21.26,24.83-26.26,39.83-5,11-13,20-22,29-6-2-12-5-15-11-1-5-1-9,0-14,5-16,16-26,25.82-38.12"/>
        <path class="cls-9" d="m156.35,539.53s7.57,5.66,18.7,5.41c11.13-.25,12.62-5.79,14.99-8.87,2.37-3.08,2.8-6.82,1-7.88s-22.5-8.8-22.5-8.8l-12.19,20.14Z"/>
        <path class="cls-9" d="m165.77,492.07c-7.47-1.32-11.72,13.22-11.43,18.47,1.53,4.47,10.56,6.57,10.56,6.57,0,0,7.73.74,10.43-16.49"/>
      </g>
    </g>
    <g>
      <path class="cls-9" d="m1167.51,417.64c-5.16-.57-10.88-1.25-15.37-2-6.11-1.02-6.37,14.97,16.03,21.59"/>
      <path class="cls-9" d="m1224.49,395.11c-1.43-4.54-2.81-8.59-3.77-10.55-2.67-5.44-13.84-2.46-13.84-2.46"/>
      <path class="cls-12" d="m1343.93,713.02c-11.76-13.33-16.08-23.22-28.16-39.95-18-26-33-50-45-78-5-11-6-24-3-36,6-33,11-63,19-96,2-7,2-14-1-21-11-24-20-49-27-75-5-17-30.85-7.68-42.74-12.26"/>
      <path class="cls-12" d="m1345.33,714.59c-.48-.53-.95-1.05-1.41-1.57"/>
      <path class="cls-9" d="m1346.74,716.12c-.48-.51-.95-1.02-1.41-1.53"/>
      <path class="cls-9" d="m1226.02,448.76s-10.2-14.9-13-25.47c0,0-3.07.98-7.05-.62"/>
      <path class="cls-9" d="m1166.92,412.36s-29.54-1.47-27.49-28.13c0,0,15.2-4.7,25.87-.64"/>
      <path class="cls-9" d="m1229.78,426.57s-13.71-20.29-15.94-29.07l-6.35-1.02"/>
      <path class="cls-9" d="m1170.8,354.57s-28.84-1.13-34.24,3.27c-5.4,4.41,1.16,17.88,30.59,19.28"/>
      <path class="cls-9" d="m1238.77,717.19c-29-66-57-132.12-63-205.12-1-6-2-11-3-17-1-14-1-27-3-41-2-23-2-45-3-68,0-9-1-18,2-26,1-4,2-9,6-11,6-3,14,0,19,5,18,22,14,50,11,76-2,10-4,25,8,29,7,3,12-5,14-11,3-10,4-20,4-30-1-8-4-15-6.27-22.96"/>
      <path class="cls-9" d="m1169.38,369.31s.22-15.18,8.97-17.77,15.66,3.82,18.29,18.37c2.63,14.54-7.6,18.34-13.25,18.32-5.88-.02-13.35-3.27-14.02-18.91Z"/>
    </g>
    <g>
      <path class="cls-23" d="m1100.38,208.29l2.21,21.22c.26,2.47-2,4.46-4.42,3.9l-21.91-5.12c-4.06,2.12-8.38,3.91-12.92,5.3-38.52,11.84-80.01-9.11-93.36-47.13-14.19-40.41,7.99-84.47,48.9-97.15,38.61-11.97,80.26,9.06,93.58,47.23,8.86,25.39,3.37,52.2-12.08,71.75Z"/>
      <path class="cls-5" d="m1032.1,110.1s53.35-7.34,54.04,41.54"/>
    </g>
    <g class="cls-14">
      <circle class="cls-6" cx="1041.2" cy="161.43" r="32.18"/>
      <g>
        <path class="cls-6" d="m1045.57,192.42c12.99-22.22,12.57-45.08.08-61.98"/>
        <path class="cls-6" d="m1036.74,192.42c-12.99-22.22-12.57-45.08-.08-61.98"/>
      </g>
      <path class="cls-6" d="m1072.9,161.56c-3.08.03-60.95-.38-63.48-.22"/>
      <path class="cls-6" d="m1020.99,137.35c3.62,6.97,10.91,11.74,19.31,11.74,8.86,0,16.47-5.29,19.86-12.89"/>
      <path class="cls-6" d="m1020.99,185.51c3.62-6.97,10.91-11.74,19.31-11.74,8.86,0,16.47,5.29,19.86,12.89"/>
    </g>
    <g>
      <path class="cls-8" d="m581.21,443.24s.19,6.45-5.78,14.32-12.8,15.97-14.7,21.4"/>
      <path class="cls-10" d="m560.44,483.1s25.51-26.63,36.93-29.07c1.11,2.44,4.1,10.04-2.14,18.45-6.24,8.41-34.16,31.49-36.61,40.97"/>
      <path class="cls-10" d="m553.13,716.22c0-10.68,4.57-56.64,3.58-65.8-1.09-10.04-24.68-77.85-24.96-94.94s-1.9-24.68,0-37.43c1.9-12.75,8.95-47.2,10.85-56.96s6.24-33.91,7.32-39.6c1.09-5.7,3.26-17.9,10.04-15.46,6.78,2.44,5.43,25.23,3.26,39.6-2.17,14.38-4.88,61.3-4.61,72.43s14.38,51.81,28.21,55.07c13.83,3.26,23.06-7.05,29.3-15.73,6.24-8.68,16.28-23.33,24.14-28.48,7.87-5.15,20.89-7.32,23.33-3.8,2.44,3.53-10.31,21.97-15.73,28.48-5.43,6.51-9.77,21.7-11.12,31.47s-11.39,52.08-20.62,55.61c-1.63,10.85-.27,29.3,2.17,39.6,2.06,8.68,5.78,28.96,8.14,36.82"/>
      <path class="cls-10" d="m587.71,480.61s10.45-3.51,9.67,3.13-14.01,15.53-21.94,23.46-12.88,10.57-14.31,23.46"/>
      <path class="cls-10" d="m655.85,542.66s-9.62,2.51-7.99-3.64,7.24-13.89,11.22-15.62"/>
    </g>
  </g>
</svg>