<?xml version="1.0" encoding="UTF-8"?>
<svg id="Layer_2" data-name="Layer 2" xmlns="http://www.w3.org/2000/svg" viewBox="0 0 294.89 504.67">
  <defs>
    <style>
      .cls-1 {
        fill: #9fedd7;
      }

      .cls-2 {
        stroke: #fff;
      }

      .cls-2, .cls-3, .cls-4, .cls-5, .cls-6 {
        fill: none;
        stroke-linejoin: round;
        stroke-width: 6px;
      }

      .cls-2, .cls-4, .cls-5, .cls-6 {
        stroke-linecap: round;
      }

      .cls-3, .cls-5 {
        stroke: #02a5d9;
      }

      .cls-4 {
        stroke: #01b1b0;
      }

      .cls-7 {
        fill: #b3e5ff;
        opacity: .5;
      }

      .cls-8 {
        fill: #02a5d9;
        opacity: .2;
      }

      .cls-6 {
        opacity: .9;
        stroke: #012b2d;
      }
    </style>
  </defs>
  <g id="Layer_1-2" data-name="Layer 1">
    <path class="cls-8" d="m103.99,492.28c-8.77-7.23-21.44-31.68-20.68-47.41.76-15.73,7.57-11.38,12.3-26.09s10.03-46.81,14.86-57.26c4.83-10.45,18.74-22.02,22.21-41.22-15.92.25-22.72-1.11-35.1,15.58-12.37,16.7-17.18,31.09-29.42,31.76-12.25.67-22.48-.14-33.67-29.27-11.19-29.14,10.03-35.97,10.03-35.97,0,0,13.57-9.12,17.76-16.29,4.19-7.17,5.7-10.69.81-11.95-4.88-1.27,3.55-9.14,4.25-12.23s1-13.26-.87-12.7-27.57,15.93-29.43,19.68,2.13-9.11,5.21-13.18c3.07-4.07,5.69-18.13,5.69-18.13h-15.17s2.19-31.08-2.55-34.88c-4.74-3.8-9.06,2.6-10.79,11.85-1.73,9.25-15.45,80.97-15.45,80.97,0,0-6.13,29.98-3.16,53.31,2.96,23.32,15.63,63.34,15.63,63.34l9.36,33.44c2.67.7,2.51,35.36,1.1,46.65,13.39,13.86,61.26,18.99,77.09,0Z"/>
    <path class="cls-7" d="m115.51,492.28s-12.96-51.68-12.2-67.41c.76-15.73,7.57-11.38,12.3-26.09s10.03-46.81,14.86-57.26c4.83-10.45,18.74-22.02,22.21-41.22-15.92.25-22.72-1.11-35.1,15.58-12.37,16.7-17.18,31.09-29.42,31.76-12.25.67-22.48-.14-33.67-29.27-11.19-29.14,10.03-35.97,10.03-35.97,0,0,13.57-9.12,17.76-16.29,4.19-7.17,5.7-10.69.81-11.95-4.88-1.27,3.55-9.14,4.25-12.23s1-13.26-.87-12.7-27.57,15.93-29.43,19.68,2.13-9.11,5.21-13.18c3.07-4.07,5.69-18.13,5.69-18.13h-15.17s2.19-31.08-2.55-34.88c-4.74-3.8-9.06,2.6-10.79,11.85-1.73,9.25-15.45,80.97-15.45,80.97,0,0-6.13,29.98-3.16,53.31,2.96,23.32,15.63,63.34,15.63,63.34l9.36,33.44s-2.15,56.36-3.95,66.65c47.84,24.01,73.66,0,73.66,0Z"/>
    <g>
      <path class="cls-1" d="m183.85,268.09c2.74,7.32,13.17,7.06,15.56-.38,4.66-14.56,10.66-31.9,15.04-39.64,3.9-6.89,12.56-9.62,20.48-9.62h33.36c14.69,0,26.6-11.91,26.6-26.6V26.6C294.89,11.84,282.87-.1,268.11,0L31.47,1.56c-14.62.1-26.43,11.98-26.43,26.6v163.68c0,14.69,11.91,26.6,26.6,26.6h113.33c7.07,0,13.84,2.81,18.83,7.81,5.9,5.92,14.01,25.66,20.05,41.84Z"/>
      <path class="cls-4" d="m28.95,122.09v44.41s-4.2,28.1,21.22,28.1h43.46"/>
      <line class="cls-4" x1="28.69" y1="102.92" x2="28.69" y2="67.86"/>
      <path class="cls-4" d="m270.23,67.86v-17.74s4.2-28.1-21.22-28.1h-43.46"/>
    </g>
    <g>
      <rect class="cls-2" x="60.36" y="50.34" width="179.22" height="117.68" rx="7.56" ry="7.56"/>
      <line class="cls-6" x1="179.17" y1="151.49" x2="120.76" y2="151.49"/>
      <line class="cls-6" x1="213.47" y1="142.23" x2="86.46" y2="142.23"/>
      <g>
        <path class="cls-2" d="m137.75,78.68c1.51-6.78,6.99-11.81,13.51-11.81,7.69,0,13.93,6.98,13.93,15.6s-6.23,15.6-13.93,15.6c-5.87,0-10.9-4.07-12.94-9.83"/>
        <path class="cls-2" d="m162.44,99.39c.72.3,6.08,1.82,7.52,3.94,1.64,2.43.69,19.65.72,23.33h-38.51c.03-3.68-.93-20.9.72-23.33,1.43-2.12,6.8-3.64,7.52-3.94"/>
      </g>
    </g>
    <g>
      <path class="cls-3" d="m70.3,218.45s.19,6.45-5.78,14.32-12.8,15.97-14.7,21.4"/>
      <path class="cls-5" d="m49.53,258.31s25.51-26.63,36.93-29.07c1.11,2.44,4.1,10.04-2.14,18.45-6.24,8.41-34.16,31.49-36.61,40.97"/>
      <path class="cls-5" d="m42.22,491.43c0-10.68,4.57-56.64,3.58-65.8-1.09-10.04-24.68-77.85-24.96-94.94s-1.9-24.68,0-37.43c1.9-12.75,8.95-47.2,10.85-56.96s6.24-33.91,7.32-39.6c1.09-5.7,3.26-17.9,10.04-15.46,6.78,2.44,5.43,25.23,3.26,39.6-2.17,14.38-4.88,61.3-4.61,72.43s14.38,51.81,28.21,55.07c13.83,3.26,23.06-7.05,29.3-15.73,6.24-8.68,16.28-23.33,24.14-28.48,7.87-5.15,20.89-7.32,23.33-3.8,2.44,3.53-10.31,21.97-15.73,28.48-5.43,6.51-9.77,21.7-11.12,31.47s-11.39,52.08-20.62,55.61c-1.63,10.85-.27,29.3,2.17,39.6,2.06,8.68,5.78,28.96,8.14,36.82"/>
      <path class="cls-5" d="m76.79,255.82s10.45-3.51,9.67,3.13-14.01,15.53-21.94,23.46-12.88,10.57-14.31,23.46"/>
      <path class="cls-5" d="m144.93,317.87s-9.62,2.51-7.99-3.64,7.24-13.89,11.22-15.62"/>
    </g>
  </g>
</svg>