<?xml version="1.0" encoding="UTF-8"?>
<svg id="Layer_2" data-name="Layer 2" xmlns="http://www.w3.org/2000/svg" viewBox="0 0 283.72 359.35">
  <defs>
    <style>
      .cls-1 {
        stroke: #fce181;
      }

      .cls-1, .cls-2, .cls-3 {
        fill: none;
        stroke-linecap: round;
        stroke-linejoin: round;
        stroke-width: 6px;
      }

      .cls-4 {
        opacity: .9;
      }

      .cls-2 {
        stroke: #fff;
      }

      .cls-3 {
        stroke: #012b2d;
      }

      .cls-5 {
        fill: #ffc425;
      }
    </style>
  </defs>
  <g id="Layer_1-2" data-name="Layer 1">
    <g>
      <path class="cls-5" d="m159.03,1.92l-24.22,29.2c-1.01,1.21-2.5,1.92-4.08,1.92H5.3C2.37,33.04,0,35.41,0,38.34v313.89c0,2.91,2.35,5.28,5.27,5.3l273.12,1.81c2.94.02,5.34-2.36,5.34-5.3V38.34c0-2.93-2.37-5.3-5.3-5.3h-77.98c-1.41,0-2.75-.56-3.75-1.55-5.17-5.18-21.97-22.01-29.82-29.92-2.2-2.22-5.84-2.06-7.84.35Z"/>
      <polyline class="cls-1" points="195.59 333.91 264.51 333.91 264.51 275.03"/>
    </g>
    <g class="cls-4">
      <path class="cls-3" d="m234.68,242.47h-56.68c-1.44,0-2.61-.95-2.61-2.12v-38.26c0-1.46,1.17-2.64,2.61-2.64h56.68c1.44,0,2.61,1.18,2.61,2.64v38.26c0,1.17-1.17,2.12-2.61,2.12Z"/>
      <path class="cls-3" d="m234.68,301.98h-56.68c-1.44,0-2.61-1.18-2.61-2.64v-38.26c0-1.17,1.17-2.12,2.61-2.12h56.68c1.44,0,2.61.95,2.61,2.12v38.26c0,1.46-1.17,2.64-2.61,2.64Z"/>
      <path class="cls-3" d="m161,301.98h-56.68c-1.44,0-2.61-2.93-2.61-6.54v-88.79c0-3.61,1.17-6.54,2.61-6.54h56.68c1.44,0,2.61,2.93,2.61,6.54v88.79c0,3.61-1.17,6.54-2.61,6.54Z"/>
    </g>
    <g>
      <path class="cls-2" d="m51.55,141.02h79.18c2.01,0,3.65.95,3.65,2.12v38.26c0,1.46-1.63,2.64-3.65,2.64H51.55c-2.01,0-3.65-1.18-3.65-2.64v-38.26c0-1.17,1.63-2.12,3.65-2.12Z"/>
      <path class="cls-2" d="m51.55,81.51h79.18c2.01,0,3.65,1.18,3.65,2.64v38.26c0,1.17-1.63,2.12-3.65,2.12H51.55c-2.01,0-3.65-.95-3.65-2.12v-38.26c0-1.46,1.63-2.64,3.65-2.64Z"/>
      <path class="cls-2" d="m154.47,81.51h79.18c2.01,0,3.65,2.93,3.65,6.54v88.79c0,3.61-1.63,6.54-3.65,6.54h-79.18c-2.01,0-3.65-2.93-3.65-6.54v-88.79c0-3.61,1.63-6.54,3.65-6.54Z"/>
    </g>
  </g>
</svg>