<?xml version="1.0" encoding="UTF-8"?>
<svg id="Layer_2" data-name="Layer 2" xmlns="http://www.w3.org/2000/svg" viewBox="0 0 339.99 329.61">
  <defs>
    <style>
      .cls-1, .cls-2 {
        opacity: .9;
      }

      .cls-3 {
        stroke: #ffc425;
      }

      .cls-3, .cls-4, .cls-2 {
        fill: none;
        stroke-linecap: round;
        stroke-linejoin: round;
        stroke-width: 6px;
      }

      .cls-4, .cls-2 {
        stroke: #012b2d;
      }

      .cls-5 {
        fill: #fce181;
      }
    </style>
  </defs>
  <g id="Layer_1-2" data-name="Layer 1">
    <g>
      <path class="cls-5" d="m150.02,327.01l29.09-35.07c.79-.95,1.96-1.5,3.19-1.5h153.54c2.29,0,4.15-1.86,4.15-4.15V4.15c0-2.29-1.86-4.15-4.15-4.15H4.15C1.86,0,0,1.86,0,4.15v282.14c0,2.29,1.86,4.15,4.15,4.15h96.56c1.1,0,2.15.43,2.93,1.21,5.18,5.19,25.68,25.73,35.72,35.84,3,3.02,7.94,2.8,10.65-.48Z"/>
      <polyline class="cls-3" points="93.7 22.8 24.79 22.8 24.79 81.67"/>
    </g>
    <g>
      <path class="cls-2" d="m104.57,164.57c-4.1,0-7.2-3.72-6.49-7.76.34-1.95.83-3.71,1.46-5.27,1.38-3.42,4.16-7.24,8.3-11.51,4.14-4.25,6.62-7.04,7.42-8.37,1.26-2.07,1.88-4.38,1.88-6.89,0-3.49-1.1-6.48-3.31-8.99-2.21-2.49-5.17-3.73-8.92-3.73s-6.62,1.31-9.06,3.9c-.71.77-1.5,2.19-2.21,3.65-1.36,2.83-4.53,4.3-7.57,3.52l-1.17-.3c-3.96-1.01-6.06-5.34-4.39-9.07,1.08-2.41,2.67-5.07,5-7.4,4.78-5.32,11.02-7.98,18.78-7.98,8.14,0,14.63,2.7,19.46,8.09,4.81,5.39,7.23,11.65,7.23,18.82,0,3.95-.9,7.7-2.66,11.23-1.78,3.53-5.55,8.35-11.35,14.44-2.3,2.42-4.91,4.02-6,8.55-.71,2.96-3.36,5.06-6.41,5.06h0Z"/>
      <circle class="cls-2" cx="104.66" cy="183.55" r="9.32"/>
    </g>
    <g class="cls-1">
      <path class="cls-4" d="m242.8,195.24h-85.96c-.69,0-1.25-1.44-1.25-3.21v-5.09c0-1.77.56-3.21,1.25-3.21h85.96c.69,0,1.25,1.44,1.25,3.21v5.09c0,1.77-.56,3.21-1.25,3.21Z"/>
      <path class="cls-4" d="m242.8,165.35h-85.96c-.69,0-1.25-1.44-1.25-3.21v-5.09c0-1.77.56-3.21,1.25-3.21h85.96c.69,0,1.25,1.44,1.25,3.21v5.09c0,1.77-.56,3.21-1.25,3.21Z"/>
      <path class="cls-4" d="m242.8,135.46h-85.96c-.69,0-1.25-1.44-1.25-3.21v-5.09c0-1.77.56-3.21,1.25-3.21h85.96c.69,0,1.25,1.44,1.25,3.21v5.09c0,1.77-.56,3.21-1.25,3.21Z"/>
      <path class="cls-4" d="m242.8,105.57h-85.96c-.69,0-1.25-1.44-1.25-3.21v-5.09c0-1.77.56-3.21,1.25-3.21h85.96c.69,0,1.25,1.44,1.25,3.21v5.09c0,1.77-.56,3.21-1.25,3.21Z"/>
    </g>
  </g>
</svg>