<?xml version="1.0" encoding="UTF-8"?>
<svg id="Layer_2" data-name="Layer 2" xmlns="http://www.w3.org/2000/svg" viewBox="0 0 283.72 377.81">
  <defs>
    <style>
      .cls-1 {
        opacity: .9;
      }

      .cls-2 {
        fill: #b3e5ff;
      }

      .cls-3 {
        stroke: #012b2d;
      }

      .cls-3, .cls-4 {
        fill: none;
        stroke-linecap: round;
        stroke-linejoin: round;
        stroke-width: 6px;
      }

      .cls-4 {
        stroke: #02a5d9;
      }
    </style>
  </defs>
  <g id="Layer_1-2" data-name="Layer 1">
    <g>
      <path class="cls-2" d="m115.74,2.89c.92-3.83,6.36-3.86,7.33-.05,2.68,10.51,6.32,23.42,9.32,29.06,8.43,15.88,28.52,21.85,46.5,21.85h44.42c33.37,0,60.41,27.05,60.41,60.41v203.23c0,33.52-27.29,60.63-60.81,60.41l-162.89-1.08C26.81,376.51,0,349.53,0,316.32V114.17C0,80.8,27.05,53.75,60.41,53.75h0c16.06,0,31.45-6.39,42.79-17.76,5.07-5.09,9.58-20.84,12.53-33.1Z"/>
      <path class="cls-4" d="m203.43,78.15s53.35-7.34,54.04,41.54"/>
    </g>
    <g class="cls-1">
      <path class="cls-3" d="m227.95,302.85H55.77c-1.38,0-2.5-1.44-2.5-3.21v-5.09c0-1.77,1.12-3.21,2.5-3.21h172.17c1.38,0,2.5,1.44,2.5,3.21v5.09c0,1.77-1.12,3.21-2.5,3.21Z"/>
      <path class="cls-3" d="m227.95,272.95H55.77c-1.38,0-2.5-1.44-2.5-3.21v-5.09c0-1.77,1.12-3.21,2.5-3.21h172.17c1.38,0,2.5,1.44,2.5,3.21v5.09c0,1.77-1.12,3.21-2.5,3.21Z"/>
      <path class="cls-3" d="m227.95,243.06H55.77c-1.38,0-2.5-1.44-2.5-3.21v-5.09c0-1.77,1.12-3.21,2.5-3.21h172.17c1.38,0,2.5,1.44,2.5,3.21v5.09c0,1.77-1.12,3.21-2.5,3.21Z"/>
      <path class="cls-3" d="m227.95,182.95H55.77c-1.38,0-2.5-8.03-2.5-17.93v-28.46c0-9.9,1.12-17.93,2.5-17.93h172.17c1.38,0,2.5,8.03,2.5,17.93v28.46c0,9.9-1.12,17.93-2.5,17.93Z"/>
      <path class="cls-3" d="m227.95,213.17H55.77c-1.38,0-2.5-1.44-2.5-3.21v-5.09c0-1.77,1.12-3.21,2.5-3.21h172.17c1.38,0,2.5,1.44,2.5,3.21v5.09c0,1.77-1.12,3.21-2.5,3.21Z"/>
    </g>
  </g>
</svg>