<?xml version="1.0" encoding="UTF-8"?>
<svg id="Layer_2" data-name="Layer 2" xmlns="http://www.w3.org/2000/svg" viewBox="0 0 151.01 150.94">
  <defs>
    <style>
      .cls-1 {
        opacity: .9;
      }

      .cls-2 {
        stroke: #ffc425;
      }

      .cls-2, .cls-3 {
        fill: none;
        stroke-linecap: round;
        stroke-linejoin: round;
        stroke-width: 6px;
      }

      .cls-3 {
        stroke: #012b2d;
      }

      .cls-4 {
        fill: #fce181;
      }
    </style>
  </defs>
  <g id="Layer_1-2" data-name="Layer 1">
    <g>
      <path class="cls-4" d="m134.69,122.33l2.21,21.22c.26,2.47-2,4.46-4.42,3.9l-21.91-5.12c-4.06,2.12-8.38,3.91-12.92,5.3-38.52,11.84-80.01-9.11-93.36-47.13C-9.89,60.09,12.28,16.04,53.19,3.36c38.61-11.97,80.26,9.06,93.58,47.23,8.86,25.39,3.37,52.2-12.08,71.75Z"/>
      <path class="cls-2" d="m66.41,24.14s53.35-7.34,54.04,41.54"/>
    </g>
    <g class="cls-1">
      <circle class="cls-3" cx="75.5" cy="75.47" r="32.18"/>
      <g>
        <path class="cls-3" d="m79.88,106.46c12.99-22.22,12.57-45.08.08-61.98"/>
        <path class="cls-3" d="m71.05,106.46c-12.99-22.22-12.57-45.08-.08-61.98"/>
      </g>
      <path class="cls-3" d="m107.21,75.6c-3.08.03-60.95-.38-63.48-.22"/>
      <path class="cls-3" d="m55.3,51.39c3.62,6.97,10.91,11.74,19.31,11.74,8.86,0,16.47-5.29,19.86-12.89"/>
      <path class="cls-3" d="m55.3,99.55c3.62-6.97,10.91-11.74,19.31-11.74,8.86,0,16.47,5.29,19.86,12.89"/>
    </g>
  </g>
</svg>