<?xml version="1.0" encoding="UTF-8"?>
<svg id="Layer_2" data-name="Layer 2" xmlns="http://www.w3.org/2000/svg" viewBox="0 0 308.68 144.49">
  <defs>
    <style>
      .cls-1 {
        fill: #fff;
      }
    </style>
  </defs>
  <g id="Layer_1-2" data-name="Layer 1">
    <g>
      <g>
        <path class="cls-1" d="m80.43,84.18c-2.43,1.77-5.43,2.81-8.66,2.81s-6.23-1.04-8.66-2.81l-25.67,25.67c-2.67,2.67-2.67,6.99,0,9.66,1.33,1.33,3.08,2,4.83,2s3.5-.67,4.83-2l17.84-17.84v35.98c0,3.77,3.06,6.83,6.83,6.83s6.83-3.06,6.83-6.83v-35.98l17.84,17.84c1.33,1.33,3.08,2,4.83,2s3.5-.67,4.83-2c2.67-2.67,2.67-6.99,0-9.66l-25.67-25.67Z"/>
        <path class="cls-1" d="m60.31,63.58l-25.67-25.67c-2.67-2.67-6.99-2.67-9.66,0-2.67,2.67-2.67,6.99,0,9.66l17.84,17.84H6.83c-3.77,0-6.83,3.06-6.83,6.83s3.06,6.83,6.83,6.83h35.98l-17.84,17.84c-2.67,2.67-2.67,6.99,0,9.66,1.33,1.33,3.08,2,4.83,2s3.5-.67,4.83-2l25.67-25.67c-1.77-2.43-2.81-5.43-2.81-8.66s1.04-6.23,2.81-8.66Z"/>
        <path class="cls-1" d="m80.91,60.31l25.67-25.67c2.67-2.67,2.67-6.99,0-9.66-2.67-2.67-6.99-2.67-9.66,0l-17.84,17.84V6.83c0-3.77-3.06-6.83-6.83-6.83s-6.83,3.06-6.83,6.83v35.98l-17.84-17.84c-2.67-2.67-6.99-2.67-9.66,0-2.67,2.67-2.67,6.99,0,9.66l25.67,25.67c2.43-1.77,5.43-2.81,8.66-2.81s6.23,1.04,8.66,2.81Z"/>
        <circle class="cls-1" cx="97.07" cy="72.25" r="10.37"/>
        <circle class="cls-1" cx="118.19" cy="72.25" r="7.64"/>
        <circle class="cls-1" cx="133.55" cy="72.25" r="4.95"/>
      </g>
      <g>
        <path d="m163.86,41.22h-.83v-17.73h1.66v16.07h7.2v1.66h-8.03,0Z"/>
        <path d="m179.71,38.72l-.66,2.49h-1.72l2.36-8.87,2.35-8.87h1.66l2.36,8.87,2.36,8.87h-1.65l-.66-2.49-.66-2.49h-5.06l-.66,2.49Zm2.14-8.02l-1.03,3.87h4.18l-1.03-3.87-1.02-3.87-.02.06-.02.06-.02-.06-.02-.06-1.03,3.87Z"/>
        <path d="m195.61,34.09v7.13h-1.66v-17.73h1.66l3.88,7.12,3.88,7.13v-14.25h1.66v17.73h-1.66l-3.88-7.13-3.88-7.13v7.13Z"/>
        <path d="m210.57,34.57v-4.43h0c0-3.67,2.98-6.65,6.65-6.65,1.4,0,3.39.76,4.43,1.69l-.55.62-.55.62c-.78-.7-2.28-1.28-3.33-1.28-2.75,0-4.98,2.23-4.98,4.98v4.45c0,2.75,2.23,4.99,4.98,4.99,2.75,0,4.99-2.23,4.99-4.98h0s-3.88-.01-3.88-.01v-1.66h5.54v1.66c0,3.67-2.98,6.65-6.65,6.65s-6.65-2.98-6.65-6.65h0Z"/>
        <path d="m229.41,35.67v-12.19h1.66v12.2c-.03,2.14,1.68,3.91,3.82,3.94,2.14.03,3.91-1.68,3.94-3.82,0-.04,0-.08,0-.12v-12.2h1.66v12.19c.04,3.06-2.41,5.57-5.47,5.61-3.06.04-5.57-2.41-5.61-5.47,0-.05,0-.1,0-.14Z"/>
        <path d="m248.42,38.72l-.66,2.49h-1.72l2.36-8.87,2.36-8.87h1.66l2.36,8.87,2.36,8.87h-1.65l-.66-2.49-.66-2.49h-5.06l-.66,2.49Zm2.13-8.02l-1.03,3.87h4.18l-1.03-3.87-1.03-3.87-.02.06-.02.06-.02-.06-.02-.06-1.03,3.87Z"/>
        <path d="m261.77,34.57v-4.43h0c0-3.67,2.98-6.65,6.65-6.65,1.4,0,3.39.76,4.43,1.69l-.55.62-.55.62c-.78-.7-2.28-1.28-3.33-1.28-2.75,0-4.98,2.23-4.98,4.98v4.45c0,2.75,2.23,4.99,4.98,4.99,2.75,0,4.99-2.23,4.99-4.98h0s-3.88-.01-3.88-.01v-1.66h5.54v1.66c0,3.67-2.98,6.65-6.65,6.65s-6.65-2.98-6.65-6.65h0Z"/>
        <path d="m282,41.22h-1.39v-17.73h11.08v1.66h-9.42v4.99h4.99v1.66h-4.99v7.76h9.42v1.66h-9.7Z"/>
        <path d="m163.03,62.27h1.66c0,2.15,1.74,3.89,3.88,3.89s3.88-1.74,3.89-3.88-1.74-3.88-3.88-3.89h0c-2.3,0-4.16-1.86-4.16-4.16s1.86-4.16,4.16-4.16,4.16,1.86,4.16,4.16h0s-1.66,0-1.66,0h0c0-1.38-1.12-2.5-2.5-2.5-1.38,0-2.5,1.12-2.5,2.5,0,1.38,1.12,2.5,2.5,2.5h0c3.06,0,5.54,2.48,5.54,5.54,0,3.06-2.48,5.54-5.54,5.54-3.06,0-5.54-2.48-5.54-5.54h0s0,0,0,0Z"/>
        <path d="m181.04,67.81h-1.38v-17.73h11.08v1.66h-9.42v4.99h4.99v1.66h-4.99v7.76h9.42v1.66h-9.7Z"/>
        <path d="m207.36,56.18c0,2.06-1.48,4.49-3.31,5.43.7.46,1.6,1.43,2,2.16.42.76.76,2.07.76,2.93v1.12h-1.66v-1.12c0-2.44-1.98-4.42-4.42-4.42h-2.78v5.54h-1.66v-17.73h4.99c3.37,0,6.09,2.73,6.09,6.1Zm-1.66,0c0-2.45-1.98-4.43-4.43-4.43h-3.33v8.87h3.34c1.01,0,2.41-.58,3.12-1.3s1.3-2.12,1.3-3.14h0Z"/>
        <path d="m217.89,67.81h-.83l-2.36-8.87-2.36-8.87h1.72l.22.83.22.83,1.69,6.36,1.69,6.36,1.69-6.36,1.69-6.36.22-.83.22-.83h1.72l-2.35,8.87-2.36,8.87h-.83Z"/>
        <path d="m230.63,58.95v8.87h-1.66v-17.73h1.66v8.87Z"/>
        <path d="m236.17,61.16v-4.44h0c0-3.67,2.98-6.64,6.65-6.64,1.4,0,3.39.76,4.43,1.69l-.55.62-.55.62c-.78-.7-2.28-1.28-3.33-1.28-2.75,0-4.98,2.23-4.98,4.98v4.45c0,2.75,2.23,4.98,4.98,4.98,1.05,0,2.54-.57,3.33-1.28l.55.62.55.62c-1.04.94-3.02,1.69-4.42,1.69h0c-3.67,0-6.65-2.97-6.65-6.65Z"/>
        <path d="m254.16,67.81h-1.39v-17.73h11.08v1.66h-9.42v4.99h4.99v1.66h-4.99v7.76h9.42v1.66h-9.7Z"/>
        <path d="m163.03,88.87h1.66c0,2.14,1.74,3.88,3.88,3.88s3.88-1.74,3.88-3.88-1.74-3.88-3.88-3.88h0c-2.3,0-4.16-1.86-4.16-4.16s1.86-4.16,4.16-4.16,4.16,1.86,4.16,4.16h0s-1.66,0-1.66,0h0c0-1.38-1.12-2.5-2.5-2.5s-2.5,1.12-2.5,2.5c0,1.38,1.12,2.5,2.5,2.5h0c3.06,0,5.54,2.48,5.54,5.54,0,3.06-2.48,5.54-5.54,5.54-3.06,0-5.54-2.48-5.54-5.54h0Z"/>
        <path d="m192.84,83.33v4.43c0,3.67-2.98,6.65-6.65,6.65s-6.65-2.98-6.65-6.65v-4.43c0-3.67,2.98-6.65,6.65-6.65s6.65,2.98,6.65,6.65Zm-1.66,0h0c0-2.76-2.24-4.99-4.99-4.99-2.75,0-4.98,2.23-4.98,4.98v4.45c0,2.75,2.24,4.99,4.99,4.98,2.75,0,4.98-2.23,4.98-4.98v-4.44Z"/>
        <path d="m199.21,94.41h-.83v-17.73h1.66v16.07h7.2v1.66h-8.03Z"/>
        <path d="m212.79,88.87v-12.19h1.66v12.2c.03,2.14,1.8,3.85,3.94,3.82,2.1-.03,3.79-1.72,3.82-3.82v-12.2h1.66v12.19c0,3.06-2.49,5.54-5.55,5.53-3.05,0-5.53-2.48-5.53-5.53Z"/>
        <path d="m234.12,86.38v-8.03h-4.71v-1.67h11.08v1.67h-4.71v16.07h-1.66v-8.04Z"/>
        <path d="m247.7,85.54v8.87h-1.66v-17.73h1.66v8.86Z"/>
        <path d="m266.54,83.33v4.43c0,3.67-2.98,6.65-6.65,6.65s-6.65-2.98-6.65-6.65v-4.43c0-3.67,2.98-6.65,6.65-6.65s6.65,2.98,6.65,6.65Zm-1.66,0h0c0-2.76-2.23-5-4.98-5-2.75,0-4.99,2.23-4.99,4.98h0v4.45c0,2.75,2.23,4.99,4.98,4.99,2.75,0,4.99-2.23,4.99-4.98h0v-4.45Z"/>
        <path d="m273.74,87.28v7.13h-1.66v-17.73h1.66l3.88,7.13,3.88,7.13v-14.25h1.66v17.73h-1.66l-3.88-7.13-3.88-7.13v7.13Z"/>
        <path d="m288.7,88.87h1.66c0,2.14,1.74,3.88,3.88,3.88s3.88-1.74,3.88-3.88-1.74-3.88-3.88-3.88h0c-2.3,0-4.16-1.86-4.16-4.16s1.86-4.16,4.16-4.16c2.3,0,4.16,1.86,4.16,4.16h0s-1.66,0-1.66,0h0c0-1.38-1.12-2.5-2.5-2.5s-2.5,1.12-2.5,2.5,1.12,2.5,2.5,2.5h0c3.06,0,5.54,2.48,5.54,5.54,0,3.06-2.48,5.54-5.54,5.54-3.06,0-5.54-2.48-5.54-5.54h0Z"/>
        <path d="m306.38,95.73c.35-.71.64-1.57.64-2.43v-1.66h1.66v1.66c0,1.22-.39,2.35-.86,3.26-.35.69-.79,1.33-1.32,1.89l-.59-.59-.59-.59c.43-.46.78-.98,1.06-1.55Z"/>
        <path d="m163.86,121.01h-.83v-17.73h1.66v16.07h7.2v1.66h-8.03,0Z"/>
        <path d="m178.27,121.01h-.83v-17.73h1.66v16.07h7.2v1.66h-8.03Z"/>
        <path d="m191.4,114.36v-4.44h0c0-3.67,2.98-6.64,6.65-6.64,1.4,0,3.39.76,4.43,1.69l-.55.62-.55.62c-.78-.7-2.28-1.28-3.33-1.28-2.75,0-4.98,2.23-4.98,4.98v4.45c0,2.75,2.23,4.98,4.98,4.98,1.05,0,2.54-.57,3.33-1.28l.55.62.55.62c-1.04.93-3.02,1.69-4.42,1.69h0c-3.67,0-6.65-2.98-6.65-6.65Z"/>
        <path d="m209.66,120.18v.83h-1.66v-1.67h1.66v.83Z"/>
      </g>
    </g>
  </g>
</svg>