<?xml version="1.0" encoding="UTF-8"?>
<svg id="Layer_2" data-name="Layer 2" xmlns="http://www.w3.org/2000/svg" viewBox="0 0 211.77 208.74">
  <defs>
    <style>
      .cls-1 {
        stroke: #012b2d;
      }

      .cls-1, .cls-2, .cls-3 {
        fill: none;
        stroke-linecap: round;
        stroke-linejoin: round;
        stroke-width: 3px;
      }

      .cls-4 {
        opacity: .2;
      }

      .cls-2 {
        stroke: #ffc425;
      }

      .cls-5 {
        fill: #01b1b0;
      }

      .cls-3 {
        stroke: #fff;
      }
    </style>
  </defs>
  <g id="Layer_1-2" data-name="Layer 1">
    <g>
      <circle class="cls-5" cx="100.24" cy="100.24" r="100.24"/>
      <path class="cls-3" d="m39.91,94.56c-.3.07-.61.11-.93.11-2.56,0-4.63-2.36-4.63-5.27s2.07-5.27,4.63-5.27c2.4,0,4.37,2.07,4.6,4.73"/>
      <ellipse class="cls-3" cx="93.72" cy="89.4" rx="4.63" ry="5.27"/>
      <circle class="cls-3" cx="64.51" cy="98.69" r="1.93"/>
      <path class="cls-2" d="m47.95,88.54c2.06-9.72,9.54-16.93,18.46-16.93,10.5,0,19.02,10.01,19.02,22.35s-8.52,22.35-19.02,22.35c-8.02,0-14.88-5.83-17.68-14.09"/>
      <g class="cls-4">
        <line class="cls-1" x1="204.05" y1="118.21" x2="190.69" y2="159.42"/>
        <line class="cls-1" x1="210.27" y1="98.99" x2="206.87" y2="109.49"/>
        <line class="cls-1" x1="205.14" y1="66.27" x2="166.84" y2="184.5"/>
        <line class="cls-1" x1="205.73" y1="64.46" x2="205.14" y2="66.27"/>
        <line class="cls-1" x1="185.37" y1="78.76" x2="147.2" y2="196.57"/>
        <line class="cls-1" x1="196.77" y1="43.55" x2="187.9" y2="70.93"/>
        <line class="cls-1" x1="137.15" y1="179.03" x2="129.33" y2="203.18"/>
        <line class="cls-1" x1="148.92" y1="142.71" x2="140.02" y2="170.18"/>
        <line class="cls-1" x1="186.21" y1="27.6" x2="175.31" y2="61.25"/>
        <line class="cls-1" x1="127.31" y1="160.85" x2="112.64" y2="206.12"/>
        <line class="cls-1" x1="174.54" y1="15.07" x2="168.44" y2="33.89"/>
        <line class="cls-1" x1="108.56" y1="170.18" x2="96.55" y2="207.24"/>
        <line class="cls-1" x1="161.19" y1="7.74" x2="158.81" y2="15.07"/>
        <line class="cls-1" x1="91.25" y1="175.04" x2="81.3" y2="205.75"/>
        <line class="cls-1" x1="74.95" y1="176.8" x2="66.7" y2="202.26"/>
        <line class="cls-1" x1="59.44" y1="176.11" x2="52.73" y2="196.85"/>
        <line class="cls-1" x1="44.64" y1="173.25" x2="39.19" y2="190.09"/>
        <line class="cls-1" x1="30.64" y1="167.93" x2="26.74" y2="179.95"/>
        <line class="cls-1" x1="17.06" y1="161.28" x2="14.91" y2="167.93"/>
      </g>
      <path class="cls-1" d="m38.98,80.67c0-20.51,10.77-22.62,16.58-22.62h21.46c9.28,0,15.08,2.9,15.66,22.62"/>
      <path class="cls-1" d="m59.19,99.8c-4.64,1.16-8.7.58-19.31-9.72"/>
      <path class="cls-2" d="m81.67,118.23c.98.43,8.31,2.61,10.27,5.65,2.24,3.49.94,28.16.98,33.44h-52.6c.04-5.28-1.27-29.95.98-33.44,1.96-3.04,9.29-5.21,10.27-5.65"/>
      <g>
        <path class="cls-1" d="m111.25,80.74l-9.24-2.02,5.15-8.42c-.24-1.44-.36-2.91-.36-4.41,0-14.92,12.1-27.02,27.02-27.02s27.02,12.1,27.02,27.02-12.1,27.02-27.02,27.02c-9.44,0-17.74-4.84-22.57-12.16Z"/>
        <g>
          <path class="cls-1" d="m137.49,91.91c10.91-18.65,10.55-37.85.07-52.03"/>
          <path class="cls-1" d="m130.08,91.91c-10.91-18.65-10.55-37.85-.07-52.03"/>
        </g>
        <path class="cls-1" d="m160.43,66c-2.59.02-51.17-.32-53.3-.18"/>
        <path class="cls-1" d="m116.86,45.67c3.04,5.85,9.16,9.85,16.21,9.85,7.43,0,13.83-4.44,16.68-10.82"/>
        <path class="cls-1" d="m116.86,86.1c3.04-5.85,9.16-9.85,16.21-9.85,7.43,0,13.83,4.44,16.68,10.82"/>
      </g>
    </g>
  </g>
</svg>