<?xml version="1.0" encoding="UTF-8"?>
<svg id="Layer_2" data-name="Layer 2" xmlns="http://www.w3.org/2000/svg" viewBox="0 0 2049.83 1291.03">
  <defs>
    <style>
      .cls-1 {
        fill: #fce181;
        opacity: .35;
      }

      .cls-2 {
        opacity: .19;
      }

      .cls-3 {
        fill: none;
        stroke: #ffc425;
        stroke-linecap: round;
        stroke-linejoin: round;
        stroke-width: 8px;
      }
    </style>
  </defs>
  <g id="Layer_1-2" data-name="Layer 1">
    <path class="cls-1" d="m2045.83,318.1v576.29c-23,48.57-52.01,94.09-86.28,135.62h-.01c-20.35,24.66-42.55,47.88-66.45,69.49-17.92,16.22-36.78,31.52-56.55,45.81h-.01c-16.57,12.04-33.76,23.35-51.55,33.91h0c-15.66,9.31-31.77,18.04-48.32,26.15-14.97,7.35-30.3,14.2-45.96,20.51-14.43,5.84-29.15,11.23-44.13,16.13-97.11,31.89-205.48,44.27-321,31.83-113.86-12.26-219.44-45.37-311.83-94.2-76.13-40.23-160.46-63.85-246.27-69.85-12.23-.86-24.48-1.36-36.75-1.49-12.55-.15-25.12.09-37.68.71-12.91.62-25.81,1.66-38.67,3.1-13.31,1.49-26.58,3.41-39.79,5.77-3.61.64-7.21,1.32-10.81,2.03-9.75,1.92-19.59,3.61-29.53,5.06-12.94,1.9-26.03,3.39-39.26,4.47-12.61,1.04-25.34,1.69-38.18,1.95-12.32.27-24.75.17-37.25-.3-12.06-.45-24.19-1.24-36.39-2.39-2.95-.27-5.91-.57-8.87-.89-8.97-.97-17.87-2.11-26.69-3.43-11.73-1.75-23.33-3.82-34.79-6.19-11.5-2.36-22.85-5.03-34.04-7.99-11.26-2.97-22.36-6.24-33.28-9.79-11.02-3.57-21.87-7.43-32.53-11.56-10.79-4.19-21.38-8.64-31.78-13.38-10.55-4.79-20.89-9.86-31.02-15.2-10.31-5.42-20.39-11.12-30.23-17.08-10.06-6.08-19.86-12.43-29.4-19.04-9.8-6.79-19.32-13.84-28.54-21.15-9.51-7.53-18.71-15.34-27.58-23.39-9.21-8.36-18.06-16.99-26.55-25.88-8.87-9.29-17.34-18.86-25.37-28.69-6.44-7.87-12.61-15.91-18.48-24.1v-480.61c3.85-5.14,7.83-10.19,11.93-15.17,18.85-22.88,40.19-44.07,63.67-63.33,16.59-13.62,34.26-26.28,52.88-37.87h.01c15.79-9.86,32.26-18.95,49.34-27.24,95.5-46.36,209.91-67.55,329.95-54.63,4.67.5,9.31,1.05,13.93,1.65,142.48,18.44,285.65-13.42,400.75-87.42C1072.01,42.75,1317.65-17.15,1517.68,4.39c255.69,27.52,438.27,139.68,528.15,313.71Z"/>
    <g class="cls-2">
      <path class="cls-3" d="m25.77,291.99c-7.24,17.45-14.5,34.87-21.77,52.26"/>
      <path class="cls-3" d="m70.18,275.18c-15.86,39.7-33.86,79.7-49.86,120.7-1.43,3.09-2.91,6.18-4.39,9.28-4.43,9.24-8.87,18.6-11.93,28.44"/>
      <path class="cls-3" d="m4,522.3c25.18-60.15,50.39-120.31,75.6-180.47,10.62-25.31,21.23-50.62,31.84-75.93"/>
      <path class="cls-3" d="m4,612.32c41.47-99.21,83.07-198.61,125.32-298.44,1-2,0-3,1-5,.72-1.65,1.44-3.29,2.16-4.92h.01c6.16-13.93,12.25-27.24,17.68-41.23.1-.25.2-.51.3-.76"/>
      <path class="cls-3" d="m4,701.02c1.86-3.71,3.73-7.43,5.32-11.14,5-15,12-29,18-43,1-2,0-3,1-5,21-47,39-94,59-141,3-7,7-14,10-21,27.99-69.04,56.85-135.47,84.51-203.16,1.91-4.66,3.81-9.32,5.7-13.99.09-.2.17-.41.25-.61"/>
      <path class="cls-3" d="m4,789.53c6.07-14.55,12.19-29.1,18.32-43.65,5-12,10-24,16-36,1-2,0-3,1-5,4-7,7-14,10-21,18-47,38-92,57-139,20-46,39-90,57-136,20-48,42-95,60.42-143.37"/>
      <line class="cls-3" x1="258.57" y1="271.6" x2="4" y2="879.89"/>
      <polyline class="cls-3" points="4 969.2 22.48 925.04 292.44 279.98"/>
      <line class="cls-3" x1="291.71" y1="371.02" x2="325.48" y2="290.32"/>
      <polyline class="cls-3" points="4 1058.52 47.85 953.73 280.31 398.28"/>
      <polyline class="cls-3" points="357.81 302.4 74.4 979.61 4 1147.84"/>
      <line class="cls-3" x1="23.59" y1="1190.32" x2="389.48" y2="316.03"/>
      <line class="cls-3" x1="53.51" y1="1208.15" x2="420.58" y2="331.04"/>
      <line class="cls-3" x1="98.35" y1="1190.32" x2="84.31" y2="1223.86"/>
      <line class="cls-3" x1="451.3" y1="346.94" x2="111.44" y2="1159.04"/>
      <line class="cls-3" x1="482.05" y1="362.77" x2="116.05" y2="1237.34"/>
      <line class="cls-3" x1="512.86" y1="378.47" x2="148.78" y2="1248.44"/>
      <line class="cls-3" x1="420.58" y1="688.29" x2="182.54" y2="1257.08"/>
      <line class="cls-3" x1="543.73" y1="394.02" x2="436.35" y2="650.61"/>
      <line class="cls-3" x1="574.67" y1="409.39" x2="217.38" y2="1263.14"/>
      <line class="cls-3" x1="605.71" y1="424.54" x2="253.34" y2="1266.53"/>
      <line class="cls-3" x1="636.85" y1="439.44" x2="290.44" y2="1267.19"/>
      <line class="cls-3" x1="668.12" y1="454.03" x2="328.7" y2="1265.09"/>
      <line class="cls-3" x1="515.45" y1="908.17" x2="368.11" y2="1260.23"/>
      <line class="cls-3" x1="699.54" y1="468.27" x2="527.31" y2="879.83"/>
      <line class="cls-3" x1="731.13" y1="482.11" x2="408.65" y2="1252.69"/>
      <line class="cls-3" x1="762.92" y1="495.45" x2="450.25" y2="1242.6"/>
      <line class="cls-3" x1="794.96" y1="508.2" x2="492.82" y2="1230.17"/>
      <line class="cls-3" x1="827.3" y1="520.24" x2="536.26" y2="1215.7"/>
      <line class="cls-3" x1="860" y1="531.41" x2="580.38" y2="1199.57"/>
      <line class="cls-3" x1="893.17" y1="541.47" x2="625.02" y2="1182.22"/>
      <line class="cls-3" x1="926.93" y1="550.12" x2="669.96" y2="1164.14"/>
      <line class="cls-3" x1="961.49" y1="556.84" x2="714.99" y2="1145.86"/>
      <line class="cls-3" x1="997.21" y1="560.81" x2="759.89" y2="1127.88"/>
      <line class="cls-3" x1="1034.78" y1="560.35" x2="804.47" y2="1110.69"/>
      <line class="cls-3" x1="870.24" y1="1042.83" x2="848.53" y2="1094.7"/>
      <line class="cls-3" x1="1075.57" y1="552.19" x2="883.9" y2="1010.2"/>
      <line class="cls-3" x1="1117.29" y1="541.82" x2="891.95" y2="1080.28"/>
      <line class="cls-3" x1="1158.78" y1="531.98" x2="934.58" y2="1067.71"/>
      <line class="cls-3" x1="1200.05" y1="522.7" x2="976.36" y2="1057.2"/>
      <line class="cls-3" x1="1241.07" y1="513.98" x2="1017.22" y2="1048.88"/>
      <line class="cls-3" x1="1281.85" y1="505.85" x2="1057.13" y2="1042.83"/>
      <line class="cls-3" x1="1322.38" y1="498.33" x2="1096.07" y2="1039.08"/>
      <line class="cls-3" x1="1362.64" y1="491.43" x2="1134.06" y2="1037.63"/>
      <line class="cls-3" x1="1402.63" y1="485.18" x2="1171.1" y2="1038.44"/>
      <line class="cls-3" x1="1442.35" y1="479.59" x2="1207.22" y2="1041.45"/>
      <line class="cls-3" x1="1358.36" y1="769.6" x2="1242.44" y2="1046.58"/>
      <line class="cls-3" x1="1481.77" y1="474.7" x2="1372.23" y2="736.45"/>
      <line class="cls-3" x1="1520.89" y1="470.54" x2="1276.81" y2="1053.77"/>
      <line class="cls-3" x1="1559.7" y1="467.13" x2="1310.36" y2="1062.92"/>
      <line class="cls-3" x1="1598.17" y1="464.5" x2="1343.13" y2="1073.94"/>
      <line class="cls-3" x1="1636.31" y1="462.69" x2="1375.14" y2="1086.76"/>
      <line class="cls-3" x1="1674.09" y1="461.73" x2="1406.45" y2="1101.26"/>
      <line class="cls-3" x1="1711.49" y1="461.67" x2="1437.08" y2="1117.38"/>
      <line class="cls-3" x1="1664.04" y1="664.36" x2="1467.07" y2="1135.03"/>
      <line class="cls-3" x1="1748.49" y1="462.56" x2="1674.09" y2="640.36"/>
      <line class="cls-3" x1="1785.08" y1="464.44" x2="1496.45" y2="1154.14"/>
      <line class="cls-3" x1="1821.23" y1="467.39" x2="1525.25" y2="1174.63"/>
      <line class="cls-3" x1="1856.91" y1="471.45" x2="1553.85" y2="1195.6"/>
      <line class="cls-3" x1="1862.85" y1="546.56" x2="1583.19" y2="1214.81"/>
      <line class="cls-3" x1="1892.08" y1="476.7" x2="1876.48" y2="513.98"/>
      <line class="cls-3" x1="1926.72" y1="483.24" x2="1613.36" y2="1232.03"/>
      <line class="cls-3" x1="1960.79" y1="491.17" x2="1644.4" y2="1247.18"/>
      <line class="cls-3" x1="1994.22" y1="500.58" x2="1676.35" y2="1260.15"/>
      <line class="cls-3" x1="2026.98" y1="511.63" x2="1709.27" y2="1270.8"/>
      <polyline class="cls-3" points="1743.23 1278.97 1784.97 1179.22 1784.98 1179.22 2045.83 555.9"/>
      <line class="cls-3" x1="1851.03" y1="1110.69" x2="1778.3" y2="1284.46"/>
      <line class="cls-3" x1="2045.83" y1="645.21" x2="1873.42" y2="1057.2"/>
      <polyline class="cls-3" points="1814.61 1287.03 1893.09 1099.5 2045.83 734.53"/>
      <polyline class="cls-3" points="1852.27 1286.35 1959.54 1030.02 1959.55 1030.01 2045.83 823.83"/>
      <line class="cls-3" x1="2045.83" y1="913.15" x2="1891.47" y2="1282"/>
      <line class="cls-3" x1="2045.83" y1="1002.47" x2="1932.45" y2="1273.39"/>
      <line class="cls-3" x1="2045.83" y1="1091.79" x2="1975.58" y2="1259.65"/>
      <line class="cls-3" x1="2045.83" y1="1181.08" x2="2021.42" y2="1239.41"/>
    </g>
  </g>
</svg>