<?xml version="1.0" encoding="UTF-8"?>
<svg id="Layer_2" data-name="Layer 2" xmlns="http://www.w3.org/2000/svg" viewBox="0 0 119.89 125.08">
  <defs>
    <style>
      .cls-1 {
        fill:  #01b1b0;
      }
    </style>
  </defs>
  <g id="Layer_1-2" data-name="Layer 1">
    <g>
      <path class="cls-1" d="m69.63,72.87c-2.11,1.53-4.7,2.43-7.5,2.43s-5.39-.9-7.5-2.43l-22.22,22.22c-2.31,2.31-2.31,6.06,0,8.36,1.15,1.15,2.67,1.73,4.18,1.73s3.03-.58,4.18-1.73l15.44-15.44v31.15c0,3.27,2.65,5.91,5.91,5.91s5.91-2.65,5.91-5.91v-31.15l15.44,15.44c1.16,1.16,2.67,1.73,4.18,1.73s3.03-.58,4.18-1.73c2.31-2.31,2.31-6.06,0-8.36l-22.22-22.22Z"/>
      <path class="cls-1" d="m52.21,55.04l-22.22-22.22c-2.31-2.31-6.06-2.31-8.36,0-2.31,2.31-2.31,6.06,0,8.36l15.44,15.44H5.91c-3.27,0-5.91,2.65-5.91,5.91s2.65,5.91,5.91,5.91h31.15l-15.44,15.44c-2.31,2.31-2.31,6.06,0,8.36,1.15,1.15,2.67,1.73,4.18,1.73s3.03-.58,4.18-1.73l22.22-22.22c-1.53-2.11-2.43-4.7-2.43-7.5s.9-5.39,2.43-7.5Z"/>
      <path class="cls-1" d="m70.04,52.21l22.22-22.22c2.31-2.31,2.31-6.06,0-8.36-2.31-2.31-6.05-2.31-8.36,0l-15.44,15.44V5.91c0-3.27-2.65-5.91-5.91-5.91s-5.91,2.65-5.91,5.91v31.15l-15.44-15.44c-2.31-2.31-6.06-2.31-8.36,0-2.31,2.31-2.31,6.06,0,8.36l22.22,22.22c2.11-1.53,4.7-2.43,7.5-2.43s5.39.9,7.5,2.43Z"/>
      <circle class="cls-1" cx="84.03" cy="62.54" r="8.98"/>
      <circle class="cls-1" cx="102.31" cy="62.54" r="6.61"/>
      <circle class="cls-1" cx="115.61" cy="62.54" r="4.29"/>
    </g>
  </g>
</svg>