<svg id="Layer_1" data-name="Layer 1"
    xmlns="http://www.w3.org/2000/svg" viewBox="0 0 195.92 145.84">
    <path d="M284.75,228.63a19.09,19.09,0,0,0-2.2,5.8,14,14,0,0,0,.6,6.87,9.88,9.88,0,0,0,11.62,6.56,9,9,0,0,0,5.44-2.86,11.92,11.92,0,0,0,2.51-5.34,22.18,22.18,0,0,0,.61-6.12,8.55,8.55,0,0,0-2.82-5.75,11.61,11.61,0,0,0-5.83-3.13,10.84,10.84,0,0,0-8.12,2.16,2.32,2.32,0,0,0-.81,3.08,2.27,2.27,0,0,0,3.08.81,9.39,9.39,0,0,1,2.56-1.42c.21-.07.41-.13.62-.18-.07,0,.72-.12.42-.08s.44,0,.38,0a6.37,6.37,0,0,1,.76,0c.39,0-.51-.12.11,0l.47.11a8,8,0,0,1,1,.3c-.51-.19.17.11.33.2a11.59,11.59,0,0,1,1.15.72,7.9,7.9,0,0,1,1.48,1.4c.27.35.42.81.69,1.14-.29-.36-.1-.34-.07-.14a4.8,4.8,0,0,0,.15.63c0-.08,0-.48,0,0,0,.2,0,.4,0,.6,0,.36,0,.73,0,1.09s0,.76-.08,1.15c0,.15,0,.31-.05.47,0-.35-.08.49-.09.57-.12.73-.28,1.46-.47,2.18-.08.3-.17.61-.28.91,0,.13-.1.26-.14.39l.08-.19-.18.35a4.46,4.46,0,0,1-1.24,1.59c-.51.46.18-.1-.15.12-.15.1-.3.2-.46.29a4.48,4.48,0,0,1-.58.29c.35-.14-.22.06-.29.08a7.33,7.33,0,0,1-4.3,0,5.15,5.15,0,0,1-1.49-.9,5.87,5.87,0,0,1-1.44-1.89c-.84-1.57-.8-3.32-.71-5.34,0-.45,0-.11,0,0,0-.25.09-.5.15-.74a10.28,10.28,0,0,1,.35-1.07c0,.09-.17.38,0,0l.39-.84c.25-.52.51-1,.76-1.55a2.31,2.31,0,0,0-.8-3.08,2.28,2.28,0,0,0-3.08.81Z" transform="translate(-199.37 -224.5)"/>
    <path d="M277.69,234.52c-4.11-.2-8.37-.21-11.27,3.22a10.36,10.36,0,0,0-2.25,6.66c-.1,2.79-.14,5.58-.2,8.37q-.35,16.12-.38,32.27t.16,32.41c0,2.76,0,5.56.13,8.32a9.16,9.16,0,0,0,2.45,6.1,8.12,8.12,0,0,0,4.49,1.76,40.2,40.2,0,0,0,5.26.38c8.7.09,17.41,0,26.11,0,2.9,0,2.9-4.5,0-4.5h-21c-3.3,0-6.81.26-10.08-.38-.37-.08-.74-.16-1.1-.27a2,2,0,0,1-.46-.19c-.08,0-.39-.3-.19-.11s0,0,0-.06a4.58,4.58,0,0,1-.67-1.3c-.69-2.08-.34-4.63-.37-6.79-.27-20.11-.3-40.22,0-60.33.05-2.85.1-5.7.17-8.55a77.4,77.4,0,0,1,.25-8.35c.61-4.66,5.39-4.34,8.94-4.17,2.9.13,2.89-4.37,0-4.5Z" transform="translate(-199.37 -224.5)"/>
    <path d="M333.39,230.9c.4.82.83,1.64,1.2,2.49.15.36-.16-.48,0,.11.05.15.11.3.15.45a8.12,8.12,0,0,1,.27,1.08c.06.38,0-.55,0,.11,0,.18,0,.37,0,.55,0,.48,0,1,0,1.45a6.82,6.82,0,0,1-.35,2.37,6.43,6.43,0,0,1-2.56,3.37,3.93,3.93,0,0,1-.78.39l-.46.14s-.76.13-.37.09c-.42,0-.86,0-1.28,0l-.5,0c-.08,0-.94-.1-.58,0a8.13,8.13,0,0,1-1.11-.25l-.42-.14c.41.14-.23-.11-.26-.13s-.31-.18-.47-.27-.45-.32-.16-.09a5.13,5.13,0,0,1-.95-1c.19.25-.1-.17-.14-.22s-.22-.36-.32-.55c0,.06-.32-.64-.12-.22s0-.13-.06-.17a17.05,17.05,0,0,1-.59-2.12c-.08-.37-.15-.75-.22-1.13,0-.23-.08-.47-.11-.7,0,.11,0,.36,0-.11a18.49,18.49,0,0,1-.12-2.47c0-.2,0-.4,0-.6s.08-.42,0,0c.06-.26.12-.52.2-.77-.22.7.06-.06.14-.2s.18-.3.28-.45a6.51,6.51,0,0,1,.79-.91,9.53,9.53,0,0,1,2.12-1.5l.36-.17c.15-.07.1,0-.16.05l.33-.12a10.29,10.29,0,0,1,1.09-.29c.43-.08.1,0,0,0,.28,0,.57,0,.86,0l.45,0c-.35,0,.5.11.59.14a8.81,8.81,0,0,1,2.94,1.53,2.27,2.27,0,0,0,3.08-.81,2.3,2.3,0,0,0-.81-3.08,10.8,10.8,0,0,0-7-2.29,10.47,10.47,0,0,0-5.39,2c-1.81,1.29-3.66,3.14-4.16,5.39a17,17,0,0,0,.13,6.24,15.1,15.1,0,0,0,1.6,5.18,9.06,9.06,0,0,0,5.18,4.17,11.59,11.59,0,0,0,6.8.08,10.16,10.16,0,0,0,5.44-4.53,13.37,13.37,0,0,0,1.52-7.73,17.85,17.85,0,0,0-2.3-6.72,2.25,2.25,0,1,0-3.88,2.27Z" transform="translate(-199.37 -224.5)"/>
    <path d="M311.5,332c.16.34.34.68.49,1l-.23-.54a3.33,3.33,0,0,1,.23.82l-.08-.6a6.65,6.65,0,0,1,0,1.41l.08-.6a3.52,3.52,0,0,1-.24.9l.22-.54a3.23,3.23,0,0,1-.42.72l.35-.45a3.84,3.84,0,0,1-.57.57l.45-.35a3,3,0,0,1-.54.32l.53-.23a2.88,2.88,0,0,1-.61.17l.6-.08a4.5,4.5,0,0,1-1.1,0l.59.08a3.12,3.12,0,0,1-.73-.18l.54.22a3.06,3.06,0,0,1-.56-.31l.46.35a2.73,2.73,0,0,1-.48-.48l.36.45a2.88,2.88,0,0,1-.34-.56l.23.53a6.76,6.76,0,0,1-.42-1.72l.08.6a5.94,5.94,0,0,1,0-1.46l-.08.6a1.8,1.8,0,0,1,.1-.4l-.23.54a2.81,2.81,0,0,1,.34-.55l-.36.46a3.85,3.85,0,0,1,.6-.61l-.45.36a4.27,4.27,0,0,1,.89-.55l-.54.23a3.17,3.17,0,0,1,.73-.2l-.59.08a2.84,2.84,0,0,1,.65,0l-.6-.09a3.76,3.76,0,0,1,.73.2l-.53-.23a4.9,4.9,0,0,1,.91.53,2.23,2.23,0,0,0,1.73.23,2.25,2.25,0,0,0,1.58-2.77,2.56,2.56,0,0,0-1-1.34,5.15,5.15,0,0,0-6-.1,5.07,5.07,0,0,0-2.19,2.85,8.13,8.13,0,0,0,0,3.07,6.46,6.46,0,0,0,.74,2.26,4.85,4.85,0,0,0,2.77,2.2,5.64,5.64,0,0,0,3.28,0,5.29,5.29,0,0,0,2.87-2.33,6.22,6.22,0,0,0,.76-3.59,5.38,5.38,0,0,0-.29-1.54c-.22-.58-.49-1.12-.76-1.67a2.26,2.26,0,0,0-3.08-.81,2.31,2.31,0,0,0-.8,3.08Z" transform="translate(-199.37 -224.5)"/>
    <path d="M389.39,267.94c.34.69.66,1.4,1,2.09.16.31-.17-.49,0,0,0,.13.09.25.13.38.1.3.13.61.22.91s0-.57,0,0c0,.15,0,.31,0,.46,0,.41,0,.82,0,1.22,0,.18,0,.35,0,.53s-.07.74,0,.24a7.43,7.43,0,0,1-.27,1.13,5,5,0,0,1-.18.5c.18-.44-.1.19-.12.22a8.84,8.84,0,0,1-.55.89c.06-.08.25-.28,0,0a6,6,0,0,1-.42.45l-.31.28c-.2.17-.2.17,0,0l-.34.22-.36.2c-.53.3.38-.08-.21.09l-.39.12c-.07,0-.71.1-.21.06a9.74,9.74,0,0,1-1.08,0h-.41c-.11,0-.94-.12-.4,0a9,9,0,0,1-.93-.21l-.35-.12c.49.16,0,0-.13-.07s-.84-.57-.46-.25a5.11,5.11,0,0,1-.8-.81c.26.34,0,0-.06-.12l-.27-.46c-.36-.68.09.38-.12-.24a15.07,15.07,0,0,1-.49-1.78c-.07-.31-.13-.63-.18-.95s-.07-.39-.09-.59c0,.09,0,.45,0,0a15.93,15.93,0,0,1-.09-2.07c0-.17,0-.34,0-.51s.12-.31,0,.14c0-.05.09-.64.17-.65l-.14.32c.07-.13.14-.27.22-.4s.16-.25.23-.38c.33-.55-.25.24.17-.23l.44-.46.48-.43c-.31.26.23-.16.25-.17a10.68,10.68,0,0,1,1-.6,2.8,2.8,0,0,0,.3-.15l-.22.09.28-.11a9.36,9.36,0,0,1,.91-.24c.41-.09,0,0-.09,0l.72,0,.38,0c-.53,0,.3.07.41.1l.42.13c.25.09.28.1.11,0l.45.22a10.26,10.26,0,0,1,1.4.88,2.25,2.25,0,1,0,2.27-3.88,9.35,9.35,0,0,0-6.07-2,9.11,9.11,0,0,0-4.71,1.75,8.63,8.63,0,0,0-3.66,4.74,14.59,14.59,0,0,0,.11,5.43,12.93,12.93,0,0,0,1.38,4.43,8,8,0,0,0,4.56,3.68,10.09,10.09,0,0,0,5.91.06,8.87,8.87,0,0,0,4.78-4,11.52,11.52,0,0,0,1.33-6.67,15.64,15.64,0,0,0-2-5.83,2.25,2.25,0,0,0-3.89,2.27Z" transform="translate(-199.37 -224.5)"/>
    <path d="M344.33,239c3-.15,7.24-.67,8.61,2.8.8,2,.46,4.65.51,6.77.06,2.53.12,5.07.17,7.6q.28,15,.32,30.06t-.16,30.21c0,2.56-.07,5.12-.1,7.68a11.16,11.16,0,0,1-.26,2.89,4.1,4.1,0,0,1-.52,1.17,2.51,2.51,0,0,1-.27.37c-.13.16.29-.16-.06.06a1.36,1.36,0,0,1-.56.24c-.32.1-.64.17-1,.24a15.9,15.9,0,0,1-2.17.28c-1.51.12-3,.13-4.53.13H320.19c-2.89,0-2.9,4.5,0,4.5H343c3.42,0,7.21.23,10.49-.89,4.88-1.68,4.7-7.22,4.76-11.47.3-21.66.33-43.32-.08-65-.06-3-.13-6.05-.2-9.07-.07-2.74.14-5.75-1.18-8.25a9.34,9.34,0,0,0-5.74-4.53,21.08,21.08,0,0,0-6.68-.31c-2.88.13-2.9,4.63,0,4.5Z" transform="translate(-199.37 -224.5)"/>
    <path d="M383.44,286.77c0,7.26-.09,14.53-.07,21.8,0,8.3.29,16.58.42,24.87.1,6.21.2,12.43,0,18.63-.06,2.06-.15,4.11-.35,6.15l-.12,1.1c0,.26-.09.63,0,.13l-.09.61c-.1.64-.22,1.27-.37,1.89s-.31,1.05-.48,1.57.26-.44-.07.16c-.11.2-.21.41-.33.61s-.22.28-.29.43c.29-.64.17-.22-.08,0s-.28.21-.36.33c.36-.52.34-.21,0,0a3.81,3.81,0,0,0-.45.23c.41-.32.42-.14,0,0l-.49.12-.28,0c-.45.12.4,0,.21,0-2.36-.06-4.75.08-7.12.08-14.6.05-29.2.42-43.8.34l-6.52-.05-3.47-.05a16.19,16.19,0,0,1-3.48-.17,5.8,5.8,0,0,1-1.91-.86c.22.23-.28-.51-.12-.17a5.66,5.66,0,0,1-.35-1.15,23,23,0,0,1-.45-4.53c-.09-3.33,0-6.66,0-10v-4.62c0-2.9-4.5-2.9-4.5,0v10.39c0,3.41-.18,7,.74,10.36a6.22,6.22,0,0,0,3.29,4.11c2.24,1.13,4.6,1.1,7,1.14,15.31.2,30.62-.07,45.93-.2,4.48,0,8.95,0,13.42-.06a11.29,11.29,0,0,0,2.95-.35,7,7,0,0,0,4.45-3.86c1.3-2.83,1.59-6,1.82-9.11.39-5.31.34-10.65.3-16-.07-8.66-.31-17.32-.46-26-.13-7.79,0-15.58,0-23.37,0-1.54,0-3.08,0-4.61,0-2.9-4.5-2.9-4.5,0Z" transform="translate(-199.37 -224.5)"/>
    <path d="M230.7,257.13Q244,257,257.34,257l-2.25-2.25.14,7.82c.05,2.89,4.55,2.9,4.5,0l-.14-7.82a2.28,2.28,0,0,0-2.25-2.25q-13.32,0-26.64.1c-2.89,0-2.9,4.52,0,4.5Z" transform="translate(-199.37 -224.5)"/>
    <path d="M257.48,261.25q-13.32.09-26.64.1l2.25,2.25-.14-7.82c0-2.89-4.55-2.9-4.5,0l.14,7.82a2.28,2.28,0,0,0,2.25,2.25q13.32,0,26.64-.1c2.89,0,2.9-4.52,0-4.5Z" transform="translate(-199.37 -224.5)"/>
    <path d="M255.19,323.25q-20,.09-40,.1c-2.89,0-2.9,4.5,0,4.5q20,0,40-.1c2.9,0,2.9-4.52,0-4.5Z" transform="translate(-199.37 -224.5)"/>
    <path d="M255.19,310.25q-20,.09-40,.1c-2.89,0-2.9,4.5,0,4.5q20,0,40-.1c2.9,0,2.9-4.52,0-4.5Z" transform="translate(-199.37 -224.5)"/>
    <path d="M255.19,297.25q-20,.09-40,.1c-2.89,0-2.9,4.5,0,4.5q20,0,40-.1c2.9,0,2.9-4.52,0-4.5Z" transform="translate(-199.37 -224.5)"/>
    <path d="M255.19,284.25q-20,.09-40,.1c-2.89,0-2.9,4.5,0,4.5q20,0,40-.1c2.9,0,2.9-4.52,0-4.5Z" transform="translate(-199.37 -224.5)"/>
    <path d="M274.69,254.52h0V259c2.7-.09,5.41,0,8.11-.06,1.58,0,3.16,0,4.74,0a9.16,9.16,0,0,1,1.07,0s-1.69-.18-1.22-.53c.1-.07.06.85.05.71,0,.83,0,1.66,0,2.49v62.6c0,2.89,4.5,2.9,4.5,0v-63c0-2.6.11-6.49-3.38-6.76-1.28-.1-2.59-.05-3.87-.05-3.33,0-6.67,0-10,.07-2.89.09-2.91,4.47,0,4.5h0c2.9,0,2.9-4.48,0-4.5Z" transform="translate(-199.37 -224.5)"/>
    <path d="M222.18,261h0a2.25,2.25,0,0,0,0-4.5,20.11,20.11,0,0,0-2.69,0c-2.05,0-4.11,0-6.16,0-3.37,0-6.83-.24-10.19,0-4.15.34-3.71,5-3.71,8v61.78c0,2.89,4.5,2.9,4.5,0V261.79a8.48,8.48,0,0,0,0-1c-.06,0-.22.1-.26.1-1.1,0,0,.05.38.05.71,0,1.41,0,2.12,0h6.06l6.82,0a25.47,25.47,0,0,1,3.15,0v-4.5h0c-2.89,0-2.9,4.51,0,4.5Z" transform="translate(-199.37 -224.5)"/>
    <path d="M199.45,326.77c0,5,0,9.94-.06,14.92,0,2.35-.06,4.72.08,7.07a11.75,11.75,0,0,0,.62,3.53,9.85,9.85,0,0,0,.76,1.61c1.12,1.85,3.28,2.51,5.31,2.81A49,49,0,0,0,213,357h9.44q8.46,0,16.92.1c10.1.06,20.2.14,30.3.1l8.58-.06,4.34-.05a21.15,21.15,0,0,0,4.84-.27,7,7,0,0,0,4.92-6.56c-.13-3.51.22-7,0-10.52-.15-2.88-4.66-2.9-4.5,0s-.07,5.76-.07,8.65c0,1.07.34,2.1-.21,2.87a2.48,2.48,0,0,1-2.17,1.28c-4.94.1-9.88.13-14.81.16-9.43,0-18.86,0-28.29-.08-10.7-.08-21.41,0-32.12-.14a15.32,15.32,0,0,1-5.11-.67,2,2,0,0,1-.42-.24c.31.23-.13-.27,0,0s-.05-.13-.08-.18-.17-.38-.28-.56.19.63,0,0c0-.21-.12-.41-.17-.61s-.06-.44-.12-.65.06.69,0,.14c0-.17,0-.34-.05-.51-.18-2.28-.12-4.59-.11-6.87,0-5.18.06-10.36.06-15.54,0-2.9-4.5-2.9-4.5,0Z" transform="translate(-199.37 -224.5)"/>
</svg>