<svg id="Layer_1" data-name="Layer 1" xmlns="http://www.w3.org/2000/svg" viewBox="0 0 201.31 206.61"><path d="M217.64,275.06a9.9,9.9,0,0,0-2.89-8,9.57,9.57,0,0,0-7.59-2.7,10,10,0,0,0-4.95,1.91,2.31,2.31,0,0,0-.81,3.08,2.28,2.28,0,0,0,3.08.8,8.75,8.75,0,0,1,1.08-.71l.42-.21c.22-.1.18-.09-.12,0l.28-.11a8.41,8.41,0,0,1,1-.28l.28-.05c.25,0,.19,0-.17,0a1.53,1.53,0,0,0,.42,0,7.85,7.85,0,0,1,1,0c.64.06-.32-.07.08,0,.18,0,.36.07.53.12a5.52,5.52,0,0,0,.9.29c-.32-.14-.38-.16-.16-.06l.12.06c.16.07.32.16.48.25l.4.25.17.12c.19.14.14.1-.13-.11a8.73,8.73,0,0,0,.7.64c.13.13.25.27.37.4.29.32-.28-.43,0,0,.19.3.38.58.54.89a2.69,2.69,0,0,0,.18.38c-.13-.32-.15-.36-.06-.14s.06.18.1.27c.1.32.19.65.26,1,0,.1,0,.2.05.3-.05-.35-.05-.4,0-.15s0,.3,0,.45a10.7,10.7,0,0,1-.05,1.27,2.25,2.25,0,0,0,2.25,2.25,2.31,2.31,0,0,0,2.25-2.25Z" transform="translate(-196.68 -194.12)"/><path d="M200.49,268c-2.53,5.14-3.06,13.56,2.71,16.84a9.71,9.71,0,0,0,5.7,1.08,2.31,2.31,0,0,0,2.25-2.25,2.27,2.27,0,0,0-2.25-2.25,11.65,11.65,0,0,1-1.45.05l-.66-.05c.66.06,0,0-.18-.05l-.58-.16-.27-.1.14.06a2.36,2.36,0,0,1-.94-.55l.14.11-.2-.18a4.4,4.4,0,0,1-.38-.37,1.63,1.63,0,0,1-.17-.2c-.15-.18-.12-.13.1.14a1.68,1.68,0,0,1-.29-.44c-.1-.15-.19-.31-.27-.46s-.4-.69-.06-.08a4.27,4.27,0,0,1-.33-1,9.92,9.92,0,0,1-.24-1.05c-.11-.65,0,.29,0-.12,0-.2,0-.4-.05-.59a14.9,14.9,0,0,1,.08-2.41c0-.41-.09.49,0-.16,0-.2.07-.4.11-.6.09-.39.18-.78.3-1.17s.23-.76.37-1.13c0-.09.08-.18.11-.27-.13.31-.15.36-.05.14l.24-.52a2.25,2.25,0,1,0-3.89-2.27Z" transform="translate(-196.68 -194.12)"/><path d="M297.1,271.15c.37.74.75,1.49,1.09,2.25.15.34-.16-.49,0,.05,0,.14.1.27.14.41.1.32.14.66.24,1s0-.55,0,0c0,.17,0,.33,0,.5,0,.44,0,.88,0,1.31,0,.19,0,.38,0,.57,0,0-.07.76,0,.31a6.56,6.56,0,0,1-.29,1.22,3.35,3.35,0,0,1-.19.53c.16-.38-.15.29-.15.29a7.27,7.27,0,0,1-.59,1c.06-.08.23-.25-.07.07-.15.17-.29.33-.46.49l-.32.29c-.21.17-.23.19-.07.06-.12.08-.24.16-.37.23s-.25.15-.38.22c-.55.31.34-.07-.27.11l-.42.13s-.73.12-.28.07a11,11,0,0,1-1.15,0h-.45c-.1,0-1-.12-.48,0a8.07,8.07,0,0,1-1-.22l-.38-.13c.46.16-.12-.06-.19-.09l-.42-.25c-.1-.05-.44-.32-.11-.05a5.89,5.89,0,0,1-.86-.87c.23.3,0-.09-.09-.17s-.2-.32-.29-.49c-.37-.7.07.33-.15-.31a18.18,18.18,0,0,1-.53-1.92c-.07-.34-.14-.68-.19-1s-.07-.42-.1-.63c0,.09,0,.4,0-.05a18.4,18.4,0,0,1-.11-2.23c0-.19,0-.37,0-.55s.12-.34,0,.1c0-.11.05-.63.17-.7l-.12.31c.07-.15.15-.29.23-.43l.25-.41c.35-.56-.22.2.22-.29.15-.17.3-.34.47-.5s.34-.31.51-.45c-.25.2.31-.22.3-.22.35-.23.7-.45,1.07-.65l.32-.16-.19.08.3-.12c.32-.1.65-.18,1-.26s0,0,0,0c.26,0,.52,0,.78,0a2.83,2.83,0,0,1,.41,0c-.47-.05.39.09.48.11a7.93,7.93,0,0,1,2.61,1.37,2.26,2.26,0,0,0,3.08-.81,2.3,2.3,0,0,0-.8-3.08,10.11,10.11,0,0,0-6.46-2.11,9.82,9.82,0,0,0-5,1.86c-1.69,1.21-3.41,2.92-3.87,5a15.78,15.78,0,0,0,.11,5.77,13.81,13.81,0,0,0,1.48,4.73,8.43,8.43,0,0,0,4.81,3.88,10.67,10.67,0,0,0,6.28.07,9.38,9.38,0,0,0,5.05-4.2,12.25,12.25,0,0,0,1.41-7.11,16.5,16.5,0,0,0-2.11-6.19,2.25,2.25,0,1,0-3.89,2.27Z" transform="translate(-196.68 -194.12)"/><path d="M247.65,288.15c.17.35.35.7.5,1.06l-.22-.54a3.37,3.37,0,0,1,.23.84l-.08-.6a5.78,5.78,0,0,1,0,1.44l.08-.59a3.81,3.81,0,0,1-.25.92l.23-.54a4.2,4.2,0,0,1-.43.74l.35-.46a3,3,0,0,1-.59.59l.45-.35a2.84,2.84,0,0,1-.56.33l.54-.23a2.72,2.72,0,0,1-.62.17l.59-.08a4.75,4.75,0,0,1-1.13,0l.6.08a3.75,3.75,0,0,1-.75-.19l.54.22a3,3,0,0,1-.58-.32l.46.35a3.24,3.24,0,0,1-.49-.49l.35.45a3,3,0,0,1-.34-.58l.23.54a6.74,6.74,0,0,1-.43-1.77l.08.6a5.72,5.72,0,0,1,0-1.49l-.08.6a2,2,0,0,1,.1-.42l-.23.54a4,4,0,0,1,.34-.56l-.35.45a3.58,3.58,0,0,1,.62-.61l-.46.35a5.07,5.07,0,0,1,.91-.56l-.53.23a3.21,3.21,0,0,1,.75-.21l-.6.09a2.51,2.51,0,0,1,.67,0l-.6-.08a3.77,3.77,0,0,1,.75.2l-.53-.23a5.25,5.25,0,0,1,.94.55,2.27,2.27,0,0,0,1.73.22,2.25,2.25,0,0,0,1.57-2.77,2.58,2.58,0,0,0-1-1.34,5.24,5.24,0,0,0-6.14-.1,5.15,5.15,0,0,0-2.23,2.89,8.62,8.62,0,0,0,.05,3.12,6.91,6.91,0,0,0,.75,2.3,5,5,0,0,0,2.81,2.24,5.84,5.84,0,0,0,3.34,0,5.29,5.29,0,0,0,2.9-2.36,6.36,6.36,0,0,0,.77-3.65,5.25,5.25,0,0,0-.29-1.57c-.22-.58-.5-1.14-.77-1.7a2.27,2.27,0,0,0-3.08-.81,2.3,2.3,0,0,0-.81,3.08Z" transform="translate(-196.68 -194.12)"/><path d="M209.28,261.67c0-6.46.65-13.45,3.14-19.29a24.81,24.81,0,0,1,1.63-3.21q.4-.69.87-1.35l.45-.63s.23-.29.09-.12.2-.24.23-.28a23,23,0,0,1,2-2.15,11.42,11.42,0,0,1,2-1.52,20.37,20.37,0,0,1,2.27-1.29l.56-.27c.47-.22-.19.07.18-.08s.79-.31,1.2-.44a26.9,26.9,0,0,1,4.63-1.1h.08l.52-.05,1.09-.1q1-.08,2.07-.09c3.13-.06,6.27,0,9.41,0H252.3c5.41,0,10.83-.13,16.24,0,1,0,1.93.08,2.89.17l.67.08c.58,0-.15,0,.26,0s1,.15,1.47.25a24,24,0,0,1,2.52.67l.58.21c.11,0,.64.25.39.14s.29.13.37.17.42.2.62.31c.36.19.71.39,1.06.61.19.12.39.25.58.39s.66.49.25.17a14.88,14.88,0,0,1,1.92,1.8,10.11,10.11,0,0,1,1.48,2,23,23,0,0,1,1.54,2.9c2.22,4.89,3.09,11.38,3.52,17q.22,3.08.31,6.15c.09,2.89,4.59,2.91,4.5,0-.22-7.16-.73-14.56-2.9-21.43-1.35-4.3-3.48-8.61-7.05-11.49a21.35,21.35,0,0,0-11.13-4.35c-5.66-.7-11.49-.31-17.18-.31H244.88c-5.08,0-10.25-.3-15.32.15a27.65,27.65,0,0,0-10.35,2.85c-10,5.19-13.37,16.86-14.2,27.32-.16,2.05-.23,4.11-.23,6.17,0,2.9,4.49,2.9,4.5,0Z" transform="translate(-196.68 -194.12)"/><path d="M239.89,290.49c-.67.17-1.34.31-2,.43l-.32.05-.25,0c-.36,0-.73.06-1.09.07a18.34,18.34,0,0,1-2.1-.08c-.47,0,.06,0-.07,0l-.51-.09c-.41-.08-.82-.17-1.22-.28a18.09,18.09,0,0,1-4.86-2.09,49.38,49.38,0,0,1-6.13-4.22c-3.29-2.63-6.39-5.49-9.41-8.42-2.08-2-5.27,1.16-3.18,3.18,4.89,4.73,10,9.53,15.9,13a21.91,21.91,0,0,0,11.1,3.49,22.64,22.64,0,0,0,5.36-.75c2.81-.69,1.62-5-1.2-4.34Z" transform="translate(-196.68 -194.12)"/><path d="M352.44,198.62c12,0,24.06,4.47,31.53,14.19a47.6,47.6,0,0,1,8.16,15.67,35.34,35.34,0,0,1,1.05,15.33,49.06,49.06,0,0,1-6,16.13,33.45,33.45,0,0,1-8.57,10.1,45.29,45.29,0,0,1-14.57,6.85,36,36,0,0,1-17.32,1.19,40.52,40.52,0,0,1-15.91-6.53c-4.31-3-8.56-7.11-10-12.31-.77-2.79-5.12-1.61-4.34,1.19,1.51,5.4,5.38,9.83,9.7,13.24a44.23,44.23,0,0,0,14.34,7.46,40.46,40.46,0,0,0,19.32,1.4,54.48,54.48,0,0,0,18.05-6.6c9.89-5.86,16-16.53,18.84-27.44a40.75,40.75,0,0,0,.62-17.17A46.76,46.76,0,0,0,390.26,214a40.37,40.37,0,0,0-16-14.91,49.45,49.45,0,0,0-21.81-5c-2.89,0-2.9,4.48,0,4.5Z" transform="translate(-196.68 -194.12)"/><path d="M379.39,266.69c-6.13-5.36-13.34-9.94-21.46-11.46a30.62,30.62,0,0,0-20.47,3.24,39.11,39.11,0,0,0-10,8.12c-1.94,2.15,1.23,5.34,3.18,3.19,4.4-4.85,9.83-8.72,16.31-10.11a28.46,28.46,0,0,1,18.17,2.67,50.52,50.52,0,0,1,11.12,7.53c2.17,1.9,5.37-1.27,3.18-3.18Z" transform="translate(-196.68 -194.12)"/><path d="M327.43,211.35c6.13,5.36,13.34,9.93,21.46,11.45a30.54,30.54,0,0,0,20.47-3.23,39.15,39.15,0,0,0,10-8.13c1.94-2.14-1.23-5.33-3.18-3.18-4.4,4.85-9.82,8.72-16.31,10.1-6.14,1.32-12.58,0-18.17-2.66a50.79,50.79,0,0,1-11.12-7.54c-2.17-1.9-5.36,1.28-3.18,3.19Z" transform="translate(-196.68 -194.12)"/><path d="M359.78,277.28c10.55-18.15,15.42-40.37,8-60.58a59.34,59.34,0,0,0-7.86-14.63,2.32,2.32,0,0,0-3.08-.81,2.27,2.27,0,0,0-.8,3.08,55.82,55.82,0,0,1,10.36,25.26,64.55,64.55,0,0,1-2.86,28.63,85.61,85.61,0,0,1-7.6,16.78c-1.46,2.5,2.43,4.77,3.89,2.27Z" transform="translate(-196.68 -194.12)"/><path d="M352.24,275c-10-17.2-14.57-38-7.5-57.12a55.61,55.61,0,0,1,7.41-13.55,2.27,2.27,0,0,0-.81-3.08,2.3,2.3,0,0,0-3.08.81,59,59,0,0,0-10.87,26.72,69.17,69.17,0,0,0,2.92,30.63,90.71,90.71,0,0,0,8.05,17.86c1.45,2.5,5.34.24,3.88-2.27Z" transform="translate(-196.68 -194.12)"/><path d="M390.19,237.32c-8.31.07-16.63-.09-24.94-.14-12.29-.08-24.58-.17-36.88-.19-3.22,0-6.48-.15-9.7,0-2.87.18-2.89,4.68,0,4.5,2.65-.16,5.33-.05,8-.05q8.22,0,16.46.07,18.51.09,37,.22c3.36,0,6.72.08,10.07,0,2.9,0,2.91-4.53,0-4.5Z" transform="translate(-196.68 -194.12)"/><path d="M301.71,396.23c-4,0-8,0-12,0L266,396.08,238.37,396q-12.12,0-24.22-.07c-4.46,0-8.93-.06-13.39,0l-.52,0c-2.88.12-2.9,4.62,0,4.5,3.8-.17,7.63-.06,11.43-.06q11.69,0,23.36.06l27.61.12,24.49.11c4.66,0,9.31.06,14,.05h.61c2.9,0,2.9-4.52,0-4.5Z" transform="translate(-196.68 -194.12)"/><path d="M224,274.08a58.7,58.7,0,0,1,6.93-17c2.83-4.46,6.76-8.54,11.92-10.15a26.73,26.73,0,0,1,18.95,1.23,23,23,0,0,1,11.06,10.27c3.3,6.1,4.46,13.2,4.72,20.06.12,2.88,4.62,2.9,4.5,0-.48-12.53-4.1-26.51-15.79-33.09a32,32,0,0,0-21.87-3.52c-6.54,1.32-11.68,5.18-15.65,10.43-4.53,6-7.27,13.34-9.11,20.58-.71,2.81,3.63,4,4.34,1.2Z" transform="translate(-196.68 -194.12)"/><path d="M277.53,278.48c.64,11.59-1.23,25.61-12,32.29-5,3.12-10.69,3.9-16.51,3.53-5.59-.37-11.37-1.19-15.94-4.68-5-3.81-8.06-9.69-10.83-15.17-1.3-2.58-5.18-.31-3.88,2.27,2.77,5.51,5.89,11.19,10.59,15.3a25,25,0,0,0,7.51,4.54,39.09,39.09,0,0,0,9.93,2c6.64.73,13.36.29,19.39-2.78a27.53,27.53,0,0,0,12.83-13.95c3.12-7.32,3.85-15.47,3.41-23.35-.15-2.88-4.66-2.9-4.5,0Z" transform="translate(-196.68 -194.12)"/><path d="M220.24,310.25l-.3.14c-.14.07.49-.2-.09,0l-1.35.54c-1.36.55-2.72,1.11-4.06,1.7a52.72,52.72,0,0,0-9.14,4.95,17.76,17.76,0,0,0-6.63,7.63,32.39,32.39,0,0,0-2,11.88c-.12,6.81.67,13.6.68,20.41,0,5.75,0,11.5,0,17.24,0,7.52,0,15,0,22.56,0,2.9,4.48,2.9,4.5,0,.09-12.62,0-25.24,0-37.85,0-5.75-.4-11.46-.62-17.2a50,50,0,0,1,.58-12,12.73,12.73,0,0,1,4.42-7.75,40.75,40.75,0,0,1,9.43-5.48c2.25-1,4.48-1.74,6.83-2.88,2.6-1.27.32-5.15-2.28-3.89Z" transform="translate(-196.68 -194.12)"/><path d="M278.53,314.14c1.88.92,4,1.61,5.68,2.37a54.48,54.48,0,0,1,8.89,4.73c2.45,1.68,4.4,3.54,5.38,6.35A33.92,33.92,0,0,1,299.86,339c-.05,6.34-.68,12.64-.69,19l0,17.42c0,7.31,0,14.61,0,21.92,0,2.89,4.52,2.9,4.5,0-.08-12.8,0-25.61,0-38.41,0-6.2.53-12.37.67-18.57.17-7.46-.25-15.88-6.38-21a44,44,0,0,0-10.08-6.07c-1.6-.74-3.23-1.42-4.86-2.09l-1.63-.65c-.18-.07-.9-.39-.19-.08a3.52,3.52,0,0,1-.4-.18c-2.59-1.26-4.88,2.62-2.27,3.89Z" transform="translate(-196.68 -194.12)"/><path d="M348.9,194.72a49.2,49.2,0,0,0-7.44,1.26,52,52,0,0,0-7.21,2.87,43.91,43.91,0,0,0-12.2,8c-6.55,6.28-10.2,15.47-11.34,24.33a51.61,51.61,0,0,0,.91,17.08c.59,2.83,4.93,1.63,4.34-1.2-1.76-8.51-1.68-17.93,2-26a35.94,35.94,0,0,1,6-9.76,37.06,37.06,0,0,1,10.52-7.64,59.63,59.63,0,0,1,7-3,34.31,34.31,0,0,1,7.45-1.5,2.33,2.33,0,0,0,2.25-2.25,2.27,2.27,0,0,0-2.25-2.25Z" transform="translate(-196.68 -194.12)"/><path d="M311.84,247.25A111.63,111.63,0,0,0,304,257.4c-1,1.48.36,3.32,1.94,3.38,3.76.16,7.52,0,11.28-.09a2.25,2.25,0,0,0,0-4.5c-3.76.13-7.52.25-11.28.09l1.95,3.39c.55-.81,1.12-1.62,1.7-2.42.29-.4.58-.8.88-1.19l.51-.68.25-.33.09-.11c-.09.12-.07.08.08-.11l.26-.33.46-.58.93-1.15q1-1.19,2-2.34a2.25,2.25,0,0,0-3.18-3.18Z" transform="translate(-196.68 -194.12)"/></svg>