<?xml version="1.0" encoding="UTF-8"?>
<svg id="Layer_2" data-name="Layer 2" xmlns="http://www.w3.org/2000/svg" viewBox="0 0 210.54 208.76">
  <defs>
    <style>
      .cls-1 {
        stroke: #012b2d;
      }

      .cls-1, .cls-2, .cls-3, .cls-4 {
        fill: none;
        stroke-linecap: round;
        stroke-linejoin: round;
      }

      .cls-1, .cls-4 {
        stroke-width: 3px;
      }

      .cls-5 {
        opacity: .2;
      }

      .cls-6 {
        fill: #01b1b0;
      }

      .cls-2, .cls-3 {
        stroke-width: 2px;
      }

      .cls-2, .cls-4 {
        stroke: #fff;
      }

      .cls-3 {
        stroke: #ffc425;
      }
    </style>
  </defs>
  <g id="Layer_1-2" data-name="Layer 1">
    <g>
      <circle class="cls-6" cx="100.24" cy="100.24" r="100.24"/>
      <g>
        <path class="cls-3" d="m95.28,71.66c.54-2.44,2.52-4.25,4.87-4.25,2.77,0,5.01,2.51,5.01,5.62s-2.25,5.62-5.01,5.62c-2.11,0-3.92-1.47-4.66-3.54"/>
        <path class="cls-3" d="m104.17,79.12c.26.11,2.19.65,2.71,1.42.59.88.25,7.08.26,8.4h-13.87c.01-1.33-.33-7.53.26-8.4.52-.76,2.45-1.31,2.71-1.42"/>
      </g>
      <g class="cls-5">
        <line class="cls-1" x1="202.81" y1="118.23" x2="189.46" y2="159.44"/>
        <line class="cls-1" x1="209.04" y1="99.02" x2="205.64" y2="109.51"/>
        <line class="cls-1" x1="203.91" y1="66.3" x2="165.6" y2="184.53"/>
        <line class="cls-1" x1="204.5" y1="64.48" x2="203.91" y2="66.3"/>
        <line class="cls-1" x1="184.14" y1="78.78" x2="145.96" y2="196.6"/>
        <line class="cls-1" x1="195.54" y1="43.58" x2="186.67" y2="70.95"/>
        <line class="cls-1" x1="135.92" y1="179.05" x2="128.09" y2="203.2"/>
        <line class="cls-1" x1="147.68" y1="142.74" x2="138.79" y2="170.2"/>
        <line class="cls-1" x1="184.98" y1="27.63" x2="174.08" y2="61.28"/>
        <line class="cls-1" x1="126.08" y1="160.87" x2="111.41" y2="206.14"/>
        <line class="cls-1" x1="173.31" y1="15.09" x2="167.21" y2="33.92"/>
        <line class="cls-1" x1="107.32" y1="170.2" x2="95.32" y2="207.26"/>
        <line class="cls-1" x1="159.96" y1="7.76" x2="157.58" y2="15.09"/>
        <line class="cls-1" x1="90.02" y1="175.06" x2="80.07" y2="205.78"/>
        <line class="cls-1" x1="73.72" y1="176.82" x2="65.47" y2="202.29"/>
        <line class="cls-1" x1="58.21" y1="176.14" x2="51.49" y2="196.87"/>
        <line class="cls-1" x1="43.41" y1="173.28" x2="37.95" y2="190.12"/>
        <line class="cls-1" x1="29.4" y1="167.95" x2="25.51" y2="179.98"/>
        <line class="cls-1" x1="15.83" y1="161.3" x2="13.67" y2="167.95"/>
      </g>
      <path class="cls-2" d="m113.9,99.23c-9.14.04-18.27.07-27.41.07"/>
      <path class="cls-2" d="m116.64,95.12c-10.96.04-21.93.07-32.89.07"/>
      <path class="cls-3" d="m90.64,70.33l-1.79-.72v-2.87h-16.31l.09,8.06h16.21v-3.6s1.74-.84,1.79-.86"/>
      <path class="cls-1" d="m59.42,105.24c-8.86,9.96-14.58,15.9-22.96,25.04-2.51,2.74-.57,7.17,3.15,7.17h121.24c3.71,0,5.66-4.4,3.17-7.15-8.27-9.17-15.68-17.1-23.06-25.06"/>
      <path class="cls-1" d="m59.42,105.24h81.55"/>
      <path class="cls-1" d="m59.42,105.24v-50.04c0-2.26,1.83-4.1,4.1-4.1h73.35c2.26,0,4.1,1.83,4.1,4.1h0v50.04"/>
      <path class="cls-1" d="m68.33,110.04c-2.06,3.43-3.43,4.8-5.48,8.22h74.01c-2.06-3.43-2.06-4.11-4.8-8.22h-63.73"/>
      <path class="cls-4" d="m86.15,123.74c-.88,2-1.46,2.8-2.33,4.8h31.52c-.88-2-.88-2.4-2.04-4.8h-27.14"/>
    </g>
  </g>
</svg>