<svg id="Layer_1" data-name="Layer 1"
    xmlns="http://www.w3.org/2000/svg" viewBox="0 0 193.93 130.62">
    <path d="M314.77,302.41q-20,.1-40,.11c-2.89,0-2.9,4.5,0,4.5q20,0,40-.11c2.9,0,2.9-4.51,0-4.5Z" transform="translate(-200.37 -232.09)"/>
    <path d="M318.77,296.41q-24,.1-48,.11c-2.89,0-2.9,4.5,0,4.5q24,0,48-.11c2.9,0,2.9-4.51,0-4.5Z" transform="translate(-200.37 -232.09)"/>
    <path d="M307.5,280.78c-6.11,0-12.23-.06-18.34-.07-1,0-2,0-3,0-2.88.11-2.9,4.61,0,4.5,6.05-.24,12.15,0,18.21,0h3.1c2.9,0,2.9-4.52,0-4.5Z" transform="translate(-200.37 -232.09)"/>
    <path d="M280.39,259a8.41,8.41,0,0,0-1-.28c-.24-.07-.48-.18-.72-.23-.08,0-.18-.18.1.12l.58,1c.07.2.06-.64.06-.78,0-.4,0-.82,0-1.22a2.42,2.42,0,0,0-1.77-2.24,12.47,12.47,0,0,0-3.4-.12c-2.58,0-5.17,0-7.75,0h-7.27c-1.83,0-3.75-.18-5.58,0s-2.53,1.49-2.53,3.24v3.81c0,1.18,0,2.37,0,3.55s-.09,2.57.79,3.44,2.38.71,3.54.75c1.45.06,2.9,0,4.35.05h10c2.21,0,4.43.09,6.64,0,1.53-.07,2.93-.57,3.06-2.36.06-.87,0-1.77,0-2.64v-1.76c0-.09.06-.68-.06-.34l-.58,1c-.37.43-.12.07.11,0a5.5,5.5,0,0,1,.51-.22l1-.35a2.3,2.3,0,0,0,1.57-2.76,2.28,2.28,0,0,0-2.77-1.58c-1.33.48-3.16.9-3.93,2.22a5.75,5.75,0,0,0-.33,3v3.52l.65-1.59v0l1-.58c-.23.09.6,0,0,0-.34,0-.68,0-1,0h-2.62c-1.8,0-3.6,0-5.39,0-4.68,0-9.34,0-14-.11l1.13.31,0,0,.81.8c.1.21.15.64.2.53a1.79,1.79,0,0,0,0-.46c0-.39,0-.78,0-1.18,0-.78,0-1.56,0-2.35v-5.47l-.31,1.13,0-.05-1.35,1c.31-.12-.57,0,.07,0h.78l1,0c.8,0,1.61,0,2.42,0h16c.51,0,1,0,1.53,0,.24,0,.52,0,.77,0,.47,0-.23-.08,0,0l-1-.58,0,0-.65-1.59c0,1.77-.36,3.73,1.43,4.75a21.55,21.55,0,0,0,2.83,1,2.26,2.26,0,0,0,2.77-1.57,2.32,2.32,0,0,0-1.57-2.77Z" transform="translate(-200.37 -232.09)"/>
    <path d="M292.44,255.53l.18-.57c.21-.59-.19.37.09-.19a10.2,10.2,0,0,1,.57-1c.06-.08.41-.53.11-.16.12-.15.25-.3.38-.44l.33-.33s.49-.43.27-.25.24-.17.3-.21l.48-.28.41-.2c-.48.22,0,0,.14,0s.39-.11.58-.15c.61-.13-.38,0,.24,0h.63c.62,0-.38-.11.23,0,.21,0,.41.09.61.15s.65.25.26.08a8.82,8.82,0,0,1,1,.59c.26.16-.36-.34,0,0l.28.27a3.61,3.61,0,0,1,.33.35c.16.18.27.38.07.08a10.67,10.67,0,0,1,.57.91q.14.26.24.51c-.2-.46,0,.14.06.19a9.57,9.57,0,0,1,.3,1.2c.08.4,0-.11,0,.15s0,.52,0,.79a2.25,2.25,0,0,0,4.5,0c-.06-4.4-2.76-8.89-7.35-9.67-4.81-.83-8.91,2.52-10.27,7a2.25,2.25,0,1,0,4.34,1.2Z" transform="translate(-200.37 -232.09)"/>
    <path d="M301.21,257.3a8.14,8.14,0,0,1,0,.85c0,.1-.1.7,0,.24a9.71,9.71,0,0,1-.36,1.41c0,.1-.28.63-.08.22-.09.19-.18.37-.28.55a5.27,5.27,0,0,1-.37.59l-.17.24c.15-.19.14-.19,0,0s-.26.28-.41.42l-.29.26.08-.06c-.21.13-.41.27-.63.38.33-.17-.23.08-.28.09a3.2,3.2,0,0,1-.42.1c-.24,0-.29,0-.14,0s.11,0-.14,0l-.44,0a12.29,12.29,0,0,1-1.49-.07l-.82-.08c-.59-.05.37.14,0,0s0,.06,0,0a3.17,3.17,0,0,1-.53-.29c-.11-.07-.5-.38-.07,0l-.39-.34c-.17-.16-.33-.33-.49-.51s-.42-.51-.11-.1a9.82,9.82,0,0,1-.71-1.1c-.09-.16-.17-.33-.25-.49-.27-.54.12.41-.06-.15-.13-.4-.23-.79-.32-1.2.12.55,0,.06,0-.08s.07-.87,0-.21a2.32,2.32,0,0,0-1.57-2.77,2.29,2.29,0,0,0-2.77,1.57,8.76,8.76,0,0,0,1.09,5.6,9.8,9.8,0,0,0,3.65,3.85A6.79,6.79,0,0,0,295,267a14,14,0,0,0,3,.08,8,8,0,0,0,5.75-3.35,10.68,10.68,0,0,0,2-6.45,2.25,2.25,0,0,0-4.5,0Z" transform="translate(-200.37 -232.09)"/>
    <path d="M289.5,263c.65-.3,0,0-.33.13-.54.22-1.08.45-1.61.71a8.22,8.22,0,0,0-2.49,1.8c-1.68,1.95-1.44,4.72-1.3,7.12.18,3.34.07,6.72,0,10.06,0,2.9,4.49,2.9,4.5,0s.07-6.06,0-9.08c0-1.07-.14-2.14-.14-3.22,0-.26,0-.52,0-.78,0-.07.09-.74,0-.38a5.33,5.33,0,0,1,.17-.66c-.12.36.07-.11.12-.19-.27.41.08,0,.16-.1-.31.28.17-.12.22-.15a12.66,12.66,0,0,1,1.14-.63l.55-.25c.52-.23-.33.13.1,0s.74-.29,1.1-.46a2.26,2.26,0,0,0,.81-3.07,2.3,2.3,0,0,0-3.08-.81Z" transform="translate(-200.37 -232.09)"/>
    <path d="M301.74,266.85c.33.16.68.3,1,.44s-.15-.08.08,0l.54.24a11.24,11.24,0,0,1,1.23.67c.09.06.54.44.22.15.1.09.44.51.17.1.06.09.24.57.12.19a5.28,5.28,0,0,1,.16.66c-.06-.35,0,.38,0,.38,0,.26,0,.52,0,.78,0,1.08-.12,2.15-.14,3.22-.07,3,0,6.06,0,9.08s4.52,2.9,4.5,0c0-3.34-.14-6.72.05-10.06.13-2.4.38-5.17-1.31-7.12a8,8,0,0,0-2.49-1.8c-.52-.26-1.07-.49-1.61-.71l-.43-.18c-.54-.22.27.13.11.05a2.32,2.32,0,0,0-3.08.81,2.26,2.26,0,0,0,.81,3.07Z" transform="translate(-200.37 -232.09)"/>
    <path d="M236.18,311.84q-9.78,11-19.83,21.76-4.72,5.08-9.44,10.18c-2.84,3.08-6.81,6.19-6.52,10.82a8.64,8.64,0,0,0,8.87,8.08H377.44c2.79,0,5.58.06,8.36,0a8.61,8.61,0,0,0,8.07-5.86,8.41,8.41,0,0,0,0-5.25c-.77-2.3-2.59-4-4.18-5.71q-10.6-11.72-21.36-23.27l-10-10.75c-2-2.13-5.15,1.06-3.18,3.18q10.11,10.89,20.2,21.81,5.34,5.81,10.66,11.67c1.27,1.41,3.22,2.9,3.67,4.81a4,4,0,0,1-.75,3.34c-1,1.38-2.61,1.53-4.3,1.53H217.46c-2.85,0-5.71.06-8.56,0a4,4,0,0,1-4-3.5,4.15,4.15,0,0,1,1.13-3.29c1.68-1.86,3.39-3.69,5.09-5.53,6.12-6.62,12.28-13.2,18.36-19.85q5-5.46,9.89-11c1.92-2.15-1.25-5.35-3.18-3.18Z" transform="translate(-200.37 -232.09)"/>
    <path d="M237.77,315.68h119c2.9,0,2.9-4.5,0-4.5h-119c-2.89,0-2.9,4.5,0,4.5Z" transform="translate(-200.37 -232.09)"/>
    <path d="M240,313.43V242c0-.53,0-1.06,0-1.59a3.8,3.8,0,0,1,3.75-3.77c1.2,0,2.41,0,3.61,0H349.66c.37,0,.74,0,1.11,0,2.4.07,3.74,1.92,3.75,4.18,0,6.09,0,12.17,0,18.26v54.31c0,2.9,4.5,2.9,4.5,0V247.86c0-2.53.1-5.09,0-7.62a8.35,8.35,0,0,0-7.89-8.05c-4.14-.23-8.36,0-12.51,0H243.75a8.35,8.35,0,0,0-8.22,7.89c-.09,1.63,0,3.29,0,4.92v68.44c0,2.9,4.5,2.9,4.5,0Z" transform="translate(-200.37 -232.09)"/>
    <path d="M248.83,319.3c-2.49,4.12-5.51,7.88-8,12a2.27,2.27,0,0,0,1.94,3.38h108a2.26,2.26,0,0,0,1.94-3.38c-1.37-2.3-2.56-4.68-3.88-7-.81-1.43-1.69-2.83-2.59-4.21-.79-1.2-1.36-1.86-2.89-1.9-1,0-2,0-2.93,0H250.77c-2.89,0-2.9,4.5,0,4.5h93l-1.94-1.11c2.57,3.87,4.62,8,7,12l1.94-3.39h-108l1.94,3.39c2.5-4.12,5.51-7.88,8-12,1.51-2.49-2.38-4.75-3.88-2.27Z" transform="translate(-200.37 -232.09)"/>
    <path d="M274.83,339.3c-1.05,2.37-2.35,4.62-3.41,7a2.28,2.28,0,0,0,1.94,3.38h46c1.86,0,2.6-1.87,1.95-3.38-1-2.33-1.88-4.71-3-7a2.23,2.23,0,0,0-1.95-1.12H276.77c-2.89,0-2.9,4.5,0,4.5h39.61l-1.94-1.11c1.11,2.29,2,4.66,3,7l1.94-3.39h-46l1.95,3.39c1.05-2.38,2.35-4.63,3.4-7a2.31,2.31,0,0,0-.8-3.08,2.27,2.27,0,0,0-3.08.81Z" transform="translate(-200.37 -232.09)"/>
</svg>