<svg id="Layer_1" data-name="Layer 1" xmlns="http://www.w3.org/2000/svg" viewBox="0 0 183.97 176.09"><path d="M296.8,378c12.57,3.94,25.6,9.12,38.81,5,6.79-2.13,12.83-6.06,18.44-10.36a103.67,103.67,0,0,0,12.24-10.88,82.79,82.79,0,0,0,13.5-18.49,96,96,0,0,0,7.4-19.49,71.28,71.28,0,0,0,2.09-16.32,84.94,84.94,0,0,0-1.7-20.06c-2.53-12.1-7.35-24.54-17.36-32.37-1.16-.91-2.35-1.78-3.52-2.68a2.31,2.31,0,0,0-3.18,0,2.26,2.26,0,0,0,0,3.18,80.37,80.37,0,0,1,6.75,5.45,33.21,33.21,0,0,1,6.07,8.11A61,61,0,0,1,382,283.23a82.72,82.72,0,0,1,2.79,19A78.74,78.74,0,0,1,383.68,319a93.16,93.16,0,0,1-5.76,17.75,71.71,71.71,0,0,1-11.3,18,89.89,89.89,0,0,1-11.31,11.19,77.92,77.92,0,0,1-16.33,11,33.23,33.23,0,0,1-19.39,2.84c-7.39-1.13-14.49-3.79-21.6-6-2.77-.87-3.95,3.47-1.19,4.34Z" transform="translate(-205.35 -208.4)"/><path d="M370,254.55a26.86,26.86,0,0,0-5.79-3.9c-1.94-1-4.24-2-6.46-1.83-2.55.19-4.44,2.26-5.94,4.13a65.92,65.92,0,0,0-10.54,20.3,44.09,44.09,0,0,0-2.38,11.17c-.18,2.84-.09,7,2.19,9.09,2.49,2.27,6.65,2.42,9.8,2.85a33.35,33.35,0,0,1,5.06.92c.14.05,1,.41.52.16a1.68,1.68,0,0,0,.3.15c.5.17,0,.18,0,0,0,0,.17.17.2.18-.27-.11-.24-.39-.1-.11.21.43-.09-.57,0,.1,0,.19.08.38.12.57-.11-.53,0-.2,0,.12a15.31,15.31,0,0,1,0,1.66c0,.3,0,.6-.07.9,0,.14-.13,1.06-.06.57-.11.8-.25,1.59-.41,2.38a88,88,0,0,1-3,10.8c-2.43,7.3-5.35,14.68-9.47,21.21-.39.62-.79,1.23-1.22,1.83-.08.11-.65.85-.36.49-.23.29-.46.57-.71.84a24.39,24.39,0,0,1-3.14,2.78,54.49,54.49,0,0,1-4.58,3.19c-.72.45-1.46.88-2.22,1.27a7.56,7.56,0,0,1-1.85.71l-.16,0,.14,0s-.23,0-.28,0l.36,0-.36-.12c.06,0,.37.18-.19-.1a7.37,7.37,0,0,1-2.07-1.53,21,21,0,0,1-3.05-4.23c-1.49-2.51-3.08-6.37-6.23-7.13-1.77-.42-3.55.45-5.08,1.24a19.26,19.26,0,0,0-4.18,3c-3.54,3.28-6.11,7.63-8.5,11.79a49.89,49.89,0,0,0-5,11.86c-1.06,3.88-2.08,8.31-1.26,12.33a5.77,5.77,0,0,0,2.41,3.81c2.42,1.61,4.67-2.29,2.27-3.89-.31-.2.1.33,0,0,0,0-.31-.54.06.09a1.65,1.65,0,0,1-.2-.37c-.09-.34.16.53,0,0a4.72,4.72,0,0,1-.28-1.73,22.94,22.94,0,0,1,.51-5.43,45.22,45.22,0,0,1,3.51-11,59.87,59.87,0,0,1,7.79-12.28,18.86,18.86,0,0,1,3.53-3.29,16,16,0,0,1,1.92-1.12c.42-.2.39-.19.64-.29s.46-.15.67-.25c.43-.2.15.14,0-.05,0,0,.28,0,.29,0l-.31,0,.28.08c0-.06-.56-.15-.14,0,0,0,.45.31.16.09s.3.3.41.42.25.28.37.43c-.25-.31.07.12.13.21.92,1.36,1.69,2.81,2.54,4.21,1.86,3.11,4.43,6.74,8.15,7.71,1.57.41,3.21-.25,4.61-.9a33.11,33.11,0,0,0,4.7-2.77,34.68,34.68,0,0,0,7.33-6.1c4.58-5.6,7.48-12.67,10.08-19.34s5-13.78,5.86-21c.23-2,.38-4.48-.8-6.25-1.75-2.61-6-2.76-8.8-3.14a53.15,53.15,0,0,1-5.32-.88c-.34-.08-.67-.17-1-.27-.15-.05-1-.4-.63-.21a5.56,5.56,0,0,1-.79-.45c.48.33.13.08.07.05l-.21-.22c.19.25.23.3.15.16s-.14-.42,0,0c0-.12-.09-.23-.13-.35-.1-.31-.2-.62-.28-.94a7.48,7.48,0,0,1-.27-1.79,24.55,24.55,0,0,1,.2-4.56c1.09-7.34,4.15-14.51,7.83-20.92.82-1.43,1.69-2.84,2.65-4.2a18.53,18.53,0,0,1,2.27-2.81,13.8,13.8,0,0,1,1.13-1c-.39.31-.12.08.12-.06s.83-.39.09-.1a1.58,1.58,0,0,1,1.21,0,12.91,12.91,0,0,1,2.75,1,22.64,22.64,0,0,1,5.18,3.35c2.16,1.93,5.35-1.25,3.19-3.18Z" transform="translate(-205.35 -208.4)"/><path d="M282.92,355.26a80.43,80.43,0,0,1-31-6.08,61.82,61.82,0,0,1-24.61-18.65,92.77,92.77,0,0,1-8.81-13.69,73.85,73.85,0,0,1-5.9-13.86,64.61,64.61,0,0,1-2.5-14.14,58.33,58.33,0,0,1,.23-12.94,85.41,85.41,0,0,1,10.07-28.55,62.15,62.15,0,0,1,15.26-18.62c7.38-5.85,16.33-9.57,25.24-12.35,9.89-3.08,20.16-4.52,30.45-2.82,9.33,1.54,18.43,4.51,26.22,9.75,7.31,4.91,14,11.46,18,19.34a30.85,30.85,0,0,1,2.34,6c.76,2.79,5.1,1.61,4.34-1.19-2.57-9.41-9.15-17.42-16.52-23.58a64.17,64.17,0,0,0-10.84-7.42,71.25,71.25,0,0,0-14.1-5.36,67.64,67.64,0,0,0-32.63-1.29,103.88,103.88,0,0,0-16.62,5.09,82.62,82.62,0,0,0-13.19,6.46c-16.41,10.19-26.47,28.46-31.07,46.82a58.16,58.16,0,0,0-1.95,12.92,84.37,84.37,0,0,0,1.24,16.11c1.88,10.56,6.63,20.41,12.4,29.37,6.15,9.54,14,17.65,24,23.21a80.87,80.87,0,0,0,31.69,9.57q4.13.39,8.26.4c2.9,0,2.9-4.5,0-4.5Z" transform="translate(-205.35 -208.4)"/><path d="M237.27,234.12C247.68,243.26,260,251,273.78,253.6a51.33,51.33,0,0,0,34.5-5.53,66.54,66.54,0,0,0,16.93-13.78c1.94-2.14-1.23-5.34-3.18-3.18-7.85,8.7-17.71,15.62-29.33,18-11.15,2.32-22.7,0-32.82-5a89,89,0,0,1-19.43-13.24c-2.17-1.9-5.36,1.27-3.18,3.18Z" transform="translate(-205.35 -208.4)"/><path d="M271.61,217.74c-9.67,16.59-16.58,34.8-19,53.9A106.06,106.06,0,0,0,258,321.81a101.81,101.81,0,0,0,13.46,24.95,2.31,2.31,0,0,0,3.07.8,2.26,2.26,0,0,0,.81-3.07A98.16,98.16,0,0,1,257.13,300c-2.39-16.94-.21-34.31,5-50.53A150,150,0,0,1,275.5,220c1.46-2.51-2.43-4.77-3.89-2.27Z" transform="translate(-205.35 -208.4)"/><path d="M284.7,220c9.31,16,16.17,33.62,18.45,52a103.06,103.06,0,0,1-5.28,48.56,97.78,97.78,0,0,1-13,23.88,2.25,2.25,0,0,0,.81,3.07,2.29,2.29,0,0,0,3.07-.8,101,101,0,0,0,18.71-45.94,118.49,118.49,0,0,0-5.07-52.53,156.31,156.31,0,0,0-13.8-30.55c-1.46-2.5-5.35-.24-3.89,2.27Z" transform="translate(-205.35 -208.4)"/><path d="M318.74,322.61c-9.66-7.19-21.86-10.2-33.78-10a72.17,72.17,0,0,0-34,9,49.34,49.34,0,0,0-13.7,11,2.31,2.31,0,0,0,0,3.18,2.27,2.27,0,0,0,3.18,0c6.57-7.81,16-12.83,25.69-15.74,10.73-3.23,22.41-4,33.36-1.4a46.62,46.62,0,0,1,17,7.87,2.27,2.27,0,0,0,3.08-.81,2.3,2.3,0,0,0-.81-3.08Z" transform="translate(-205.35 -208.4)"/><path d="M217.32,284.68c4.48,0,9,0,13.45,0l26.34.09,30.88.1q13.59,0,27.18,0c4.95,0,9.91.07,14.86-.1l.58,0c2.87-.18,2.89-4.68,0-4.5-4.27.27-8.59.12-12.86.13q-13,0-26,0l-30.87-.1-27.45-.1c-5.13,0-10.27,0-15.4,0h-.67c-2.9,0-2.9,4.53,0,4.5Z" transform="translate(-205.35 -208.4)"/></svg>