<?xml version="1.0" encoding="UTF-8"?>
<svg id="Layer_2" data-name="Layer 2" xmlns="http://www.w3.org/2000/svg" viewBox="0 0 564.14 63.6">
  <defs>
    <style>
      .cls-1 {
        fill: none;
        stroke: #012b2d;
        stroke-miterlimit: 10;
        stroke-width: 6px;
      }
    </style>
  </defs>
  <g id="Layer_1-2" data-name="Layer 1">
    <g>
      <path class="cls-1" d="m18.34,60.6V8.4H3V3h36v5.4h-15.26v52.2h-5.4Z"/>
      <path class="cls-1" d="m61.46,60.6h-5.4V3h36v5.4h-30.6v16.2h16.2v5.4h-16.2v25.2h30.6v5.4h-30.6Z"/>
      <path class="cls-1" d="m138.43,55.34c-3.5,3.5-7.75,5.26-12.74,5.26s-9.24-1.75-12.74-5.26c-3.5-3.5-5.26-7.75-5.26-12.74h5.4c0,3.5,1.24,6.48,3.71,8.93,2.47,2.45,5.45,3.67,8.93,3.67s6.44-1.22,8.89-3.67,3.67-5.41,3.67-8.89-1.22-6.46-3.67-8.93c-2.45-2.47-5.42-3.71-8.93-3.71-3.74,0-6.94-1.32-9.58-3.96-2.64-2.64-3.96-5.82-3.96-9.54s1.32-6.9,3.96-9.54,5.83-3.96,9.58-3.96,6.94,1.32,9.58,3.96c2.64,2.64,3.96,5.83,3.96,9.58h-5.47v-.07c0-2.21-.79-4.1-2.38-5.69s-3.49-2.38-5.72-2.38-4.14.79-5.72,2.38c-1.58,1.58-2.38,3.49-2.38,5.72s.79,4.14,2.38,5.72c1.58,1.58,3.5,2.38,5.76,2.38,4.99,0,9.24,1.75,12.74,5.26,3.5,3.5,5.26,7.75,5.26,12.74s-1.75,9.24-5.26,12.74Z"/>
      <path class="cls-1" d="m171.05,60.6V8.4h-15.34V3h36v5.4h-15.26v52.2h-5.4Z"/>
      <path class="cls-1" d="m214.18,3v57.6h-5.4V3h5.4Z"/>
      <path class="cls-1" d="m236.64,42.24v18.36h-5.4V3h5.4l8.14,10.8,8.06,10.8,8.14-10.8,8.06-10.8h5.4v57.6h-5.4V12l-5.9,7.92-5.98,7.92-2.16,2.88-2.16,2.88-2.16-2.88-2.16-2.88-5.9-7.92-5.98-7.92v30.24Z"/>
      <path class="cls-1" d="m297.84,9.34c4.22-4.22,9.31-6.34,15.26-6.34s11.04,2.11,15.26,6.34c4.22,4.22,6.34,9.31,6.34,15.26v14.4c0,5.95-2.11,11.04-6.34,15.26s-9.31,6.34-15.26,6.34-11.04-2.11-15.26-6.34c-4.22-4.22-6.34-9.31-6.34-15.26v-14.4c0-5.95,2.11-11.04,6.34-15.26Zm31.46,29.66v-14.4c0-4.46-1.58-8.28-4.75-11.45s-6.98-4.75-11.45-4.75-8.28,1.58-11.45,4.75-4.75,6.98-4.75,11.45v14.4c0,4.46,1.58,8.28,4.75,11.45s6.98,4.75,11.45,4.75,8.28-1.58,11.45-4.75,4.75-6.98,4.75-11.45Z"/>
      <path class="cls-1" d="m357.17,14.3v46.29h-5.4V3h5.4l12.6,23.18,12.6,23.11V3h5.4v57.6h-5.4l-12.6-23.18-12.6-23.11Z"/>
      <path class="cls-1" d="m410.23,3v57.6h-5.4V3h5.4Z"/>
      <path class="cls-1" d="m437.16,44.4l-2.16,8.14-2.09,8.06h-5.62l7.63-28.8,7.63-28.8h5.47l7.63,28.8,7.63,28.8h-5.4l-2.09-8.06-2.16-8.14h-16.49Zm8.14-30.53l-3.31,12.53-3.38,12.6h13.61l-3.38-12.6-3.31-12.53-.07.22-.07.22v-.22l-.07-.22Z"/>
      <path class="cls-1" d="m485.76,60.6h-5.4V3h5.4v52.2h23.4v5.4h-23.4Z"/>
      <path class="cls-1" d="m555.89,55.34c-3.5,3.5-7.75,5.26-12.74,5.26s-9.24-1.75-12.74-5.26c-3.5-3.5-5.26-7.75-5.26-12.74h5.4c0,3.5,1.23,6.48,3.71,8.93,2.47,2.45,5.45,3.67,8.93,3.67s6.44-1.22,8.89-3.67c2.45-2.45,3.67-5.41,3.67-8.89s-1.22-6.46-3.67-8.93c-2.45-2.47-5.42-3.71-8.93-3.71-3.74,0-6.94-1.32-9.58-3.96-2.64-2.64-3.96-5.82-3.96-9.54s1.32-6.9,3.96-9.54,5.83-3.96,9.58-3.96,6.94,1.32,9.58,3.96c2.64,2.64,3.96,5.83,3.96,9.58h-5.47v-.07c0-2.21-.79-4.1-2.38-5.69-1.58-1.58-3.49-2.38-5.72-2.38s-4.14.79-5.72,2.38-2.38,3.49-2.38,5.72.79,4.14,2.38,5.72,3.5,2.38,5.76,2.38c4.99,0,9.24,1.75,12.74,5.26,3.5,3.5,5.26,7.75,5.26,12.74s-1.75,9.24-5.26,12.74Z"/>
    </g>
  </g>
</svg>