<?xml version="1.0" encoding="UTF-8"?>
<svg id="Layer_2" data-name="Layer 2" xmlns="http://www.w3.org/2000/svg" viewBox="0 0 211.77 208.74">
  <defs>
    <style>
      .cls-1 {
        stroke: #012b2d;
      }

      .cls-1, .cls-2, .cls-3 {
        fill: none;
        stroke-linecap: round;
        stroke-linejoin: round;
        stroke-width: 3px;
      }

      .cls-4 {
        opacity: .2;
      }

      .cls-2 {
        stroke: #ffc425;
      }

      .cls-5 {
        fill: #01b1b0;
      }

      .cls-3 {
        stroke: #fff;
      }
    </style>
  </defs>
  <g id="Layer_1-2" data-name="Layer 1">
    <g>
      <circle class="cls-5" cx="100.24" cy="100.24" r="100.24"/>
      <g class="cls-4">
        <line class="cls-1" x1="204.05" y1="118.21" x2="190.69" y2="159.42"/>
        <line class="cls-1" x1="210.27" y1="98.99" x2="206.87" y2="109.49"/>
        <line class="cls-1" x1="205.14" y1="66.27" x2="166.84" y2="184.5"/>
        <line class="cls-1" x1="205.73" y1="64.46" x2="205.14" y2="66.27"/>
        <line class="cls-1" x1="185.37" y1="78.76" x2="147.2" y2="196.57"/>
        <line class="cls-1" x1="196.77" y1="43.55" x2="187.9" y2="70.93"/>
        <line class="cls-1" x1="137.15" y1="179.03" x2="129.33" y2="203.18"/>
        <line class="cls-1" x1="148.92" y1="142.71" x2="140.02" y2="170.18"/>
        <line class="cls-1" x1="186.21" y1="27.6" x2="175.31" y2="61.25"/>
        <line class="cls-1" x1="127.31" y1="160.85" x2="112.64" y2="206.12"/>
        <line class="cls-1" x1="174.54" y1="15.07" x2="168.44" y2="33.89"/>
        <line class="cls-1" x1="108.56" y1="170.18" x2="96.55" y2="207.24"/>
        <line class="cls-1" x1="161.19" y1="7.74" x2="158.81" y2="15.07"/>
        <line class="cls-1" x1="91.25" y1="175.04" x2="81.3" y2="205.75"/>
        <line class="cls-1" x1="74.95" y1="176.8" x2="66.7" y2="202.26"/>
        <line class="cls-1" x1="59.44" y1="176.11" x2="52.73" y2="196.85"/>
        <line class="cls-1" x1="44.64" y1="173.25" x2="39.19" y2="190.09"/>
        <line class="cls-1" x1="30.64" y1="167.93" x2="26.74" y2="179.95"/>
        <line class="cls-1" x1="17.06" y1="161.28" x2="14.91" y2="167.93"/>
      </g>
      <g>
        <path class="cls-3" d="m180.62,113.55l-11.78-4.74v-11.38H61.57l.62,45.52h106.65v-23.71s11.43-5.54,11.78-5.69"/>
        <path class="cls-1" d="m53.09,104.03l-22.07-.27v-22.27l-11.16-6.28,11.16-7.42.31-8.85,107.89,1.14.31,29.33"/>
        <path class="cls-1" d="m87.32,111.14c.11,5.67,0,10.72,0,16.29"/>
        <path class="cls-1" d="m94.6,111.14c.11,5.67,0,10.72,0,16.29"/>
        <path class="cls-1" d="m99.28,111.14c.11,5.67,0,10.72,0,16.29"/>
        <path class="cls-1" d="m87.84,118h6.24"/>
        <path class="cls-2" d="m63.01,71.09c.11,5.67,0,10.72,0,16.29"/>
        <path class="cls-2" d="m70.28,71.09c.11,5.67,0,10.72,0,16.29"/>
        <path class="cls-2" d="m63.53,77.95h6.24"/>
        <path class="cls-2" d="m97.63,77.95h6.24"/>
        <path class="cls-1" d="m99.54,111.14h6.24"/>
        <path class="cls-1" d="m99.54,118h6.24"/>
        <path class="cls-1" d="m99.54,127.43h6.24"/>
        <path class="cls-1" d="m110.19,111.14c.11,5.67,0,10.72,0,16.29"/>
        <path class="cls-1" d="m110.45,127.43h6.24"/>
        <path class="cls-1" d="m119.86,111.14c.11,5.67,0,10.72,0,16.29"/>
        <path class="cls-1" d="m141.17,111.14c.11,4.7,0,8.88,0,13.5"/>
        <path class="cls-1" d="m120.12,127.43h6.24"/>
        <path class="cls-2" d="m87.48,71.09c.11,5.67,0,10.72,0,16.29"/>
        <path class="cls-2" d="m87.74,87.38h6.24"/>
        <path class="cls-1" d="m132.37,111.14c-1.96,0-2.56,1.65-2.61,2.14-.06.61,0,1.96,0,2.57v7.29c0,1.82-.65,3,1.31,3.86,1.96.86,3.27.43,3.92,0s.65-.43.65-2.14,0-2.14.06-3.43c.07-1.65-.06-5.21-.06-6.86,0-2.14-.59-3.43-3.27-3.43"/>
        <path class="cls-2" d="m78.28,71.09c-1.96,0-2.56,1.65-2.61,2.14-.06.61,0,1.96,0,2.57v7.29c0,1.82-.65,3,1.31,3.86,1.96.86,3.27.43,3.92,0q.65-.43.65-2.14c0-1.71,0-2.14.06-3.43.07-1.65-.06-5.21-.06-6.86,0-2.14-.59-3.43-3.27-3.43"/>
        <path class="cls-2" d="m104.19,87.21v-13.7c0-1.14-1.37-2.28-3.1-2.42"/>
        <path class="cls-2" d="m101.09,71.09c-3.51-.02-3.72,2.42-3.72,6.38,0,1.87.05,3.75,0,5.63-.03,1.2,0,2.4,0,4.12"/>
        <path class="cls-1" d="m141.02,127.55l.09-.07"/>
        <path class="cls-2" d="m110.65,71.09c.11,4.7,0,8.88,0,13.5"/>
        <path class="cls-2" d="m110.5,87.49l.09-.07"/>
        <path class="cls-2" d="m56.6,87.49c-.11-4.7,0-8.88,0-13.5"/>
        <path class="cls-2" d="m56.75,71.09l-.09.07"/>
      </g>
    </g>
  </g>
</svg>