<svg id="Layer_1" data-name="Layer 1" xmlns="http://www.w3.org/2000/svg" viewBox="0 0 250.47 137.02"><path d="M421.45,315.86a9.67,9.67,0,0,0-2.69-.89c-1.55-.43-3.09-.86-4.63-1.31-1.79-.52-3.58-1.07-5.34-1.7a17.06,17.06,0,0,1-4-1.8l-.33-.21c-.39-.26.43.12,0,0a1.14,1.14,0,0,1-.22-.22c-.15-.24.33.5.13.16s.23.55.09.21c.33.78.06.21.06-.22V297.18c0-2,.71-5.12-1.4-6.28a9.94,9.94,0,0,0-4.05-.77c-8.45-.58-17,0-25.49,0H270.84c-6.85,0-13.69.09-20.53-.19-3.69-.16-7.59-.48-11.24.2-1.61.3-3.07,1.17-3.17,3-.1,1.53,0,3.1,0,4.63v28.56c0,8.33-.23,16.66-.24,25a57.8,57.8,0,0,0,.54,10.52,3.9,3.9,0,0,0,1.67,2.89c1,.56,2.61.35,3.74.38,7.6.26,15.19.66,22.8.67,13.55,0,27.1.09,40.65,0,11.38,0,22.75-.09,34.13,0,8.57.05,17.14-.09,25.7,0,6.92.08,13.84.16,20.77.14,3.45,0,6.91,0,10.36-.15a29.05,29.05,0,0,0,6.45-.57,2.77,2.77,0,0,0,2.07-3V328.38c0-.46,0-.93,0-1.38s.21-.76-.06-.05c.13-.35-.28.56-.1.2.1-.19.32-.3-.1.11.16-.16.31-.31.48-.46.37-.35-.42.28,0,0l.43-.29a44.88,44.88,0,0,1,9.44-4.3c2.07-.77,4.22-1.38,6.26-2.21a2.31,2.31,0,0,0,1.57-2.76,2.27,2.27,0,0,0-2.77-1.58c-5.48,2.23-11.38,3.61-16.46,6.76a7.44,7.44,0,0,0-2.85,2.66,7.07,7.07,0,0,0-.37,3.33V362c0,.19,0,.41,0,.61.1.71-1,.27.62-1.34.42-.41.56-.39.36-.28,1.14-.66.49-.15.36-.16a3.72,3.72,0,0,0-.79.17c-.17,0,.63-.06,0,0l-.74.07c-1.2.1-2.41.16-3.62.2-7.18.26-14.37.18-21.55.12-16.07-.13-32.15-.15-48.22-.17-12.75,0-25.51.12-38.26.1-10.9,0-21.83.21-32.71-.19l-11.87-.46c-1.35-.05-2.7-.14-4-.13a2.36,2.36,0,0,0-.46,0c.4-.15,1.21.39,1.35.52s.37.48.24.29c.1.15.11.46,0-.09,0-.25-.1-.51-.16-.77-.12-.62,0,.33,0-.37,0-.31-.06-.62-.08-.93-.08-.88-.12-1.77-.15-2.65-.07-1.92-.08-3.85-.07-5.78,0-3.6.11-7.21.19-10.81.23-10.05.05-20.12.05-30.17V295.46a7.37,7.37,0,0,0,0-2.2c-.14-.3-.18.69-.26.83s-.76.72-.52.55-.55.14-.13.06l.25-.08c.15,0,.3-.06.44-.09s.57-.09.21,0l.27,0c.27,0,.55,0,.83-.06a100,100,0,0,1,10.95.16c3.57.16,7.14.1,10.7.1h70.42c17.89,0,35.79.15,53.68-.13,4-.06,8-.17,11.95.11l.95.08c.67.06-.28-.09.4.06a2.47,2.47,0,0,0,.63.14c.3-.05-.38-.19-.26-.12l.08.05a2,2,0,0,1-.95-1.72,6.84,6.84,0,0,0,0,2V307a17,17,0,0,0,.12,4.39,5.49,5.49,0,0,0,2.88,3,49.13,49.13,0,0,0,10,3.69c1.46.43,2.94.83,4.41,1.24.5.14,1,.27,1.48.42a3.5,3.5,0,0,0,.46.14c.5.12-.4-.21-.23-.09,2.42,1.61,4.67-2.29,2.27-3.89Z" transform="translate(-172.1 -228.91)"/><path d="M225.17,301c-11.26-.44-22.52.36-33.77-.41l2.25,2.25V273.09c0-1.87.49-4.44-.7-6a22,22,0,0,0-7.57-6A79.71,79.71,0,0,0,174.92,257c-2.75-.94-3.93,3.4-1.2,4.34,5.46,1.88,12.11,3.71,15.73,8.58l-.3-1.14v34.08a2.31,2.31,0,0,0,2.25,2.25c11.25.77,22.51,0,33.77.41,2.89.12,2.89-4.38,0-4.5Z" transform="translate(-172.1 -228.91)"/><path d="M174.92,261.31a52.82,52.82,0,0,0,11.2-3.39c2.27-1,5.14-2,6.37-4.34a11.25,11.25,0,0,0,1-4c.23-2,.36-4,.47-5.93s.15-3.8.17-5.7c0-1,0-1.9,0-2.85,0-.12,0-.89,0-.9s-.27.51-.06.47.53-.57.7-.69c.46-.33.65-.19,1.42-.22,1.26-.07,2.51-.12,3.77-.16,2.21-.08,4.41-.13,6.62-.16,4.31-.06,8.63,0,13,0q14.73,0,29.45.07,29,.15,58,.61,14.66.24,29.32.58l14.79.36a22.61,22.61,0,0,0,3.49.09l.49,0-.58-.4c-.19,0,.08-.46,0,.13a7.19,7.19,0,0,0,.18.78c.07.39,0,0,.05.52,0,.25,0,.5,0,.75l.06,1.75c.42,12.7.37,25.43.37,38.13v3.35c0,2.9,4.5,2.9,4.5,0,0-12.71,0-25.43-.27-38.14-.07-2.57.15-5.45-.49-8-.54-2.07-1.71-3.29-3.89-3.41-2.56-.14-5.13-.14-7.7-.2q-15-.39-30-.67-29.61-.56-59.2-.74-15-.09-30-.12c-9.23,0-18.48-.13-27.7.18l-3.5.14a10.5,10.5,0,0,0-3.45.4,6.47,6.47,0,0,0-3.67,3.62,9.91,9.91,0,0,0-.17,2.93c0,1,0,2,0,3.08,0,1.93-.11,3.87-.24,5.8a42.55,42.55,0,0,1-.5,5.24c0,.25-.11.49-.17.74a3.82,3.82,0,0,1-.13.36c0-.08.13-.42,0-.05a.8.8,0,0,1-.13.22c-.17.27.27-.29.06,0s-.65.58-.25.28a18.31,18.31,0,0,1-3.35,1.73,40.66,40.66,0,0,1-5.12,2c-2,.6-4,1-6.05,1.44-2.84.57-1.64,4.9,1.2,4.34Z" transform="translate(-172.1 -228.91)"/><path d="M275.31,314.12c.14,8.31,0,16.62,0,24.93,0,2.89,4.49,2.9,4.5,0,0-8.31.14-16.62,0-24.93-.06-2.9-4.56-2.9-4.5,0Z" transform="translate(-172.1 -228.91)"/><path d="M286.44,314.12c.15,8.31,0,16.62,0,24.93,0,2.89,4.5,2.9,4.5,0,0-8.31.15-16.62,0-24.93-.05-2.9-4.55-2.9-4.5,0Z" transform="translate(-172.1 -228.91)"/><path d="M293.59,314.12c.15,8.31,0,16.62,0,24.93,0,2.89,4.5,2.9,4.5,0,0-8.31.15-16.62,0-24.93,0-2.9-4.55-2.9-4.5,0Z" transform="translate(-172.1 -228.91)"/><path d="M278.35,326.86h9.54a2.25,2.25,0,0,0,0-4.5h-9.54a2.25,2.25,0,0,0,0,4.5Z" transform="translate(-172.1 -228.91)"/><path d="M238.1,252.82c.15,8.31,0,16.62,0,24.93,0,2.9,4.5,2.9,4.5,0,0-8.31.15-16.62,0-24.93,0-2.89-4.55-2.9-4.5,0Z" transform="translate(-172.1 -228.91)"/><path d="M249.23,252.82c.15,8.31,0,16.62,0,24.93,0,2.9,4.5,2.9,4.5,0,0-8.31.15-16.62,0-24.93,0-2.89-4.55-2.9-4.5,0Z" transform="translate(-172.1 -228.91)"/><path d="M241.14,265.57h9.54a2.25,2.25,0,0,0,0-4.5h-9.54a2.25,2.25,0,0,0,0,4.5Z" transform="translate(-172.1 -228.91)"/><path d="M293.33,265.57h9.54a2.25,2.25,0,0,0,0-4.5h-9.54a2.25,2.25,0,0,0,0,4.5Z" transform="translate(-172.1 -228.91)"/><path d="M296.24,316.37h9.54a2.25,2.25,0,0,0,0-4.5h-9.54a2.25,2.25,0,0,0,0,4.5Z" transform="translate(-172.1 -228.91)"/><path d="M296.24,326.86h9.54a2.25,2.25,0,0,0,0-4.5h-9.54a2.25,2.25,0,0,0,0,4.5Z" transform="translate(-172.1 -228.91)"/><path d="M296.24,341.3h9.54a2.25,2.25,0,0,0,0-4.5h-9.54a2.25,2.25,0,0,0,0,4.5Z" transform="translate(-172.1 -228.91)"/><path d="M310.29,314.12c.15,8.31,0,16.62,0,24.93,0,2.89,4.5,2.9,4.5,0,0-8.31.15-16.62,0-24.93-.05-2.9-4.55-2.9-4.5,0Z" transform="translate(-172.1 -228.91)"/><path d="M312.94,341.3h9.54a2.25,2.25,0,0,0,0-4.5h-9.54a2.25,2.25,0,0,0,0,4.5Z" transform="translate(-172.1 -228.91)"/><path d="M325.09,314.12c.15,8.31,0,16.62,0,24.93,0,2.89,4.5,2.9,4.5,0,0-8.31.15-16.62,0-24.93,0-2.9-4.55-2.9-4.5,0Z" transform="translate(-172.1 -228.91)"/><path d="M357.7,314.12c.14,6.89,0,13.77,0,20.66,0,2.9,4.49,2.9,4.5,0,0-6.89.14-13.77,0-20.66-.07-2.89-4.57-2.9-4.5,0Z" transform="translate(-172.1 -228.91)"/><path d="M327.74,341.3h9.54a2.25,2.25,0,0,0,0-4.5h-9.54a2.25,2.25,0,0,0,0,4.5Z" transform="translate(-172.1 -228.91)"/><path d="M275.55,252.82c.15,8.31,0,16.62,0,24.93,0,2.9,4.5,2.9,4.5,0,0-8.31.15-16.62,0-24.93-.05-2.89-4.55-2.9-4.5,0Z" transform="translate(-172.1 -228.91)"/><path d="M278.2,280h9.54a2.25,2.25,0,0,0,0-4.5H278.2a2.25,2.25,0,0,0,0,4.5Z" transform="translate(-172.1 -228.91)"/><path d="M346.48,311.87a6.34,6.34,0,0,0-6,4.14c-.72,1.95-.29,4.34-.29,6.38v9.22c0,2.21-.66,4.76.65,6.74,1.55,2.32,5.11,3.3,7.75,3,1.94-.23,4.34-1.25,4.9-3.32a14.26,14.26,0,0,0,.19-3.75c0-1.15,0-2.3,0-3.46.08-2.41.06-4.82,0-7.23s.28-5.29-.53-7.62c-1-3-3.81-4-6.78-4.08s-2.9,4.45,0,4.5a5.42,5.42,0,0,1,2,.32c.61.31-.12-.13.17.1.08.06.39.41.13.11.3.35.17.2.3.69a24.32,24.32,0,0,1,.21,4.78c.07,3.85,0,7.67,0,11.52v1.82a5.42,5.42,0,0,0,0,1.27c-.05-.18.16-.41.27-.6-.11.2.47-.29,0,0l-.47.29c-.06,0-.37.17,0,0a2.59,2.59,0,0,1-.45.14,3.25,3.25,0,0,1-.92.1,5.18,5.18,0,0,1-2.9-.93c-.11-.09-.17-.32-.11-.15-.05-.13,0-.34,0-.05,0-.15,0-.32,0-.48,0-.93.14-1.87.16-2.8,0-2.47,0-4.94,0-7.4s-.11-4.7,0-7c0-.22,0-.44,0-.65,0,.54-.16.21,0,.12,0,0,.23-.54,0,.06a5.36,5.36,0,0,1,.28-.53,2.86,2.86,0,0,1,.34-.35,2,2,0,0,1,1.14-.33c2.89-.1,2.9-4.6,0-4.5Z" transform="translate(-172.1 -228.91)"/><path d="M263.71,250.57a6.31,6.31,0,0,0-5.95,4.15c-.72,1.94-.3,4.34-.3,6.38v9.21c0,2.22-.65,4.77.66,6.74,1.54,2.33,5.11,3.3,7.75,3,1.94-.23,4.33-1.24,4.9-3.31A14.72,14.72,0,0,0,271,273c0-1.16,0-2.31,0-3.46.09-2.42.07-4.82,0-7.24s.28-5.28-.53-7.62c-1-3-3.82-4-6.78-4.08s-2.9,4.46,0,4.5a5.24,5.24,0,0,1,2,.33c.61.31-.13-.13.17.1.07.06.39.4.13.11.3.34.17.2.3.68a24.47,24.47,0,0,1,.21,4.79c.07,3.84,0,7.67,0,11.51v1.82a5,5,0,0,0,0,1.28c-.05-.18.16-.41.27-.61-.12.2.47-.28,0,0l-.47.29c-.06,0-.37.16,0,0a3.88,3.88,0,0,1-.45.14,3.4,3.4,0,0,1-.92.09,5.07,5.07,0,0,1-2.9-.92c-.11-.09-.17-.32-.12-.15,0-.13,0-.35,0-.06,0-.15,0-.32,0-.47,0-.94.15-1.87.16-2.81,0-2.46,0-4.93,0-7.4s-.11-4.7,0-7l0-.65c0,.54-.15.21,0,.12,0,0,.23-.53-.05.06a4.35,4.35,0,0,1,.29-.52,3.06,3.06,0,0,1,.33-.36,2.06,2.06,0,0,1,1.15-.33c2.89-.1,2.9-4.6,0-4.5Z" transform="translate(-172.1 -228.91)"/><path d="M305.61,277.49V258.58a11,11,0,0,0-.27-3.57c-1-2.83-4-4.14-6.73-4.44a2.27,2.27,0,0,0-2.25,2.25,2.3,2.3,0,0,0,2.25,2.25,3.58,3.58,0,0,1,2.25,1c.4.48.25,1,.25,1.8v19.58c0,2.9,4.5,2.9,4.5,0Z" transform="translate(-172.1 -228.91)"/><path d="M298.61,250.57a7.48,7.48,0,0,0-5.84,2.26,10.23,10.23,0,0,0-2,6.11c-.23,2.95-.07,5.94-.06,8.9,0,3.22,0,6.43,0,9.65,0,2.9,4.5,2.9,4.5,0,0-5.55-.1-11.11,0-16.65a21.72,21.72,0,0,1,.16-2.74,9.91,9.91,0,0,1,.23-1.1,5.22,5.22,0,0,1,.18-.56c-.09.21,0,0,0-.08a4.39,4.39,0,0,1,.27-.47c.13-.21-.17.2.09-.11s.09-.19.54-.41a5.58,5.58,0,0,1,1.92-.3c2.9,0,2.91-4.52,0-4.5Z" transform="translate(-172.1 -228.91)"/><path d="M361.31,340.81l.13-.11a1.64,1.64,0,0,0,.47-.72,2.09,2.09,0,0,0,0-1.74,1.64,1.64,0,0,0-.47-.72l-.45-.35a2.17,2.17,0,0,0-1.14-.31l-.6.08a2.26,2.26,0,0,0-1,.58l-.13.11a1.7,1.7,0,0,0-.47.72,2.09,2.09,0,0,0,0,1.74,1.64,1.64,0,0,0,.47.72l.45.35a2.17,2.17,0,0,0,1.14.31l.6-.08a2.26,2.26,0,0,0,1-.58Z" transform="translate(-172.1 -228.91)"/><path d="M311,252.82c.15,6.89,0,13.78,0,20.67,0,2.89,4.5,2.9,4.5,0,0-6.89.15-13.78,0-20.67-.06-2.89-4.56-2.9-4.5,0Z" transform="translate(-172.1 -228.91)"/><path d="M314.61,279.52l.14-.11a2.63,2.63,0,0,0,.66-1.59,1.74,1.74,0,0,0-.2-.87,1.71,1.71,0,0,0-.46-.73l-.46-.35a2.25,2.25,0,0,0-1.13-.3l-.6.08a2.24,2.24,0,0,0-1,.57l-.14.12a2.42,2.42,0,0,0-.66,1.59,1.67,1.67,0,0,0,.19.86,1.84,1.84,0,0,0,.47.73l.46.35a2.23,2.23,0,0,0,1.13.31l.6-.08a2.26,2.26,0,0,0,1-.58Z" transform="translate(-172.1 -228.91)"/><path d="M232.8,277.93c-.15-6.89,0-13.78,0-20.67,0-2.89-4.5-2.9-4.5,0,0,6.89-.15,13.78,0,20.67.06,2.89,4.56,2.9,4.5,0Z" transform="translate(-172.1 -228.91)"/><path d="M229.18,251.23l-.13.11a1.73,1.73,0,0,0-.47.73,1.7,1.7,0,0,0-.19.86,1.73,1.73,0,0,0,.19.87,1.64,1.64,0,0,0,.47.72l.45.36a2.26,2.26,0,0,0,1.14.3l.6-.08a2.17,2.17,0,0,0,1-.58l.13-.11a2.42,2.42,0,0,0,.66-1.59,1.58,1.58,0,0,0-.19-.86,1.73,1.73,0,0,0-.47-.73l-.45-.35a2.27,2.27,0,0,0-1.14-.31l-.59.08a2.24,2.24,0,0,0-1,.58Z" transform="translate(-172.1 -228.91)"/></svg>