<svg id="Layer_1" data-name="Layer 1"
    xmlns="http://www.w3.org/2000/svg" viewBox="0 0 224.61 211.01">
    <defs>
        <style>.cls-1{fill:none;stroke:#000;stroke-miterlimit:10;stroke-width:4px;}</style>
    </defs>
    <path d="M297.68,196.27A133.48,133.48,0,0,1,341,203.43a95.49,95.49,0,0,1,19.3,9.07,75.41,75.41,0,0,1,16.36,14,133.78,133.78,0,0,1,23.39,39.91,89.31,89.31,0,0,1,4.45,20.51,92.58,92.58,0,0,1,.18,19.9,103,103,0,0,1-4.48,19.2,126.88,126.88,0,0,1-9.36,21.85c-5.69,10.42-12.8,20-22.11,27.51-10.67,8.55-23.65,13.94-36.61,17.95a105.67,105.67,0,0,1-22.8,4.68,83.57,83.57,0,0,1-21.71-1.07,104,104,0,0,1-37.25-14.1c-10.48-6.64-20.51-15.35-26.44-26.42a38.46,38.46,0,0,1-3.26-8.14c-.76-2.8-5.1-1.61-4.34,1.19,3.5,12.9,13.14,23.39,23.47,31.4a101.44,101.44,0,0,0,15.62,10.07,109.68,109.68,0,0,0,19.07,7.43,101,101,0,0,0,23.56,4.3,91.43,91.43,0,0,0,23-1.82,143.83,143.83,0,0,0,24-7.28A113.45,113.45,0,0,0,364,384.24a84.63,84.63,0,0,0,25.53-25.34,129.07,129.07,0,0,0,18-42.18,95.83,95.83,0,0,0-.23-41.49c-3.3-15.16-10.78-29.53-19.66-42.15a94.72,94.72,0,0,0-16.31-18.19A82.62,82.62,0,0,0,353,203.44a130.06,130.06,0,0,0-44.3-11.22q-5.5-.43-11-.45c-2.89,0-2.9,4.5,0,4.5Z" transform="translate(-185.03 -191.76)"/>
    <path d="M297.68,191.77c-4.88.61-9.76,1.28-14.6,2.16A78.09,78.09,0,0,0,268.47,198c-12,4.66-23.53,10.4-33.61,18.42a77.8,77.8,0,0,0-12.48,12.39,79.82,79.82,0,0,0-8.68,13.92,108.42,108.42,0,0,0-6.22,13.72,114.34,114.34,0,0,0-4.77,19.3c-2.28,14.67-1.33,29.44,1.7,43.94.6,2.83,4.93,1.64,4.34-1.19A119.48,119.48,0,0,1,206.51,281a107.85,107.85,0,0,1,3.74-18.32A88.61,88.61,0,0,1,216,248.22,101.06,101.06,0,0,1,223.35,235a70.82,70.82,0,0,1,11.24-12.47c9-8,19.8-13.86,30.89-18.48a86.28,86.28,0,0,1,16.63-5.37c5.16-1,10.36-1.76,15.57-2.41a2.31,2.31,0,0,0,2.25-2.25,2.26,2.26,0,0,0-2.25-2.25Z" transform="translate(-185.03 -191.76)"/>
    <path d="M205.09,317.43c-7.32,8.44-13.41,17.89-19.7,27.1-1.06,1.57.41,3.21,1.94,3.39,10.42,1.22,20.93,1.21,31.35,2.35a2.27,2.27,0,0,0,2.25-2.25,2.3,2.3,0,0,0-2.25-2.25c-10.42-1.14-20.93-1.13-31.35-2.35l1.95,3.39c6.07-8.9,11.92-18.05,19-26.2,1.89-2.18-1.27-5.37-3.18-3.18Z" transform="translate(-185.03 -191.76)"/>
    <path d="M343,287.63l.1,21.93c0,2.9,4.51,2.91,4.5,0l-.1-21.93c0-2.89-4.51-2.9-4.5,0Z" transform="translate(-185.03 -191.76)"/>
    <path d="M346.53,289.45c8.53-6,17-12.1,25.2-18.52l-3.84-1.59c.47,14.37.88,28.75,1.4,43.12q.22,6.65.5,13.29l3.38-1.95c-8.81-5.53-17.73-10.88-26.64-16.25-2.48-1.5-4.75,2.39-2.27,3.89,8.91,5.37,17.83,10.72,26.64,16.25a2.27,2.27,0,0,0,3.39-1.94c-.57-14.27-1-28.54-1.46-42.8q-.22-6.81-.44-13.61a2.28,2.28,0,0,0-3.84-1.59c-7.92,6.18-16.08,12-24.29,17.81a2.32,2.32,0,0,0-.81,3.08,2.28,2.28,0,0,0,3.08.81Z" transform="translate(-185.03 -191.76)"/>
    <rect class="cls-1" x="71.54" y="62.76" width="81.65" height="87" rx="18"/>
</svg>