<?xml version="1.0" encoding="UTF-8"?>
<svg id="Layer_2" data-name="Layer 2" xmlns="http://www.w3.org/2000/svg" viewBox="0 0 212.98 211.31">
  <defs>
    <style>
      .cls-1 {
        stroke: #012b2d;
      }

      .cls-1, .cls-2, .cls-3 {
        fill: none;
        stroke-linecap: round;
        stroke-linejoin: round;
        stroke-width: 3px;
      }

      .cls-4 {
        opacity: .2;
      }

      .cls-2 {
        stroke: #ffc425;
      }

      .cls-5 {
        fill: #01b1b0;
      }

      .cls-6 {
        fill: #ffc425;
      }

      .cls-3 {
        stroke: #fff;
      }
    </style>
  </defs>
  <g id="Layer_1-2" data-name="Layer 1">
    <g>
      <circle class="cls-5" cx="100.24" cy="100.24" r="100.24"/>
      <g class="cls-4">
        <line class="cls-1" x1="205.26" y1="120.77" x2="191.9" y2="161.99"/>
        <line class="cls-1" x1="211.48" y1="101.56" x2="208.08" y2="112.05"/>
        <line class="cls-1" x1="206.35" y1="68.84" x2="168.05" y2="187.07"/>
        <line class="cls-1" x1="206.94" y1="67.03" x2="206.35" y2="68.84"/>
        <line class="cls-1" x1="186.58" y1="81.32" x2="148.4" y2="199.14"/>
        <line class="cls-1" x1="197.98" y1="46.12" x2="189.11" y2="73.5"/>
        <line class="cls-1" x1="138.36" y1="181.6" x2="130.53" y2="205.75"/>
        <line class="cls-1" x1="150.12" y1="145.28" x2="141.23" y2="172.75"/>
        <line class="cls-1" x1="187.42" y1="30.17" x2="176.52" y2="63.82"/>
        <line class="cls-1" x1="128.52" y1="163.41" x2="113.85" y2="208.68"/>
        <line class="cls-1" x1="175.75" y1="17.63" x2="169.65" y2="36.46"/>
        <line class="cls-1" x1="109.77" y1="172.75" x2="97.76" y2="209.81"/>
        <line class="cls-1" x1="162.4" y1="10.3" x2="160.02" y2="17.63"/>
        <line class="cls-1" x1="92.46" y1="177.6" x2="82.51" y2="208.32"/>
        <line class="cls-1" x1="76.16" y1="179.36" x2="67.91" y2="204.83"/>
        <line class="cls-1" x1="60.65" y1="178.68" x2="53.93" y2="199.42"/>
        <line class="cls-1" x1="45.85" y1="175.82" x2="40.39" y2="192.66"/>
        <line class="cls-1" x1="31.85" y1="170.49" x2="27.95" y2="182.52"/>
        <line class="cls-1" x1="18.27" y1="163.85" x2="16.12" y2="170.49"/>
      </g>
      <path class="cls-1" d="m50,133.3l-20.56-4.5,11.46-18.74c-.52-3.19-.8-6.47-.8-9.82,0-33.21,26.92-60.13,60.13-60.13s60.13,26.92,60.13,60.13-26.92,60.13-60.13,60.13c-21,0-39.48-10.76-50.24-27.07Z"/>
      <path class="cls-2" d="m122.08,106.37c4.52,2.34,8.53,4.67,12.28,6.73.95.52,2.21-.07,2.21-1.03,0-9.29-.02-15.15-.26-24.13-.03-1-1.38-1.54-2.31-.94-3.96,2.58-7.45,4.7-12,7.43-.38.23-.61.6-.61,1v9.9c0,.42.27.82.69,1.04Z"/>
      <path class="cls-6" d="m105.03,77.06c4.31,0,7.81,3.5,7.81,7.81v30.63c0,4.31-3.5,7.81-7.81,7.81h-27.42c-4.31,0-7.81-3.5-7.81-7.81v-30.63c0-4.31,3.5-7.81,7.81-7.81h27.42m0-3h-27.42c-5.97,0-10.81,4.84-10.81,10.81v30.63c0,5.97,4.84,10.81,10.81,10.81h27.42c5.97,0,10.81-4.84,10.81-10.81v-30.63c0-5.97-4.84-10.81-10.81-10.81h0Z"/>
      <rect class="cls-3" x="91.32" y="84.07" width="14.67" height="7.27" rx="2.21" ry="2.21"/>
    </g>
  </g>
</svg>