<svg id="Layer_1" data-name="Layer 1" xmlns="http://www.w3.org/2000/svg" viewBox="0 0 1000 1000"><defs><style>.cls-1{fill:#ffc425;}</style></defs><circle class="cls-1" cx="500" cy="500" r="500"/><path d="M532.36,130.92a61.14,61.14,0,0,0-12.36-9.4,67,67,0,0,0-32.24-9.88c-16.38-.53-31.93,6-44.85,15.74-13.17,9.92-24.14,22.46-33.84,35.72-10.86,14.83-20.16,30.77-28.67,47-4.33,8.29-8.44,16.69-12.41,25.15-4.12,8.81-8.23,17.6-12.87,26.15a244.89,244.89,0,0,1-28,41.69c-8.35,9.84-17.75,19-28.53,26.14a88.41,88.41,0,0,1-13.84,7.57c-6.28,2.7-12,6.57-15.89,12.32-4.65,6.91-5.78,15.82-3.9,23.85.11.47.23.95.38,1.41.61,1.82,3.5,1,2.89-.8a23.88,23.88,0,0,1-1-5.11,28.76,28.76,0,0,1,1.3-12.05,26.38,26.38,0,0,1,10.26-13.06c5-3.38,10.78-5.27,16-8.25,10.44-6,19.7-13.95,28-22.65a219,219,0,0,0,27.87-37.2c4.78-7.88,9.17-16,13.25-24.25,4.19-8.51,8-17.19,12.2-25.71a454.78,454.78,0,0,1,26.8-48c9.19-14.1,19.51-27.67,31.85-39.18,11.93-11.13,26.15-20.4,42.54-22.92a60.39,60.39,0,0,1,35.13,5.57,67.24,67.24,0,0,1,17.1,11.49c.25.24.51.48.75.73,1.34,1.39,3.46-.73,2.12-2.12Z"/><path d="M253,478.69c.28.57,0,0,.22.53.05.13.09.53.17.61-.58-.56.26-.1,0-.05s1.52-1.62,1.44-1.13c0,0-.23-.09-.61-.38a18.93,18.93,0,0,1-1.66-1.43c-2.14-2-4.12-4.18-6.07-6.35-3.92-4.36-6.83-8.33-8.36-14.05a63.08,63.08,0,0,1-1.77-16.77c.12-14.08,2.84-28.12,6.34-41.71a263.3,263.3,0,0,1,13.45-39.59,122.5,122.5,0,0,0,7-20.14,202.07,202.07,0,0,0,4-22.52c1.78-14.06,2.33-28.35,5-42.28.94-4.88,2.13-9.95,4.73-14.24a51.58,51.58,0,0,1,4.28-6,134.39,134.39,0,0,1,10.64-11,491.94,491.94,0,0,0,43.66-48.71c10.92-13.76,21.38-27.62,33.94-40A250.91,250.91,0,0,1,406,123.72c20.8-13.89,44.57-25.77,69.55-29.46a75.34,75.34,0,0,1,13.91-.82c5.36.21,10.58,1.49,15.94,1.75,12.7.62,24.92-2.61,37.11-5.73,14.13-3.61,28.27-6,42.91-4.73,12.17,1,23.68,4.26,31.76,14,10.13,12.15,12.31,29.76,11.26,45.05-.06.79-.13,1.59-.21,2.38,0,.22-.17,1.43-.05.52a1.54,1.54,0,0,0,1.05,1.85,90,90,0,0,1,21.71,9,94,94,0,0,1,35,33.41c19.36,31.56,27.28,69.31,29.55,105.85,1.21,19.51.66,39.11-.6,58.6-.12,1.93,2.88,1.92,3,0,2.48-38.39,1.77-77.29-8.12-114.69a195.12,195.12,0,0,0-19-47.46c-8.37-14.6-19.41-26.69-33.76-35.59-8.26-5.13-17.55-9.71-27-12l1,1.84c1.7-12.53.4-26.43-4.32-38.16C623,100,616.6,91.84,607.57,87.16c-5.94-3.08-12.37-4.36-19-5.11a106.79,106.79,0,0,0-24.76.07c-13.36,1.61-26.07,6-39.23,8.53a79.94,79.94,0,0,1-20.18,1.49c-5.37-.34-10.6-1.6-16-1.73-10.56-.25-21.18,1.93-31.25,5a188.92,188.92,0,0,0-36.81,16,251.94,251.94,0,0,0-73.86,63c-16.84,21.16-33.24,42.55-52.6,61.53-8.38,8.22-18.46,16.3-22.43,27.76-4.31,12.45-4.68,26.37-6,39.37-1.6,15.81-3.45,32-9.08,46.94-2.39,6.37-5.37,12.51-7.75,18.89q-3.89,10.39-6.93,21.07c-4.06,14.15-7.24,28.75-8.18,43.47-.68,10.73-.62,23.51,5.52,32.85a64.72,64.72,0,0,0,6.7,7.91,67.38,67.38,0,0,0,5.58,5.63c1.27,1.08,4.71,3.27,5,0a5.36,5.36,0,0,0-.77-2.66c-.86-1.73-3.45-.21-2.59,1.51Z"/><path d="M493.65,153.26a84.12,84.12,0,0,0-13.81-2.63c-9.56-1.15-19.45-1-28.81,1.4-11,2.85-20.72,9.27-26.69,19.06-4.18,6.84-5.94,14.49-7.55,22.24-2.21,10.6-3.94,21.29-5.39,32-2.44,18.07-3.84,36.31-7.1,54.26A155.64,155.64,0,0,1,398.38,303a95.57,95.57,0,0,1-10.06,20.34,166.48,166.48,0,0,1-34.07,37.78,131.81,131.81,0,0,1-19.81,13.74A61.69,61.69,0,0,1,316.19,382c-9.21,1.75-18.85,1.53-28.18,1.34-7.37-.16-15.1-.67-22.31,1.22a22.37,22.37,0,0,0-8.32,4.07,36.82,36.82,0,0,0-7.76,9.4,55.39,55.39,0,0,0-8.27,23.4,23.92,23.92,0,0,0,.5,8.84,1.5,1.5,0,0,0,2.89-.8,22.3,22.3,0,0,1-.32-8.69,50,50,0,0,1,3-11.49,54.6,54.6,0,0,1,6.11-11.68c2.08-3,4.47-6.06,7.66-8,5.68-3.4,12.79-3.45,19.2-3.43,9.12,0,18.21.5,27.31-.2a69.34,69.34,0,0,0,11.84-1.68,60.38,60.38,0,0,0,9.13-3.23,104.88,104.88,0,0,0,19.12-11.19A174.75,174.75,0,0,0,384,334.58a122.22,122.22,0,0,0,12.64-19.78,106.72,106.72,0,0,0,7.72-21.39c4.26-16.54,5.87-33.66,7.85-50.59,1.16-9.94,2.4-19.88,4-29.77Q417.51,205,419.1,197a135.43,135.43,0,0,1,3.33-14.37c3.58-11.33,11.24-20.46,22.18-25.24,9.05-4,19.25-4.84,29-4.3a91.86,91.86,0,0,1,18.31,2.81l.93.26c1.85.55,2.64-2.35.79-2.89Z"/><path d="M281.83,386.88a305.26,305.26,0,0,0-13.35,30.47,226.78,226.78,0,0,0-8.68,27.27c-2.34,9.67-3.38,19.56-4.41,29.43-1,9.7-1.83,19.54-1.11,29.29.57,7.64,2.06,15.79,6.9,22,3.68,4.72,10.13,8.59,16.31,7.49,4.91-.88,8.18-5.24,10.14-9.5,3.78-8.24,4.93-17.86,5.16-26.85,0-.19,0-.38,0-.57a1.5,1.5,0,0,0-3,0c-.43,12.32-.27,24.68.19,37,.09,2.62.21,5.25.35,7.87,0,.88.08,1.76.14,2.64,0,.31.13-.37,0,.12-.06.18-.1.37-.16.55s-.31.77-.18.48a17.08,17.08,0,0,1-.94,1.8,27.8,27.8,0,0,1-8.66,8.78c-6.86,4.55-15,6.56-23.17,7.1-1.58.11-2.16,2.61-.4,2.95,10.14,1.93,21.76,2.36,30.85-3.34a26.74,26.74,0,0,0,5.23-4.37c.18-.19.37-.36.53-.56s.09,0-.11.08a1.59,1.59,0,0,1-2-.85c.06.11-.33-.33,0-.15l0-.18,0,.49c.05.57.1,1.14.16,1.71.09,1.06.2,2.11.31,3.17q.33,3.27.74,6.53c1.89,15.18,4.67,30.66,12.16,44.19a59.9,59.9,0,0,0,25.45,24.91c9.78,4.85,20.71,6.86,31.56,6.88,1.35,0,2.7,0,4.05-.07,1.93-.08,1.93-3.08,0-3-10.67.42-21.59-.89-31.45-5.17a56.37,56.37,0,0,1-25.88-23.09c-7.84-13.13-10.81-28.46-12.74-43.45-.55-4.27-.94-8.56-1.38-12.85-.13-1.29-1.13-2.47-2.51-1.64a7.15,7.15,0,0,0-1.31,1.27,24.71,24.71,0,0,1-2.18,2c-.45.37-.75.6-1.36,1a21.34,21.34,0,0,1-2,1.22,25.48,25.48,0,0,1-5,2.08,42.5,42.5,0,0,1-16.54,1.1c-1.92-.2-3.82-.5-5.72-.86l-.4,2.94c12.54-.83,26-5.22,33.52-16a18.42,18.42,0,0,0,2.16-4c.76-1.95.34-4,.24-6q-.7-14.47-.67-29c0-4.79,0-9.58.21-14.37h-3a75.13,75.13,0,0,1-3.3,22.05c-1.34,4.19-3.44,9-7.37,11.15a8.42,8.42,0,0,1-5.85.68,17.05,17.05,0,0,1-8-4.34c-5.14-4.92-7-12.38-7.75-19.21-1-9.19-.44-18.53.4-27.71.89-9.59,1.77-19.3,3.76-28.73a201.35,201.35,0,0,1,7.89-26.88,314,314,0,0,1,14.56-34c.08-.17.17-.35.26-.52.88-1.72-1.71-3.24-2.59-1.52Z"/><path d="M717.68,396.52a13,13,0,0,0-8.93,4.4A16.66,16.66,0,0,0,705,410.5a31.64,31.64,0,0,0,.28,7.34c.39,2.81,1.23,5.51,1.74,8.29,1.66,9-.34,18.58-2.76,27.24a178,178,0,0,1-10,26.6c-2.15,4.67-4.41,9.32-7,13.8a1.5,1.5,0,0,0,2.59,1.52,194,194,0,0,0,15.76-36.07c2.89-9,5.23-18.56,4.91-28.06a39.46,39.46,0,0,0-.72-6.32c-.55-2.7-1.35-5.33-1.68-8.08-.47-3.83-.48-8.09,1.33-11.61a10.51,10.51,0,0,1,2.59-3.3,8.36,8.36,0,0,1,1.28-.89c.25-.15.51-.29.78-.43l.33-.15c.38-.19-.05,0,.17-.08a12.87,12.87,0,0,1,2.42-.7l.38-.07c-.6.1-.16,0,0,0l.28,0c1.93-.06,1.94-3.06,0-3Z"/><path d="M343.79,369.79c-.17,20.95-4.29,41.79-6.87,62.52a255.5,255.5,0,0,0-2.44,30.52,164,164,0,0,0,1.31,18.66c4.09,36.61,11.29,73.39,23,108.33,6.57,19.55,14.84,38.55,26.58,55.58a191.33,191.33,0,0,0,43.85,45,227.68,227.68,0,0,0,40.95,23.87c21.32,9.73,44.5,15.87,68.09,13.3,18.1-2,37.21-8.78,50.57-21.54,6-5.76,10.94-12.58,15.54-19.49,5.74-8.62,11.15-17.47,16.54-26.31q16.77-27.44,32.56-55.46c7.85-13.9,16.09-27.87,22.28-42.62,6.5-15.48,9.65-32,11.7-48.57,2.79-22.73,4.52-45.75,1.82-68.57-.82-6.94-2.11-13.83-2.84-20.79-.66-6.25,0-12,.78-18.17,2.14-17.77-2.28-35.1-3.43-52.76-1.32-20.35.78-40.64-3.71-60.75-5.16-23.1-17.67-44.68-33-62.53-13.13-15.26-29.2-27.35-45.81-38.55-9.13-6.15-18.33-12.59-29.36-14.67a34.88,34.88,0,0,0-20.61,2,23.5,23.5,0,0,0-7.27,4.69l1.82-.23c-14.18-8.07-32.62-10.33-48.51-8.07-25.89,3.68-49.58,20.25-66.83,39.25a153.22,153.22,0,0,0-21.36,30.12c-.92,1.7,1.67,3.22,2.59,1.52,21.79-40.38,67.24-78.18,115.8-66.41a65.22,65.22,0,0,1,16.8,6.18,1.54,1.54,0,0,0,1.82-.23c7.49-7.65,20.51-7.66,30-4.71,10.55,3.3,19.69,10.35,28.7,16.56a257.83,257.83,0,0,1,23.45,17.9,165.88,165.88,0,0,1,39.55,51.43,118.1,118.1,0,0,1,11,34.88c1.53,10.18,1.7,20.48,1.69,30.76,0,9.27-.12,18.56,1,27.77,1.21,9.87,2.75,19.73,3.3,29.67a104,104,0,0,1-1.21,21,59.48,59.48,0,0,0,.28,16.48c.93,7.16,2.16,14.28,2.88,21.47a209.46,209.46,0,0,1,.68,31.88c-1.08,20.79-3,42.11-8.3,62.29-3.59,13.65-9.58,26.13-16.21,38.52-9.4,17.56-19.35,34.82-29.45,52-10.33,17.54-20.7,35.16-32,52.09-4.56,6.82-9.46,13.49-15.5,19.07a68.63,68.63,0,0,1-20.23,12.62c-22.68,9.48-47.22,9.81-70.72,3.14-15.95-4.52-31.35-12-45.61-20.37a199.83,199.83,0,0,1-44.22-35A184.24,184.24,0,0,1,370.43,612c-15.38-35.4-23.65-74.14-29.25-112.19-1.93-13.07-4-26.46-3.66-39.7.52-21,4.44-41.75,7-62.51a244,244,0,0,0,2.24-27.78,1.5,1.5,0,0,0-3,0Z"/><path d="M338.33,421.51c0,.29,0,.59-.06.89s-.07.71-.11,1.06-.05.43-.08.65c.06-.49-.05.31-.07.48a54.18,54.18,0,0,1-2,8.5,50.21,50.21,0,0,1-14.59,22.41,51,51,0,0,1-15.4,9.13c-7.14,2.73-14.8,3.59-21.93,6.37-7.73,3-16.51,8.54-16.38,17.88a19,19,0,0,0,4.71,12c.05.06.09.12.15.18,1.27,1.46,3.38-.67,2.12-2.12-.06-.06-.11-.13-.16-.19l-.18-.22c.3.36.11.15,0,0a23.69,23.69,0,0,1-1.31-2,18.49,18.49,0,0,1-1.34-2.79,18.18,18.18,0,0,1-.56-1.77l-.21-.93c-.07-.37-.11-.69-.11-.71a11.29,11.29,0,0,1,2.07-8.21c2.66-3.82,7.29-6.3,11.56-8,7.06-2.82,14.66-3.68,21.77-6.31a56.12,56.12,0,0,0,16-9,52.62,52.62,0,0,0,16-22.9,55.39,55.39,0,0,0,2.48-9.12,30,30,0,0,0,.64-5c0-.07,0-.14,0-.21.07-1.94-2.93-1.93-3,0Z"/><path d="M309.24,465.65a138.06,138.06,0,0,0,5.29,21,74.84,74.84,0,0,0,6.87,15.5,69.36,69.36,0,0,0,13.07,15,45,45,0,0,0,8.1,6.09c1.7.93,3.22-1.66,1.52-2.59A38.06,38.06,0,0,1,338,516.2,71,71,0,0,1,324.87,502c-5.83-8.69-8.82-19.35-11.15-29.45-.6-2.56-1.16-5.13-1.58-7.71-.32-1.9-3.21-1.1-2.9.79Z"/><path d="M362.93,601.38a163.94,163.94,0,0,1,2.76,24.81A136.63,136.63,0,0,1,365,648.8a26,26,0,0,1-1,5.33c-.15.44.06-.11-.09.21s-.18.39-.28.58c-.21.4-.44.78-.68,1.15-.12.19-.25.38-.38.56s-.51.68-.29.4c-.31.39-.63.78-1,1.15-.78.87-1.6,1.69-2.46,2.48a57.87,57.87,0,0,1-6.25,5,167.31,167.31,0,0,1-18.32,11c-7.56,4-15.29,7.74-23.08,11.29-8.32,3.8-16.72,7.41-25.17,10.9q-12.44,5.13-25,10-10.86,4.2-21.8,8.2-8,2.94-16.12,5.79c-2.6.92-5.22,1.8-7.83,2.73l-.34.12c-1.81.61-1,3.51.8,2.89s3.67-1.26,5.49-1.9q7.35-2.58,14.66-5.23,10.53-3.83,21-7.81,12.45-4.74,24.79-9.74c8.68-3.54,17.33-7.18,25.9-11,8.07-3.59,16.09-7.34,23.95-11.38a208.32,208.32,0,0,0,19.65-11.22c4.53-3,9.19-6.25,12.7-10.44a16.29,16.29,0,0,0,3.08-5.09,30.56,30.56,0,0,0,1-6.31c.46-3.87.7-7.75.79-11.64a178.84,178.84,0,0,0-2.64-34.26c-.11-.63-.22-1.26-.34-1.89-.38-1.89-3.27-1.09-2.9.8Z"/><path d="M84.76,778.78c15.38-10.12,32.85-17,50.46-22.23q3.51-1,7.07-1.95l1.8-.45c.37-.09.84-.07.19-.08a19.1,19.1,0,0,0,5.4-1,23.79,23.79,0,0,0,9.38-5.15,21.89,21.89,0,0,0,4.46-5.83c1.14-2.08,2.54-4.31,4.68-5.5a5,5,0,0,1,1.72-.55,3.1,3.1,0,0,1,1.4.13c.13,0,.66.25.32.1.18.07.34.17.51.25s.71.52.13.05a1.52,1.52,0,0,0,2.36-.3,53.86,53.86,0,0,1,10.14-14c2.63-2.55,5.95-5.11,9.73-5.47a10.45,10.45,0,0,1,5.72,1.32,32.57,32.57,0,0,1,6.76,4.58,87.38,87.38,0,0,1,10,11c2.15,2.63,4.21,5.24,7.46,6.47a16.56,16.56,0,0,1,5.53,3.92,20.8,20.8,0,0,1,4.51,6.29,8.46,8.46,0,0,1,.76,3c0,.55-.11,1.07-.11,1.62a8,8,0,0,0,.32,2,40.63,40.63,0,0,0,2.3,5.93c1.29,2.9,2.68,5.74,4.08,8.59,4.16,8.49,8.38,17,12.4,25.53,11.59,24.73,21.77,50.22,29.15,76.54a582.63,582.63,0,0,1,15.69,78q.51,3.69,1,7.38c.24,1.89,3.25,1.91,3,0a621,621,0,0,0-14.28-76.88c-7.11-27.64-17.23-54.39-29.08-80.33-4.26-9.35-8.78-18.57-13.32-27.78-1.61-3.26-3.23-6.52-4.77-9.81a66.94,66.94,0,0,1-2.82-6.57,17.72,17.72,0,0,1-.62-2.24c-.08-.37,0,.38,0-.08a2,2,0,0,0,0-.35c-.07-.52-.08.51,0-.15a7.77,7.77,0,0,0,.09-1.67c-.34-5.15-4.33-9.92-8.19-13a21.45,21.45,0,0,0-2.84-2,14.07,14.07,0,0,0-1.52-.72l-.66-.25s-.66-.24-.37-.11a10.55,10.55,0,0,1-3.31-2.86c-3.12-3.48-5.85-7.29-9.11-10.66-3.7-3.82-8.23-7.62-13.38-9.25-3.95-1.26-8.1-.09-11.49,2.07-6.3,4-11,10.62-14.59,17-.25.44-.49.88-.72,1.34l2.35-.31a6.63,6.63,0,0,0-4.66-1.4c-4.28.39-7,4.3-8.93,7.75A19.14,19.14,0,0,1,152.2,749a22.35,22.35,0,0,1-4.34,1.52c-.59.15-1.19.28-1.79.38l-.66.1c-.27,0,.34,0,0,0l-.33,0a45.86,45.86,0,0,0-8,1.9c-7.64,2.15-15.18,4.68-22.56,7.57a168.12,168.12,0,0,0-31.22,15.71c-1.61,1-.11,3.65,1.51,2.59Z"/><path d="M610.05,679.81c10,3,20.19,5.64,30.34,8.24q37.35,9.6,75.22,17.08,11.57,2.28,23.18,4.34c6.82,1.21,13.62,2.42,20.33,4.15a205.87,205.87,0,0,1,35.81,13c21.17,9.91,40.74,23,58.82,37.75,13.89,11.34,26.82,23.74,39.58,36.33q1.7,1.68,3.4,3.35c1.38,1.35,3.5-.77,2.12-2.12-12.2-12-24.33-23.95-37.37-35-17.49-14.84-36.33-28.25-56.74-38.8a219.88,219.88,0,0,0-34.86-14.51c-13.67-4.31-27.72-6.46-41.77-9.09Q688,697,648.41,687c-12.41-3.11-24.72-6.58-37.07-9.93l-.49-.14c-1.86-.55-2.65,2.34-.8,2.89Z"/><path d="M716,353.94a48.94,48.94,0,0,0-9.56,3.31c-4.87,2.22-10.06,5.52-12.05,10.73a11.77,11.77,0,0,0,.22,8.58c1.46,3.71,4.14,7.47,7.94,9,6.77,2.76,13.39-3,16.74-8.36a17.53,17.53,0,0,0,2.86-10.67,27.79,27.79,0,0,0-1.24-8.06,9.19,9.19,0,0,0-3.76-4.41c-1.6-1.09-3.11,1.51-1.51,2.59a5.87,5.87,0,0,1,2.51,3,24.9,24.9,0,0,1,1,6.26,14.58,14.58,0,0,1-.13,4.52,16.22,16.22,0,0,1-1.48,3.85c-2.34,4.45-7.58,10.42-13.28,8.7-3.17-.95-5.44-4.23-6.68-7.14a9.23,9.23,0,0,1-.33-6.92c1.6-4.24,6.26-7,10.22-8.86a45.31,45.31,0,0,1,9.36-3.26C718.69,356.41,717.89,353.51,716,353.94Z"/><path d="M723,362.81a43.15,43.15,0,0,0,6.55-4.2c3.21-2.45,6.69-5.6,7.73-9.67.57-2.24,0-4.58,0-6.85a18,18,0,0,1,.74-6.45c1.72-5,7.57-6.58,12.35-6.56a45.71,45.71,0,0,1,8,1.15c2.14.39,4.38.6,6.31-.62a1.51,1.51,0,0,0-.76-2.79c-2.11-.17-2.95,2.75-3.19,4.3-.77,5,1.42,11-2,15.39-2.42,3.15-7.17,4.36-10.94,3.95-2-.22-4-.68-6,0-2.85.91-4.53,3.33-6.32,5.55a68.58,68.58,0,0,1-7.79,8.28c-2.1,1.85-4.54,3.85-7.35,4.4-1.89.38-1.09,3.27.8,2.9a16.49,16.49,0,0,0,6.6-3.48,53.57,53.57,0,0,0,7.08-6.72c1-1.17,2.06-2.36,3-3.59a18.28,18.28,0,0,1,3.39-3.74c1.57-1.12,3.28-1,5.11-.74a17,17,0,0,0,12.51-2.78c4.23-3.15,5-8.23,4.68-13.19a30.29,30.29,0,0,1,0-5,9.78,9.78,0,0,1,.18-1.19c0-.21.31-1,.24-.85.06-.14.38-.85.2-.4.11-.28.31-.15.05-.07.12,0-.35.07-.34.07l-.75-2.8c-1.43.91-3.23.48-4.79.17a45.6,45.6,0,0,0-7.26-1.09c-5.22-.2-11.3,1.29-14.48,5.76-2.71,3.82-2.52,8.93-2.13,13.37a8,8,0,0,1-1.11,5.28,19.86,19.86,0,0,1-4.13,4.55,40.46,40.46,0,0,1-7.72,5.16c-1.72.87-.2,3.46,1.51,2.59Z"/><path d="M722.2,361.61c0-.07.16-.37,0,0,0-.12.1-.25.16-.37.13-.31.27-.62.41-.93.42-.95.83-1.91,1.23-2.87a78.28,78.28,0,0,0,2.69-7.37,49.77,49.77,0,0,0,1.88-8.53,35.76,35.76,0,0,0-.17-8.65c-.55-5-.55-10.54,1.4-15.26a9,9,0,0,1,3.74-4.62c2.17-1.2,4.91-.79,7.26-.52,6.47.77,12.68,3.4,16.91,8.49a1.5,1.5,0,0,0,2.5-.66,1.27,1.27,0,0,1,.06-.18c.11-.27-.16.35,0,.08a.65.65,0,0,1,.13-.23c.05-.07.22-.35,0,0a2,2,0,0,1,.24-.26,2.68,2.68,0,0,1,.51-.32c1.89-.8,5.1,1,6.81,2.07a15.54,15.54,0,0,1,5.75,5.8,5.17,5.17,0,0,1,.67,2.29c0,.11-.11.56-.08.51-.09.17-.12.2-.44.34l1.51,2.59c.21-.1.14,0-.07,0,.27-.06.53-.19.79-.26a5.87,5.87,0,0,1,2.36-.17c3.12.38,5.25,3.05,6.73,5.59a23.57,23.57,0,0,1,2.82,8.21,13.37,13.37,0,0,0,3.17,6.54,11.57,11.57,0,0,1,1.77,2.52,4.16,4.16,0,0,1,.23.62c0,.1,0,0,0,0,.17-.33.13-.22.32-.4-.22.21.13,0,0,0-.44.09.34,0,0,0a1.5,1.5,0,0,0,0,3c.15,0,.4.09-.12,0l.51.12a2.77,2.77,0,0,1,1,.62c1.74,1.7,1.77,4.66,1.67,7-.15,3.2-.49,6.39-.55,9.59a7.48,7.48,0,0,0,.79,4.19l.54-2.05a6.75,6.75,0,0,1-.95.43c-.28.11-.66.13-.91.26-.46.25-.2-.22-.06.2L793,380.44a12.53,12.53,0,0,1,3.35,4.66,10.72,10.72,0,0,1,.78,5.34c-.25,2.1-1.13,4.08-1.41,6.19a4.75,4.75,0,0,0,.36,3.11,3.38,3.38,0,0,0,.68.78c.12.11.64.64.38.31.08.1.19.42.1.14.07.22.15.42.21.64a10.27,10.27,0,0,1,.4,1.81,4.63,4.63,0,0,1-.8,3.67,5.78,5.78,0,0,1-2.86,1.36,43.66,43.66,0,0,1-4.34,1.08,21.44,21.44,0,0,1-9.43-.19,1.53,1.53,0,0,0-1.85,1.05,30.35,30.35,0,0,0-.67,14.14c.29,1.33,1.07,2.63,1.2,4,0,.44-.17.41.09.17s.39-.06-.11-.13c.14,0-.58-.14-.78-.21s-.53-.19-.61-.22c-.34-.15-.68-.32-1-.5-1-.6-2.7.42-2.2,1.69.78,2,.78,4.49-1.82,5.13a23.19,23.19,0,0,1-8.59.19,15.57,15.57,0,0,1-9.15-4.48,16.83,16.83,0,0,1-3.48-5.67c-1-2.62-1.32-5.42-2.44-8a10.57,10.57,0,0,0-8.14-6.52c-3.29-.56-6.74-.13-10-1.11a9.6,9.6,0,0,1-4.47-3c-1.79-2-3.53-4.12-5.29-6.18l-2-2.32c-.09-.11-.24-.37-.38-.44,1.65.82.35.88.36.59a1.62,1.62,0,0,0-.14-.46l-.49-1.59L716.76,390l-2.51-8.12c-.57-1.84-3.46-1.06-2.89.79l2.29,7.41c.84,2.73,1.49,5.64,2.56,8.29a9.92,9.92,0,0,0,1.89,2.45l4.4,5.14c1.64,1.91,3.18,3.85,5.49,5,3.38,1.66,7.08,1.48,10.74,1.78a10.19,10.19,0,0,1,4.49,1.23,8.6,8.6,0,0,1,3.36,4.61c1,2.75,1.39,5.62,2.6,8.32a19.12,19.12,0,0,0,3.77,5.59,18.25,18.25,0,0,0,10.29,5.06,29,29,0,0,0,5.74.31,16,16,0,0,0,5.63-.91c3.26-1.43,3.94-5.33,2.73-8.4l-2.2,1.69a9.21,9.21,0,0,0,3.75,1.32c2.59.21,3.5-2,3-4.22a47.32,47.32,0,0,1-1.37-5,26.18,26.18,0,0,1,0-5.31,30.94,30.94,0,0,1,1-5.81l-1.85,1a28.37,28.37,0,0,0,17.25-1.5c3.75-1.52,4.52-5.45,3.7-9.05a5.79,5.79,0,0,0-1.31-2.95c-.19-.19-.4-.34-.59-.52s0,.27,0-.06c.13.43,0-.32,0-.08-.18-1.93.78-3.94,1.21-5.77a13.55,13.55,0,0,0-.17-6.81,15.27,15.27,0,0,0-4.54-7.17c-1.05-.88-3-.08-2.51,1.46,1,2.9,4.28,2,6.33.9a1.52,1.52,0,0,0,.54-2.05,2.85,2.85,0,0,1-.35-1.17,22.44,22.44,0,0,1,0-2.84c.18-3.72.83-7.58.45-11.29-.34-3.27-2.13-7.62-6-7.66v3a2.68,2.68,0,0,0,2.55-3.46c-.77-3.22-4.08-5.08-4.9-8.31-.3-1.19-.4-2.42-.66-3.62a21.68,21.68,0,0,0-2-5.33c-1.83-3.54-4.5-7.16-8.57-8.18a9,9,0,0,0-6.08.57c-1.74.89-.21,3.39,1.51,2.59s2.19-2.76,1.91-4.5a12.34,12.34,0,0,0-3.38-6.05,22.06,22.06,0,0,0-8.17-5.43c-2-.76-4.43-1.2-6.36-.07a4.41,4.41,0,0,0-2,2.61l2.51-.66a26.94,26.94,0,0,0-15.34-8.78c-5.3-1.11-11.59-1.9-15.36,2.83-3.33,4.17-4,10.05-4,15.22,0,2.89.58,5.71.69,8.59a33.89,33.89,0,0,1-1.14,9.45c-1.27,5.11-3.41,9.82-5.38,14.67-.72,1.79,2.18,2.57,2.89.8Z"/><path d="M737.12,360.74c.69,6.14,4.38,12.08,8.39,16.58,4.63,5.19,10.51,8.82,16.57,12.13a84.59,84.59,0,0,0,15.87,7,39.1,39.1,0,0,0,12.24,1.82c1.93,0,1.94-3,0-3-8.55.19-16.73-3.22-24.18-7.09-5.86-3-11.75-6.32-16.48-11a35.22,35.22,0,0,1-7.74-11,26.62,26.62,0,0,1-1.39-4.09c-.1-.39-.18-.79-.26-1.19s-.09-.67,0-.12c-.22-1.89-3.22-1.91-3,0Z"/><path d="M766.59,346.11a24.49,24.49,0,0,1,3.95-1c1.78-.3,4.34-.49,5.76.57a2.19,2.19,0,0,1,.58.77c-.06-.12.13.43.15.56a4,4,0,0,1,.05.82c0,2.15-1.14,4.2-1.77,6.21-1.31,4.2-2.44,9.32-1.06,13.66,1.11,3.5,4.07,5.16,7.51,3.66,1.76-.78.24-3.36-1.52-2.6a1.81,1.81,0,0,1-2.21-.25,6.12,6.12,0,0,1-1.29-3.68,22.27,22.27,0,0,1,.58-6.7c.58-2.63,1.69-5.07,2.36-7.67s.55-5.92-2.11-7.53c-2-1.21-4.55-1.15-6.78-.86a25.26,25.26,0,0,0-5,1.11c-1.81.62-1,3.52.8,2.9Z"/><path d="M723,383.76c6.56,5.8,16.44,9.24,25,6.26,1.81-.63,1-3.53-.8-2.89-5.1,1.79-10.52,1-15.34-1.28a33.7,33.7,0,0,1-5-2.89,14.22,14.22,0,0,1-1.72-1.32c-1.44-1.27-3.57.84-2.12,2.12Z"/><path d="M723.59,386.18c.68,6.5,4.61,13.14,10.58,16a21.12,21.12,0,0,0,10.06,1.92c1.93-.08,1.94-3.08,0-3-4.94.19-9.68-1.19-13-4.86a18.87,18.87,0,0,1-4.27-8.38c-.12-.49-.22-1-.31-1.48,0-.11-.1-.64,0-.26s0,.12,0,0a1.54,1.54,0,0,0-1.5-1.5,1.5,1.5,0,0,0-1.5,1.5Z"/><path d="M746.11,397.15a41.21,41.21,0,0,0,3.16,7.94c2.36,4.65,5.64,9.15,10.17,11.89a17.1,17.1,0,0,0,9.56,2.46c1.92-.08,1.93-3.08,0-3-5.37.22-9.8-2.57-13.14-6.59a37.37,37.37,0,0,1-6-10.91c-.31-.85-.62-1.71-.85-2.58a1.5,1.5,0,0,0-2.89.79Z"/><path d="M773.2,427.21l-.48.08c-.18,0-.61.08-.15,0l-.79.09a33.74,33.74,0,0,1-4.26.19c-3.28-.06-7-.6-9.53-2.67a7.85,7.85,0,0,1-2.81-5.21,1.55,1.55,0,0,0-1.5-1.5,1.51,1.51,0,0,0-1.5,1.5,11.38,11.38,0,0,0,2.75,6.43,12.68,12.68,0,0,0,5.29,3.3,26.44,26.44,0,0,0,11,1c.92-.08,1.85-.18,2.76-.35,1.9-.36,1.1-3.25-.79-2.9Z"/><path d="M487.68,377.56a20.33,20.33,0,0,0-3.28-2.86,42.89,42.89,0,0,0-10-5.49c-10.47-4.22-21.79-4.61-32.92-4.7a311.64,311.64,0,0,0-34.83,1.62c-11.17,1.18-22.51,2.88-33.17,6.54-3.61,1.24-7.65,2.64-10.78,4.91a40.06,40.06,0,0,0-9.74,10,24.94,24.94,0,0,0-2.19,4,1.5,1.5,0,0,0,2.35,1.81c-.47.38-.13.1.07,0l1-.68c1.2-.81,2.44-1.56,3.7-2.26a64.39,64.39,0,0,1,13.5-5.49,105.05,105.05,0,0,1,17.73-2.89c5.4-.56,10.81-1,16.24-1.24a217.77,217.77,0,0,1,39.37,1.82c11.06,1.53,22.36,3.89,33.5,1.54,3.25-.69,7.65-1.93,9.7-4.85,1.12-1.58-1.48-3.08-2.59-1.51.38-.53.07-.08-.13.11l-.44.39-.08.07-.46.32a16.44,16.44,0,0,1-5.65,2.31c-10.53,2.64-21.61.36-32.1-1.13a220.7,220.7,0,0,0-39.29-2.14c-5.48.2-11,.61-16.41,1.14a128.8,128.8,0,0,0-17.51,2.48A67.65,67.65,0,0,0,357,387.56a40.43,40.43,0,0,0-6,3.78l2.36,1.82c2.1-4.89,5.82-8.94,9.92-12.26a15.6,15.6,0,0,1,2.58-1.72,49.64,49.64,0,0,1,6-2.73c10-3.82,20.7-5.66,31.26-6.92a300.25,300.25,0,0,1,34.44-2c10.77-.05,21.83-.07,32.19,3.2a44.61,44.61,0,0,1,12.16,5.85,18.9,18.9,0,0,1,3.67,3.12C486.82,381.14,488.94,379,487.68,377.56Z"/><path d="M574.91,381.58a10.25,10.25,0,0,1,1.49-1.38c.3-.25,0,0,.14-.11l.47-.34c.37-.27.76-.53,1.15-.78a34.07,34.07,0,0,1,3.12-1.75c7.69-3.83,16.52-5.43,25-6.26,6.88-.68,13.83-.81,20.73-.83,6.28,0,12.56.15,18.81.64,10.1.8,20.22,2.43,29.79,5.83a72.45,72.45,0,0,1,6.82,2.82l1.66.82a3.69,3.69,0,0,1,.62.33c-.22-.17.14.15,0,0a4.5,4.5,0,0,1,.7,2.17,28.17,28.17,0,0,1,0,6c-.06.85-.15,1.7-.25,2.55l-.06.41c0,.33,0-.26,0,0a1.65,1.65,0,0,1,0,.31h2.89c-.65-2.18-2.93-3.86-4.74-5-6.6-4.07-15.07-5-22.63-5.56-7.2-.49-14.44-.26-21.65,0q-8.92.29-17.83.9c-8.17.58-16.32,1.5-24.5,2-4.47.29-9.31.79-13.71-.2a15.12,15.12,0,0,1-6-2.7,11.74,11.74,0,0,1-1.44-1.38c-.41-.44,0,.11-.25-.33-1-1.63-3.62-.13-2.59,1.51a13.18,13.18,0,0,0,6,4.63c4.38,1.89,9.11,1.86,13.8,1.69,7.5-.28,15-1.14,22.46-1.76,12.32-1,24.72-1.67,37.09-1.65a101.91,101.91,0,0,1,17.44,1.32,41.75,41.75,0,0,1,10,2.88,20.13,20.13,0,0,1,3.26,1.85l.27.2c.35.25-.07-.06.12.09s.35.29.52.44a9.08,9.08,0,0,1,.76.76l.32.36c.2.24-.21-.32,0,.08l.33.52c.09.15.31.67,0,0a.61.61,0,0,1,0,.12c.39,1.3,2.65,1.55,2.89,0a41.31,41.31,0,0,0,.54-9.09,9.07,9.07,0,0,0-1.29-4.81,5.4,5.4,0,0,0-2.22-1.57c-1.07-.53-2.16-1-3.26-1.52-9.37-4.08-19.41-6.23-29.53-7.42a236.45,236.45,0,0,0-40-.88c-10.2.55-20.67,2-30.12,6.06-3.15,1.36-7,3.15-9.26,5.89C571.57,380.94,573.69,383.07,574.91,381.58Z"/><path d="M410.07,555.77a29.08,29.08,0,0,0-4.6,8.41,43.16,43.16,0,0,0-1.92,22.33c.31,1.9,3.2,1.09,2.9-.8A40.12,40.12,0,0,1,408.36,565a31.8,31.8,0,0,1,2.67-5.39c.31-.5.64-1,1-1.46s-.1.1.18-.23c1.23-1.47-.88-3.6-2.12-2.12Z"/><path d="M628.28,554.15c1.44,1.36,3.26,2.23,4.68,3.66a10,10,0,0,1,2.33,3.38,8.86,8.86,0,0,1,.24,4.71c-.92,5.63-2.23,11.22-3.68,16.74a1.51,1.51,0,0,0,2.9.8c1.11-4.27,2.12-8.59,3-12.92.57-2.87,1.42-6,.82-8.88a12.37,12.37,0,0,0-3.83-6.31,24.93,24.93,0,0,0-2.73-2.19l-1.09-.76-.44-.3c-.22-.16.21.19-.05-.06-1.4-1.32-3.53.8-2.12,2.13Z"/><path d="M425.37,584.49l.26.1c-.5-.2.33.15.53.25,1,.47,2,1,2.94,1.54a54.05,54.05,0,0,1,9.18,6.74c6,5.39,10.4,12,15.24,18.33a100.2,100.2,0,0,0,14.61,15.91,74.31,74.31,0,0,0,22.52,13.07,107.19,107.19,0,0,0,16.16,4.3,155.11,155.11,0,0,0,15.76,2.34,76.63,76.63,0,0,0,23.94-1.15c15.63-3.57,29.34-14.12,39-26.61,4.43-5.72,8-12.08,12.47-17.74a113.34,113.34,0,0,1,9.18-9.55l7-7,.89-.9a1.51,1.51,0,0,0-.66-2.5c-3.68-.56-7.35-1.16-11-1.77s-7.53-1.27-11.29-1.94c-4.06-.73-8.11-1.64-12.21-2-16-1.58-31.62,3.78-47.53,4a208,208,0,0,1-21.91-1,154.51,154.51,0,0,0-16.51-1c-13.89.21-27.8,1.92-41.61,3.24a177.71,177.71,0,0,1-19.83,1.24c-1.42,0-3.35-.12-4.48-.27l-.51-.08-.51-.1c-.22-.05-.43-.13-.65-.17s0,0,.16.08c-1.73-.83-3.25,1.75-1.51,2.59a12.3,12.3,0,0,0,4.17.8,95.12,95.12,0,0,0,15.65-.38c14.76-1.24,29.48-3.06,44.27-3.78,12.09-.6,24,1.46,36.09,1.82A136.52,136.52,0,0,0,549,581.31c8-1.15,15.94-2.6,24-2.73s16.12,1.84,24.12,3.22q7.85,1.35,15.7,2.57l.78.12L613,582l-13.77,13.77c-4.85,4.85-8.31,10.83-12.18,16.44-9,13.1-21.46,24.69-36.88,29.63a63.53,63.53,0,0,1-21.46,2.63,131.15,131.15,0,0,1-31.36-5,73.17,73.17,0,0,1-24.24-11.93,86.61,86.61,0,0,1-15.27-15.4c-4.49-5.66-8.41-11.8-13.34-17.1s-10.57-9.94-17-12.88c-.41-.19-.83-.37-1.26-.53C424.36,580.91,423.58,583.81,425.37,584.49Z"/><path d="M613.62,581.6a22.54,22.54,0,0,0-3,.81c-3.71,1.16-7.33,2.6-11,3.82a143.6,143.6,0,0,1-20.76,5.1c-5.68,1-11.34,2-17,3.26a125.18,125.18,0,0,1-16.34,2.61,177.16,177.16,0,0,1-22.81,0c-5.1-.24-10.18-.57-15.25-1.07-5.48-.53-10.94-1.19-16.41-1.8-8.29-.93-16.6-1.68-24.87-2.84a201.84,201.84,0,0,1-39.11-9.6l-.91-.32-.79,2.89c7.59,2.8,15,6.07,22.37,9.43,7.8,3.56,15.42,7.43,23.07,11.29a145.63,145.63,0,0,0,24.84,9.85A130.83,130.83,0,0,0,518,619.6a78.11,78.11,0,0,0,18.21.18c7.8-1,15.2-3.89,22.38-7,7.64-3.3,15.09-7,22.87-10a146,146,0,0,0,32.72-18l.6-.43c1.54-1.13,0-3.74-1.52-2.59a146.91,146.91,0,0,1-27.56,16.13c-3.57,1.57-7.26,2.85-10.84,4.38-3.81,1.63-7.58,3.37-11.35,5.09-7.3,3.31-14.71,6.64-22.53,8.52A61.07,61.07,0,0,1,522.54,617a117.69,117.69,0,0,1-21.33-3.53A141.11,141.11,0,0,1,477,604.86c-8.05-3.71-15.82-8-23.85-11.76q-8.82-4.12-17.82-7.87c-2.88-1.2-5.77-2.48-8.72-3.49l-.4-.14c-1.81-.67-2.59,2.22-.79,2.89a189.74,189.74,0,0,0,34.92,9.15c8.23,1.35,16.53,2.17,24.82,3.07,6.28.67,12.56,1.42,18.84,2.09a252.68,252.68,0,0,0,36.58,1.7,116.14,116.14,0,0,0,18.11-2.17c5.47-1.09,10.89-2.38,16.4-3.32a191.15,191.15,0,0,0,19.25-4c4.25-1.19,8.4-2.68,12.56-4.16a72.06,72.06,0,0,1,6.91-2.2,5.23,5.23,0,0,1,.66-.15C616.32,584.18,615.51,581.29,613.62,581.6Z"/><path d="M165.72,748.87c-.62.49.23-.12.45-.25s.75-.35.56-.28a11.64,11.64,0,0,1,1.18-.39,10.92,10.92,0,0,1,6.89.66c5.15,2.15,9,7,12.2,11.12,7.23,9.46,13.74,19.5,20.07,29.57,9.05,14.43,17.58,29.2,25.47,44.3a413.77,413.77,0,0,1,22.37,49.58,310.45,310.45,0,0,1,14.73,56.43c.32,2,.61,3.92.89,5.88s3.16,1.1,2.89-.79a311.62,311.62,0,0,0-13.91-57.52,390.48,390.48,0,0,0-22.07-50.62c-8-15.7-16.76-31-26.06-46-6.63-10.69-13.49-21.3-21-31.36-3.35-4.45-6.86-9-11.67-11.93-4.18-2.58-9.69-3.71-14.15-1.14a7,7,0,0,0-.91.63c-1.51,1.2.62,3.31,2.12,2.12Z"/><path d="M371.38,982.3c-1.65-5.46-3.34-10.91-5-16.36q-5.5-17.75-11.24-35.43c-3.55-10.87-7.14-21.74-11.12-32.46-2.49-6.71-5.19-13.33-8-19.89-3.21-7.47-6.55-14.88-9.84-22.31q-7.35-16.64-14.43-33.38c-6.72-15.93-13.11-32-20.18-47.77-5.34-11.93-11-23.73-17.17-35.25-3.65-6.82-7.47-13.55-11.67-20.05-1.13-1.75-2.28-3.48-3.49-5.17a20.9,20.9,0,0,0-2-2.68,3,3,0,0,1-.22-.28l-.66,2.51,10.39-4,2.37-.92c.74-.29.89-.17-.08-.27-.6-.07-.19-.23-.16-.06a1.27,1.27,0,0,0,.21.14c.37.24-.28-.26,0,0s.57.51.84.79c.42.44.83.91,1.21,1.39l.35.43c.16.21-.18-.23,0,0l.23.3q.44.59.84,1.17a140.59,140.59,0,0,1,10.74,19.07c7,14.21,12.93,28.88,19,43.51,6.69,16.27,13.68,32.42,20.79,48.51,6,13.49,12,26.93,17.81,40.48,5,11.63,9.77,23.36,13.93,35.31,5.49,15.8,10.27,31.87,14.59,48q2.06,7.71,3.93,15.46a52.23,52.23,0,0,0,1.34,5.72c.33.92,1.63,1.59,2.38,2.15l4.76,3.5,10.92,8,2,1.5c1.56,1.14,3.05-1.46,1.52-2.59L379.3,968.93l-2.48-1.82.69.9c-4.37-19.81-10.08-39.4-16.34-58.68-7.49-23.07-17.07-45.29-26.88-67.44-5.72-12.92-11.47-25.82-17.08-38.78-6.62-15.3-12.83-30.77-19.31-46.13-4.59-10.88-9.37-21.72-14.82-32.21a108.93,108.93,0,0,0-8.56-14.41c-1.12-1.52-2.4-3.4-4.08-4.39a1.83,1.83,0,0,0-1.73-.18c-3.45,1.12-6.82,2.63-10.21,3.94l-3,1.16a1.52,1.52,0,0,0-.66,2.5c.08.1.15.2.23.29.3.39-.19-.25.08.11l.41.54c.93,1.25,1.82,2.54,2.69,3.83,3.7,5.47,7.06,11.16,10.28,16.93,5.71,10.21,10.94,20.7,15.89,31.31,7.23,15.47,13.67,31.26,20.24,47q7.79,18.71,15.92,37.26c3.51,8,7.1,16,10.61,24,2.8,6.38,5.52,12.79,8,19.28,3.63,9.37,6.86,18.9,10,28.44,4.07,12.22,8,24.49,11.82,36.78q3.57,11.37,7,22.77c.12.38.23.76.35,1.14.56,1.84,3.45,1.06,2.89-.8Z"/><path d="M612.73,680.15a37,37,0,0,1,4.38,9.51,69.84,69.84,0,0,1,3,27.7c-.56,6.95-1.48,13.84-1.86,20.81-.45,8.24-.66,16.5-.78,24.75-.27,18.92,0,37.86.65,56.78.65,18.14,1.64,36.3,4.21,54.29a287.29,287.29,0,0,0,9.3,43.63c.06.21.13.42.19.63l.16-1.16c-4.42,6.88-9,13.66-13.66,20.39-8.08,11.67-16.35,23.39-25.81,34a77.09,77.09,0,0,1-6.39,6.52,24.72,24.72,0,0,1-2.53,2c-.41.28-.83.55-1.27.79-.19.11-.39.21-.59.31a1.2,1.2,0,0,1-.31.13c-1.79.66-1,3.56.8,2.89,2.83-1,5.19-3.2,7.34-5.24a115,115,0,0,0,8.93-9.8c7-8.41,13.42-17.27,19.69-26.2q7.27-10.38,14.22-21a18.73,18.73,0,0,0,2.24-3.5,3.51,3.51,0,0,0-.31-2.24c-.4-1.35-.79-2.7-1.16-4.06a317.6,317.6,0,0,1-8-39.47c-1.94-13.69-2.89-27.49-3.54-41.29-.69-14.33-1-28.68-1.19-43-.13-13.85-.06-27.7.45-41.54.2-5.54.47-11.09.91-16.62.49-6.09,1.5-12.14,1.58-18.25.14-10.84-1.8-22.4-7.23-31.93-.27-.46-.54-.92-.84-1.36-1.1-1.57-3.7-.08-2.59,1.51Z"/><path d="M619.9,682.4l.1.12c-.28-.31-.07-.12.11.16.39.6.76,1.21,1.09,1.84a40.27,40.27,0,0,1,3,8c3.23,11.58,3.48,23.65,3.72,35.58q.72,36.89,2.75,73.73c.71,13.06,1.53,26.12,2.64,39.16,1.06,12.52,2.69,25,4.2,37.44,1.46,12,2.78,24,3.86,36,.24,2.62.47,5.25.67,7.88a4.57,4.57,0,0,0,.83,2.61l24.78,35,.72,1c.93,1.32,3.24.58,2.74-1.15-2.48-8.51-4.71-17.09-6.88-25.67-5-19.83-9.53-39.79-13.31-59.89-4.21-22.44-7.68-45.16-8.66-68-.59-13.82-.5-27.68-.72-41.5-.18-11.81-.37-23.61-.8-35.41-.31-8.6-.71-17.22-1.66-25.77-.63-5.64-1.38-11.42-3.29-16.79-.36-1-.76-2-1.21-2.91l-1.7,2.21,14.37,3.66,3.73,1a9.1,9.1,0,0,0,1.76.45c-.25,0-.54-.38-.3-.13s.24.23.36.35.6.73.34.4a18.75,18.75,0,0,1,2.62,5.21,58.53,58.53,0,0,1,2.6,11.93c.7,5.6,1,11.26,1.61,16.87,1.5,13.51,3.35,27,5.24,40.45q3.1,22,6.61,44c.9,5.56,1.82,11.11,2.83,16.65a92.53,92.53,0,0,0,2,9.3,11,11,0,0,0,.45,1.21c.6,1.34,2.91.68,2.79-.76-.4-4.75-.74-9.5-1.06-14.26q-1.14-16.53-1.82-33.11c-.49-12.27-.79-24.56-.46-36.84.35-12.88,2-25.67,3.52-38.45.47-4,1.05-7.94,1.18-11.93.08-2.1,0-4.44-1-6.33a6.65,6.65,0,0,0-.8-1.11l-1.46,2.5,14.74,3.25c.86.19,1.73.41,2.6.57a1.88,1.88,0,0,0,1.17,0c.44-.19.77-.34.23-.12.17-.06-.35.07-.32.07a1,1,0,0,1-.57-.19c-.37-.28.32.37-.2-.22a.69.69,0,0,1,.15.24c0,.14-.11-.34,0,0,0,.15.09.29.13.44a3.16,3.16,0,0,1,.12.86,31.28,31.28,0,0,1,0,3.75c-.27,4.76-1.19,9.43-1.87,14.14-1.35,9.46-1.52,19.08-1.63,28.63-.14,11.51-.06,23-.37,34.52s-1.17,23-2.55,34.4c-2.56,21.23-4.69,42.58-3.81,64a185.76,185.76,0,0,0,4.49,34.68,175.19,175.19,0,0,0,11.86,33.16c1.07,2.32,2.17,4.62,3.32,6.89.87,1.73,3.46.21,2.59-1.51a196.28,196.28,0,0,1-11.79-28.13,156.61,156.61,0,0,1-6.35-30.29c-2.22-19.69-1.39-39.6.52-59.27.84-8.68,2-17.32,3-26,1.19-10.51,1.64-21.09,1.86-31.66.21-10.19.16-20.39.28-30.58A248.88,248.88,0,0,1,696.71,723c.8-6.89,2.87-14,2.28-21-.15-1.82-1.14-5.26-3.71-3.84a3.79,3.79,0,0,0-.45.34l1.46-.39-17.53-3.86a1.52,1.52,0,0,0-1.46,2.51c.22.25-.12-.24.11.15l.3.5c.22.4,0-.12.09.21s.13.41.19.62.08.4.12.6c.1.48,0,0,.06.43s.07,1.12.07,1.68a89.12,89.12,0,0,1-.92,10.69c-1.49,12.55-3.22,25.13-3.7,37.77-.45,12-.21,24.08.22,36.1.39,11.27,1,22.53,1.74,33.78q.39,5.78.82,11.54a43.27,43.27,0,0,0,.44,5.58,2.46,2.46,0,0,1,0,.26l2.8-.76c.19.44.06.18,0-.07s-.12-.39-.17-.59c-.16-.54-.29-1.09-.41-1.64-.37-1.61-.69-3.24-1-4.87-1-5.14-1.85-10.31-2.7-15.48-2.39-14.53-4.56-29.09-6.64-43.67-2-13.83-3.88-27.67-5.47-41.55-.55-4.85-1-9.69-1.39-14.54-.6-7.25-1.47-15.44-5.21-21.87a10.7,10.7,0,0,0-2.19-2.81,6.08,6.08,0,0,0-2.57-1l-16.78-4.27-1.4-.36a1.52,1.52,0,0,0-1.69,2.21,33.38,33.38,0,0,1,2,6,82.21,82.21,0,0,1,1.57,8.37c1.11,7.86,1.54,15.83,1.9,23.76,1.14,25.36,1.1,50.77,1.55,76.15.4,22.62,3.59,45.18,7.53,67.43,3.68,20.82,8.21,41.49,13.3,62q2.6,10.48,5.41,20.93c.89,3.33,1.6,6.85,2.79,10.08,0,.14.08.29.12.43l2.75-1.15-23.79-33.59-1.8-2.54a2.86,2.86,0,0,0-.37-.52c-.38-.31.06.79.11.58a4.89,4.89,0,0,0-.11-1.47c-.08-1.13-.18-2.26-.27-3.39-.87-10.28-2-20.54-3.12-30.78-1.53-13.32-3.44-26.6-4.69-39.95-1.2-12.69-2.07-25.41-2.81-38.14q-2.22-37.92-3.07-75.93c-.29-12.22-.23-24.49-2.65-36.53-1.09-5.43-2.53-11.57-5.8-16.18a8.47,8.47,0,0,0-.58-.76c-1.29-1.45-3.41.68-2.13,2.12Z"/></svg>