<svg id="Layer_1" data-name="Layer 1" xmlns="http://www.w3.org/2000/svg" viewBox="0 0 1000 1000"><defs><style>.cls-1{fill:#01b1b0;}</style></defs><circle class="cls-1" cx="500" cy="500" r="500"/><path d="M288.2,426l24.37-12.72,34.29-17.91,3.43-1.8c.69-.35-.42.09.41-.17,2.16-.67,4.29-1.46,6.44-2.14,7.31-2.3,14.84-3.94,22.32-5.53,10.71-2.26,21.54-4.31,32.47-5.09,10.33-.73,20.71-.94,31.07-1,9.46,0,19,0,28.4.73,10.18.8,20.22,3.18,30.22,5.15a123.37,123.37,0,0,0,24.94,2.08c9.71-.07,18.82-2.18,28.19-4.52s19-5.19,28.61-6.46c8.54-1.13,17.26-1.33,25.86-1.62,9.6-.32,19.23-.56,28.83-.19a217.86,217.86,0,0,1,27,3.15c4.51.74,9,1.55,13.48,2.49,2.57.54,5.6.9,8,2.06,2.64,1.27,1.43,7.22.81,9.67-.26,1-.54,2.74-1.3,3.51s-2.66,1.17-3.74,1.92c-2.93,2-2.94,5.29-3.24,8.49-.35,3.8-.78,7.6-1.23,11.39-.95,8.18-1.8,16.45-3.43,24.52-1.88,9.29-9,18.79-17.67,22.71-4.16,1.87-8.88,2.79-13.32,3.69q-8,1.64-16.05,2.54a174.36,174.36,0,0,1-25.65.67c-9.47-.3-19.23-.74-28.39-3.34a23.86,23.86,0,0,1-10.83-6,51.46,51.46,0,0,1-9.85-14.43c-4.39-9.11-6.2-18.8-8.74-28.48A60.62,60.62,0,0,0,539.61,407c-1.61-3.15-4.16-4.83-7.47-5.92-6.89-2.26-16.59-2.21-20.1,5.26-3.74,7.94-5.51,16.91-7.88,25.32a114,114,0,0,1-8.06,21.51,30.07,30.07,0,0,1-8,10.09c-4.7,3.68-10.36,5.27-16,6.89a140.13,140.13,0,0,1-31.69,5.32c-10.91.58-21.94,1.07-32.84,0a71.43,71.43,0,0,1-16.81-3.5c-4.59-1.61-9.33-3.81-12.52-7.6s-5.48-8.67-7.35-13.31a105.18,105.18,0,0,1-4.35-13.17c-2.05-8.09-2.93-16.45-5.12-24.52-.7-2.58-1.46-6.09-3.54-8-2.76-2.5-7.56-1.12-10.63-.05s-6.11,2.62-9.12,4L301.55,426l-8.69,4,2.05.54a30.72,30.72,0,0,0-6.41-6.86c-1.48-1.2-3.62.91-2.12,2.12a28.41,28.41,0,0,1,5.94,6.25,1.55,1.55,0,0,0,2.05.54l29.06-13.21,16.91-7.69c3.33-1.51,6.65-3.24,10.22-4.12,1.42-.35,3.86-.95,5.17,0,.89.66,1.32,2.12,1.68,3.1a86.17,86.17,0,0,1,3.08,12.28c1.64,8.24,3,16.39,5.75,24.34,3.09,8.86,7.09,19,15.56,23.93,9.61,5.62,21.14,7.25,32.09,7.75a257.28,257.28,0,0,0,33.77-.94,139.24,139.24,0,0,0,31.86-6.92,33.33,33.33,0,0,0,20-18.05,136.89,136.89,0,0,0,7.88-21.79c1.33-4.76,2.6-9.55,4-14.29,1.05-3.5,2-7.36,3.94-10.51,2.1-3.46,6.86-3.8,10.5-3.53,3.24.24,7.89,1.06,10,3.78,2.47,3.12,3.47,7.77,4.51,11.51s1.93,7.7,2.82,11.57c2.58,11.22,6.9,22.57,14.28,31.54a27.36,27.36,0,0,0,10.4,8.26,54.11,54.11,0,0,0,13,3.36c9.2,1.4,18.52,1.64,27.81,1.85a154.22,154.22,0,0,0,28.13-2.17c9.46-1.53,20-3.06,27.55-9.34a38.25,38.25,0,0,0,13.27-23.08c1.46-8.6,2.47-17.28,3.45-25.95.37-3.32.75-6.64,1-10,.14-1.71.35-3.26,1.88-4.29,1.25-.83,2.86-1.07,4-2.11,2.15-2,2.61-6.35,2.89-9.06.33-3.22.13-7.51-3.24-9.06a38.06,38.06,0,0,0-7.8-2.09c-4.32-.93-8.67-1.71-13-2.44a235.85,235.85,0,0,0-27.65-3.39c-9.51-.44-19.07-.19-28.57.11-8.86.27-17.79.53-26.6,1.58-19.21,2.27-37.37,10.8-56.86,11.06a122.46,122.46,0,0,1-25.64-2.15c-10-2-20.09-4.31-30.3-5.1-9.57-.74-19.21-.75-28.81-.71-10.49.06-21,.24-31.47,1.06a250.13,250.13,0,0,0-32.54,5.18,232.26,232.26,0,0,0-22.66,5.66,62.18,62.18,0,0,0-10.3,4.17l-15,7.82-36.83,19.23-6.94,3.63C285,424.26,286.49,426.85,288.2,426Z"/><path d="M371.74,399c.32-.57.66-1.14,1-1.69a11.89,11.89,0,0,1,1-1.37,17.6,17.6,0,0,1,1.33-1.4,13.56,13.56,0,0,1,1.43-1.2,28.54,28.54,0,0,1,9.61-4.18,109.14,109.14,0,0,1,17.52-2.82c8.95-.87,17.94-1.28,26.92-1.58,13.71-.45,27.66-.73,41.28,1.14a74.84,74.84,0,0,1,12.73,2.76,53.55,53.55,0,0,1,8.33,3.45,21.1,21.1,0,0,1,7.14,5.49c2.35,3.07,2.61,6.67,2.42,10.38a162.4,162.4,0,0,1-6,33.86c-1.47,4.75-3.29,9.26-6.45,13.14a30.92,30.92,0,0,1-11.34,8.8c-5.8,2.62-12.31,3.71-18.59,4.49-8,1-16,1.55-24,2a228.21,228.21,0,0,1-23.54.32c-6.53-.3-13.24-.92-19.45-3.09s-10.83-6.86-14.13-12.34c-4-6.69-6-14.41-7.47-22-1.59-8.41-2.77-17.12-2-25.69a22.21,22.21,0,0,1,2.15-8.44c.92-1.7-1.67-3.21-2.59-1.51a25.09,25.09,0,0,0-2.49,9.24,68.32,68.32,0,0,0,0,12.95,116,116,0,0,0,4.82,25.73c2.38,7.45,6.09,14.66,12.07,19.86,4.72,4.11,10.42,6,16.51,7a126.64,126.64,0,0,0,22.77,1.44c8.3-.09,16.59-.62,24.86-1.28,7.88-.64,15.83-1.27,23.54-3.09a40.16,40.16,0,0,0,15.34-6.76,33.39,33.39,0,0,0,9.57-11.42,75.87,75.87,0,0,0,5.53-17,178.83,178.83,0,0,0,3.19-18.81c.45-3.89,1.09-8.07.6-12-.75-5.94-4.52-10.13-9.57-13.07a55.59,55.59,0,0,0-15.45-5.9c-11.83-2.74-24.23-3-36.31-2.92-9.38.05-18.76.39-28.13.93a219.82,219.82,0,0,0-23.34,2.32c-7.45,1.24-16.1,3.13-21.15,9.28a22.74,22.74,0,0,0-2.35,3.47C368.21,399.21,370.8,400.72,371.74,399Z"/><path d="M673.17,391.75c-1.63-5.55-6.84-8.7-11.94-10.65a68.71,68.71,0,0,0-15.84-3.56,201,201,0,0,0-25.62-1.28c-13.84,0-27.88.46-41.49,3.2a90.32,90.32,0,0,0-12.41,3.38c-5.3,1.88-10.78,4.09-15,8-7.43,6.91-6,17.46-4.7,26.51a120,120,0,0,0,4.62,20c2.19,6.66,5,13.4,9.18,19.1a26.6,26.6,0,0,0,11.42,9c5.57,2.32,11.72,3,17.69,3.46,8.3.58,16.68.56,25,.33a222.78,222.78,0,0,0,24.89-2c6.52-.92,13.19-2.16,19.24-4.87,5.7-2.54,9.9-7.49,12.69-13,3.44-6.81,4.53-14.45,5-22a138.88,138.88,0,0,0-1-26.65,62.67,62.67,0,0,0-1.72-9,1.5,1.5,0,0,0-2.89.8c2,6.87,2.46,14.27,2.74,21.37.33,8.05.23,16.38-1.43,24.29-1.46,7-4.55,13.57-9.86,18.5-3.67,3.4-9.19,4.78-13.92,5.89a142.32,142.32,0,0,1-22.23,3c-8.29.59-16.61.76-24.91.65-6.92-.09-14-.23-20.77-1.54-4.66-.9-9.33-2.42-13.06-5.43-4.43-3.58-7.29-8.81-9.63-13.9a96.54,96.54,0,0,1-6.43-19.81,112.64,112.64,0,0,1-2.46-16.44c-.26-3.68-.33-7.43,1-10.94,2.17-5.65,8.11-8.82,13.27-10.94a87.46,87.46,0,0,1,10.67-3.6c11.06-2.93,22.58-3.83,34-4.23,8.76-.3,17.55-.35,26.31.08a115.52,115.52,0,0,1,19.79,2.38,38.47,38.47,0,0,1,11.18,4,13.71,13.71,0,0,1,3.06,2.28,13,13,0,0,1,1.12,1.23c.17.21-.14-.2.06.08l.21.3c.14.2.27.41.4.63s.22.39.32.59.3.64.22.44.12.33.16.44.14.4.2.61C670.82,394.4,673.72,393.61,673.17,391.75Z"/><path d="M383.21,242.24a174.74,174.74,0,0,0,40.52-9.1A122.82,122.82,0,0,0,447.38,222c1.1-.69,2.19-1.41,3.24-2.18.84-.62,1.64-1.06,1.46-2.29-.12-.84-1.13-1.18-1.85-1.05a5.61,5.61,0,0,0-1.74,1.11l-3.71,2.63q-5.89,4.18-11.76,8.4-10.65,7.62-21.28,15.26c-1,.72-1.79,1.2-1.61,2.67a7.46,7.46,0,0,0,4.1,6c5.15,2.53,11.94.92,17.15-.56a101.81,101.81,0,0,0,14.44-5.82q9.3-4.24,18.59-8.53l28.79-13.25.52-.24-1.52-2.59c-14.15,10.24-29.76,18.58-45.6,25.9-1.24.56-2.47,1.13-3.72,1.67-1.5.65-.55,2.69.76,2.8a120.24,120.24,0,0,0,13.56.15,195.52,195.52,0,0,0,33.32-3.93,164,164,0,0,0,41.93-14.54c8.55-4.4,17.45-8.25,25.71-13.18,9.56-5.71,17.83-13.25,25.59-21.17,1.44-1.47,2.86-3,4.27-4.45s-.8-3.53-2.12-2.12c-8.15,8.64-16.7,17.15-26.75,23.6-7.65,4.91-16,8.53-24.13,12.63A195.63,195.63,0,0,1,515.19,238a169.28,169.28,0,0,1-20.8,6.26A190.81,190.81,0,0,1,460.15,249c-3.67.17-7.36.24-11,.18-1.72,0-3.53-.3-5.25-.21a1.62,1.62,0,0,1-.22,0l.76,2.79a298.53,298.53,0,0,0,34.67-18c5-3,9.92-6.19,14.65-9.61a1.5,1.5,0,0,0-1.52-2.59l-27.9,12.85-20.11,9.23c-5.17,2.36-10.06,4.62-15.63,6-4.47,1.11-15,3.32-15.5-3.82l-.74,1.3,13.06-9.37q10.49-7.51,21-15l3.6-2.55,1-.7c.33-.22.64-.24.07-.13l-1.84-1.05h0l.15-1.15c.87-1.16.16-.25.16-.25-.08.17.39-.29.11-.08l-.81.6c-.93.67-1.89,1.31-2.86,1.92a99.25,99.25,0,0,1-8.8,4.87,148.34,148.34,0,0,1-30,10.8,175.66,175.66,0,0,1-23.89,4.21c-1.9.21-1.92,3.21,0,3Z"/><path d="M319.86,408.08c.12.9,0-.08,0-.28q-.09-.87-.15-1.74c-.15-2.1-.2-4.21-.18-6.32a83.76,83.76,0,0,1,2.59-20.18,63.28,63.28,0,0,1,11.26-23.44c5.44-6.89,11.72-13.11,17.06-20.09a43.19,43.19,0,0,0,7.46-14.48c2-6.9,2.75-14.07,4.33-21.06,3.33-14.86,8.88-30.43,19.83-41.44a38.82,38.82,0,0,1,17.09-10.34,140,140,0,0,0,17.64-5.7,32.56,32.56,0,0,0,4-2,1.5,1.5,0,0,0-1.52-2.59,45.84,45.84,0,0,1-9.17,3.84c-3.18,1.07-6.4,2-9.63,2.93a45.65,45.65,0,0,0-16.47,8c-12.43,9.82-19.16,25.47-23.2,40.38-2,7.38-3,14.91-4.66,22.37a43.28,43.28,0,0,1-6.08,15.38c-4.38,6.55-10,12.33-15.14,18.26a75.17,75.17,0,0,0-8.84,11.93,68.05,68.05,0,0,0-5.34,12,81.82,81.82,0,0,0-3.9,34.38l.12.92a1.51,1.51,0,0,0,1.84,1.05,1.54,1.54,0,0,0,1.05-1.85Z"/><path d="M316.5,420.13a102.31,102.31,0,0,1-.1,18c-.41,4.35-1.08,9-3,13-2.56,5.27-5.94,10.11-8.45,15.41a38.68,38.68,0,0,0-2.88,8,25.89,25.89,0,0,0-.52,3.09c-.11,1.12-.31,0,.82-.28l1.16.15c1.42.65.4,1.08.5.34,0-.3,0-.17-.07-.52-.12-1-.18-2-.26-3-.22-2.79-.42-5.59-.65-8.38a190,190,0,0,0-2.59-20.87c-1.44-7.38-4.17-14.4-9.77-19.67a26.07,26.07,0,0,0-8.75-5.46,21,21,0,0,0-4-1.07c-.54-.09-1.09-.17-1.64-.21s-1,.05-.37.07c0,0-.17-.17-.26-.31-.3-.52-.59-1-.84-1.58a41.49,41.49,0,0,1-1.69-4.6c-1.62-5.06-2.86-10.24-4-15.43a407.31,407.31,0,0,1-7.38-46.34c-1.67-16.26-2.63-32.82-1.13-49.14,1.79-19.38,7.75-38.73,16-56.3a174.11,174.11,0,0,1,34.52-49.48c6.67-6.63,14.07-12.34,21.29-18.34,6-5,11.86-10,17.82-15,12.38-10.34,25.29-19.9,39.4-27.78a264.21,264.21,0,0,1,28.14-13.5,104.09,104.09,0,0,1,12.5-4.72,86,86,0,0,1,9.52-1.86c8.52-1.27,17.14-2,25.73-2.5q6-.37,12-.58c1.65-.06,3.29-.11,4.94-.14a25.77,25.77,0,0,0,4.48,0s.52,0,.48,0-.09-1.9-.38-2.1c-.08-.06.3,0-.11,0a2.44,2.44,0,0,0-.48.25c-.78.37-1.58.69-2.36,1-1.34.62-3.59,1.77-2.58,3.62a2.88,2.88,0,0,0,2,1.22,65.51,65.51,0,0,0,6.57.83c4.92.63,9.83,1.4,14.71,2.27a355,355,0,0,1,59,15.79c17.28,6.28,34.38,13.94,49.54,24.44a88.89,88.89,0,0,1,16.66,14.49A122.66,122.66,0,0,1,638,183.94c3.23,4.7,6.49,9.37,9.75,14.05,10.14,14.58,20.79,29.25,28,45.59a97.08,97.08,0,0,1,6.64,21.64c1.47,8,1.91,16.31,2.34,24.47.59,11,.8,21.87,2.25,32.8,2.62,19.68,6.89,39.14,8.73,58.93.8,8.54,1.92,18.84-3.25,26.31a109.82,109.82,0,0,0-10.73,19.17l2.8.75-2.22-24.35c-.17-1.91-3.17-1.93-3,0l2.22,24.35c.12,1.3,2.14,2.28,2.79.76,1.22-2.83,2.61-5.6,4.06-8.33,2.21-4.14,4.9-7.91,7.37-11.89a26,26,0,0,0,3.37-11.93c.52-6.8-.21-13.71-1-20.46-1.33-11.27-3.22-22.47-5.1-33.66A338.49,338.49,0,0,1,688,297.61c-.55-16.17-1.3-32.68-6.75-48.07-6.32-17.8-17.39-33.52-28.07-48.93-3.43-5-6.88-9.88-10.31-14.84-3-4.33-5.83-8.86-9.12-13a85.24,85.24,0,0,0-17.49-15.89c-16.4-11.66-35.24-19.9-54.13-26.58a352.74,352.74,0,0,0-64.4-16.2c-2.52-.38-5-.74-7.57-1.06q-1.94-.25-3.87-.48a12.92,12.92,0,0,0-2.38-.35c.17-.12.47,1.69.17,1.6.1,0,0-.13.21-.15a4,4,0,0,0,.93-.5c.92-.45,1.89-.79,2.79-1.25,1.74-.88,2.57-3.12.09-3.71a15.8,15.8,0,0,0-3.7-.12c-1.95,0-3.89.07-5.84.13-9.23.3-18.47.88-27.66,1.79-7.64.75-15.68,1.41-23,3.77-5.24,1.69-10.37,4-15.43,6.17s-10.28,4.58-15.3,7.11A223.71,223.71,0,0,0,372,141.81c-14.12,9.6-26.88,20.95-40,31.89-7.76,6.48-15.8,12.6-23,19.75A171.42,171.42,0,0,0,288.64,218a185.35,185.35,0,0,0-27.16,61.18c-4.36,18-5.11,36.14-4.06,54.59a416,416,0,0,0,6.69,53.33c1.3,6.87,2.75,13.72,4.56,20.47,1.06,3.92,2.08,8.21,4.09,11.78a4.15,4.15,0,0,0,2.2,2.18c1,.3,2.18.19,3.22.41a20.91,20.91,0,0,1,5,1.78c7.62,3.87,12,11.44,13.85,19.53a160.5,160.5,0,0,1,3.08,23.12c.24,3,.44,6.06.7,9.09.11,1.22-.07,3.37.88,4.32,1.92,1.94,2.72-1.16,2.91-2.43.79-5.26,3.14-10,5.71-14.6,2.46-4.42,5.49-8.73,7.07-13.58a54.52,54.52,0,0,0,2.2-12.94,103.4,103.4,0,0,0-.05-16.13c-.16-1.91-3.16-1.93-3,0Z"/><path d="M676.09,377.36c-1.16-6.1-2.46-12.18-3.8-18.25-3-13.68-6.3-27.3-10-40.79-4-14.39-8.41-28.77-14.37-42.48a88.35,88.35,0,0,0-8.13-15.27,69.06,69.06,0,0,0-7-8.25,156.88,156.88,0,0,0-11.81-11.11,161.69,161.69,0,0,0-26-18.12c-7.63-4.23-15.81-8-24.38-9.86a46.81,46.81,0,0,0-5.26-.84c-1.92-.2-1.91,2.8,0,3,7.92.82,15.62,4,22.7,7.45a149.21,149.21,0,0,1,25.81,16.4c4.26,3.34,8.36,6.88,12.26,10.62a108.73,108.73,0,0,1,9.72,10.3,68.7,68.7,0,0,1,8,13.71c6.1,13.06,10.42,27,14.38,40.79s7.34,27.54,10.46,41.44q1.63,7.29,3.14,14.59c.49,2.38.88,4.79,1.43,7.14,0,.11,0,.22.06.33.36,1.89,3.26,1.09,2.9-.8Z"/><path d="M275.07,418.68a39.41,39.41,0,0,0-10.89,4.89,18.39,18.39,0,0,0-5.92,5.72c-1.22,2-1.57,4.41-2.14,6.67-3.29,13.05-6.53,27.58-2.33,40.82a45.7,45.7,0,0,0,4.73,9.49A109.51,109.51,0,0,1,264,496.94c3.62,8,6.58,16.28,9.43,24.57,2.75,8,5.32,16.06,8.16,24a31.44,31.44,0,0,0,10.73,14.65,55.31,55.31,0,0,0,25.28,10.34l-1-1c5.17,13.83,9.92,27.83,14.44,41.89,3.95,12.28,7.68,24.63,10.93,37.11,2.89,11,5.6,22.26,6.84,33.62a73.57,73.57,0,0,1,.46,10.7c-.09,2.53-.24,5.07-.5,7.58-.18,1.7-.17,5-1.4,6.41-.4.45-2.6,1.18-3.48,1.79a15.72,15.72,0,0,0-5.19,6.47c-2.21,4.81-3,10.23-3.29,15.46a145.2,145.2,0,0,0,1.31,27.4,176.64,176.64,0,0,0,13,48,205.59,205.59,0,0,0,54.07,73.21,104.13,104.13,0,0,0,16.28,12c5.24,3,11,5.18,16.65,7.39a232.06,232.06,0,0,0,46.86,13.26c32.63,5.46,69.18,4.65,99-11.21,29.31-15.6,52.49-44.41,63.82-75.39,5.61-15.33,9.06-32.7,7.43-49.07-.81-8.15-3.45-16-6.68-23.46-1.28-3-2.66-5.85-4.17-8.69a19.64,19.64,0,0,1-1.12-2.06,11.81,11.81,0,0,1-.28-2.88c-1.17-16.58.15-33.32,2.34-49.76q2.42-18.13,6.44-36,.58-2.65,1.24-5.3c.47-1.87-2.42-2.67-2.89-.8a360,360,0,0,0-10,64.34,210.13,210.13,0,0,0-.27,25c.12,2.26-.13,5.08.94,7.11s2.13,4,3.11,6c3.68,7.66,6.86,15.86,8.1,24.31a84,84,0,0,1-.24,22.29c-4.36,35.3-24.2,68.08-51.78,90.19a108.91,108.91,0,0,1-38.09,19.89c-16.64,4.79-34.21,5.9-51.44,5.18a210.14,210.14,0,0,1-53.27-9.4c-6.94-2.14-13.78-4.61-20.51-7.34-5.66-2.29-11.32-4.6-16.49-7.9-12.65-8.1-23.54-19.2-33.38-30.44a195.84,195.84,0,0,1-25.53-36.47A179.77,179.77,0,0,1,343,776.07a183.35,183.35,0,0,1-4.23-27.38c-.64-8-1-16.24.3-24.19,1-5.78,2.86-11.92,8.53-14.54,2.44-1.13,3.12-2.88,3.61-5.55a79.76,79.76,0,0,0,1.11-13.36c.15-9.33-1.76-18.78-3.72-27.86-2.64-12.18-6-24.21-9.54-36.14-5.58-18.61-11.77-37-18.44-55.29-.37-1-.75-2-1.13-3.07-.17-.45-.52-1-1.05-1.05a56.09,56.09,0,0,1-20.1-7c-5-2.93-9.49-6.88-12.21-12.06a70.56,70.56,0,0,1-3.83-10.19c-1.27-3.75-2.51-7.5-3.77-11.24-5-14.86-9.9-30.36-18.23-43.75-7.65-12.29-5.78-27.29-2.68-40.75,1.23-5.34,1.81-11.44,6.27-15.11a33.4,33.4,0,0,1,12-5.93,1.5,1.5,0,0,0-.8-2.89Z"/><path d="M681,433.51c1,13.27,1.83,26.56,2.61,39.85,1.4,23.75,2.67,47.54,2.88,71.34.07,8.42.16,16.94-.76,25.32a49.33,49.33,0,0,1-2.21,9.29q-3,9.51-6.79,18.73a229.41,229.41,0,0,1-69.15,91.19c-13.35,10.59-28.13,20.09-44.14,26.08-12.46,4.66-25.34,5.9-38.56,5.25-15.76-.77-31.39-3.75-46.63-7.74a331.22,331.22,0,0,1-48.26-16.69,246.14,246.14,0,0,1-40.66-21.91,132.58,132.58,0,0,1-31.84-31.13c-15.06-20.31-26.53-43.45-35.39-67.08a53.92,53.92,0,0,1-2.9-9l-4-21.84-10.75-58.45-.71-3.85-2.89.8c2.6,10.51,5.48,21,8.44,31.39,6.09,21.44,12.69,42.77,20.48,63.66,3.73,10,7.72,19.91,12.4,29.49,3.58,7.34,7.53,14.79,12.94,21,4.73,5.42,10.09,10.37,15.08,15.56a154.47,154.47,0,0,0,12.35,12.06c2.93,2.42,6.18,4.64,9.94,5.49a20.92,20.92,0,0,0,11.09-.68c4.41-1.51,7.66-5.24,10.16-9a75.13,75.13,0,0,0,7.9-17.06c4.63-13.45,7-27.38,9.34-41.37,1.12-6.67,3-13.36,6.71-19.1a32.63,32.63,0,0,1,11.94-10.86c5.58-3,11.7-4.32,17.58-6.59,7.69-3,14.78-7.21,21.72-11.6,6.44-4.07,12.76-8.5,19.65-11.79a14.27,14.27,0,0,1,8.34-1.33c3.71.37,7.38,1.16,11.06,1.7a44.84,44.84,0,0,0,11.56.55,59.25,59.25,0,0,0,10.83-2.57c2.8-.87,5.88-2,8.82-1.28a39.82,39.82,0,0,1,10.17,4.19c6,3.36,11.28,7.78,17.07,11.46a57,57,0,0,0,9,4.68,61.54,61.54,0,0,0,10.76,2.83c13.36,2.82,20.54,14.65,22.31,27.44.41,2.92.38,5.83.51,8.77a59.87,59.87,0,0,0,1.14,9,64.22,64.22,0,0,0,6.59,18.57c2.48,4.45,6,9.3,11.11,10.87,3,.93,5.3.2,7.72-1.6,7.42-5.51,13.07-13.89,17.74-21.71a116.93,116.93,0,0,0,14.89-39.3,98.92,98.92,0,0,0,1.37-23.37c-.12-1.91-3.13-1.93-3,0a102.81,102.81,0,0,1-7.89,45.25,108.55,108.55,0,0,1-18.22,30.27,37,37,0,0,1-7.45,7,4.55,4.55,0,0,1-2.19.9,9.16,9.16,0,0,1-5.74-2.39c-4.6-3.86-7.35-9.94-9.32-15.47a61.26,61.26,0,0,1-3.77-18.73c-.31-11.64-2.74-24-12-32a28,28,0,0,0-7.76-4.78c-3.38-1.4-6.9-1.77-10.41-2.64-6.86-1.7-12.83-5.34-18.54-9.37-5.56-3.92-11-8-17.31-10.72-2.85-1.21-6-2.54-9.17-2.38s-6.06,1.25-9,2.15a39.84,39.84,0,0,1-11.64,2.1A69.68,69.68,0,0,1,524.31,531a70.66,70.66,0,0,0-9.83-1.26,16.43,16.43,0,0,0-7.94,2.12c-14.15,6.91-26.16,17.69-41.06,23.19-5.81,2.15-11.77,3.51-17.26,6.47a36.11,36.11,0,0,0-11.88,10.13c-8.11,10.89-8.51,25-11.06,37.77-2.61,13.15-5.82,27-12.44,38.76-2.24,4-5.23,8.5-9.62,10.34a17.28,17.28,0,0,1-10.37.79c-3.68-.93-6.79-3.31-9.59-5.77-4.52-4-8.61-8.43-12.78-12.76-4.62-4.81-9.69-9.35-14-14.46a68.8,68.8,0,0,1-6.19-9,201.76,201.76,0,0,1-12.57-26.13C329.24,570.43,322.34,549,316,527.52c-4.18-14.09-8.13-28.25-11.74-42.5l-.54-2.12c-.47-1.9-3.23-1.08-2.89.8l8.72,47.42,5.42,29.44c.6,3.3.91,6.82,2,10a294.23,294.23,0,0,0,27,57.71c7.95,13.08,17.14,25.66,28.3,36.2,10.74,10.15,23.57,18,36.6,24.87A319.1,319.1,0,0,0,454.9,709a297.84,297.84,0,0,0,48.58,12.31c14,2.23,28.43,3.48,42.53,1.59,14.63-2,28.4-8.29,41-15.77C620.72,687,648.78,657,667.91,622.89a225.16,225.16,0,0,0,18.22-42,54.61,54.61,0,0,0,2.46-10.05c.44-3.54.6-7.12.71-10.68.74-23-.56-46.07-1.75-69q-1.42-27.35-3.39-54.67l-.21-2.92c-.15-1.91-3.15-1.93-3,0Z"/><path d="M694.36,405.57a170.49,170.49,0,0,1,3.08,18,246.14,246.14,0,0,1,1.76,43.67c-.44,8.47-1.68,16.85-2.45,25.29-.56,6.09-.91,12.2-.91,18.32,0,3.76.15,7.52.41,11.28a53.56,53.56,0,0,1,.28,6.58c0,.2,0,.39,0,.59l0,.31c0-.26,0-.23,0,0a10.12,10.12,0,0,1-.25,1.09c-.05.17-.11.34-.17.5-.12.34.12-.18-.11.25a11.25,11.25,0,0,1-.58,1,64.4,64.4,0,0,1-5.35,6.77c-.57.64-1.15,1.27-1.77,1.87l-.57.52c-.18.16-.5.4-.16.15a2.75,2.75,0,0,1-.28.19c-1.72.88-.2,3.47,1.51,2.59a6.73,6.73,0,0,0,1.47-1.19,47.63,47.63,0,0,0,4.37-4.94c1.83-2.3,4.12-4.68,4.73-7.67a22.79,22.79,0,0,0,.15-6c-.2-3.22-.44-6.43-.53-9.66-.16-5.32,0-10.66.33-16,.53-8.22,1.74-16.35,2.46-24.54a238.55,238.55,0,0,0-.73-46.66q-.86-7.76-2.18-15.46c-.43-2.45-.82-5-1.45-7.36,0-.11-.05-.23-.08-.34-.44-1.88-3.34-1.08-2.89.8Z"/><path d="M494,559.59c5.25-4.5,11.08-9.15,17.82-11.16a25.5,25.5,0,0,1,13,0c2.57.56,5.11,1.41,7.72,1.78a23.33,23.33,0,0,0,9.79-.82c5.24-1.5,10.91-4.85,16.31-2.11a83.06,83.06,0,0,1,18.64,13,89.71,89.71,0,0,1,8.91,10c1.88,2.35,3.88,4.77,6.64,6.13,4,2,8.53,1.47,12.75,2.51s8,3.17,10.19,7c2.45,4.2,3,9.33,3.42,14.08.41,5.44.54,10.93.43,16.38a44.05,44.05,0,0,1-1.25,10.64,21.47,21.47,0,0,1-4.51,8.72,29.28,29.28,0,0,1-10.2,7.1,74.84,74.84,0,0,1-17.82,5,102.42,102.42,0,0,1-20.51,2c-3.81-.11-8-.58-11.08-2.9a8.47,8.47,0,0,1-2.6-3.32,13.31,13.31,0,0,1-1-4.67c-.2-5.07,1.23-10.16,2.76-14.94,1.09-3.38,2.34-6.7,3.67-10a16.8,16.8,0,0,0,1.65-5.82c.19-6.82-7.25-9.76-12.83-10.77a51,51,0,0,0-23.16,1.31c-4.66,1.4-12.36,4.74-10.7,11,.55,2,2.1,3.75,3.24,5.48a89.39,89.39,0,0,1,4.88,8.14c2.09,4,4,8.43,4.34,12.95a11.24,11.24,0,0,1-2.55,8.49c-2.45,2.73-6.08,4.18-9.65,5.1a67.87,67.87,0,0,1-16.75,1.73c-6.35,0-12.69-.45-19-.87-8.51-.57-18.22-1-25.63-5.71-8.07-5.17-9.5-15.21-9.23-24.08.18-5.86.66-12,3-17.42a36,36,0,0,1,10.74-14.08,27.51,27.51,0,0,1,8.59-4.51c3.19-1,6.48-1.41,9.58-2.72a16.66,16.66,0,0,0,5.8-3.86,27.07,27.07,0,0,0,3.45-5,63.38,63.38,0,0,1,3.8-6,48.73,48.73,0,0,1,7.27-7.65c1.46-1.26-.67-3.38-2.12-2.12a55.68,55.68,0,0,0-11.65,14.45,20.26,20.26,0,0,1-3.43,4.74,15.74,15.74,0,0,1-6.09,3.34c-3.43,1.13-7,1.57-10.34,3a31.47,31.47,0,0,0-8.47,5.43,39.42,39.42,0,0,0-10.28,14.78c-2.31,5.7-2.77,12.18-2.89,18.27-.12,5.36.34,10.94,2.41,15.95a21.57,21.57,0,0,0,7.68,9.62,32.18,32.18,0,0,0,11.57,4.62,106.1,106.1,0,0,0,14.76,1.83c6.29.45,12.61.91,18.92,1a78.3,78.3,0,0,0,17.82-1.52c4.06-.91,8.19-2.41,11.32-5.25,6.48-5.87,4.55-15,1.47-22.13a65.34,65.34,0,0,0-4-7.74c-1.61-2.7-3.59-5.19-5.15-7.91a3.65,3.65,0,0,1-.55-1.39c0-.18-.05-.38,0-.08,0-.14,0-.28,0-.42s0-.23,0-.35c0-.34-.08.25,0-.16a5.76,5.76,0,0,1,.19-.68c.09-.25-.13.24,0-.07a4.36,4.36,0,0,1,.23-.42,3.51,3.51,0,0,1,.89-1.1,6.24,6.24,0,0,1,1.3-1,15.61,15.61,0,0,1,1.87-1.07,25.09,25.09,0,0,1,4.51-1.7,47.54,47.54,0,0,1,11.3-1.77,42.92,42.92,0,0,1,11.33.84c2.94.66,5.84,1.67,7.76,3.72a5.05,5.05,0,0,1,.95,1.38,1.43,1.43,0,0,1,.23.55,6.54,6.54,0,0,1,.24,1s0-.1,0,.17,0,.36,0,.53,0,.84,0,.91a12.13,12.13,0,0,1-.61,2.2c-2.4,6.29-5,12.46-6.46,19.06-.93,4.25-1.59,9-.3,13.21a12,12,0,0,0,6.72,7.56c4.27,1.91,9.16,2.11,13.77,2a126.73,126.73,0,0,0,22.28-2.93c9.55-2.06,20.08-5.47,26.18-13.64,4.55-6.11,5.3-13.94,5.34-21.32a157.7,157.7,0,0,0-.68-17.39c-.51-4.84-1.41-10-4.21-14.07a18.9,18.9,0,0,0-11.5-7.42,80.59,80.59,0,0,0-8.2-1.13,11.69,11.69,0,0,1-4.21-1.31c-2.47-1.38-4.41-4-6.31-6.39a78.19,78.19,0,0,0-9.92-10.58,87.38,87.38,0,0,0-8.71-6.6q-2.73-1.83-5.58-3.49a28.19,28.19,0,0,0-5.25-2.67c-5.92-1.93-11.54,1.36-17.13,2.85a19.67,19.67,0,0,1-10,.17c-2.35-.59-4.7-1.22-7.09-1.66a26.94,26.94,0,0,0-14.08.82c-6.74,2.38-12.55,6.93-17.91,11.53C490.43,558.73,492.56,560.84,494,559.59Z"/><path d="M481.69,381.34c2.71-1.2,5.23-3.82,5.34-6.91.15-4.31-3.65-7.59-7.33-9a42.17,42.17,0,0,0-11.84-2.22c-5.07-.43-10.17-.47-15.26-.42-9.6.11-19.2.82-28.8.67-5.21-.08-10.32-.92-15.54-.33a48.13,48.13,0,0,0-16.39,5.21c-10.34,5.24-20.52,10.77-29.56,18.08l-.73.6c-1.21,1,.1,2.84,1.46,2.51,12.41-3,24.94-6.05,37.63-7.61,20.92-2.57,41.89-2.76,62.92-1.63,5.78.31,11.58.65,17.34,1.28,1.92.2,1.9-2.8,0-3-4.71-.51-9.45-.82-14.18-1.1-11.6-.7-23.23-1.1-34.85-.85q-14.4.31-28.73,2c-7.63.89-15.14,2.23-22.66,3.84q-9.17,2-18.27,4.17l1.46,2.51a102.22,102.22,0,0,1,9.37-6.9c5.16-3.43,10.7-6.12,16.13-9.08,4.53-2.48,9.1-4.83,14.14-6.11a39.47,39.47,0,0,1,8.92-1.18c2.84-.06,5.62.28,8.44.47,8.32.58,16.77-.19,25.09-.41,9.29-.25,18.95-.67,28.13,1,2.78.52,6.07,1.3,7.88,3.09,1.39,1.36,2.83,3.47,2,5.47a6.4,6.4,0,0,1-2.87,2.86c-.24.13-.48.26-.73.37C478.41,379.53,479.94,382.11,481.69,381.34Z"/><path d="M559.17,379.6c-.15-.18.28.41,0,0s-.32-.45-.46-.68a12,12,0,0,1-1.07-2.11c-.73-2.07-.87-4.15.6-6,2.66-3.4,7.86-4.2,11.77-5.16,5.66-1.38,11.39-2.49,17.15-3.39a233.42,233.42,0,0,1,37.53-2.76,45.06,45.06,0,0,1,14.62,2.28,45.62,45.62,0,0,1,10.85,5.51,50,50,0,0,1,7.71,6.51c.69.71,1.37,1.45,2,2.21l.54.66c.25.31-.23-.31,0,0l1.69-2.2a251.07,251.07,0,0,0-41.9-2.72c-9.61.22-19.24.41-28.84,1a118.08,118.08,0,0,0-17.65,2.78q-8,1.76-16,3.65c-1.88.45-1.08,3.34.8,2.9q6.71-1.59,13.42-3.08A123.51,123.51,0,0,1,588.78,376c9.11-.75,18.28-.91,27.42-1.14a255.5,255.5,0,0,1,27.81.6q6.19.52,12.36,1.27c1.88.23,3.36.42,5,.65,1.12.16,2.58-1,1.7-2.2a45.64,45.64,0,0,0-9.37-9,46.75,46.75,0,0,0-25.49-9.54,177.4,177.4,0,0,0-20.1.41q-9.75.63-19.43,2c-6.24.91-12.45,2.06-18.58,3.53-4.58,1.1-10,2.06-13.42,5.59-3.8,3.88-2.77,9.66.41,13.57C558.27,383.22,560.38,381.08,559.17,379.6Z"/><path d="M309.26,516.15a12.65,12.65,0,0,0-5-1.89,23.87,23.87,0,0,0-6.08-.37,33.76,33.76,0,0,0-3.77.47,9,9,0,0,1-2.31.25c-2.2-.19-3.59-2.27-4.31-4.28a22.85,22.85,0,0,1-1.08-8.92c.17-2.94.69-6.18,2.35-8.67,1.07-1.62-1.53-3.12-2.59-1.52a19.41,19.41,0,0,0-2.63,8.67,27.34,27.34,0,0,0,.65,9.91c.73,2.74,2.15,5.68,4.78,7a7.07,7.07,0,0,0,4.07.73,48,48,0,0,1,7.38-.71c2.42.09,5.2.5,7.07,1.88,1.56,1.15,3.05-1.46,1.51-2.59Z"/><path d="M293,443.84c-1.18-5.23-4.52-12-10.28-13.08-5-.95-9.81,2.35-13.06,5.78a35.35,35.35,0,0,0-7.89,14.64,50.66,50.66,0,0,0-1.84,18.08c.15,1.91,3.16,1.92,3,0-.81-9.71,1.19-20.72,7.16-28.62,2.45-3.25,6.57-7.11,10.94-7.06,3.12,0,5.33,2.58,6.75,5.11a21.37,21.37,0,0,1,2.33,5.94c.42,1.89,3.32,1.09,2.89-.79Z"/><path d="M686.86,509.53c4.9-.5,6.65-5.87,7-10a138.06,138.06,0,0,0,0-17.14c-.07-1.59-.14-3.18-.23-4.76-.11-1.92-3.11-1.94-3,0,.21,3.56.34,7.13.41,10.7.05,2.77.08,5.53,0,8.3-.09,2.41-.09,5.13-1.24,7.32a5.32,5.32,0,0,1-2.11,2.27,2.45,2.45,0,0,1-.75.3c-.22.08-.68.11-.08,0-1.9.19-1.92,3.2,0,3Z"/><path d="M350.59,694.23a51.32,51.32,0,0,0-12.86,2.46,42,42,0,0,0-10.64,4.93,32.79,32.79,0,0,0-8.47,8.59c-4.18,5.81-10.4,9-17.09,11.06-9.2,2.88-18.71,4.65-27.93,7.47-8.51,2.61-16.49,6.88-24.23,11.2-9.08,5.07-18,10.48-27.05,15.54s-18.13,9.76-27.83,13.15c-3.81,1.32-7.7,2.27-11.58,3.36s-7.54,2.23-11.28,3.43c-21,6.73-41.62,14.42-62.15,22.33l-8.13,3.16c-1.78.7-1,3.6.8,2.9,21.07-8.26,42.3-16.21,63.78-23.37,7.48-2.49,15-4.85,22.62-6.85,9.61-2.52,18.73-6.74,27.51-11.32,9.35-4.87,18.38-10.29,27.5-15.57,8.06-4.67,16.22-9.4,24.87-12.92,8.87-3.61,18.38-5.46,27.62-7.85,7.13-1.85,14.46-4,20.22-8.8a27.4,27.4,0,0,0,3.69-3.77c1.19-1.47,2.16-3.1,3.39-4.54a29.25,29.25,0,0,1,9.7-7.11,50.29,50.29,0,0,1,16.54-4.41c.34,0,.67-.06,1-.07,1.93-.1,1.94-3.1,0-3Z"/><path d="M639.25,739.54c5.22,3.2,10.47,6.34,15.74,9.47q19.46,11.58,39.13,22.77c16.93,9.63,34,19.05,51.23,28.11,16.81,8.82,33.79,17.37,51.18,25,7.33,3.22,14.74,6.29,22.29,9,11.31,4,22.92,7.32,34.48,10.53q4,1.11,8.08,2.19a1.5,1.5,0,0,0,.79-2.89c-19.94-5.3-39.84-11.06-58.87-19.12-17.17-7.27-33.91-15.58-50.47-24.16-17.42-9-34.63-18.46-51.71-28.11Q680.45,760.63,660,748.52c-6.35-3.77-12.59-7.77-19-11.41l-.25-.16c-1.65-1-3.16,1.59-1.51,2.59Z"/><path d="M310.28,724.26a62.05,62.05,0,0,0-1.69,7A128.62,128.62,0,0,0,306.33,750a142.84,142.84,0,0,0,10.36,60.47A164.52,164.52,0,0,0,337,845.88a358.63,358.63,0,0,0,24.15,29.34,406.45,406.45,0,0,0,45,42.24c5.15,4.15,10.4,8.19,15.77,12.06,2.47,1.78,4.95,3.63,7.55,5.24l.33.22c1.63,1,3.14-1.55,1.52-2.59-6.48-4.16-12.65-8.85-18.7-13.6A409.68,409.68,0,0,1,369.7,880c-8.52-8.88-16.63-18.16-24.22-27.84-8.35-10.65-16.12-21.74-22.06-33.93a140.69,140.69,0,0,1-14.25-62.47A117.7,117.7,0,0,1,313,725.5c0-.15.08-.3.13-.44.59-1.84-2.3-2.63-2.89-.8Z"/><path d="M655.85,757c.32.34.62.69.92,1l1,1.24.31.41.14.18.78,1a85.45,85.45,0,0,1,7.16,11.67,89.47,89.47,0,0,1,9.68,43,102.67,102.67,0,0,1-7.11,33.93c-.7,1.8,2.2,2.58,2.89.79,7-18.17,9.3-38,5.1-57.08a90.68,90.68,0,0,0-14.42-32.83,50.2,50.2,0,0,0-4.34-5.5c-1.33-1.41-3.45.72-2.13,2.12Z"/></svg>