<svg id="Layer_1" data-name="Layer 1" xmlns="http://www.w3.org/2000/svg" viewBox="0 0 1000 1000"><defs><style>.cls-1{fill:#9fedd7;}</style></defs><circle class="cls-1" cx="500" cy="500" r="500"/><path d="M462.88,174.94c8.06-1,16.29-.57,24.35.18a278.67,278.67,0,0,1,30.27,4.67c19.1,4,38.87,9,56.28,18.07,20.58,10.69,33.6,30,41.81,51.11,4.41,11.35,7.73,23.09,11.93,34.52a228.65,228.65,0,0,0,14.71,32.21c3,5.43,6.49,10.63,8.93,16.35a95,95,0,0,1,5.07,16.14c2.47,10.67,3.65,21.58,4.7,32.46,1.27,13.09,3.61,26,4.73,39.09,1.48,17.24,2.33,34.54,2.94,51.83.52,14.89,1.17,29.93.26,44.82a173.8,173.8,0,0,1-3.05,21.77,109,109,0,0,1-12,33.84c-5,8.87-11.52,16.86-17.79,24.87s-12.75,16-19.31,23.91c-12.73,15.27-25.8,30.7-40.74,43.87-15.24,13.45-35,20.06-55.18,20.87a121.14,121.14,0,0,1-37.23-4.11,162.2,162.2,0,0,1-28.91-11.74,377,377,0,0,1-54.51-33.84,198,198,0,0,1-25.81-22.31,170.59,170.59,0,0,1-20.11-26.14c-6-9.31-9.47-20.44-13.32-30.71-10.07-26.81-19.26-54-28.28-81.14-.39-1.2-.74-2.42-1.19-3.6-.08-.23-.16-.47-.23-.7s.09.64,0,0a122.22,122.22,0,0,1-1-16.56c-.55-23.71,2.36-47.34,3.63-71,.19-3.55.38-7.09.49-10.64.07-1.93-2.93-1.93-3,0-.49,15.68-1.73,31.36-3,47a334.1,334.1,0,0,0-1.08,37c.16,4.76.14,9.8,1,14.51a42.81,42.81,0,0,0,1.8,5.7q2.53,7.63,5.11,15.27c5.13,15.19,10.34,30.35,15.74,45.45,4.93,13.82,9.86,27.7,15.74,41.15,6.62,15.18,17.59,28.84,29.35,40.34,15.15,14.82,33.05,27,51,38.11a326.39,326.39,0,0,0,30.43,16.82c9.24,4.43,18.83,8.47,28.82,10.84,23.66,5.6,49.65,4.83,71.95-5.37,16.17-7.39,28.45-20.59,40.27-33.51,14.3-15.63,27.75-32.05,40.78-48.75,6.42-8.24,13-16.43,18-25.62a113,113,0,0,0,11.61-33.67,179.62,179.62,0,0,0,3-21.9c.39-6.45.37-12.93.32-19.38-.14-18.13-.87-36.26-1.92-54.35-.78-13.47-1.16-27.34-3.66-40.64-3.59-19.06-3.35-38.6-8.17-57.5A91.85,91.85,0,0,0,653.05,329c-2.72-5.92-6.41-11.37-9.51-17.09a232.66,232.66,0,0,1-14.73-33.63c-7.85-22.31-13.87-45.61-29.68-64a81.37,81.37,0,0,0-24.75-19.48,170.57,170.57,0,0,0-25.65-10.05,296.48,296.48,0,0,0-62.12-12.68c-7.86-.71-15.88-1.12-23.73-.13-1.89.24-1.91,3.24,0,3Z"/><path d="M284.59,421.08c-2.5-2.24-4.21-5.15-3.82-8.61.34-3,2-5.55,3.76-7.9,1.4-1.88,2.84-3.74,4.27-5.6,4.91-6.36,10.37-13.3,15.51-19.84q11.42-14.5,22.86-29Q340.73,333,354.31,315.8q14.4-18.23,28.78-36.46Q397,261.69,410.87,244q12-15.31,23.93-30.72,14.73-19,28.95-38.48c5.51-7.54,11-15.1,16.71-22.48a170.41,170.41,0,0,1,14-16.36c6.2-6.18,14.49-12.78,23.67-9.78a22.69,22.69,0,0,1,5.79,3c1.59,1.1,3.09-1.5,1.52-2.59-3.73-2.59-8.11-4.4-12.72-4.22s-8.82,2.15-12.52,4.73A74.9,74.9,0,0,0,487,139.57c-5.41,6.2-10.38,12.78-15.29,19.37-11.22,15.07-22.19,30.32-33.63,45.22q-11.3,14.72-22.73,29.29Q401.61,251,387.81,268.53q-14.65,18.6-29.34,37.19-14.12,17.88-28.26,35.76-12.1,15.33-24.2,30.67-8.76,11.12-17.46,22.28-2.71,3.49-5.41,7c-2.93,3.88-5.92,8.18-5.35,13.3a13.37,13.37,0,0,0,4.68,8.44c1.43,1.29,3.56-.82,2.12-2.12Z"/><path d="M542.81,157.76a66.53,66.53,0,0,0,8.23-21c1.14-5.6,1.45-11.62-.39-17.12a23,23,0,0,0-12.47-13.44c-8.18-3.79-18.06-4.82-27-3.73a49.19,49.19,0,0,0-23.14,9.31c-7.34,5.39-13.36,12.32-18.69,19.65a274.33,274.33,0,0,0-16.57,26.67c-10.55,18.74-20.73,37.58-33,55.25-9.63,13.83-19.73,27.33-29.89,40.77q-18.09,23.94-36.53,47.6-17.75,22.89-35.5,45.75C308.81,359.22,299.74,371,291,382.9c-2.75,3.74-5.48,7.5-8,11.39-4.55,6.93-9.35,16.54-5.12,24.74a15.71,15.71,0,0,0,5.72,6c1.64,1,3.15-1.56,1.52-2.59-13-8.15-1.3-24.33,5-33.19,7.7-10.78,15.8-21.28,23.88-31.78q16.68-21.69,33.52-43.25,18-23.24,35.93-46.58c10.69-14,21.31-28.06,31.6-42.34,4.13-5.73,8.21-11.5,12.14-17.36,6.5-9.68,12.36-19.77,18.05-29.93,5.33-9.53,10.51-19.16,16.09-28.55,5-8.38,10.29-16.66,16.69-24,5.5-6.35,11.88-12,19.49-15.76a46.87,46.87,0,0,1,24.92-4.23c7.53.69,15.85,2.64,21.26,8.31,3.84,4,5.33,9.48,5.29,14.93-.06,9.1-3.55,18.23-7.88,26.12-.28.51-.56,1-.86,1.51-1,1.66,1.58,3.17,2.59,1.52Z"/><path d="M309.3,300.28c13.36-8.58,25.59-18.88,34.74-32a140,140,0,0,0,9-15.15c1.46-2.78,3-5.56,4.25-8.44,1.47-3.28,2.66-6.66,3.8-10.07,1.34-4,2.64-8,4.26-11.9a79,79,0,0,1,7.31-13.62c1.07-1.61-1.52-3.12-2.59-1.51a95.28,95.28,0,0,0-10.71,22.76c-1.12,3.33-2.19,6.69-3.47,10a91,91,0,0,1-4.23,9c-5.71,11-12.15,21.39-20.95,30.24a135.15,135.15,0,0,1-22.94,18.11c-1.62,1-.12,3.64,1.51,2.59Z"/><path d="M442.62,141.2c.69,0,0,0-.28-.16l-1.28-.5q-2.18-.85-4.39-1.61a67.12,67.12,0,0,0-14.49-3.12,53,53,0,0,0-19.1,1.44,51.49,51.49,0,0,0-20.54,11.25c-13.69,12.07-21.4,29.66-26.36,46.87-4.62,16-7.12,32.65-12.36,48.52a96.12,96.12,0,0,1-10.12,21.93,73,73,0,0,1-17.84,19.12c-1.93,1.43-3.92,2.77-5.95,4-1.64,1-.13,3.62,1.51,2.59a78.9,78.9,0,0,0,20.43-18A86.59,86.59,0,0,0,344,252.24c6.21-15.37,8.9-31.84,12.91-47.84,4.25-17,10.21-34.2,21.79-47.68a52.42,52.42,0,0,1,20.09-14.87,48.6,48.6,0,0,1,19.45-3.31,60.89,60.89,0,0,1,15.27,2.53c2.8.83,5.47,2,8.22,2.92a2.87,2.87,0,0,0,.93.21c1.93.07,1.92-2.93,0-3Z"/><path d="M445.17,172.52c-4.47-.27-9.16.62-13.49,1.55-12.36,2.65-24.15,7.88-35,14.25a185.5,185.5,0,0,0-26.34,19c-1.47,1.26.66,3.37,2.12,2.12,12.89-11,27.23-20.71,43-27.13a104.86,104.86,0,0,1,15.47-5,65.91,65.91,0,0,1,10-1.65,29.91,29.91,0,0,1,4.23-.14c1.93.12,1.92-2.88,0-3Z"/><path d="M347.83,230.66c-8.44,8-16.71,16.32-23.78,25.62a68.15,68.15,0,0,0-9.11,15.23c-2,4.9-3.25,10.18-4.78,15.26l-.94,3.11c-.56,1.85,2.33,2.64,2.89.8,1.63-5.39,3.12-10.85,4.91-16.19s4.83-10.11,8.07-14.6a145.88,145.88,0,0,1,12.1-14.4c4.12-4.37,8.41-8.57,12.76-12.71,1.4-1.34-.72-3.45-2.12-2.12Z"/><path d="M307.25,299.74c.07.15.13.3.19.44l.1.23.33.82q.86,2.2,1.6,4.46a77.08,77.08,0,0,1,3.34,14.39,55,55,0,0,1,.43,8.7,90.64,90.64,0,0,1-1.1,9.15c-.69,4.82-1.28,9.66-1.67,14.51-.15,1.85-.3,3.71-.31,5.56a1.5,1.5,0,0,0,3,0,142,142,0,0,1,1.75-18.4c.44-3.19,1.06-6.37,1.26-9.59a52.08,52.08,0,0,0-.22-8.74A79.13,79.13,0,0,0,312.71,306a69.28,69.28,0,0,0-2.87-7.75c-.79-1.76-3.38-.24-2.59,1.51Z"/><path d="M308.23,472a8,8,0,0,1,.2.81c.07.36,0,.31.05.37s-.3.09,0-.1c0,0,2.05-1,1.88-.76.31-.48.17.45.1,0,0-.24-.54-.72-.67-.93-.5-.75-.94-1.54-1.38-2.32-1.09-1.95-2.1-3.95-3.12-5.94-2.93-5.69-5.92-11.35-8.76-17.09-8.7-17.55-16.72-35.71-21.65-54.72-2.31-8.94-4-18.22-3.61-27.5a295.27,295.27,0,0,0-.91-39.23c-1-10.8-2.49-21.56-3.12-32.39A71.33,71.33,0,0,1,269.72,268c4.08-14.44,10.24-28.41,16.86-41.84.13-.27.26-.54.4-.81a1.58,1.58,0,0,0-.24-1.82l-.09-.1a11,11,0,0,1-.74-1.17,10.3,10.3,0,0,1-1.25-3.82c-.68-5.65,3.32-10.53,7.31-14,4.54-3.94,10-6.42,14.84-10,3.6-2.67,7-5.57,10.38-8.53,20.47-18,39.83-37.11,61.71-53.45,26.21-19.56,55.78-36.05,88.38-41.55,16.56-2.8,34.39-3.37,50.92,0,10,2,20.11,5.81,27.82,12.77a37.3,37.3,0,0,1,12.39,26.27c0,.17,0,.34,0,.51a1.53,1.53,0,0,0,1.5,1.5,28.6,28.6,0,0,1,7.29,1,67.3,67.3,0,0,1,18.92,7.69c23.67,13.8,39.36,38.31,50,62.86,4.18,9.59,7.75,19.44,11.86,29.07q5.29,12.4,11.19,24.55c5.81,11.93,12.15,23.58,18.73,35.1,7.93,13.88,17.36,28.1,18.35,44.51.55,9.23,1.45,18.43,2,27.66.39,7,.71,14.31-1.25,21.1-1.53,5.28-5.48,12.12-11.63,12.54-5.47.37-10.37-4-13.78-7.81a31.7,31.7,0,0,1-2.12-2.58c-1.1-1.56-3.71-.07-2.59,1.51,5.23,7.39,15.8,16.1,24.84,9.58,11.59-8.36,10.16-25.68,9.28-38.13-.61-8.68-1.07-17.43-1.9-26.09a55.53,55.53,0,0,0-2.19-11c-2.45-7.94-6.47-15.33-10.53-22.55-5.86-10.41-11.9-20.71-17.46-31.28a546.33,546.33,0,0,1-23-49.9c-3.87-9.61-7.53-19.26-12.2-28.52a166.82,166.82,0,0,0-13.12-21.91,114.82,114.82,0,0,0-26.4-27.07,77.31,77.31,0,0,0-22.05-11.13,54.1,54.1,0,0,0-7.4-1.75,19.16,19.16,0,0,0-4.33-.48c-.17,0-.35,0-.53,0l1.5,1.5c.53-8.84-3.77-18.23-9.31-24.83-6.2-7.39-14.89-12.25-24-15.23-15.29-5-32-5.28-47.85-4-34.61,2.69-66.4,17.81-94.52,37.48-23.92,16.74-45,36.81-66.58,56.31-3.72,3.36-7.47,6.69-11.39,9.81a126.88,126.88,0,0,1-11.54,7.67c-8.4,5.31-19.11,15.69-12.76,26.41a9.7,9.7,0,0,0,1.15,1.62l-.23-1.82a274.27,274.27,0,0,0-16.19,38.81,75.33,75.33,0,0,0-4.11,25.24c.27,11,1.87,21.87,2.94,32.77a273,273,0,0,1,1.34,41.72c-.53,9.72,1.05,19.44,3.43,28.85,5,19.87,13.48,38.85,22.6,57.15,2.89,5.8,5.92,11.53,8.88,17.3,1.19,2.33,2.37,4.69,3.77,6.91a6.15,6.15,0,0,0,1.89,2.27c2.07,1.1,2.68-1.28,2.4-2.78-.06-.31-.13-.61-.21-.92a1.51,1.51,0,0,0-2.9.8Z"/><path d="M675.3,474.89a5.28,5.28,0,0,0,4.15.47c3.65-1.06,5.62-5.1,6.89-8.34,2-5.21,2.62-11,3.32-16.52,1.85-14.51,2.89-29.13,3.84-43.72q.36-5.4.66-10.8c.1-1.93-2.9-1.92-3,0q-.75,13.77-1.86,27.54c-.58,7.37-1.23,14.74-2,22.09a136.86,136.86,0,0,1-2.58,16.75c-.79,3.26-2,7.35-4.8,9.46a3.26,3.26,0,0,1-1.49.71c-.37.1,0,.05-.34,0-.14,0-.79-.07-.35,0-.2,0-1.09-.35-.55-.11a2.11,2.11,0,0,1-.33-.18c-1.62-1.06-3.12,1.54-1.51,2.6Z"/><path d="M286.81,432.39q3.33,15,7.3,29.74c2.06,7.75,4.23,15.47,6.76,23.08,2.07,6.22,4.3,12.41,7.87,18,2.47,3.83,5.35,7.85,9.22,10.39a7,7,0,0,0,3.89,1.45c1.92-.14,1.93-3.15,0-3h-.15c-.32,0,.37.08.16,0s-.23,0-.35-.08-.89-.31-.54-.16a9.82,9.82,0,0,1-1.24-.66c-3-1.84-5.26-4.88-7.22-7.72-3.81-5.5-6.2-11.47-8.34-17.77-4.81-14.19-8.48-28.78-12-43.34-.86-3.56-1.7-7.13-2.49-10.71-.42-1.88-3.32-1.08-2.9.8Z"/><path d="M286.76,432c.49,10.47.74,20.95.94,31.42.43,23.36.39,46.75-.44,70.11-.89,25.17-2.49,50.46-7.24,75.24-4.64,24.18-12,48.26-24,69.84-10.63,19-25.42,36.39-45.28,46.13-2.35,1.16-4.76,2.19-7.21,3.11-1.79.67-1,3.57.8,2.89,20.86-7.81,37.22-23.57,49.15-42.06,13.33-20.63,21.66-44.33,27.14-68.15,5.73-24.9,8-50.39,9.2-75.88,1.17-24.45,1.35-48.95,1-73.43-.17-12.87-.32-25.78-1-38.64,0-.19,0-.38,0-.58-.09-1.92-3.09-1.93-3,0Z"/><path d="M643,588.4c1,14.13,1.36,28.3,1.67,42.45.75,33.85.32,67.74-1.49,101.55-1.08,20.26-2.68,40.5-5,60.67-2.18,19.29-4.73,38.53-6.85,57.83-2.92,26.74-5.69,53.64-6.06,80.56-.21,14.89,0,30.47,4.4,44.84.38,1.26.8,2.51,1.26,3.74.67,1.79,3.57,1,2.89-.8-4.87-13.06-5.5-27.52-5.58-41.3-.15-25.34,2.29-50.7,4.9-75.87,4-38.71,9.65-77.23,12.2-116.09,2.29-35,3-70.19,2.47-105.31-.25-17.17-.59-34.4-1.8-51.54,0-.24,0-.48,0-.73-.13-1.91-3.13-1.93-3,0Z"/><path d="M686.16,455c4,14.85,7.33,29.88,10.54,44.91,7.33,34.36,13.35,69,17.36,104,2.26,19.65,3.88,39.39,4.47,59.17a476.09,476.09,0,0,1-2.15,60.54,577.08,577.08,0,0,1-9,60.23c-3,14.26-6.54,28.36-10.23,42.45-5.14,19.61-10.76,39.8-7.4,60.2.39,2.38.9,4.74,1.49,7.07.48,1.87,3.38,1.08,2.9-.79-5.08-19.85-.86-39.47,4.13-58.87,3.41-13.27,7-26.49,10-39.86q6.21-27.72,9.59-56a497.89,497.89,0,0,0,4-62.69c-.12-19.73-1.39-39.44-3.35-59.06a1056,1056,0,0,0-16.68-107c-3.71-18.15-7.42-36.49-12.46-54.33-.08-.25-.14-.51-.21-.77a1.5,1.5,0,0,0-2.89.8Z"/><path d="M816.19,888.12c-3.2-19.94-7.1-39.78-12-59.38a468.47,468.47,0,0,0-19-60.15c-3.72-9.34-7.81-18.54-12.41-27.48-3.55-6.89-7.54-13.51-11.54-20.15-6.44-10.68-12.41-21.62-17.76-32.89a490,490,0,0,1-21.4-53.77c-1-2.9-1.93-5.82-2.87-8.73-.59-1.83-3.49-1.05-2.9.8A538.27,538.27,0,0,0,738.2,683.7,371,371,0,0,0,756.6,719c3.24,5.47,6.64,10.84,9.74,16.39a282,282,0,0,1,13.21,27.21,437,437,0,0,1,19.86,59.52c5.17,19.69,9.32,39.65,12.72,59.72q.6,3.56,1.17,7.12c.3,1.9,3.2,1.09,2.89-.8Z"/><path d="M372.52,615.41c.55,4.64.7,9.36.83,14,.42,14,0,28-.82,42-.71,12-1.77,23.92-3.07,35.85-.21,1.91,2.79,1.9,3,0,2.09-19.15,3.56-38.39,4-57.66.21-9.92.17-19.88-.51-29.79-.1-1.48-.2-3-.38-4.44-.22-1.9-3.22-1.92-3,0Z"/><path d="M372.52,671.21c0,4.09-3.42,6.49-6.64,8.38-5.21,3.06-10.75,5.47-15.92,8.61a83.44,83.44,0,0,0-29.47,31.39,97.67,97.67,0,0,0-11.75,37.25,71.25,71.25,0,0,0,.32,17.57,52.53,52.53,0,0,0,5,15.48c6.52,13.46,12.55,27.29,16.74,41.68,2.7,9.25,4.67,18.85,4.58,28.53a58.56,58.56,0,0,1-3.64,19.81,124.11,124.11,0,0,1-8,16.31,141.58,141.58,0,0,0-8.44,17.45,76,76,0,0,0-2.88,44,80.17,80.17,0,0,0,2.22,7.88c.61,1.82,3.51,1,2.9-.8a74.48,74.48,0,0,1-2-42c2-7.81,5.37-15,9.19-22.1,2.88-5.32,5.92-10.58,8.32-16.15a63,63,0,0,0,5-19.4c.77-8.73-.36-17.57-2.3-26.08-2.94-12.92-7.77-25.38-13.11-37.48-1.75-4-3.58-7.92-5.46-11.84a62.9,62.9,0,0,1-3.55-8.28,54.93,54.93,0,0,1-2.36-16.26,89.31,89.31,0,0,1,8.2-37c5.84-13,14.53-25,26.07-33.47,5.47-4,11.46-7.08,17.46-10.17,3.91-2,8.45-4.17,10.92-8a10,10,0,0,0,1.52-5.32c0-1.93-3-1.93-3,0Z"/><path d="M80,772.9a1.5,1.5,0,0,0,0-3,1.5,1.5,0,0,0,0,3Z"/><path d="M372.38,671.81q-16.72,6.86-33.54,13.47Q322.6,691.72,306.29,698c-10.93,4.2-21.86,8.52-33,12.3-17.07,5.81-34.7,9.76-52.29,13.65-20.71,4.58-41.41,9.19-61.82,15q-18.16,5.17-35.95,11.53c-12.34,4.42-24.56,9.16-36.18,15.28-2.65,1.39-5.27,2.85-7.85,4.35a1.5,1.5,0,0,0,1.51,2.59,229.91,229.91,0,0,1,34.86-16.22q18.16-6.84,36.79-12.41c20.74-6.21,41.81-11.12,63-15.79,17.82-3.94,35.73-7.75,53.16-13.24,10.24-3.23,20.26-7.17,30.29-11q16.89-6.42,33.69-13,20.07-7.89,40.05-16l.63-.26c1.76-.72,1-3.62-.8-2.89Z"/><path d="M753.73,713.63c3,1.6,6.2,3,9.34,4.45,8.4,3.8,17,7.24,25.64,10.39a392.25,392.25,0,0,0,38.36,11.8q11.22,2.84,22.6,5c7.87,1.47,15.69,2.85,23.43,4.93A215.09,215.09,0,0,1,916.21,767q2.52,1.31,5,2.67c1.69.93,3.2-1.66,1.51-2.59a222.18,222.18,0,0,0-42.26-17.9,199.35,199.35,0,0,0-23.08-5.58c-7.75-1.39-15.47-2.85-23.13-4.65a391.63,391.63,0,0,1-39.9-11.63c-9.25-3.23-18.4-6.78-27.36-10.74-3.91-1.72-7.74-3.59-11.58-5.44l-.16-.08c-1.71-.9-3.22,1.69-1.51,2.59Z"/><path d="M630.22,525.78c-1.82,4.31-3.2,9.06-2.75,13.79A19.19,19.19,0,0,0,631.86,550c1.21,1.51,3.32-.63,2.12-2.12a15.65,15.65,0,0,1-3.56-8.89c-.25-4.29,1.05-8.48,2.69-12.4a1.51,1.51,0,0,0-1.05-1.84,1.52,1.52,0,0,0-1.84,1Z"/><path d="M393.51,586.05c.48-4.07.48-8.4-1-12.27a16.9,16.9,0,0,0-6.25-7.75c-1.4-1-2.72,1.32-1.33,2.28a13.71,13.71,0,0,1,5.19,6.59,24.59,24.59,0,0,1,.79,11.15,1.32,1.32,0,1,0,2.63,0Z"/><path d="M345.11,574.17c-1.84,3.54-3.44,7.22-4.94,10.92a92.57,92.57,0,0,0-6.4,22.15c-.95,7-.73,15.93,5.4,20.74,6.37,5,14.18-.44,18.1-5.87a20.43,20.43,0,0,0,2.83-5.44,30.53,30.53,0,0,0,1-7.56,75.51,75.51,0,0,0,0-11c-.16-1.91-3.17-1.92-3,0a68.27,68.27,0,0,1,.12,7.7c-.13,4.06,0,8.42-1.95,12.11-2.38,4.59-8.89,11.59-14.63,8.13-2.81-1.7-4.32-5.22-4.94-8.32a30.49,30.49,0,0,1-.06-9.86,88,88,0,0,1,5.81-20.6,119.89,119.89,0,0,1,5.21-11.63c.89-1.71-1.69-3.23-2.59-1.52Z"/><path d="M655.8,569.46a28.36,28.36,0,0,0-.83,13.13,11.81,11.81,0,0,0,4.92,7.8c2.46,1.59,5.75,2.31,8.47,1,2.46-1.19,3.91-3.74,4.88-6.17A38.63,38.63,0,0,0,675.48,575a106.52,106.52,0,0,0-.17-22.72,132.56,132.56,0,0,0-2.28-15,25.32,25.32,0,0,0-1.29-4.46c-.75-1.77-3.34-.24-2.59,1.51-.35-.81.05.2.11.4.24.73.43,1.47.61,2.22a99.4,99.4,0,0,1,1.89,10.7,125.79,125.79,0,0,1,1.11,22.2,59.78,59.78,0,0,1-1.23,10.25c-.56,2.46-1.32,5.22-2.93,7.15a4.36,4.36,0,0,1-5,1.53,7.91,7.91,0,0,1-5.44-5.41c-1.33-4.17-.81-9,.41-13.17.55-1.85-2.34-2.65-2.89-.8Z"/><path d="M440.32,363.75a3.92,3.92,0,0,0-1.83-2.06,18.63,18.63,0,0,0-7.33-2.24,109.86,109.86,0,0,0-16.12-.7c-5.07,0-10.13-.09-15.2-.14-11.14-.1-22.36-.08-33.42,1.38a71.9,71.9,0,0,0-14.49,3.21,53,53,0,0,0-14.33,8.06,63,63,0,0,0-18.75,22.43,1.51,1.51,0,0,0,2.36,1.82,25.93,25.93,0,0,1,2.49-2,66.3,66.3,0,0,1,8.19-5.16,96.79,96.79,0,0,1,31.45-10.14c11.39-1.74,23-2.18,34.48-2.35,8.56-.13,17.14.17,25.69-.19a21.6,21.6,0,0,0,3.59-.34,19.18,19.18,0,0,0,6.28-3.21c2.58-1.76,5.51-4.21,6.79-7.17.75-1.76-1.83-3.29-2.59-1.52a15.28,15.28,0,0,1-5.15,5.71,19.43,19.43,0,0,1-5.93,3.26c-.15,0-.31.06-.46.09-.4.07.19,0-.24,0s-1.09.09-1.64.12c-8.28.45-16.61.09-24.89.2-22.71.28-46.27,1.44-66.92,11.88-4.63,2.34-9.47,5.1-13.26,8.71l2.35,1.81a59.34,59.34,0,0,1,14.7-18.92,57.22,57.22,0,0,1,14-9.19,55.12,55.12,0,0,1,12.94-3.59c10.43-1.79,21.13-1.94,31.69-1.92,5.14,0,10.28.1,15.42.15s10.45-.16,15.66.17a47.07,47.07,0,0,1,6.59.81,23.33,23.33,0,0,1,2.36.61,10.35,10.35,0,0,1,1.29.49c.34.17.67.36,1,.56s-.17-.19.14.11a2.44,2.44,0,0,0,.23.22c.31.26-.27-.27,0,.06s-.12-.37-.08-.21C437.91,366.42,440.8,365.62,440.32,363.75Z"/><path d="M516.4,355.23c3.75-1.74,7.29-3.13,11.21-4.7,11.75-4.69,23.63-9.22,35.68-13.09,10.19-3.27,20.84-6,31.63-5.65a64.17,64.17,0,0,1,11.55,1.48,87.18,87.18,0,0,1,16.35,5.06A61.85,61.85,0,0,1,636,346a28.17,28.17,0,0,1,4.25,3.85c1.27,1.48,3.32-.65,2.12-2.13a6.29,6.29,0,0,0-1.75-1.3,24.57,24.57,0,0,0-6.21-2.36c-10.32-2.65-21.35-2.29-31.91-2.08-9.17.19-18.24.93-27.11,3.38-11,3-21.53,7.69-32.42,11.18-5.08,1.63-10.51,3.24-15.91,2.94a12,12,0,0,1-10.16-6.26,1.5,1.5,0,0,0-2.59,1.51,14.74,14.74,0,0,0,9.14,7.22c4.31,1.09,8.91.45,13.18-.52,11.51-2.62,22.37-7.69,33.56-11.36a98,98,0,0,1,25.84-4.87c6.09-.31,12.2-.37,18.29-.29a96,96,0,0,1,15.88,1.3,33.11,33.11,0,0,1,8.24,2.44,10.91,10.91,0,0,1,1,.56c.19.13.8.62.35.22a4.47,4.47,0,0,1,.45.42l2.12-2.13a26.83,26.83,0,0,0-3.5-3.24,59.93,59.93,0,0,0-11.07-7.07A83.31,83.31,0,0,0,598.19,329c-10.27-.89-20.53,1.11-30.35,3.94-13,3.73-25.67,8.68-38.22,13.61-5,1.94-9.92,3.88-14.74,6.11C513.13,353.45,514.65,356,516.4,355.23Z"/><path d="M430.56,572.5a9.62,9.62,0,0,0,4.4.06c4.12-.64,8-2.63,11.54-4.8,2.82-1.74,5.34-3.85,8-5.75a44.34,44.34,0,0,1,7.24-4.07,72.81,72.81,0,0,1,16.37-4.89,145.25,145.25,0,0,1,16.24-2c4.7-.36,9.43-.45,14.1-1.1,6.08-.86,12-2.44,18.06-3.54a75.83,75.83,0,0,1,20.56-1.09c7.42.68,14.7,2.31,22,3.73,3.09.6,6.21,1.18,9.34,1.51a20.26,20.26,0,0,0,6.86-.16l-.79-2.89a21.07,21.07,0,0,0-10.64,8.66,30.18,30.18,0,0,0-2.67,6.89,23.82,23.82,0,0,1-3.66,7.55c-2.4,3.17-5.71,5.7-8.73,8.25-2.81,2.37-5.68,4.67-8.64,6.84a76.25,76.25,0,0,1-14.44,8.64c-4.37,1.89-9,2.68-13.62,3.44a139.13,139.13,0,0,1-21.85,2c-15.44.08-31.33-3.57-44.36-12.12a31,31,0,0,1-6.29-5.23c-.81-.91-1.44-1.95-2.23-2.87a21.55,21.55,0,0,0-2.91-2.74,49,49,0,0,0-12.3-6.86l-.82-.32c-1.82-.67-2.6,2.23-.8,2.89a48.52,48.52,0,0,1,9.64,4.88,21.49,21.49,0,0,1,5.87,5.33,26.31,26.31,0,0,0,5.5,5.5,67.87,67.87,0,0,0,18.36,9.55,84.86,84.86,0,0,0,23.9,4.83,123.92,123.92,0,0,0,23.57-1.12c5.23-.7,10.7-1.33,15.74-3,11.59-3.8,21.57-12.07,30.62-20,2.9-2.53,5.75-5.08,7.72-8.44a34.76,34.76,0,0,0,3-7.61,17.52,17.52,0,0,1,3.43-6.82,19.91,19.91,0,0,1,6.43-4.89,5.42,5.42,0,0,1,.93-.4,1.5,1.5,0,0,0-.79-2.89,17.38,17.38,0,0,1-5.62.1c-2.65-.26-5.28-.74-7.89-1.24-6.43-1.23-12.83-2.64-19.32-3.52a76.92,76.92,0,0,0-20.67-.16c-6.26.82-12.38,2.37-18.58,3.56a117.07,117.07,0,0,1-14.83,1.57c-5.15.34-10.29.8-15.39,1.55-11,1.62-22.23,4.61-31.13,11.54-4.57,3.54-9.68,7.1-15.39,8.48a10.47,10.47,0,0,1-3.48.39l-.48,0s.33.07-.07,0a1.57,1.57,0,0,1-.31-.08C429.53,569,428.74,571.87,430.56,572.5Z"/><path d="M430.2,572.35a45.85,45.85,0,0,0,17.07,4c7.24.28,13.78-2.58,20.78-3.87a41.73,41.73,0,0,1,13.15,0,1.54,1.54,0,0,0,1.84-1,1.51,1.51,0,0,0-1.05-1.85,47.55,47.55,0,0,0-12.15-.36,58.46,58.46,0,0,0-8.87,1.94,51.7,51.7,0,0,1-10.57,2.18A38.54,38.54,0,0,1,438,571.92q-2.42-.64-4.74-1.52c-.45-.17-.89-.34-1.32-.52l-.27-.12c-1.74-.79-3.27,1.79-1.51,2.59Z"/><path d="M583.85,547.86c.56-.45-.3.21-.53.36a25.48,25.48,0,0,1-2.5,1.41,53.08,53.08,0,0,1-10.38,3.79c-10.41,2.77-21.23,3-31.72,5.24a28.53,28.53,0,0,0-11.89,5.11c-1.52,1.18.62,3.29,2.12,2.12a25.21,25.21,0,0,1,10.26-4.27c4.64-1,9.37-1.5,14.07-2.12,9.7-1.27,19.65-2.69,28.54-7A21.17,21.17,0,0,0,586,550c1.49-1.21-.64-3.33-2.13-2.12Z"/><path d="M488.57,573.87c3.85-.13,7.71.11,11.56,0,2.77-.08,5.54-.22,8.29-.57a17.59,17.59,0,0,0,6.27-1.6c1.7-.92.19-3.51-1.51-2.59a9.45,9.45,0,0,1-2.29.76,29.45,29.45,0,0,1-3.1.51c-2.73.31-5.48.44-8.22.5-3.66.09-7.34-.15-11,0-1.92.06-1.93,3.06,0,3Z"/></svg>