<svg id="Layer_1" data-name="Layer 1" xmlns="http://www.w3.org/2000/svg" viewBox="0 0 1000 1000"><defs><style>.cls-1{fill:#02a5d9;}</style></defs><circle class="cls-1" cx="500" cy="500" r="500"/><path d="M323.45,459.13c.41,13.82,1,27.64,1.62,41.46,1.12,24.14,2.33,48.32,4.82,72.36A218.9,218.9,0,0,0,338,614.86a189.49,189.49,0,0,0,19.37,43.07c14.19,23.15,34.59,42.14,55.83,58.78,9.13,7.15,18.77,14.41,29.52,19a167.92,167.92,0,0,0,28.07,8.78c26.57,6.11,56.2,8.17,82.14-1.69a106.46,106.46,0,0,0,19-10c5.43-3.44,10.84-6.93,16.15-10.56a184.5,184.5,0,0,0,24-18.88c15.84-15.15,26.4-34.56,36.12-54,7.48-14.93,14.78-29.93,19.9-45.87a269.16,269.16,0,0,0,10.35-47.28,303.64,303.64,0,0,0,2-62.63c-.08-1.05-.17-2.09-.28-3.13-.2-1.87-3.15-1.89-3,0,1.6,14.6,1.29,29.59.38,44.22-2,31.53-8.31,63.37-21.69,92.13-6.06,13-12.42,26-19.42,38.55A170.17,170.17,0,0,1,619.48,691c-13.48,16.35-31.36,28-49.08,39.23-6,3.82-12,7.38-18.74,9.88a99.39,99.39,0,0,1-20.44,5.14c-14,2-28.31,1.55-42.26-.4A201.87,201.87,0,0,1,454.65,737c-3.83-1.25-7.64-2.59-11.34-4.2a90.89,90.89,0,0,1-13.56-7.65,272.24,272.24,0,0,1-32.85-26c-9.41-8.52-18.67-17.49-26.52-27.49-19.53-24.9-31.68-55.72-36.13-86.93-3.18-22.32-4.22-45-5.41-67.5q-1.45-27.54-2.35-55.11l-.09-2.95c-.06-1.89-3-1.9-2.95,0Z"/><path d="M403.37,208.3A98.21,98.21,0,0,1,394,202c-5.72-4.31-11.35-9.23-15.47-15.13-3.66-5.24-6.29-11.91-2.92-17.93a17.56,17.56,0,0,1,3.51-4.32,77.89,77.89,0,0,1,8.14-6.34,49.15,49.15,0,0,1,12.19-6.66,18.51,18.51,0,0,1,4.16-1,13.29,13.29,0,0,1,1.67,0l.31,0c.33,0-.31,0,0,0l.6.12.52.14c.15.05.66.3.14,0,.21.1.4.22.6.32.44.23-.16-.24.2.17,1.27,1.46,3.39-.67,2.13-2.12-1.93-2.21-6-1.87-8.46-1.36A36.66,36.66,0,0,0,390,152.87a90.6,90.6,0,0,0-8.13,5.64,43.29,43.29,0,0,0-6.62,5.76,16.49,16.49,0,0,0-4.21,10.22,20.8,20.8,0,0,0,2.72,10.26c3.64,6.9,9.61,12.53,15.62,17.37a89.18,89.18,0,0,0,12.24,8.64l.22.13a1.5,1.5,0,0,0,1.51-2.59Z"/><path d="M421.27,202.71a84.27,84.27,0,0,1-6-10.84c-3.46-7.26-6.26-15.17-6.83-23.24a31,31,0,0,1,1.42-12.43,23.33,23.33,0,0,1,7.62-10.51,60.16,60.16,0,0,1,8.16-5c2.66-1.48,5.35-2.91,8.09-4.24a51.48,51.48,0,0,1,10.58-4.09l.94-.2.38-.06c.43-.07-.07,0,.17,0a10.17,10.17,0,0,1,1.35-.06c.15,0,.77.1.2,0l.44.09a2.53,2.53,0,0,1,.36.12c-.54-.17-.16-.09,0,0,.37.27-.32-.23.12.11,0,0-.29-.3,0,0-.24-.3-.19-.35-.07-.1s-.05-.53,0-.3a1.5,1.5,0,0,0,3,0c0-2.4-2.9-3.06-4.79-2.94a28.12,28.12,0,0,0-8.66,2.39,139.77,139.77,0,0,0-16.74,8.48c-4.68,2.71-8.87,5.92-11.7,10.62a28.69,28.69,0,0,0-3.82,13c-.58,9,2.11,18,5.6,26.2A84.38,84.38,0,0,0,418.54,204a1.64,1.64,0,0,1,.14.22c1.08,1.59,3.68.09,2.59-1.52Z"/><path d="M440.88,191.21c.48-16,2.87-32.54,7.83-47.78,3-9.24,7.53-20.11,16.34-25.27,3.6-2.11,7.86-2.65,11.9-3.46,4.67-.93,9.36-1.76,14.07-2.42a179.2,179.2,0,0,1,80.82,7.32A224.85,224.85,0,0,1,625.25,146a178.83,178.83,0,0,1,35.41,30.22c19.2,21.62,32.09,47.82,43.32,74.23,13.48,31.69,25.35,64,39.91,95.24q13.17,28.21,28.88,55.13c11.05,18.81,21.35,38.05,30.56,57.83,15.26,32.79,27.64,67,35.58,102.36,6.17,27.47,9.64,55.63,9.29,83.81a258.71,258.71,0,0,1-8.08,63c-1.06,4.05-2.26,8.06-3.57,12-.61,1.83,2.28,2.62,2.89.79,6.3-19,9.69-38.84,11.07-58.75,1.87-26.78,0-53.76-4.48-80.2-5.83-34.46-16.19-68.06-29.5-100.34A620.33,620.33,0,0,0,789.8,425c-10.56-19.72-22.36-38.73-32.53-58.66C740.41,333.25,727,298.76,713,264.43c-11.13-27.34-22.93-54.93-40.75-78.69-20.55-27.4-49.18-47.72-80.33-61.56-27.8-12.35-58.07-18.39-88.48-16.2a227.3,227.3,0,0,0-29.84,4.35c-4.24.88-8.22,1.8-11.8,4.38a35,35,0,0,0-9.45,10.88c-5.75,9.76-8.72,21.12-10.84,32.15a219.07,219.07,0,0,0-3.4,27.13c-.1,1.44-.18,2.89-.23,4.34-.05,1.93,2.95,1.93,3,0Z"/><path d="M484.59,193a5.5,5.5,0,0,1,.38-.49c.52-.67,1.06-1.33,1.61-2,2-2.32,4.05-4.55,6.21-6.68A98.18,98.18,0,0,1,515.46,167a69.68,69.68,0,0,1,35-8.55c15.72.52,30.38,7.07,43,16.12a128.75,128.75,0,0,1,35.44,37.53c9.72,16,15.73,33.92,20.29,52,6.16,24.45,10,49.48,13.72,74.4,5.23,34.85,10,69.76,15.49,104.58,4.69,30,9.42,60.25,18.38,89.29,5.26,17,12.24,34.47,24.63,47.64,10.21,10.85,23.65,17.28,37.89,21,18.87,5,38.62,6.54,58,8.41l17.86,1.73c1.92.19,1.9-2.81,0-3-21.39-2.1-43-3.5-64.17-7.57-14.79-2.85-29.73-7.41-41.52-17.17-13-10.78-20.82-26.3-26.46-41.94-9.41-26.07-14.29-53.81-18.8-81.07-6-36.3-11.06-72.75-16.38-109.15-3.85-26.3-7.65-52.7-13.51-78.65-4.29-19-9.8-37.95-18.94-55.22a127.94,127.94,0,0,0-32.64-39.54c-10.79-8.75-22.76-16.29-36.28-20a68.71,68.71,0,0,0-38.53.64c-17.06,5.29-32.37,16.61-43.76,30.26-.73.88-1.46,1.77-2.14,2.7-1.14,1.56,1.46,3.06,2.59,1.51Z"/><path d="M679.67,489.41c-20.93-24.58-31.14-56.86-38-87.86-8.35-37.62-11.94-76.17-15.23-114.5-.64-7.44-1.3-14.82-3.19-22.07a76.34,76.34,0,0,0-6.44-16.69,68.65,68.65,0,0,0-20.22-23.1C582,214.51,563.8,209.52,546,207.89a130.05,130.05,0,0,0-18.62-.42c-1.69.09-3.38.21-5.06.42-.52.07-1,.16-1.54.25-.07,0,.5,0-.15,0-4.43.06-8.92.6-13.32,1q-13.81,1.4-27.49,3.88c-23.37,4.25-47,10.75-67.78,22.62-9.92,5.68-19.26,12.79-26.35,21.83-5.06,6.46-9.1,13.75-13.57,20.62q-6.21,9.53-12.59,18.93c-5.18,7.66-10.64,15.24-15,23.43a78.81,78.81,0,0,0-8.28,24.73c-2.56,17.21,3.09,34.19,2.69,51.41-.23,10.09-2.93,19.9-5.49,29.61-1.92,7.24-4,14.43-6.35,21.54-.83,2.53-1.67,5.06-2.6,7.55l2.69-.35a234.68,234.68,0,0,1-14.47-42.2,71,71,0,0,1-2.08-15.27,1.47,1.47,0,0,0-2.94,0c0,9.73,2.77,19.48,5.63,28.7,2.64,8.51,5.74,16.88,9.14,25.12.71,1.72,1.42,3.44,2.18,5.14.56,1.28,2.3.69,2.69-.35a308.33,308.33,0,0,0,9.11-29.7c2.46-9.36,5-18.83,5.4-28.55.34-8.93-.93-17.77-2.06-26.61-1.06-8.35-1.93-16.87-.69-25.26a77.45,77.45,0,0,1,3.76-14.42c2.52-7.14,6.32-13.65,10.43-20,7-10.74,14.34-21.25,21.34-32,4.4-6.75,8.34-14,13.35-20.3A75.49,75.49,0,0,1,399.9,247.4c18.61-15,42.5-23,65.48-28.36a324.61,324.61,0,0,1,51.23-7.72c1.37-.09,2.76-.12,4.13-.24l.85-.12.44-.08a2.15,2.15,0,0,1,.49-.07,98.86,98.86,0,0,1,13.44-.53c16.43.31,33.27,3.36,48,10.74a67.23,67.23,0,0,1,37.28,48.55c1.72,8.14,2.09,16.5,2.81,24.77.86,9.69,1.76,19.37,2.76,29,2,18.95,4.32,37.87,7.57,56.64,5.64,32.5,13.71,66,31,94.5a130.61,130.61,0,0,0,12.19,17c1.24,1.44,3.31-.65,2.09-2.08Z"/><path d="M379.59,190.19c-10.67,4.58-25.73,14.54-23.36,28l.39-1.45c-15.63,12.52-30.57,27.07-41.82,43.7a213.15,213.15,0,0,0-25.18,51.24,239.38,239.38,0,0,0-11.94,84.92,205.45,205.45,0,0,0,5,38.89c2.08,9,4.94,17.71,7.63,26.5,2,6.38,3.91,13,3.7,19.71-.22,7.43-3.53,13.73-7.54,19.8-14,21.12-28.73,41.73-38.2,65.39a129.94,129.94,0,0,0-9.49,40.87c-.69,12.36.68,24.56-1.38,36.87a72.71,72.71,0,0,1-10,27.14,75,75,0,0,1-20.74,21c-10,6.94-21.13,12.15-32.43,16.59a241.69,241.69,0,0,0-38.93,19.43,251.6,251.6,0,0,0-44.28,34.38c-.68.67-1.36,1.35-2,2-1.33,1.4.79,3.53,2.12,2.12,9.43-10,20.49-18.69,31.64-26.62a250.65,250.65,0,0,1,35.22-21c12.49-6.1,25.75-10.39,38-17,17.5-9.35,32.7-22.58,40-41.44,3.71-9.56,5.27-19.85,5.7-30.06.26-6.26-.2-12.49-.12-18.74a111.2,111.2,0,0,1,2.62-22.48c5.82-26.62,20.11-50.19,35.13-72.55,5.3-7.89,11.8-15.71,15.34-24.62a35.16,35.16,0,0,0,1.75-18.62c-1.14-7.33-3.71-14.39-5.91-21.45a223.62,223.62,0,0,1-7.43-30.49c-4.8-29.47-3.25-60.4,3.57-89.43a216.36,216.36,0,0,1,24.38-60.92c11.23-18.91,26.23-34.75,42.87-49,1.57-1.35,3.15-2.7,4.77-4a1.54,1.54,0,0,0,.39-1.46c-2.09-11.77,12.84-20.67,22-24.59,1.77-.75.24-3.34-1.52-2.59Z"/><path d="M308.42,427.84c-2.59,1.13-4.33,4.52-5.37,6.92a43.9,43.9,0,0,0-3,11.95,103.89,103.89,0,0,0-.32,20.26c.65,9.59,2.16,19.12,3.11,28.7.92,9.16,1.65,18.34,2.46,27.52.7,7.87,1.46,15.76,2.68,23.57a83.75,83.75,0,0,0,4.47,18.13,28.2,28.2,0,0,0,9.44,12.8c3.14,2.32,8.55,4.42,10.89-.08a5.48,5.48,0,0,0,.39-.94,1.48,1.48,0,0,0-2.85-.79.84.84,0,0,1-.05.17c-.07.18.18-.26-.08.15a4.8,4.8,0,0,0-.28.46c.08-.1-.59.5-.36.35a2,2,0,0,1-1.63.37,8,8,0,0,1-3.19-1.31,23.83,23.83,0,0,1-9.3-11.62,78.28,78.28,0,0,1-4.37-17c-1.21-7.31-1.94-14.69-2.61-22.06-.79-8.62-1.47-17.25-2.28-25.87-.89-9.35-2.24-18.64-3.12-28a123.29,123.29,0,0,1-.43-21.22,50.16,50.16,0,0,1,2.39-12.5,20.55,20.55,0,0,1,1.54-3.52c.26-.47.54-.94.85-1.39.12-.18.24-.36.37-.53s.15-.2,0,0l.23-.28a14,14,0,0,1,1.32-1.35c.3-.26-.18.12,0,0l.23-.16.3-.18.1-.05c1.74-.76.24-3.3-1.48-2.54Z"/><path d="M312,589.72c0-1.68-1.76-1.77-2.83-1.12a19.45,19.45,0,0,0-2.71,2.18,93.92,93.92,0,0,0-9.11,9.6c-9.09,10.81-16.62,23.16-21.12,36.58-5.46,16.27-5.68,33.93,1,49.88,5.56,13.3,15.25,23.69,27.09,31.71,12.38,8.39,26.36,14.23,40.34,19.36,15,5.5,30.31,10.12,45.4,15.35,14,4.84,28,10.14,40.67,17.86A80.11,80.11,0,0,1,446,783a98.8,98.8,0,0,1,16.3,22.36,89.05,89.05,0,0,1,10.5,52.9c-2.28,19.14-11.17,37-23.52,51.65a136,136,0,0,1-11,11.52c-1.41,1.32.71,3.43,2.12,2.12,14.37-13.42,26.05-30,31.92-48.84a90.13,90.13,0,0,0,.24-52.6,99.54,99.54,0,0,0-11.69-25A92.46,92.46,0,0,0,445.12,778c-10.25-9.12-22.78-15.31-35.37-20.51-14.37-5.92-29.23-10.55-44-15.42s-29.28-9.79-43.15-16.5c-12.33-6-24.3-13.45-33.18-24a63.57,63.57,0,0,1-14.18-45.34c1.16-15.27,7.46-29.79,15.83-42.44,5.25-7.94,11.43-15.88,18.83-22,.41-.34,0,0,.32-.25l.43-.3c.05,0,.29-.14.31-.19-.24.65-2-.55-2-1.28,0,1.93,3,1.93,3,0Z"/><path d="M498.94,748.55l.83,1,.38.49c.09.1.17.21.25.31l.14.18,1.26,1.67q3.88,5.25,7.32,10.81a154.36,154.36,0,0,1,17.06,37.4c4.8,16.23,6.41,33.54,2.94,50.2a90.52,90.52,0,0,1-10.39,27,102.81,102.81,0,0,1-9.39,13.51,33.25,33.25,0,0,1-2.73,2.71,160.3,160.3,0,0,0-13,14c-4.5,5.53-9.23,11.74-11.15,18.73a17,17,0,0,0-.63,4.31,1.5,1.5,0,0,0,3,0,19.63,19.63,0,0,1,2.53-8.54,65.2,65.2,0,0,1,6.1-9.49,142.94,142.94,0,0,1,13.87-15.54c1.13-1.12,2.32-2.18,3.45-3.3a36.63,36.63,0,0,0,2.93-3.61c1.7-2.21,3.33-4.47,4.86-6.8a95,95,0,0,0,12.28-27.19c4.55-16.91,3.91-34.75-.33-51.64a152.41,152.41,0,0,0-16.77-40q-3.72-6.3-8-12.27a64,64,0,0,0-4.49-5.89l-.2-.25c-1.25-1.47-3.36.66-2.12,2.12Z"/><path d="M381.11,943.41a91.33,91.33,0,0,0,15.9-11.2c7.44-6.43,15.6-15.54,15.08-26.07-.3-5.93-3.5-11.09-7.73-15.09-7.11-6.73-16.51-10.86-25.58-14.18-6.63-2.43-13.43-4.21-20.19-6.18-6.42-1.88-12.76-4-19-6.52a148.27,148.27,0,0,1-29.81-15.87,104.15,104.15,0,0,1-34.42-39.74c-6.47-13.34-9.83-28-11.23-42.66-.63-6.55-.89-13.13-1-19.7-.06-5.78-.08-11.28-3.05-16.44-6.35-11.06-20.47-14.41-32.27-15-18.56-.93-37.38,4-54.44,11a210.22,210.22,0,0,0-61.24,38.9q-7.28,6.57-14,13.77c-1.32,1.41.8,3.54,2.12,2.12A215.7,215.7,0,0,1,160.25,735c17.47-8.87,36.7-15.59,56.35-17.09a73.18,73.18,0,0,1,22,1.24c5.47,1.27,11,3.48,15.11,7.29a20,20,0,0,1,6.37,12.91c.26,3,.1,6,.15,8.91.06,3.21.16,6.41.34,9.62.77,14.23,3,28.48,7.89,41.9a104.51,104.51,0,0,0,27.35,41.09c16.48,15.17,37.17,25,58.41,31.59,12.32,3.82,24.88,6.74,36.4,12.75,6.3,3.29,12.94,7.58,16.45,14a16.49,16.49,0,0,1,1.06,13.47c-1.51,4.56-4.58,8.72-7.91,12.28a84.49,84.49,0,0,1-19.36,15.1l-1.27.73c-1.7.92-.18,3.51,1.52,2.59Z"/><path d="M690.94,509.93c-.15,4.86-.24,9.72-.32,14.58q-.33,19-.26,38,.09,26.34.93,52.67c.65,19.76,1.64,39.51,3.21,59.23,1.51,19.05,3.51,38.09,6.57,57,1.36,8.37,2.94,16.71,4.88,25,2.63,11.21,6,22.26,9.12,33.35q8.94,31.86,17.68,63.78c3.37,12.36,6.72,24.73,10,37.12,1.55,5.91,3.08,11.82,4.51,17.76.4,1.67.6,3.51,1.16,5.14a.59.59,0,0,1,0,.13c.31,1.9,3.2,1.1,2.9-.79-.17-1-.44-2.07-.67-3.09-1.09-4.68-2.28-9.32-3.47-14-2.72-10.56-5.55-21.09-8.4-31.62q-7.65-28.29-15.56-56.52c-5.91-21.22-12.68-42.32-16.9-64-3.55-18.19-5.82-36.61-7.57-55.05-1.87-19.79-3.09-39.63-3.92-59.49q-1.15-27.46-1.37-54.95-.21-21.19.07-42.39c.09-7,.2-14,.41-21,0-.32,0-.63,0-.94.07-1.93-2.93-1.93-3,0Z"/><path d="M813,608.08c4.62,15.15,8.72,30.46,12.14,45.93a487.65,487.65,0,0,1,9.24,56.84,390.69,390.69,0,0,1,1.38,63.62c-1.37,21.5-5.17,42.73-9.34,63.84-3,15.14-6.33,30.22-10.5,45.08-.4,1.41-.8,2.82-1.21,4.23-.55,1.86,2.35,2.65,2.89.8,4.16-14.19,7.5-28.62,10.47-43.1,4.23-20.64,8.2-41.48,10-62.48a378.84,378.84,0,0,0-.07-64.7,483.23,483.23,0,0,0-8.53-58C826.19,644,822.09,628,817.4,612.21q-.74-2.46-1.48-4.93c-.56-1.84-3.46-1-2.9.8Z"/><path d="M582.51,724.75A151.3,151.3,0,0,0,571.29,749a190,190,0,0,0-12.56,59.53,152.88,152.88,0,0,0,3,37.33c2.69,12.95,7.32,25.53,12,37.89,3.46,9.19,7.23,18.25,11.22,27.22,2.56,5.75,5.32,11.5,7.63,17.29a61.89,61.89,0,0,1,2.28,6.64,27.14,27.14,0,0,1,1,5.67,25.92,25.92,0,0,1-2.12,11.65c-.42,1.06-.86,2-1.4,3.18-.83,1.74,1.76,3.26,2.59,1.52a36.91,36.91,0,0,0,3.92-13.15A31.56,31.56,0,0,0,597,931.7,162.7,162.7,0,0,0,590.42,916c-3.48-7.71-6.9-15.44-10.06-23.29-4.74-11.79-9.18-23.79-12.82-36A144.36,144.36,0,0,1,561.65,819c-.53-21.36,3.32-42.7,10.24-62.87a180.56,180.56,0,0,1,13-29.45l.23-.4a1.5,1.5,0,0,0-2.59-1.52Z"/><path d="M837.23,738.89c4.6,2.58,9.38,4.87,14.14,7.1,12.63,5.93,25.58,11.18,38.72,15.88,10,3.57,20.11,6.74,30.27,9.8,1.85.56,2.64-2.33.8-2.89-16.76-5.06-33.35-10.56-49.56-17.18-9.6-3.92-19.08-8.16-28.31-12.89-1.52-.78-3-1.57-4.54-2.41a1.5,1.5,0,0,0-1.52,2.59Z"/><path d="M544.5,397.86c-.14-.58,0,.27,0-.27a15,15,0,0,1,0-1.64c0-.51,0,.15,0-.26,0-.2.07-.41.12-.61a11.05,11.05,0,0,1,.39-1.36,12.17,12.17,0,0,1,1.42-2.73A22.31,22.31,0,0,1,554,384.5c5.24-3,11-4.56,16.87-6,11.62-2.88,23.43-6.34,35.42-7.24a44.11,44.11,0,0,1,12.92.68,40.37,40.37,0,0,1,13,5.54,10.87,10.87,0,0,1,1.77,1.32c.14.14.27.28.4.43s-.11-.26,0,.08c0,0-.24-1-.07-.11.09.49.19,1,.28,1.47l1.8,9.68,2.2-1.7a10.23,10.23,0,0,0-2.11-1,37.35,37.35,0,0,0-6.72-1.84A82.9,82.9,0,0,0,617,384.3a43.21,43.21,0,0,0-10,1c-7.61,1.53-15,4.19-22.22,6.93-6.2,2.34-12.35,5-18.72,6.88a33.54,33.54,0,0,1-12.59,1.35,22.86,22.86,0,0,1-9.7-3.51c-1.65-1-3.16,1.59-1.51,2.59a26.73,26.73,0,0,0,8.49,3.53,33.2,33.2,0,0,0,12.68-.25c6-1.13,11.75-3.7,17.43-5.89a213.74,213.74,0,0,1,22.16-7.62,59.66,59.66,0,0,1,10.36-1.93,55.2,55.2,0,0,1,12,.71,48.37,48.37,0,0,1,9.43,2.12l.6.22c.1,0,.68.28.31.12l.76.35a6.48,6.48,0,0,1,.57.33c1.17.84,2.42-.54,2.2-1.69l-1.7-9.13c-.11-.58-.2-1.17-.33-1.76,0-.09,0-.19-.05-.29.13.7.1.23,0-.07a4.94,4.94,0,0,0-1.42-1.88,27.57,27.57,0,0,0-5.55-3.49,47.63,47.63,0,0,0-7.16-3.07,41.68,41.68,0,0,0-13.23-1.77c-12,.21-24,3.62-35.61,6.49-6.57,1.62-13.19,3.11-19.32,6.07a28.86,28.86,0,0,0-9.74,7.12c-2.37,2.85-4.46,7.05-3.53,10.88C542.06,400.53,545,399.73,544.5,397.86Z"/><path d="M483.41,394.06a16.5,16.5,0,0,0-1.85-4.57,29.3,29.3,0,0,0-8.07-9c-4.71-3.57-10.3-5.68-15.8-7.7a126.18,126.18,0,0,0-17.84-5.15,95.74,95.74,0,0,0-41,.41c-9.42,2.15-18.5,5.7-25.86,12.1a69.35,69.35,0,0,0-8.1,8.6,86.83,86.83,0,0,0-7.4,9.59,2.9,2.9,0,0,0-.56,1.49,1.54,1.54,0,0,0,2.59,1.09c1.1-1,2-2.18,3.11-3.17A53.59,53.59,0,0,1,388,385.33c12.47-2.52,25.84-4,38.48-1.91a45.9,45.9,0,0,1,16.52,5.9c4.76,2.93,9.27,6.25,14.27,8.78,6.28,3.18,14,4.75,20.52,1.29a26.15,26.15,0,0,0,5.24-3.88c1.44-1.29-.69-3.4-2.12-2.12a22.72,22.72,0,0,1-5.07,3.64,14.06,14.06,0,0,1-7,1.27,21.44,21.44,0,0,1-7-1.39A61.26,61.26,0,0,1,451,391c-2.6-1.66-5.11-3.5-7.8-5a45.15,45.15,0,0,0-7.63-3.37c-11.38-3.85-23.87-3.6-35.65-2.16a105.87,105.87,0,0,0-18.29,3.42,57.32,57.32,0,0,0-13.85,6.29,51.33,51.33,0,0,0-8.11,6.27c-.62.6-1.23,1.22-1.8,1.87a2,2,0,0,0-.36.4c.28-.64,2.13-.33,2.41.73a2.19,2.19,0,0,1,0,.72c0-.25-.23.35-.08.18s.24-.44.37-.64c.66-1,1.43-2,2.18-3,2.77-3.61,5.62-7.21,8.73-10.53a48.72,48.72,0,0,1,20.51-13,90.29,90.29,0,0,1,38.44-4.07,117.85,117.85,0,0,1,34.16,9.49,33.31,33.31,0,0,1,12.09,8.62,23.33,23.33,0,0,1,2.68,3.91,16.64,16.64,0,0,1,.81,1.64c.05.12,0,.06.16.39s.15.42.22.63a10.63,10.63,0,0,1,.32,1.1C480.89,396.75,483.78,395.94,483.41,394.06Z"/><path d="M427.31,620.46a105.34,105.34,0,0,0,14.1-.21,43.78,43.78,0,0,0,9.45-1.55,48.46,48.46,0,0,0,8-3.43c5.25-2.76,10.13-6.14,15.29-9a32,32,0,0,1,6.37-3,9.52,9.52,0,0,1,6.21.19c4.79,1.45,8.78,5,13.89,5.35a18.66,18.66,0,0,0,8.77-1.71c2.45-1.08,4.69-2.61,7.19-3.56a13.33,13.33,0,0,1,4.17-.92,12.52,12.52,0,0,1,2,0c-.31,0,.41.09.57.13a14.25,14.25,0,0,1,3.71,1.72c3.7,2.2,7.11,4.87,10.62,7.35,9.41,6.66,19.61,12.7,31.1,14.79,1.61.3,3.23.51,4.85.66l-1.06-2.56c-4.37,3.64-8.91,7.08-13.51,10.42-8.52,6.18-17.42,12.21-27.06,16.53a47.8,47.8,0,0,1-6.34,2.36,41,41,0,0,1-7.64,1.23,135.14,135.14,0,0,1-24,.07,93.53,93.53,0,0,1-22.58-4.62c-5.47-1.92-10.39-5.11-15-8.52-9.32-6.82-17.54-14.93-26.11-22.63-.64-.57-1.28-1.14-1.93-1.69-1.47-1.24-3.6.87-2.12,2.12,3.58,3,6.95,6.33,10.41,9.5,4.72,4.32,9.52,8.56,14.57,12.51a80.28,80.28,0,0,0,15.37,10c6.55,3,13.86,4.61,21,5.61A129.91,129.91,0,0,0,512,658.7c5.9-.28,11.8-.66,17.38-2.73,10-3.7,19.18-9.75,27.86-15.86q5.79-4.08,11.37-8.42c1.93-1.5,3.93-3,5.75-4.59l.28-.23c1.1-.92.1-2.45-1.06-2.56-11.9-1.1-22.55-6.83-32.23-13.49-3.76-2.6-7.39-5.4-11.23-7.9-3-1.94-5.94-3.52-9.6-3.3a20,20,0,0,0-8,2.49,33.75,33.75,0,0,1-7.47,3.33,13,13,0,0,1-7.77-.42c-2.15-.86-4.08-2.18-6.2-3.12-2.42-1.07-5.23-2.22-7.93-2.15a16.64,16.64,0,0,0-6.1,1.62c-5.11,2.21-9.73,5.48-14.49,8.34-4.92,2.95-10.15,5.94-15.89,6.92a89.83,89.83,0,0,1-18.18.88l-1.19,0C425.38,617.36,425.38,620.36,427.31,620.46Z"/><path d="M426.55,620.26a46.48,46.48,0,0,0,18.5,6,41.55,41.55,0,0,0,8.49.18c3.19-.26,6.3-1,9.46-1.45a85.09,85.09,0,0,1,16.19-.73,48.55,48.55,0,0,1,7,.74c1.89.38,2.7-2.51.8-2.89-6.62-1.33-13.73-1.19-20.41-.55-6,.58-11.93,2.22-18,2a46.09,46.09,0,0,1-14.16-2.94,36,36,0,0,1-6.35-3c-1.64-1-3.15,1.57-1.51,2.59Z"/><path d="M572.55,624.75c.29-.3.23-.16-.13,0s.39-.13,0,0l-.39.14c-.36.11-.72.2-1.08.28a23.26,23.26,0,0,1-3.61.48c-2.24.17-4.48.21-6.71.19-7-.06-14-.61-20.92-1.34-3.91-.41-7.79-.94-11.65-1.69a26.94,26.94,0,0,0-6-.82c-1.93.07-1.94,3.07,0,3a8.37,8.37,0,0,1,1.12,0l.51,0,.31,0h0c.94.15,1.88.34,2.82.53,3.77.74,7.58,1.29,11.4,1.72,7.11.81,14.28,1.38,21.44,1.49a57,57,0,0,0,11.68-.67,6.32,6.32,0,0,0,3.33-1.28c1.34-1.39-.78-3.51-2.12-2.12Z"/><path d="M490,626.29a29.17,29.17,0,0,0,5.37,1.45,22.58,22.58,0,0,0,10.81-.24c1.84-.57,1.05-3.47-.8-2.89-4.63,1.45-10.12.52-14.59-1.21a1.5,1.5,0,0,0-1.84,1,1.54,1.54,0,0,0,1,1.85Z"/></svg>