<svg id="Layer_1" data-name="Layer 1" xmlns="http://www.w3.org/2000/svg" viewBox="0 0 1000 1000"><defs><style>.cls-1{fill:#b3e5ff;}</style></defs><circle class="cls-1" cx="500" cy="500" r="500"/><path d="M329.81,385c-.6.49.05,0,.26-.1a16.94,16.94,0,0,1,1.87-.74,71,71,0,0,1,10.48-2.51c5.32-1,10.73-1.43,16.11-1.93,15.78-1.47,31.61-2.47,47.44-3.27a353.06,353.06,0,0,1,50.28.72c3.07.28,6.15.62,9.19,1.16s6.24,1.57,9.37,2.37A117.17,117.17,0,0,0,497.47,384c8.64.52,17.35.72,25.87-1,7.39-1.47,14.44-4.16,21.72-6,9.37-2.41,19-3,28.61-3.45,9.29-.39,18.59-.36,27.88,0,8.44.29,16.86.85,25.29,1.27,7.72.38,15.45.5,23.16,1a167.76,167.76,0,0,1,20.69,3,23.27,23.27,0,0,1,6.2,1.75c2.15,1.1,2.5,3.15,2.68,5.44a27.35,27.35,0,0,1,0,4.69c-.58,3.25-4.92,3-7.39,3.35-2.71.37-5.61,1.07-6.89,3.74a42.57,42.57,0,0,0-2.49,7.2,112.8,112.8,0,0,0-2.59,11.91c-.8,4.81-1,9.73-2,14.49A39.69,39.69,0,0,1,647.92,451c-4.12,4.21-9.33,6.44-15,7.9-8.2,2.11-16.62,2.42-25,2.77s-16.67.62-25,.49c-7.17-.12-14.58-.33-21.56-2.13A44.35,44.35,0,0,1,544,451.34c-6.25-5.27-10.56-12.5-13.87-19.88s-4.94-15.28-7.09-23.09c-1.42-5.15-3.66-9.35-8.71-11.66s-11.25-2.26-15.52,1.72c-2.8,2.6-4,6.31-5.45,9.74-1.48,3.59-2.89,7.2-4.37,10.79a235.91,235.91,0,0,1-11.32,23.63c-3.12,5.71-6.72,11.16-12.57,14.35s-13.19,4.23-19.88,5c-8.55,1-17.16,1.38-25.75,1.62s-17.33.33-26,.07c-8-.23-16.61-.53-24.06-3.71-6.25-2.67-9.51-8.12-12-14.19a94.22,94.22,0,0,1-5.64-20.79c-.62-3.93-.89-7.9-1.57-11.83-.65-3.74-1.46-7.86-3.52-11.13-3.33-5.28-10.12-4.1-15.28-6.07-1-.36-1.08-.41-1.24-1.29a24.64,24.64,0,0,1-.07-4.21c0-2.17.06-4.35.14-6.52.08-1.93-2.92-1.92-3,0-.09,2.31-.14,4.63-.15,6.94s-.52,5.58,1.67,7.1,5.62,1.78,8.29,2.28,5.52.86,7.05,3.28c2.12,3.37,2.8,7.75,3.41,11.61s.9,7.92,1.58,11.85a92.79,92.79,0,0,0,6.14,21.24c2.57,5.94,6,11.26,12.07,14.06,7.32,3.39,15.8,4,23.74,4.3,8.9.37,17.84.26,26.74.05s17.64-.6,26.4-1.55c6.92-.75,14.08-1.67,20.48-4.55,6-2.73,10.35-7.53,13.72-13.14a194.91,194.91,0,0,0,11.8-23.57c1.48-3.46,2.87-7,4.27-10.44.8-2,1.6-4,2.43-5.93a22.94,22.94,0,0,1,2.9-5.66c3.81-4.78,10.47-4.4,15.2-1.25s5.37,9.42,6.6,14.45c3.82,15.54,10.43,32.55,24.47,41.62,12.31,7.95,27,8.57,41.18,8.57,8.33,0,16.66-.36,25-.7s17-1.05,25-3.72a31.56,31.56,0,0,0,14.35-9.33A43.2,43.2,0,0,0,661.33,431c.94-5,1.2-10.1,2.11-15.11a106.73,106.73,0,0,1,2.63-11.35c.55-1.86,1.11-5.32,2.83-6.51,2.48-1.72,6.25-1,9-1.86,5.18-1.56,5.06-6.93,4.52-11.31-.32-2.61-1-5-3.34-6.5a17.83,17.83,0,0,0-5.8-2.08A163,163,0,0,0,652.61,373c-7.35-.63-14.74-.74-22.1-1.06-18.11-.8-36.15-2.11-54.29-1.48-9.92.34-19.94.82-29.64,3.08-7.61,1.78-14.93,4.62-22.56,6.3-8.58,1.89-17.35,1.72-26.07,1.21a116.4,116.4,0,0,1-24.24-3.77A103.09,103.09,0,0,0,455.32,374c-8.43-.74-16.89-1-25.35-1.14-16.81-.18-33.61.93-50.37,2.1-7.91.55-15.82,1.16-23.72,1.93a162.08,162.08,0,0,0-17.42,2.4,51.55,51.55,0,0,0-8.43,2.3,8.73,8.73,0,0,0-2.35,1.21C326.18,384.05,328.32,386.16,329.81,385Z"/><path d="M360.34,391.12a14.17,14.17,0,0,1,6.84-6c4.7-2.25,10.08-3.21,15.21-3.87,8.25-1.06,16.61-1.2,24.92-1.45s16.93-.39,25.4-.15a182,182,0,0,1,23.08,1.94,118,118,0,0,1,17.73,4c3.31,1.07,6.87,2.59,8.62,5.64,2,3.54,1.45,8.32.79,12.21s-1.58,7.53-2.4,11.28-1.69,7.69-2.64,11.51c-1.61,6.48-3.42,13.11-6.67,19-2.36,4.26-5.41,7.68-9.94,9.61-4.94,2.12-10.4,3.09-15.69,3.85-10.62,1.52-21.35,1.68-32.06,1.66-11.27,0-22.92,1-33.89-2.16-5.33-1.55-9.79-4.26-13-8.87a53.9,53.9,0,0,1-7.42-17.69,89.73,89.73,0,0,1-2.58-17.78c-.26-5.68-.12-11.68,1.41-17.19a28.9,28.9,0,0,1,2.25-5.53c.88-1.71-1.7-3.23-2.59-1.52a38.42,38.42,0,0,0-3.95,15.55,86.11,86.11,0,0,0,.74,17.79,79,79,0,0,0,5.06,19.41c2.35,5.66,5.55,11.38,10.72,14.89,4.9,3.33,10.92,4.71,16.71,5.46a128.52,128.52,0,0,0,18.61.75c10.75-.16,21.49,0,32.21-.9A110.9,110.9,0,0,0,456,459.72c4.67-1.2,9.48-2.88,13-6.35,4.38-4.37,6.95-10.3,8.91-16.07,2.55-7.53,4.17-15.35,5.86-23.1,2-8.91,6.47-22.21-2.89-28.56-3.93-2.67-8.92-3.74-13.48-4.78a161.1,161.1,0,0,0-22-3.49c-8.35-.71-16.75-.87-25.13-.8-9.16.07-18.35.32-27.5.81a98.25,98.25,0,0,0-20.77,2.89c-4.07,1.13-8.23,2.77-11.35,5.7a13.69,13.69,0,0,0-2.79,3.63C356.85,391.31,359.43,392.83,360.34,391.12Z"/><path d="M654.67,387A16.71,16.71,0,0,0,647,380c-5-2.46-10.67-3.54-16.19-4.28-8.57-1.14-17.25-1.3-25.89-1.56-8.89-.26-17.79-.39-26.68-.09a180.62,180.62,0,0,0-23.91,2.26,111.51,111.51,0,0,0-18,4.24c-3.84,1.34-7.72,3.34-9.77,7-2.35,4.23-1.93,9.4-1.18,14,.66,4,1.69,8,2.68,12s2.13,8.08,3.41,12.05c2.19,6.78,4.82,13.64,8.82,19.59a27.65,27.65,0,0,0,12.21,10.44,75.19,75.19,0,0,0,18.49,4.82A183.73,183.73,0,0,0,604,462a168.65,168.65,0,0,0,18.1-1.41,66.66,66.66,0,0,0,17.2-4.36A24.4,24.4,0,0,0,651.11,446c3.37-5.67,5.14-12.23,6.21-18.69a114.61,114.61,0,0,0,1.45-18.4c0-2.91,0-5.83-.26-8.73a30.81,30.81,0,0,0-1.36-8,38.54,38.54,0,0,0-2.48-5.24c-.89-1.71-3.48-.2-2.59,1.51a32.09,32.09,0,0,1,2.28,4.82,31.34,31.34,0,0,1,1.22,7.88,127.89,127.89,0,0,1-.12,16.38,80,80,0,0,1-3.32,18.68c-1.64,5.12-4.11,10.62-8.45,14-4.09,3.19-9.33,4.8-14.31,6a111.13,111.13,0,0,1-17.53,2.39,209,209,0,0,1-30.44.1,118.67,118.67,0,0,1-18.76-2.83c-5-1.22-10.57-2.79-14.62-6.15-4.55-3.77-7.53-9.28-9.9-14.6A134.08,134.08,0,0,1,531,413.26c-1-3.84-2-7.71-2.65-11.61a31,31,0,0,1-.57-7.69,10.26,10.26,0,0,1,4.84-8.41c4-2.48,8.89-3.44,13.41-4.45a158.64,158.64,0,0,1,21.12-3.34c16.93-1.45,34-.85,51-.07a101.16,101.16,0,0,1,20.65,2.61c3.79,1,7.89,2.38,10.78,5a10.63,10.63,0,0,1,2.51,3.2C653,390.21,655.58,388.7,654.67,387Z"/><path d="M468.89,373.44c3.18-1.13,6.68-2.8,9-5.33,1.49-1.64,2.35-3.79,1.47-5.95a6.8,6.8,0,0,0-3-3.2c-3.4-2.1-7.42-3.37-11.21-4.6-5.71-1.86-11.52-3.41-17.34-4.86-12.56-3.12-25.26-5.78-38-7.8a47,47,0,0,0-18.18.67A86.7,86.7,0,0,0,373.32,349a128.45,128.45,0,0,0-15,8.49,72.28,72.28,0,0,0-8.85,6.52,8.2,8.2,0,0,0-.78.78c-1,1.21.31,3.38,1.81,2.36a8.64,8.64,0,0,1,1.21-.62c.36-.17-.15.06,0,0l.38-.16.95-.34c.84-.29,1.7-.55,2.57-.78a98.94,98.94,0,0,1,20.71-2.7c24.37-1.14,48.92,1.46,72.75,6.57,4.11.88,8.2,1.85,12.29,2.84,2.21.53,4.44,1.17,6.7,1.48a1.56,1.56,0,0,0,1.85-1,1.52,1.52,0,0,0-1.05-1.85c-1.95-.27-3.88-.81-5.79-1.27-3.46-.83-6.92-1.66-10.39-2.43a321.1,321.1,0,0,0-32.31-5.54,276.42,276.42,0,0,0-40.47-1.89c-7.9.23-15.95.76-23.67,2.58-2.35.56-5.21,1.16-7.25,2.56l1.82,2.35a29.89,29.89,0,0,1,6-4.76,127.15,127.15,0,0,1,12.9-7.94C380.05,348.63,392,343.61,404,344a62.43,62.43,0,0,1,8.05,1q4.29.72,8.57,1.53,9.39,1.78,18.72,3.93c6.05,1.39,12.08,2.88,18,4.58a121.42,121.42,0,0,1,13.7,4.54,25.45,25.45,0,0,1,4,2l.54.37c-.08-.06.31.29.43.39a1.57,1.57,0,0,1,.21.24c-.31-.36.1.16.18.31a2,2,0,0,1,.28.95c0,1.53-1.83,3-3.08,3.8a26.16,26.16,0,0,1-2.62,1.51c-.68.34-1.56.74-2,.93l-.91.35C466.28,371.19,467.06,374.09,468.89,373.44Z"/><path d="M535.48,366.94a20.54,20.54,0,0,1-2.84-1c-1.37-.63-3.29-1.51-3.93-2.95a1.58,1.58,0,0,1,.37-1.54c-.05.07.21-.2.28-.27s.19-.15,0,0c.11-.09.24-.18.36-.26a17.67,17.67,0,0,1,3.49-1.61,112.22,112.22,0,0,1,12.49-3.49c5.49-1.3,11-2.44,16.55-3.55s11.35-2.24,17-3.37,11.13-2.49,16.74-3.42a65.66,65.66,0,0,1,20.56-.44,56.79,56.79,0,0,1,18.59,6.36,85.44,85.44,0,0,1,15.77,10.75,29.56,29.56,0,0,1,3.15,3.18,2.75,2.75,0,0,1,.22.26c-.18-.22,0-.06,0,.06s.21.28.3.43.22.4.34.59-.15-.43-.07-.15l1.85-1.84a156.78,156.78,0,0,0-16.49-3.05,130.05,130.05,0,0,0-31.9-1c-17.52,1.9-35,4.11-52.58,5.58-4.14.35-8.3.66-12.46.82a51.66,51.66,0,0,1-8.25-.11c-1.91-.23-1.89,2.77,0,3a46.88,46.88,0,0,0,7.11.15c3.49-.11,7-.34,10.44-.61,8.94-.68,17.86-1.62,26.77-2.59,8.68-.95,17.36-2,26-2.92A125.8,125.8,0,0,1,620,363a145.26,145.26,0,0,1,16.28,1.07A158.58,158.58,0,0,1,656,367.52a1.51,1.51,0,0,0,1.85-1.84,10.49,10.49,0,0,0-2.73-3.79c-3.93-4.07-8.81-7.29-13.57-10.28a65.82,65.82,0,0,0-19.9-8.7,62.71,62.71,0,0,0-21.16-1.09c-6.45.7-12.74,2.27-19.08,3.55-5.91,1.2-11.83,2.34-17.73,3.52s-11.83,2.38-17.7,3.75a114.43,114.43,0,0,0-13.51,3.73c-2.75,1-6.51,2.36-6.78,5.8-.34,4.1,4.93,6.28,8.07,7.36l1,.31A1.5,1.5,0,0,0,535.48,366.94Z"/><path d="M676.83,711c5.33.2,10.43-3.56,14.39-6.69a110.2,110.2,0,0,0,17.56-18.17c11.58-14.59,22.16-31.69,26.53-50,1.65-6.92,2.48-14.69-.09-21.51-1.33-3.51-3.53-6-6.06-8.75A115.18,115.18,0,0,1,720,595.12a46.91,46.91,0,0,1-9-21.68c-1.39-10.57,0-21.5,1.34-32,4.36-33.34,12.07-66.4,13.26-100.1.51-14.49-.25-29.33-4.46-43.29-2.22-7.4-5.47-14.39-7.47-21.88a113.18,113.18,0,0,1-3.58-22.41c-.77-12.76.56-25.49.66-38.25a76.53,76.53,0,0,0-4-26.1c-7.68-22.54-20.42-43.68-34.13-63-15.27-21.54-33-41.36-55.07-56-8.55-5.68-18-11.08-28.13-13.29-4.08-.9-8.74-1.43-12.79-.06a7.11,7.11,0,0,0-1.67.73l1.81.23c-7.59-6.42-17.91-9.08-27.49-10.84-12.57-2.32-25.43-3-38.2-3.19-12.1-.15-24.21.28-36.28,1.07-10,.66-20.57.69-29.69,5.22a48.83,48.83,0,0,0-20.31,19.28l1.7-.69c-14.74-4.94-32.76-4.5-46.79,2.21s-21.93,20.73-31.58,32.43c-9.42,11.42-19.58,22.29-28.13,34.41a115.94,115.94,0,0,0-15.41,30A314.83,314.83,0,0,0,296,299.7C290.84,323,286.58,347,285.53,371c-.37,8.34-.45,16.83,2.58,24.74,3.32,8.67,9.52,17.1,18.63,20.19a11.88,11.88,0,0,0,1.52.43c1.89.35,2.7-2.54.8-2.89-6.58-1.22-12.1-7.23-15.28-12.7-4.66-8-5.54-16.25-5.39-25.31.37-22.61,4.36-45.36,8.94-67.46,4.23-20.39,8.78-41.62,19.52-59.71,7.09-12,16.26-22.43,25.25-33,5.31-6.22,10.57-12.49,15.59-18.95,4.75-6.1,9-12.65,15.11-17.48,14.47-11.39,34.68-12.24,51.85-7.45l1.06.32a1.5,1.5,0,0,0,1.69-.69A46.54,46.54,0,0,1,443,154.86c8.9-5.6,19-5.94,29.12-6.66,23.48-1.65,47.56-2.45,70.93.94,10.66,1.55,23.09,3.78,31.58,11a1.55,1.55,0,0,0,1.82.24,2.43,2.43,0,0,1,1.2-.51,16.13,16.13,0,0,1,4.59-.61c7.43,0,14.82,3.08,21.32,6.38,23.15,11.78,42,30.47,57.82,50.72C676.58,235.7,690,257,699.78,279.67c3.33,7.75,6.57,16,7.55,24.47,1.35,11.62-.16,23.59-.46,35.24-.34,13.52.77,26.94,4.53,40,2.07,7.17,5.27,13.94,7.28,21.12a109,109,0,0,1,3.57,21.15c2.46,32.51-4.52,65.27-9.6,97.2-2.12,13.36-4.41,26.83-5.07,40.37-.4,8.21-.05,16.65,2.75,24.46,2.74,7.63,7.6,14.18,12.91,20.22,2.71,3.08,6.12,5.88,8.11,9.5a21.34,21.34,0,0,1,2.41,8.85c.54,8-1.75,16-4.58,23.45a137.32,137.32,0,0,1-13.32,25.52A155.56,155.56,0,0,1,699,692.93c-4.76,5.09-10,10.29-16.32,13.47a12.17,12.17,0,0,1-5.86,1.61c-1.93-.07-1.93,2.93,0,3Z"/><path d="M288.78,404.66a128.07,128.07,0,0,0,.53,29.61c.53,4.36,1.24,8.7,2.18,13s2.38,8.68,3.61,13a45,45,0,0,1,1.33,17.78c-.66,5.32-2.12,10.49-3.21,15.72a68.88,68.88,0,0,0-1.66,17.87c.36,6.79,2.12,13.2,4,19.69q2.16,7.47,4,15a313.47,313.47,0,0,1,6.8,36.22c1.54,12.52,2.24,25.27,1,37.85-1.08,10.87-3.71,22.08-10,31.18-3.13,4.53-7.55,7.93-10.26,12.78a21.78,21.78,0,0,0-2.77,13.35c1.13,8.84,7.45,16.15,14,21.71a87.72,87.72,0,0,0,16.25,10.86l1,.49c1.73.83,3.26-1.76,1.52-2.59a80.92,80.92,0,0,1-12.15-7.4c-6.7-4.82-13.66-11.06-16.55-19a18.51,18.51,0,0,1-.3-12.29,23.93,23.93,0,0,1,3.67-6.75c1.67-2.23,3.77-4.07,5.56-6.19,7-8.27,10.5-18.9,12.19-29.45,2-12.24,1.78-24.76.66-37.07a292.28,292.28,0,0,0-6-37.07q-1.79-8-3.92-15.91c-1.47-5.44-3.33-10.82-4.49-16.33a58.54,58.54,0,0,1-.82-19.58c.7-5.44,2.15-10.74,3.28-16.09a57.44,57.44,0,0,0,1.44-16.1c-.59-7.76-3.64-15-5.3-22.51a138,138,0,0,1-2.79-39.72c.05-.7.11-1.4.19-2.09.22-1.92-2.79-1.9-3,0Z"/><path d="M443.94,161.56c-6,5-11.27,11.5-12.22,19.52-.7,5.81,1.24,11.59,4.35,16.45a46.11,46.11,0,0,0,9.53,10.57,36.89,36.89,0,0,0,3.31,2.51,3,3,0,0,0,2.46.26,184.49,184.49,0,0,1,46.08-3c6.65.41,13.3,1.16,19.93,1.84,6.79.71,13.57,1.54,20.31,2.64C553.54,215,569.28,219,584,225.67a129,129,0,0,1,22.52,13,85.25,85.25,0,0,1,16.12,14.7c7.9,9.62,13.48,21.11,18,32.64a275.57,275.57,0,0,1,11.48,38.16c2.54,11,4.59,22.1,6.23,33.26.85,5.78,1.6,11.59,2.16,17.51,0,.26,0,.53.07.79.16,1.91,3.16,1.93,3,0-.24-2.89-.58-5.78-.93-8.66q-1.38-11.25-3.33-22.41c-1.75-10-3.84-19.92-6.37-29.74a254.07,254.07,0,0,0-10.18-31.61c-3.92-9.73-8.57-19.27-14.72-27.8-7.18-9.94-16.75-17.76-27.12-24.21a148.91,148.91,0,0,0-38.4-16.54,244.33,244.33,0,0,0-36.76-7.05c-5.2-.64-10.41-1.16-15.62-1.65-6.67-.63-13.33-1.3-20-1.42a195.84,195.84,0,0,0-38.37,3.14c-.66.12-1.32.24-2,.38l1.15.15a17.36,17.36,0,0,1-3.26-2.42,48,48,0,0,1-6.42-6.41c-4.78-5.78-8-13.27-6-20.81,1.64-6.13,6.08-11,10.85-15,1.49-1.24-.65-3.35-2.12-2.12Z"/><path d="M665.34,398.59c2.51,14.65,4.26,29.46,5.68,44.25,2.62,27.44,4.06,55.4.43,82.81-3.93,29.6-13.28,58.82-29,84.34a172.26,172.26,0,0,1-60.4,58.76A132.12,132.12,0,0,1,545.5,683c-13.77,3.11-27.81,3.88-41.88,3.64-27.8-.49-56-3.84-81-16.88-13.3-6.95-24.7-16.31-35.59-26.54-9.31-8.75-18.31-18-25.79-28.38a145.06,145.06,0,0,1-16-29.35,213.08,213.08,0,0,1-11.68-35.72c-5.49-25.19-6.69-51.39-6.69-77.11,0-22.46,1.51-44.69,5.83-66.77.48-2.46,1-4.91,1.56-7.34.45-1.88-2.45-2.68-2.9-.8-4.61,19.29-6.66,39.24-7.26,59-.76,25.45,0,51.15,3.52,76.4a192.65,192.65,0,0,0,8.54,36.58c4,11.65,8.5,23.21,14.51,34a146.78,146.78,0,0,0,20.68,28c4.8,5.2,9.87,10.14,15,15a200.33,200.33,0,0,0,17.75,15,133,133,0,0,0,37.32,19.14,178.58,178.58,0,0,0,40.8,7.74c28.13,2.34,57.16,1.74,83.72-8.82a147.94,147.94,0,0,0,35.08-20.19,181.31,181.31,0,0,0,31.41-30.24c18.64-23.27,30.92-51.22,37.68-80.15,6.66-28.53,7.27-57.63,5.42-86.74C674.29,442,672,421.39,668.76,401c-.17-1.07-.34-2.15-.53-3.22-.32-1.9-3.21-1.09-2.89.8Z"/><path d="M338,378.45c3-8.74,5.73-17.61,8.26-26.5,4.42-15.45,8.65-31.32,10.05-47.38,1.38-15.91-.42-32.8,7-47.53,8.64-17.14,25.53-29.44,43.57-35.21a84.13,84.13,0,0,1,15.64-3.2,132.24,132.24,0,0,0,13.72-2.16c4.32-1,10.5-2.8,10.6-8.22a10,10,0,0,0-.54-3.15c-.58-1.83-3.48-1-2.89.8a6.06,6.06,0,0,1,.41,2.69,3.85,3.85,0,0,1-.62,1.54c-1.33,1.63-3.8,2.4-6,3-9.24,2.53-19,2.39-28.21,4.94-18.73,5.16-36.32,17.12-46.37,33.94a55.74,55.74,0,0,0-7.06,19.55c-1.52,9.12-1.7,18.45-2,27.68a136.48,136.48,0,0,1-2.86,22.14c-1.64,8.2-3.66,16.33-5.87,24.4-2.89,10.54-6.07,21-9.6,31.37-.05.17-.11.34-.17.51-.63,1.83,2.26,2.62,2.89.8Z"/><path d="M323.89,445.51c0,.13,0,.27,0,.4l0,.43c0,.26-.08.6,0,.32a18.59,18.59,0,0,1-.91,3.67,14.88,14.88,0,0,1-7,8,21.54,21.54,0,0,1-9.3,2.16,1.52,1.52,0,0,0-1.5,1.5q.63,15.86,1.94,31.69c.64,7.86,1.39,15.72,2.56,23.52,1,6.69,2.06,14.15,6.64,19.44,3.38,3.92,9.19,6,14.29,4.62a1.51,1.51,0,0,0-.8-2.9,7.36,7.36,0,0,1-1.06.21c.43-.06-.61.05-.8.06-.51,0-1,0-1.53,0a11.49,11.49,0,0,1-7.06-3.13c-4.73-4.54-5.69-11.94-6.64-18.11-2.26-14.56-3.16-29.37-4-44.06-.21-3.78-.41-7.55-.56-11.33l-1.5,1.5c5.67-.2,11.5-1.81,15.45-6.12a18.7,18.7,0,0,0,4.55-9.42,14.23,14.23,0,0,0,.27-2.43,1.5,1.5,0,0,0-3,0Z"/><path d="M306.62,460.48l-.22,0-.25,0c-.3,0,.34.05.19,0l-.19,0a18.73,18.73,0,0,1-1.95-.4c-.39-.1-.78-.21-1.16-.34l-.61-.23-.18-.07c.2.08.24.1.14.05l-.3-.14a8.32,8.32,0,0,1-1.17-.65l-.23-.17c-.13-.09-.1-.07.08.07l-.15-.12a5,5,0,0,1-.47-.45A1.5,1.5,0,0,0,298,460.1a11.42,11.42,0,0,0,5.3,2.81,18.37,18.37,0,0,0,3.3.57,1.51,1.51,0,0,0,1.5-1.5,1.54,1.54,0,0,0-1.5-1.5Z"/><path d="M670.32,434.76c4.38,7.92,13.26,14.35,22.55,13.71a27.66,27.66,0,0,0,13.48-5.07c1.59-1.07.09-3.67-1.51-2.59-5.9,4-12.94,6.18-19.81,3.43a25.93,25.93,0,0,1-10.45-8.48,24.3,24.3,0,0,1-1.67-2.51c-.94-1.69-3.53-.18-2.59,1.51Z"/><path d="M689,446.78c.59,11,.75,22,.58,32.91a234.72,234.72,0,0,1-1.47,25.15,58.31,58.31,0,0,1-2.59,12.26,19,19,0,0,1-5.12,8.27,11.45,11.45,0,0,1-2.68,1.65,10.06,10.06,0,0,1-1.45.42l-.53.1-.48.05a9.89,9.89,0,0,1-1.09,0l-.41,0c-.49,0,.21,0-.1,0a5.59,5.59,0,0,1-.71-.15c-1.85-.58-2.64,2.32-.8,2.89a10.84,10.84,0,0,0,8.12-1.2c6.59-3.68,8.93-12.25,10.1-19.13a181.37,181.37,0,0,0,2.1-25.29c.24-8.22.2-16.46,0-24.69-.1-4.4-.23-8.81-.47-13.21-.1-1.92-3.1-1.93-3,0Z"/><path d="M676.73,536.14a67.3,67.3,0,0,1,7.16,12.39,83.94,83.94,0,0,1,8,32,75.46,75.46,0,0,1-2,21c-1.71,7-3.45,14-4.77,21.15a131.81,131.81,0,0,0-2.23,17.58,40,40,0,0,0,1,12.85c.85,2.93,2.46,5.88,5.27,7.32,3.09,1.58,6.72,1.13,9.9.08a34,34,0,0,0,3.21-1.28c1.76-.79.23-3.37-1.52-2.59-2.94,1.32-6.47,2.44-9.45,1.46a5.84,5.84,0,0,1-2.66-1.92,11.52,11.52,0,0,1-1.77-3.58c-1.2-3.91-1.21-8.15-1-12.19A125,125,0,0,1,688,623.29c1.28-6.9,2.93-13.72,4.63-20.53A78.66,78.66,0,0,0,695,582a87,87,0,0,0-7.35-32.55,74.24,74.24,0,0,0-8.14-14.66l-.14-.19c-1.16-1.52-3.77,0-2.59,1.51Z"/><path d="M321.46,554.11a40.36,40.36,0,0,0,.58,10c1.42,9.89,4.62,19.51,8.46,28.7A219,219,0,0,0,340.84,614,62.09,62.09,0,0,1,348,634.13a49.53,49.53,0,0,1-4.62,29.77,52.09,52.09,0,0,1-8.73,12.55l-.18.17c-1.41,1.33.72,3.44,2.12,2.12a45.19,45.19,0,0,0,7.91-10.58,53,53,0,0,0,7.06-28.33,57.72,57.72,0,0,0-4.39-19.54,111.71,111.71,0,0,0-5.41-10.84q-2.91-5.38-5.51-10.93c-4.76-10.17-8.76-20.88-10.8-31.95a66.25,66.25,0,0,1-1-12.3.78.78,0,0,1,0-.16c.22-1.92-2.78-1.9-3,0Z"/><path d="M360.35,618.48c1.56,6.57,2.89,13.2,4.1,19.85,1,5.69,2,11.41,2.64,17.16a96.55,96.55,0,0,1,.87,15.57,23,23,0,0,1-.72,5.36,16.24,16.24,0,0,1-2.92,5.31c-3.92,5.07-9.24,9.11-14.49,12.7a163.87,163.87,0,0,1-44.34,21c-7.77,2.38-15.42,5.16-23.05,7.94-11,4-22,8.18-33,12.41q-18.28,7.08-36.45,14.44-17.12,6.93-34.09,14.23c-8.47,3.67-16.95,7.4-25.2,11.56-4.58,2.31-9.05,4.83-13.61,7.16-8.21,4.21-16.5,8.25-24.81,12.26q-6.8,3.27-13.62,6.51c-1.74.83-.22,3.42,1.51,2.59,16.17-7.67,32.41-15.32,48.13-23.88,7.25-3.95,14.83-7.31,22.37-10.65,10.87-4.81,21.83-9.41,32.82-13.91q18.3-7.51,36.73-14.69,17.18-6.69,34.45-13.1c8.48-3.13,17-6.23,25.57-9,5.88-1.91,11.76-3.73,17.49-6.07a174.57,174.57,0,0,0,23.14-11.45,103.88,103.88,0,0,0,17.91-12.95c3.51-3.26,7.24-7.22,8.44-12,1.08-4.29.88-8.93.61-13.3-.36-5.8-1.13-11.58-2-17.32-1.42-9.07-3.19-18.09-5.23-27-.12-.49-.23-1-.35-1.48-.44-1.88-3.34-1.09-2.89.79Z"/><path d="M641.08,612.35c-1.32,5.12-2.38,10.3-3.37,15.49a227.69,227.69,0,0,0-4.11,32.91,97.66,97.66,0,0,0,.52,16.31,38.45,38.45,0,0,0,3.76,13.29,18.35,18.35,0,0,0,7.07,7.18c2.71,1.64,5.52,3.13,8.34,4.59,8.82,4.58,17.82,8.83,26.83,13,11.9,5.55,23.87,11,35.87,16.3q19.9,8.89,39.9,17.57,19.4,8.46,38.85,16.78,16.43,7,32.88,14c18,7.58,36.15,14.68,53.64,23.28,4,2,8,4,11.9,6.22,1.69.94,3.21-1.65,1.52-2.59-16.7-9.31-34.48-16.54-52.1-23.87q-18.58-7.74-37.1-15.66-18.75-8-37.45-16.1-20-8.67-40-17.49-18.64-8.26-37.19-16.73c-9.92-4.56-19.82-9.16-29.6-14-3.49-1.73-7-3.5-10.4-5.36a43.84,43.84,0,0,1-6.91-4.17c-2.9-2.44-4.5-6-5.53-9.7a59.37,59.37,0,0,1-1.9-14.66c-.3-11.17,1-22.39,2.85-33.4,1.19-7.15,2.6-14.27,4.33-21.31.08-.35.17-.7.26-1.06.48-1.87-2.41-2.67-2.89-.8Z"/><path d="M331.46,706a93.72,93.72,0,0,0,2.33,19.66,140.71,140.71,0,0,0,17.45,44.43,143.17,143.17,0,0,0,19.2,25c8.66,9,18.58,16.83,28.47,24.47a369.27,369.27,0,0,0,46.93,31.34c4.45,2.45,9,4.78,13.59,6.89a56.29,56.29,0,0,0,6.36,2.68l.26.09a1.51,1.51,0,0,0,1.84-1c.08-.25-.25.41-.06.16s.2-.35.3-.51c.21-.35-.07.06.05-.08l.4-.45a11.7,11.7,0,0,1,1-1,4.24,4.24,0,0,1,.53-.41c.29-.2.58-.41.88-.6a25.19,25.19,0,0,1,2.26-1.28,43.66,43.66,0,0,1,6.61-2.61c14-4.44,29.44-5.55,44.07-4.22a69.58,69.58,0,0,1,9,1.28V847c-5.81,1.79-6.82,9-6,14.12,1.29,8,6.13,14.85,9.24,22.2a62.09,62.09,0,0,1,4.86,17,30,30,0,0,1,.19,5.1c0,.24,0,.49-.05.73s-.09.65,0,.22c0,.14,0,.29-.07.43-.43,1.88,2.47,2.68,2.89.8a19.18,19.18,0,0,0,.23-5.24,55,55,0,0,0-3.15-14.64,95.22,95.22,0,0,0-4.56-10.84c-1.87-3.8-4-7.44-5.36-11.45s-2.42-9-.46-12.62a5.24,5.24,0,0,1,1-1.45c.2-.21.41-.4.63-.6s.34-.26.07-.06l.29-.21c.32-.2.64-.37,1-.55s-.37.12.07,0a1.51,1.51,0,0,0,0-2.89,70.6,70.6,0,0,0-8-1.22,120.86,120.86,0,0,0-20.31-.41,114.09,114.09,0,0,0-25,4.18c-4.18,1.23-8.55,2.78-12.07,5.43-1.27,1-2.79,2.2-3.29,3.79l1.85-1.05c-.36-.12-.7-.26-1.05-.39l-1.29-.52-.37-.16c-.37-.15,0,0-.14-.05l-1-.42c-4-1.73-7.87-3.65-11.71-5.68a339.14,339.14,0,0,1-43.41-27.81,345.13,345.13,0,0,1-29.14-23.56,141.38,141.38,0,0,1-21.14-24.54,138.82,138.82,0,0,1-20-45.18,113.59,113.59,0,0,1-3.22-23c0-.11,0-.22,0-.33a1.5,1.5,0,0,0-3,0Z"/><path d="M652.39,701.4A63.3,63.3,0,0,1,660,719.68a52.85,52.85,0,0,1,1.62,18,41.59,41.59,0,0,1-6.06,17.79,238.48,238.48,0,0,1-17.26,24.09c-7.51,9.54-15.3,18.87-23.11,28.17-7.46,8.87-15,17.69-22.35,26.64-6.52,7.93-13,16-18.45,24.66a134.84,134.84,0,0,0-8.35,15.53c-1.79,3.89-3.41,7.87-5.46,11.64a39.88,39.88,0,0,1-7.91,10.34,141.91,141.91,0,0,1-14,10.81c-5.19,3.74-10.4,7.47-15.2,11.71a54.63,54.63,0,0,0-11.26,13.62c-5.53,9.5-9.66,19.92-13.12,30.34-.21.63-.42,1.27-.62,1.91-.57,1.85,2.33,2.64,2.9.8a172.9,172.9,0,0,1,9.49-24.07c2.66-5.5,5.59-11,9.72-15.59a96,96,0,0,1,14.28-12.26c5-3.72,10.2-7.25,15.11-11.11A49.92,49.92,0,0,0,560.58,892a67.11,67.11,0,0,0,5.79-10.84c2.09-4.65,4.17-9.29,6.62-13.76,5.26-9.65,11.85-18.41,18.75-26.92,7.1-8.77,14.42-17.36,21.69-26,7.93-9.41,15.84-18.83,23.54-28.44,6.59-8.22,13.13-16.56,18.89-25.39a55.14,55.14,0,0,0,7.24-14.6,47.73,47.73,0,0,0,1.33-19.25,69.66,69.66,0,0,0-8.67-25.65c-.25-.43-.51-.87-.78-1.3-1-1.62-3.64-.11-2.59,1.52Z"/><path d="M643,784c-3.26,3.11-6.41,6.33-9.52,9.58-7,7.3-13.79,14.84-20.17,22.71-6.91,8.52-13.58,17.46-18.63,27.23a54.72,54.72,0,0,0-5,12.75,47.21,47.21,0,0,0-.91,7.87,103.13,103.13,0,0,0-.07,11.12c.22,4.06.65,8.33,2.2,12.13.58,1.41,1.4,3.27,2.8,4.08a1.48,1.48,0,0,0,.13.08l.36-2.74c-4.42.82-8.81,1.82-13.16,2.94-3.39.88-6.76,1.83-10,3-2.76,1-5.66,2.12-7.89,4.11-2.64,2.36-4.19,5.7-5.5,8.92-1,2.4-1.75,5.58-3.35,7.51a1.86,1.86,0,0,1-.57.48c-.36.16.15,0-.21,0l-.53,0c-.79,0-1.59.05-2.39.09a45.51,45.51,0,0,0-7.54.89c-9.7,2-18.11,7.82-25,14.71a1.5,1.5,0,0,0,2.12,2.12c6.26-6.22,13.69-11.47,22.35-13.63a39,39,0,0,1,7.37-1.06c1.62-.08,3.73.19,5.22-.53,2.2-1.08,3.14-3.92,4-6,1.22-3.1,2.3-6.28,4.17-9.06a14,14,0,0,1,6.76-5,83.22,83.22,0,0,1,9.59-3.13c5.11-1.39,10.28-2.59,15.49-3.56a1.51,1.51,0,0,0,.35-2.74l-.13-.08c.37.27.14.13-.07-.1a3.07,3.07,0,0,0-.25-.26c-.29-.31.14.23-.1-.13s-.43-.67-.62-1A15.46,15.46,0,0,1,593,884a36.78,36.78,0,0,1-1-6.08,81.94,81.94,0,0,1-.29-9.53,66.59,66.59,0,0,1,.63-9.61,44.71,44.71,0,0,1,4.1-11.91c4.63-9.52,10.94-18.23,17.52-26.49,6.32-8,13.08-15.57,20.08-22.93,3.59-3.79,7.39-7.37,11-11.14l.16-.15c1.4-1.34-.72-3.46-2.12-2.13Z"/><path d="M681.15,721.5A46.18,46.18,0,0,1,687,733.87a47.39,47.39,0,0,1,.16,29.69,52,52,0,0,1-10.59,17.72c-2.77,3.12-5.82,6-8.73,9s-5.55,5.68-8.29,8.55c-8.85,9.23-17.58,18.6-25.82,28.39-4.86,5.78-9.93,11.75-13.59,18.4-.28.5-.54,1-.79,1.53-.82,1.73,1.76,3.25,2.59,1.51,3-6.29,7.76-11.88,12.16-17.22,8-9.67,16.52-18.89,25.16-28,5.67-6,11.45-11.78,17.19-17.66a58.53,58.53,0,0,0,12.25-17.92,49.39,49.39,0,0,0,2-31.9,51.2,51.2,0,0,0-6.86-15.77l-.15-.22c-1.1-1.57-3.71-.07-2.59,1.51Z"/><path d="M299.48,723.29a113,113,0,0,0,4.39,21.76,169.58,169.58,0,0,0,22.5,48.39A165.66,165.66,0,0,0,348.63,820c10.11,9.75,21.59,17.85,33,25.92,17.15,12.09,34.74,23.68,53.15,33.78,4.6,2.52,9.26,5,14,7.18a55.19,55.19,0,0,0,6.26,2.74l.24.09c1.82.67,2.6-2.23.8-2.89l-1-.4-.57-.23c-.31-.13.37.16,0,0l-.43-.18-1.77-.78c-4.06-1.83-8-3.84-12-5.92A499.54,499.54,0,0,1,392,849.41q-8.78-6-17.39-12.25c-5.73-4.15-11.45-8.31-16.82-12.93a162.54,162.54,0,0,1-24.25-25.9,167,167,0,0,1-25.3-49.26,153.09,153.09,0,0,1-4.43-17.25q-.54-2.77-.95-5.57c0-.18-.05-.35-.07-.53-.06-.42,0,.33,0-.08s-.08-.59-.11-.89-.09-.74-.13-1.11l0-.35c-.15-1.91-3.15-1.93-3,0Z"/><path d="M465,859.53a321.46,321.46,0,0,0,7.12,34.62A187,187,0,0,0,481,920.89c4,9.3,8.27,18.44,11.41,28.08a79.27,79.27,0,0,1,2.73,10.24,22.54,22.54,0,0,1,.47,6.13c-.17,1.92,2.83,1.91,3,0,.4-4.7-1-9.67-2.36-14.12a213.77,213.77,0,0,0-10.52-27.07c-7.53-16.71-12.09-34.46-15.56-52.41-.83-4.32-1.63-8.66-2.26-13-.27-1.9-3.16-1.1-2.89.8Z"/><path d="M493.62,871a18.62,18.62,0,0,0-8.7,7.34c-3.75,6.1-2.62,15.28,2.48,20.34,4,3.9,9.84,4,14.86,2.45a11,11,0,0,0,6.18-4.52,18,18,0,0,0-5.17-24.32c-2.87-1.9-6.85-3-10-1.14a1.5,1.5,0,0,0,1.52,2.59c2-1.19,4.63-.29,6.49.83a14.26,14.26,0,0,1,6,7.63,15,15,0,0,1-.76,11.8,9,9,0,0,1-2.66,3.21,6,6,0,0,1-2,.91c-3.73,1.25-8.28,1.68-11.57-.9-2.49-1.95-3.74-5.17-4.32-8.2a12.85,12.85,0,0,1,1.08-8.32,14.93,14.93,0,0,1,4.71-5.24,20.62,20.62,0,0,1,2.06-1.26l.69-.33c.34-.17,0,0-.07,0C496.19,873.14,495.42,870.23,493.62,871Z"/><path d="M440.91,575.18a21.32,21.32,0,0,0,5-.47,48.86,48.86,0,0,0,12.88-4.52c10-5,18.27-13.44,28.93-17.25a27,27,0,0,1,8.5-1.52c6.89-.25,13.77-.62,20.66-.4a40.81,40.81,0,0,1,7.73.63,37.77,37.77,0,0,1,5.66,1.84c4.39,1.76,8.61,3.94,12.84,6a160.08,160.08,0,0,0,15.07,6.91c3.92,1.48,8.32,2.85,12.54,2L569.3,566c-4.39,4.15-9,8-13.78,11.79a161,161,0,0,1-13.08,9.42,53.17,53.17,0,0,1-21.39,9.17c-2.59.6-5.21,1.15-7.84,1.55a61.55,61.55,0,0,1-14.29.39c-3.1-.25-6.18-.64-9.26-1.07-3.51-.5-7.06-.91-10.51-1.75a63.34,63.34,0,0,1-17.21-7.33,107.44,107.44,0,0,1-19.66-15.22l-.3-.31c-1.35-1.39-3.47.73-2.13,2.12a99.34,99.34,0,0,0,16.9,13.7A76.58,76.58,0,0,0,473.59,597c6.62,2.3,13.73,3,20.65,3.86a74.72,74.72,0,0,0,15.53.51,108.23,108.23,0,0,0,16.45-3.13,53.4,53.4,0,0,0,13.84-6,138.45,138.45,0,0,0,13.79-9.34,178.65,178.65,0,0,0,17.3-14.47l.27-.26c1.16-1.09-.07-2.77-1.46-2.5-3.37.65-7.22-.67-10.41-1.84a132,132,0,0,1-13.28-6c-4.34-2.16-8.66-4.39-13.12-6.3a34.92,34.92,0,0,0-11.51-3.2,195,195,0,0,0-20.94,0c-3.84.15-7.72.11-11.46,1.09-9.95,2.61-17.94,9.9-26.47,15.2a53.16,53.16,0,0,1-15.95,6.93,19.67,19.67,0,0,1-5.91.71C439,572.05,439,575.05,440.91,575.18Z"/><path d="M440.52,575.13c7.14,1.16,14.59,1.09,21.79.88,12.68-.37,25.29-2,37.95-2.7,1.54-.08,3.08-.17,4.62-.17a1.5,1.5,0,0,0,0-3c-5.39,0-10.81.53-16.17,1-13.53,1.06-27,2.54-40.59,1.76-1.77-.1-3.53-.23-5.29-.42l-.81-.1c-.25,0-.63-.08-.22,0l-.49-.08c-1.89-.3-2.7,2.59-.79,2.9Z"/><path d="M570,565.6a65.92,65.92,0,0,1-18.78,3.34c-5.65.24-11.18-.66-16.81-.93a86.7,86.7,0,0,0-12.48.26,44.78,44.78,0,0,0-5.54.79c-1.89.42-1.09,3.31.79,2.89a64.32,64.32,0,0,1,16.18-1c5.6.2,11.13,1.15,16.75,1a76.52,76.52,0,0,0,14-1.7,57.53,57.53,0,0,0,6.7-1.79c1.81-.63,1-3.53-.8-2.89Z"/></svg>