<svg xmlns="http://www.w3.org/2000/svg" viewBox="0 0 1000 1000"><defs><style>.cls-1{fill:#02a5d9;}</style></defs><g id="Layer_2" data-name="Layer 2"><g id="Layer_1-2" data-name="Layer 1"><circle class="cls-1" cx="500" cy="500" r="500"/><path d="M363.34,833.37c-1.07,2-1.07,4.68-.79,6.86a23.89,23.89,0,0,0,2.5,7.71c1,1.92,2.17,4.13,4.05,5.32s4,.19,5-1.68a7.4,7.4,0,0,0,.4-4.49A26,26,0,0,0,372,839c-1.16-2.37-2.78-5-5.12-6.42-1.37-.81-3.09-.81-3.66.92-.29.92,1.14,1.31,1.44.4s1.76.12,2.19.49a16.24,16.24,0,0,1,3.94,5.51,24.58,24.58,0,0,1,2.19,7,6.9,6.9,0,0,1-.12,3.8c-.66,1.32-1.84,2.12-3.23,1.12-1.57-1.14-2.57-3.13-3.42-4.82a22.82,22.82,0,0,1-2.19-6.67,13.25,13.25,0,0,1,.08-4.7,10.34,10.34,0,0,1,.35-1.24.93.93,0,0,1,.13-.31C365.07,833.27,363.79,832.52,363.34,833.37Z"/><path d="M437,956.53a15.6,15.6,0,0,0-5,9.37,12.54,12.54,0,0,0,2.45,8.88,11.74,11.74,0,0,0,7.45,5.13c4.33.67,8.77-1.58,11.85-4.52,1.84-1.75,2.56-4.51,2.64-7a14.06,14.06,0,0,0-3.3-9.3,13.67,13.67,0,0,0-8.69-4.8c-2.58-.34-5.63.12-7.41,2.22-1,1.21.73,3,1.77,1.76,1.2-1.42,3.16-1.7,4.94-1.57a11,11,0,0,1,6.43,2.89,11.56,11.56,0,0,1,3.73,7.4,8.94,8.94,0,0,1-1.46,6.19,11.88,11.88,0,0,1-3.45,2.67,11.09,11.09,0,0,1-5.38,1.68c-5.22.05-9.34-5.7-9.17-10.6a12.81,12.81,0,0,1,4.36-8.66C440,957.22,438.2,955.47,437,956.53Z"/><path d="M78.24,766.25c32.71-14.89,66.44-27,100-39.76,10.79-4.11,21.67-8.29,31.86-13.77,5-2.67,9.67-5.8,14.74-8.32a220.56,220.56,0,0,1,20.81-8.9c12.51-4.7,25.28-8.64,38-12.72,3.19-1,6.65-1.88,9.63-3.43s5.74-4.3,8.25-6.65c8.63-8.06,16.65-16.8,24.63-25.5q4.91-5.34,9.75-10.74c.92-1,1.83-2.05,2.76-3.06a27,27,0,0,1,1.91-1.95c.3-.27,1.55-.93,1.69-1.27.23-.6-.2.26-.21-.38,0-.11-.35-.56-.2-.65-.22.13.22,2.87.24,3.14.2,2.63.41,5.26.61,7.89q1,13.17,2.05,26.36,2.53,32.81,5.12,65.63.93,11.83,1.89,23.68c.16,2,.31,4.07.5,6.1a47.47,47.47,0,0,0,5.17,16.47c3.09,6.22,7.16,12.51,12.6,16.94,2.61,2.12,5.67,3.17,8.54,4.88a27.91,27.91,0,0,1,7.52,6.42c.28.34.81,1.47,1.2,1.66s.37-1.23-.08-.42c-.71,1.26-.58,3.78-.65,5.17a34.3,34.3,0,0,0,4.3,19.11c2.5,4.3,6.2,7.84,9.63,11.4,4.12,4.26,8.28,8.48,12.4,12.75,10.63,11,21.05,22.33,30.61,34.33a212.78,212.78,0,0,1,13.92,19.44,197.1,197.1,0,0,1,11.47,22.3c6.25,13.55,12.21,27.25,17.72,41.12.76,1.93,1.52,3.86,2.25,5.8a1.51,1.51,0,0,0,2.89,0,303.79,303.79,0,0,1,33.62-67.6c11.41-17.05,26.12-31.18,40.83-45.36,9.22-8.89,19.49-17.29,27.65-27.22,3.92-4.77,6-10.45,8-16.22a69.57,69.57,0,0,1,6-13.63c2.32-3.73,5.65-6.54,7.41-10.64,3.59-8.36,2.87-18.16,3.05-27a139.1,139.1,0,0,1,1.11-15.26c3.41-26.1,8.31-52,12.63-78,1.69-10.2,3.5-20.41,4.78-30.68,1.31-10.44-4.05-20.45-8.66-29.53-.69-1.36-1.39-2.72-2.12-4.06l-1.69,2.21A112.92,112.92,0,0,1,654.16,633c10.31,8.18,17.88,19.43,28.52,27.18,5.32,3.88,12.19,6.55,18.88,6.22l-1.44-1.1a355.78,355.78,0,0,1,5.2,43c1.48,24-1.27,47.66-5.7,71.24-1.06,5.66-2.18,11.34-3.59,16.93l2.21-.9c-10.4-4.4-22-7.71-33.33-8a34.59,34.59,0,0,0-10.81,1.26c-4,1.23-7,3.77-10.34,6.16-5.68,4.07-11.63,7.12-17.81,10.31-6.82,3.52-14.07,8.2-18,15a1.5,1.5,0,0,0,2.58,1.52c6.62-11.36,20.85-14.83,31.17-21.74,3.55-2.38,6.84-5.51,10.69-7.39a24.92,24.92,0,0,1,10.08-2.14c7.35-.23,14.72,1.29,21.76,3.28,3,.85,6,1.82,8.94,2.89.92.33,1.83.68,2.73,1,.22.08,1.58.64.86.34a1.52,1.52,0,0,0,2.2-.9,373.42,373.42,0,0,0,8.36-48.47c2.62-22.73,1.32-45.38-1.73-68-.74-5.45-1.53-10.9-2.54-16.31a1.52,1.52,0,0,0-1.45-1.11c-12.18.61-21-8.39-28.75-16.5-5.53-5.82-11.07-11.79-17.44-16.72a115.59,115.59,0,0,0-19-11.75,118.21,118.21,0,0,0-11.21-5c-1.29-.49-2.27,1.14-1.69,2.2,2.39,4.35,4.57,8.84,6.53,13.4,2.06,4.83,4.57,10.37,4.17,15.74-.66,8.69-2.47,17.4-3.88,26-4.36,26.53-9.19,53-13,79.63-.57,3.94-1.15,7.88-1.51,11.85-.79,8.66-.1,17.4-1,26-.47,4.4-1.49,8.93-4.08,12.61-2.73,3.88-5.73,7-7.79,11.42-3.42,7.3-4.9,15.74-9.43,22.49a63.44,63.44,0,0,1-8.43,9.44c-4.91,4.88-10,9.59-15,14.36-14.25,13.57-29.15,27.09-41,42.86-17,22.65-29.84,49-39.6,75.59l-.54,1.5h2.89c-2.83-7.53-5.93-15-9.08-22.37-6.75-15.92-13.29-32.48-22.44-47.2-15.55-25-36.83-46-57.22-67.08-3.72-3.85-7.78-7.66-10.25-12.46a32.22,32.22,0,0,1-2.94-19.11c.15-1.07.61-2.17.23-3.2a12.47,12.47,0,0,0-2.53-3.38,31.92,31.92,0,0,0-7.43-6.07c-3.1-1.85-6.32-2.92-9-5.36a50.85,50.85,0,0,1-15.92-31.92c-.55-6.45-1.05-12.91-1.56-19.37q-2.58-32.47-5.09-64.94c-1.18-15.27-2.3-30.54-3.55-45.8-.08-1-.05-2-1-2.73-3-2.27-7,3.28-8.7,5.16-7,7.72-13.95,15.42-21.1,23-4.14,4.37-8.32,8.71-12.66,12.9-2.81,2.71-5.71,5.79-9.09,7.81-2.78,1.67-6.25,2.44-9.31,3.43-5.81,1.86-11.64,3.66-17.43,5.56-14,4.56-28,9.43-41.29,15.9-5.21,2.55-10,5.69-15.1,8.47-4.71,2.58-9.6,4.82-14.53,6.93-29.61,12.68-60.39,22.52-90.15,34.87q-14,5.84-27.88,12.12c-1.75.8-.23,3.39,1.51,2.59Z"/><path d="M291.85,685.07c-2.2,4-4.18,8.16-6.1,12.32a256.39,256.39,0,0,0-11.58,29.31c-3.56,11-6.37,22.59-6.74,34.24a170.43,170.43,0,0,0,1,20.44c.48,5.44,1.1,10.87,2,16.26a68.25,68.25,0,0,0,2.94,13l.05.15a1.51,1.51,0,0,0,2.47.65,4.26,4.26,0,0,1,.7-.56,23.19,23.19,0,0,1,2.47-1.54,18.82,18.82,0,0,1,8.61-2.32,16.29,16.29,0,0,1,8.63,2.35,53.53,53.53,0,0,1,6.16,4.66c4.06,3.33,8.5,6.61,14,6.6,3.47,0,6.56-1.34,9.6-2.89a137,137,0,0,1,12.84-5.8c7.66-2.93,16.53-5.63,24.76-3.7,1.84.44,2.63-2.41.78-2.84-7.42-1.74-15.26-.07-22.36,2.28a116.26,116.26,0,0,0-12.69,5.16c-3.6,1.69-7.17,4.12-11.17,4.71-5.51.83-10-2.57-14-5.87a56.68,56.68,0,0,0-6.45-4.86,19.17,19.17,0,0,0-9-2.73,21.71,21.71,0,0,0-15,5.26l2.47.65a53.38,53.38,0,0,1-2.45-10,230.67,230.67,0,0,1-3.46-35c-.33-11.38,2.18-22.76,5.41-33.6a240.43,240.43,0,0,1,11.31-29.93c2.25-5,4.73-9.86,7.19-14.76l.12-.21c.91-1.66-1.64-3.15-2.55-1.48Z"/><path d="M333.82,833.11c1.67,3.6,3.32,7.22,5,10.83Q345,857.43,351,871q7.81,17.52,15.37,35.13c4.9,11.47,9.72,23,14.25,34.6,2.55,6.54,4.93,13.15,7.53,19.67q4.94,12.42,10.48,24.58c.85,1.88,1.71,3.75,2.58,5.63.8,1.72,3.35.22,2.55-1.49q-5.52-11.87-10.52-24c-3-7.23-5.68-14.55-8.48-21.85-4.4-11.48-9.11-22.84-13.92-34.15q-7.56-17.83-15.46-35.54Q349,859.3,342.55,845.11q-2.06-4.53-4.14-9.06c-.65-1.4-1.22-2.88-2-4.24l-.09-.19c-.79-1.72-3.34-.22-2.54,1.49Z"/><path d="M651.14,803.65c0-.28.14-.91-.08-.39-.1.25-.18.51-.28.77s-.13.31-.19.47c-.14.34.13-.3,0,0l-.15.34c-.21.49-.42,1-.64,1.45-1.34,3-2.76,5.91-4.18,8.85-4.7,9.68-9.55,19.28-14.46,28.85q-9.45,18.43-19.23,36.7c-6.56,12.22-13.23,24.38-20.16,36.4-5.47,9.48-11,19-17.24,28-.58.83-1.15,1.65-1.74,2.46-1.11,1.55,1.44,3,2.54,1.49,6.12-8.48,11.47-17.54,16.73-26.56,7-11.94,13.66-24.05,20.23-36.22q10-18.62,19.7-37.42c5.15-10,10.24-20,15.18-30.15,1.57-3.22,3.14-6.44,4.63-9.7a30.5,30.5,0,0,0,2.14-5,2.24,2.24,0,0,0,0-1.06c-.36-1.87-3.2-1.08-2.85.78Z"/><path d="M702,668.85a84.45,84.45,0,0,1,10.66.6,127.84,127.84,0,0,1,25.16,5.29,105.52,105.52,0,0,1,30.82,15.44c3.38,2.49,6.47,5.32,9.87,7.76,2.85,2.06,5.82,3.95,8.84,5.75,15.36,9.16,31.94,16.29,48.47,23,17.36,7.08,35,13.53,52.63,19.8,11.64,4.13,23.45,7.93,34.94,12.48l1.07.43c.11,0,.7.29.25.1l.47.2c1.75.77,3.28-1.82,1.51-2.59-3.92-1.71-8-3.12-12-4.55-6.54-2.34-13.1-4.62-19.65-6.93-17.41-6.13-34.78-12.41-51.93-19.23-17-6.75-33.9-13.9-49.85-22.82a110.92,110.92,0,0,1-17.35-11.48,106.76,106.76,0,0,0-30.41-17.89,126.82,126.82,0,0,0-27.35-7.1,108.82,108.82,0,0,0-15.39-1.3H702c-1.93,0-1.93,3,0,3Z"/><path d="M306.14,443c2.16,24.5,5.81,48.81,13.26,72.31a492.23,492.23,0,0,0,24.09,60.27c7.9,16.86,16.39,33.59,26.34,49.35a95.67,95.67,0,0,0,13.84,17.76A137.86,137.86,0,0,0,407.74,661a195.13,195.13,0,0,0,25.82,13.43c5.75,2.46,11.69,4.93,17.91,5.85,15.18,2.24,31.2.53,46.23-2,18.71-3.14,37.74-8.52,54.11-18.35,8.61-5.17,16.35-11.84,23.55-18.82a239.43,239.43,0,0,0,22.23-25c11.66-15,22.48-31.18,30.13-48.61,3.92-9,7.27-18.14,11.26-27.07q5.28-11.82,11-23.46c.61-1.25,1.22-2.5,1.84-3.74h-2.59a24.38,24.38,0,0,0,9.78,7.91c7.26,2.94,13.26-2.31,16.92-8.27,3.9-6.36,4.47-13.8,6.91-20.7,2.14-6.06,5-11.88,7.41-17.82,2.67-6.51,5.34-13.25,6.47-20.23a52.57,52.57,0,0,0,.36-9.13c0-3.58.06-7.16.16-10.74.39-13.53,1.88-27.58-2.15-40.74-.93-3-2.44-6.33-5.59-7.51s-6.64.09-9.15,2.07c-3.9,3.07-6.59,8-8.18,12.61-.63,1.83,2.27,2.61,2.89.79a26.72,26.72,0,0,1,5.84-9.87c1.76-1.81,4.43-3.6,7.1-2.94s3.67,3.83,4.33,6.12c3.45,12,2.38,24.44,2,36.72-.1,3.45-.21,6.91-.24,10.37,0,2.83.21,5.7.06,8.52-.31,6.07-2.51,12.09-4.63,17.72-2.3,6.1-5,12-7.5,18.05-2.2,5.22-3.47,10.51-5,16a31.35,31.35,0,0,1-5.37,11.59c-2.25,2.8-5.27,5.77-9.15,5.3-2.89-.35-5.52-2.17-7.63-4.08a29.07,29.07,0,0,1-2.35-2.36c-.18-.21-1.13-1.38-.74-.86a1.52,1.52,0,0,0-2.59,0c-6.78,13.56-13.16,27.36-18.93,41.38-3.15,7.67-6,15.32-9.9,22.67a247.8,247.8,0,0,1-14.84,24.42c-12.14,17.73-26.25,34.58-42.89,48.26-14.84,12.2-32.48,19.37-51,23.89-16.48,4-33.74,6.31-50.72,5.7A56.81,56.81,0,0,1,445,675.6a154.31,154.31,0,0,1-23-10C405.4,657,388.15,646,377.13,630.46c-9.49-13.4-17.17-28.2-24.49-42.86a557,557,0,0,1-25.43-58.69c-3.53-9.74-6.74-19.61-9.28-29.65a311.78,311.78,0,0,1-7-39c-.69-5.77-1.27-11.55-1.78-17.34-.17-1.91-3.17-1.93-3,0Z"/><path d="M385.3,205.29c-.37,4.25-.85,8.48-1.34,12.71a62.38,62.38,0,0,0-.59,7.71,17.4,17.4,0,0,0,1.08,6.28,4.34,4.34,0,0,0,7.78.47c1.47-2.5,2.82-5.07,4.37-7.53a93.51,93.51,0,0,1,10.63-14.16c4-4.27,9.28-9.2,15.45-9.46,1.93-.08,1.94-3.08,0-3-5.49.23-10.31,3.49-14.26,7.06a77.23,77.23,0,0,0-11.55,13.7,120,120,0,0,0-6.61,10.72c-.41.74-.78,1.88-1.78,1.92-1.83.06-2-3.68-2.07-4.88a45.31,45.31,0,0,1,.46-8c.51-4.52,1-9,1.43-13.57.17-1.92-2.83-1.91-3,0Z"/><path d="M386.8,203.79c-9.67,1.18-19.46,5.54-27.21,11.29a52.24,52.24,0,0,0-16.73,20.61,70.81,70.81,0,0,0-4.76,17.15q-1.71,10-2.81,20.09c-1,9.13-1.3,18.31-2.28,27.44a56.81,56.81,0,0,1-1.73,9.51,63.85,63.85,0,0,1-3.89,9.56c-4.55,9.75-9,19.57-12.81,29.63-3.94,10.34-7.71,21.28-8.44,32.41-.33,5.08-.09,10.24-.09,15.34v43a1.5,1.5,0,0,0,3,0,109.34,109.34,0,0,0-3.1-27.69,64.3,64.3,0,0,0-3.17-9.7c-1.38-3.24-3.32-6-5-9-4.13-7.22-4.85-15.64-4.39-23.78.2-3.44.6-6.86,1-10.28a37.15,37.15,0,0,0,.36-7.95c-.55-5-3.09-9.6-5.08-14.12a66.71,66.71,0,0,1-5.84-21.2c-.68-8-.08-16.24.4-24.25s1.19-16.18,2.24-24.22a134.34,134.34,0,0,1,3.69-19.72,84.89,84.89,0,0,1,5.18-12.71c2.77-5.86,5.75-11.62,8.87-17.29,6.46-11.74,13.4-24,22.73-33.76,5.18-5.4,10.83-10.4,16.13-15.69,6.2-6.2,12.44-12.39,19.16-18.05A99.56,99.56,0,0,1,382,137.24c6.19-3.08,12.41-6.07,18.75-8.84,16.21-7.06,33.32-12.85,50.95-15,8.93-1.08,17.76-.74,26.73-.45,8.43.28,16.86.5,25.29.93,17.4.91,35,2.71,51.64,8a103.47,103.47,0,0,1,23.31,10.61c8.69,5.42,17.47,10.68,26.31,15.88,7.95,4.68,15.92,9.34,23.59,14.47,6.25,4.18,12.42,8.67,17.6,14.16s8.17,12.58,11.7,19.33c3.1,5.91,6.2,12,10.13,17.37,1.94,2.66,3.9,3.89,5.52,6.42a81.24,81.24,0,0,1,7,14.45c6,15.58,9.47,32.6,7.55,49.31-1.33,11.55-2.34,23.12-3.32,34.7q-2.79,33.29-5,66.64l-.27,3.95c-.13,1.93,2.87,1.92,3,0q1.75-26.22,3.82-52.43c1-13.16,2.11-26.31,3.38-39.44.54-5.6,1.32-11.2,1.74-16.81a95.55,95.55,0,0,0-2-26.39,126.85,126.85,0,0,0-6.78-22.27A74.82,74.82,0,0,0,675.69,218c-1.74-2.56-4.12-4.32-5.9-6.92a173.55,173.55,0,0,1-10.6-18.68c-1.93-3.74-3.6-7.69-5.9-11.21a47.13,47.13,0,0,0-6.06-7.38A113.7,113.7,0,0,0,629,159.54c-7.87-5.18-16-9.93-24.14-14.71-8.86-5.2-17.54-10.69-26.37-15.94-30.1-17.93-66.79-17.83-100.7-19-9.12-.3-18.07-.57-27.16.61a159.08,159.08,0,0,0-26.91,6c-14.88,4.63-29.11,11.05-43.05,18-15.26,7.6-27.39,19.35-39.35,31.29-5.42,5.4-11.16,10.52-16.46,16a106.65,106.65,0,0,0-11.57,14.94,289,289,0,0,0-20.45,36.47,95.78,95.78,0,0,0-5.4,12.9,123.9,123.9,0,0,0-3.79,19.29c-1.11,8.13-1.88,16.3-2.41,24.48s-1.09,16.35-.63,24.46a66.24,66.24,0,0,0,5.29,21.89c2,4.79,4.93,9.65,5.71,14.86a30.31,30.31,0,0,1-.24,7.49c-.36,3.47-.79,6.94-1,10.42-.5,7.91.1,16,3.43,23.27,1.54,3.35,3.86,6.24,5.46,9.56a55.22,55.22,0,0,1,3.52,10,104.21,104.21,0,0,1,3,19.32c.2,2.86.34,5.74.29,8.61h3V389.68a80.62,80.62,0,0,1,.86-14.31,115.71,115.71,0,0,1,4.2-16,306.77,306.77,0,0,1,12.9-32c3-6.57,6.56-13,8-20.13,1.48-7.39,1.65-15,2.22-22.5.94-12.52,2.21-25.27,5-37.53A50.36,50.36,0,0,1,356,222a58.28,58.28,0,0,1,30.52-15.2c.42-.07.67-.1.29-.05,1.89-.23,1.92-3.23,0-3Z"/><path d="M619.45,578.22a88.72,88.72,0,0,0-4.87,26.1,49,49,0,0,0,.83,10.94c.37,1.86,3.21,1.07,2.84-.79-2.11-10.75.12-22.38,3.18-32.75.27-.91.55-1.82.86-2.72.62-1.79-2.22-2.57-2.84-.78Z"/><path d="M355.19,600.73c.32,7.27.53,14.57.39,21.86a59.39,59.39,0,0,1-.33,6c-.26,1.85,2.58,2.66,2.84.78a88.75,88.75,0,0,0,.46-12.63c0-4.4-.14-8.81-.3-13.21,0-.94-.07-1.88-.11-2.82-.08-1.89-3-1.9-2.95,0Z"/><path d="M299.38,397.63c-2.95-.16-5.63,2.44-7.17,4.63a26.86,26.86,0,0,0-3.91,10.35,85.82,85.82,0,0,0-1,20.5c.44,9.26,1.62,18.51,2.83,27.69.72,5.4,1.5,10.81,2.63,16.14,1.17,5.56,3.08,10.92,4.23,16.48.46,2.25.76,4.53,1.25,6.77A43.58,43.58,0,0,0,302.56,512c3.82,6.93,10.18,13.55,18.35,14.75a11.59,11.59,0,0,0,1.86.17c1.93,0,1.94-3,0-3a13.53,13.53,0,0,1-5.38-1.27,24.69,24.69,0,0,1-10-8.6A38.33,38.33,0,0,1,302,502.79a82.87,82.87,0,0,1-1.8-8.53c-1-5.32-2.76-10.42-4-15.68-1-4.29-1.75-8.64-2.4-13-1.21-8.2-2.17-16.46-2.94-24.71a116.46,116.46,0,0,1-.28-23.09,36,36,0,0,1,3-11.91,20,20,0,0,1,1-1.8c.16-.24.33-.47.5-.7-.21.28.29-.35.4-.47a14.56,14.56,0,0,1,1.05-1c.39-.36-.15.08.24-.18l.51-.35.44-.25c.1,0,.59-.27.31-.15s.41-.15.59-.2l.6-.13c-.34.08-.32.05,0,0h.13c1.93.1,1.93-2.9,0-3Z"/><path d="M682,403a31.57,31.57,0,0,1,2.83-4.62l.15-.2c.14-.19-.25.31,0,.06s.2-.26.31-.38a8.93,8.93,0,0,1,.65-.73,7.41,7.41,0,0,1,.64-.61l.16-.13c.21-.18-.29.19-.1.07l.32-.22.32-.17c.23-.14-.2.07-.16.06l.18-.07a1.37,1.37,0,0,0,.29-.07c-.37.19-.38,0-.2,0a.49.49,0,0,0,.17,0c.2,0-.33-.08-.21,0l.15,0s.1,0,.14,0-.31-.16-.25-.11.07,0,.09,0a.83.83,0,0,0,.12.08c.15.06-.29-.28-.13-.1a2.57,2.57,0,0,0,.28.29c-.14-.09-.21-.31-.06-.06l.14.22.13.25,0,.1c.11.22,0,0,0-.11a5,5,0,0,0,.23.65c.08.26.15.51.21.77s.13.55.18.83l.09.49,0,.26s0,.3,0,.13,0,.1,0,.15,0,.19,0,.28l.06.6c0,.46.07.92.1,1.39a1.5,1.5,0,1,0,3,0,30.25,30.25,0,0,0-.56-4.55,9.34,9.34,0,0,0-1-2.81,3.34,3.34,0,0,0-3.93-1.69,7.76,7.76,0,0,0-3.32,2.57,29.55,29.55,0,0,0-2.53,3.64c-.41.68-.8,1.37-1.16,2.08A1.5,1.5,0,0,0,682,403Z"/><path d="M431.07,363.6c-.37-6.49-5.61-11.58-11.87-12.59a65.52,65.52,0,0,0-9.7-.46q-6.06-.07-12.12,0a274.19,274.19,0,0,0-28.92,1.87,102.34,102.34,0,0,0-12.66,2.27,29.88,29.88,0,0,0-8.95,3.49c-4.86,3.19-8.44,8.54-10.59,13.85a28.75,28.75,0,0,0-2.2,9.08l2.93-.79a1.48,1.48,0,0,1,.15,1.14,1.07,1.07,0,0,1-.27.5c.19-.25.23-.18,0,0,.23-.16.47-.31.71-.45a50.86,50.86,0,0,1,8.13-3.42c2.82-1,5.66-2,8.53-2.91,2.59-.8,5.24-1.34,7.87-2,3.1-.78,6.15-1.67,9.3-2.25a76.57,76.57,0,0,1,10.25-1.17c6.21-.29,12.48.06,18.69.17q6.3.12,12.59.19l9.94.12a6.77,6.77,0,0,0,5.26-2,28.22,28.22,0,0,0,2.69-3.88c1.12-1.68-1.59-3.26-2.71-1.58-.65,1-1.25,2-2,3-1,1.23-2.19,1.32-3.59,1.31L413.2,367q-6.42-.08-12.83-.2c-6.52-.12-13.13-.5-19.65-.12a84,84,0,0,0-10.36,1.28c-3.18.59-6.25,1.51-9.39,2.29-2.67.66-5.35,1.23-8,2.06-2.94.92-5.85,1.94-8.74,3a44.29,44.29,0,0,0-8.63,3.73c-.91.59-2.14,1.71-1.34,2.91a1.58,1.58,0,0,0,2.92-.79c0-.15,0-.3,0-.45s0-.4.07-.6c-.05.4.06-.4.08-.55a32,32,0,0,1,1.22-4.81,29.49,29.49,0,0,1,8.55-12.82,20.66,20.66,0,0,1,7.49-3.62,80.52,80.52,0,0,1,11.41-2.37,237.51,237.51,0,0,1,27.3-2.1c7.24-.22,14.5-.27,21.74,0,4,.14,8.1.91,10.66,4.31a10.75,10.75,0,0,1,1.86,3.89,14.17,14.17,0,0,1,.3,1.41c0,.14-.05-.4,0,0,0,.05,0,.1,0,.15C428,365.61,431.18,365.62,431.07,363.6Z"/><path d="M509.6,359.84l.15-.2c.36-.46.74-.91,1.12-1.36a34.51,34.51,0,0,1,3.92-3.82c3.51-2.9,7.67-4.82,12.29-4.41,6.47.57,13.08.17,19.56.05,8.78-.18,17.57-.4,26.35-.31,3.68,0,7.37.13,11,.43,1.43.12,2.51.23,3.81.46.49.09,1,.19,1.47.32a6.32,6.32,0,0,1,.62.18c.13,0,.8.32.33.11A30.11,30.11,0,0,1,601,359.55a26.18,26.18,0,0,1,5.71,16.59l2.68-1.11a74.06,74.06,0,0,0-16.26-10.91,27.08,27.08,0,0,0-8.95-2.55c-2.87-.3-5.75-.42-8.63-.51-8.07-.25-16.15-.18-24.22.05-7.11.19-14.26.44-21.34,1.23-4.47.5-8.86,1.61-13.36,1.9-1.81.12-4.3.47-5.45-1.23a8.18,8.18,0,0,1-1.09-2.62,11.86,11.86,0,0,1-.27-1.18c0-.19-.15-1,0-.16a1.63,1.63,0,0,0-1.57-1.57,1.58,1.58,0,0,0-1.57,1.57c.41,3.15,1.65,7.08,5.06,8.05a17.59,17.59,0,0,0,6.43.15c2.83-.29,5.64-.77,8.45-1.28,6-1.07,12.69-1.28,19-1.53,8.28-.33,16.57-.47,24.85-.35,3.49,0,7,.13,10.46.35a28.89,28.89,0,0,1,7,1c4.61,1.38,8.83,4.13,12.74,6.86,2.23,1.56,4.42,3.2,6.49,5a1.59,1.59,0,0,0,2.68-1.11,29.59,29.59,0,0,0-4.72-16.25A32.44,32.44,0,0,0,595,350.26a18.94,18.94,0,0,0-7.57-2.8,94.4,94.4,0,0,0-10.36-.73c-9.09-.25-18.2,0-27.29.17-7.22.14-14.52.54-21.73.08a20.16,20.16,0,0,0-6.66.4,22.14,22.14,0,0,0-7.37,3.74,32.75,32.75,0,0,0-7.11,7.14C505.72,359.9,508.44,361.47,509.6,359.84Z"/><path d="M406.11,545.41c3,1.67,6.83,2,10.14,1.76,4.78-.33,9.54-.74,14.32-1.09,9.15-.67,18.35-1.41,27.54-1.48,5.1,0,10.21.28,15.31.35s9.94.07,14.91,0c3.46-.05,6.93-.21,10.39-.29,5.67-.13,11.34,0,17,.25s11,.61,16.53.94c3.12.19,6.4.59,9.51.16l-1.85-1.85a2.56,2.56,0,0,1-.11.46c-.06.17-.11.35-.17.53s-.09.21-.13.32c-.11.3.17-.33,0,.11a17.43,17.43,0,0,1-1,1.9c-.25.41-.53.8-.81,1.18a2.66,2.66,0,0,1-.29.38l-.55.66C532,555.24,524.92,558.62,518,561c-13.53,4.7-28.18,6.32-42.43,6.51s-28.67-1-42.35-4.78a50.89,50.89,0,0,1-14.31-6c-4.54-3-7.84-7.62-10.28-12.39-.17-.34-.34-.68-.49-1-.8-1.75-3.38-.23-2.59,1.52a37.75,37.75,0,0,0,8,11.46c3.88,3.74,8.91,6,13.94,7.77,13.33,4.67,27.94,6.15,42,6.42,15.19.29,30.79-1,45.4-5.36,8.15-2.41,16.62-5.91,22.73-12,2.15-2.15,4.47-5,5.13-8.07l0-.12A1.54,1.54,0,0,0,541,543.1c.48-.06-.15,0-.27,0l-.71,0c-.6,0-1.21,0-1.81,0-1.63,0-3.25-.13-4.88-.23-4.63-.26-9.27-.58-13.9-.82-5.47-.29-10.94-.49-16.41-.48-4,0-7.88.2-11.82.29-10.2.23-20.37,0-30.56-.27-8.4-.22-16.87.54-25.24,1.12q-8.14.57-16.3,1.21a29.25,29.25,0,0,1-8,0,11.84,11.84,0,0,1-3.39-1.09A1.5,1.5,0,0,0,406.11,545.41Z"/><path d="M408.23,545.56a291.83,291.83,0,0,0,30.93-9.44,78.3,78.3,0,0,0,9.89-4.32c1.7-.91.19-3.5-1.51-2.59-5.85,3.15-12.29,5.24-18.58,7.27-5.91,1.9-11.88,3.62-17.87,5.23-1.22.32-2.44.65-3.66.95-1.87.48-1.08,3.37.8,2.9Z"/><path d="M465.07,528.51c2.9-.29,5.81-.47,8.73-.59,4.67-.19,9.58-.42,14.19.54,1.88.38,2.69-2.51.8-2.9-4.8-1-9.85-.84-14.71-.65-3,.12-6,.3-9,.6-1.91.19-1.93,3.19,0,3Z"/><path d="M513.79,535.08c7,3.14,14.07,6.22,21.25,8.93a53.44,53.44,0,0,0,5.92,2l-1.05-1.85c-.94,5.24-2.95,11-6.59,15-1.3,1.42.81,3.54,2.12,2.12,4-4.35,6.33-10.52,7.37-16.28a1.55,1.55,0,0,0-1-1.85,87.77,87.77,0,0,1-11.62-4.24c-4.11-1.68-8.19-3.44-12.26-5.23l-2.57-1.14c-1.75-.79-3.28,1.79-1.52,2.59Z"/><path d="M507.58,582.09A86,86,0,0,1,496,585.82a63.28,63.28,0,0,1-12.37,2,98.94,98.94,0,0,1-27.41-2.11,127,127,0,0,1-13.49-4.1c-1.82-.65-2.61,2.25-.8,2.89a105.74,105.74,0,0,0,24.77,6,85.78,85.78,0,0,0,28.05-1.32A88.34,88.34,0,0,0,508.38,585c1.75-.73,1-3.63-.8-2.89Z"/><path d="M406.53,546.42a101.93,101.93,0,0,0,6.83,13,19.54,19.54,0,0,0,2.73,3.54c1.39,1.34,3.51-.78,2.12-2.12a12.72,12.72,0,0,1-2.07-2.65c-.86-1.31-1.64-2.67-2.39-4-1.38-2.49-2.65-5-3.86-7.61-.26-.54-.52-1.09-.77-1.64a1.5,1.5,0,0,0-2.05-.54,1.54,1.54,0,0,0-.54,2Z"/><path d="M554.57,527.09a14.53,14.53,0,0,0,4.88,2.11,13.18,13.18,0,0,0,2.33.47c.31,0,0,0,.05,0a.37.37,0,0,1,.17.1c.13.12-.24-.2,0,0s.32.4.11.09c.08.11.14.23.21.34a2,2,0,0,1,.1.21c.1.2-.08-.23,0,0s.13.38.18.57a8.92,8.92,0,0,1,.34,2.23,27.67,27.67,0,0,1,0,2.88c0,1-.11,2-.2,2.92-.05.43-.09.86-.14,1.29,0,.19-.05.38-.08.57,0,.41,0,.12-.06.52-.15,1-.29,2-.48,2.94-.37,1.89,2.52,2.69,2.89.8a61.65,61.65,0,0,0,1.06-8.67c.14-2.9.41-8.67-3.29-9.62-2.25-.58-4.61-.86-6.53-2.29A1.52,1.52,0,0,0,554,525a1.55,1.55,0,0,0,.54,2.06Z"/><path d="M665.85,470.08a42.16,42.16,0,0,1,.17,8.71c-.08,2.23-.46,5.13.66,7.18,1.25,2.33,4.06,1.6,5.65.06,1.89-1.83,2.48-4.69,3.08-7.14.72-2.9,1.36-6.15,3.67-8.15,1.46-1.26-.66-3.38-2.12-2.12-2.07,1.79-3.09,4.44-3.81,7-.64,2.3-1,5-2,7a3.22,3.22,0,0,1-1.69,1.8c-.23.11.31-.08,0,0l-.21.06c-.31.1.29.06,0,0s.14,0,.13,0-.1-.12.06,0l-.14-.08.18.14-.11-.12.13.17a.86.86,0,0,1-.1-.16s-.07-.13-.09-.17c.19.36,0,.06,0,0s-.1-.38-.14-.58,0-.17-.05-.25c.06.35,0-.11,0-.15,0-.26,0-.51,0-.76-.06-1.27,0-2.54,0-3.81a43.82,43.82,0,0,0-.28-9.51,1.51,1.51,0,0,0-1.84-1,1.55,1.55,0,0,0-1,1.85Z"/><path d="M418.6,565.49a46,46,0,0,0,10.49,10.93,1.52,1.52,0,0,0,2.06-.54,1.54,1.54,0,0,0-.54-2,34.44,34.44,0,0,1-3.68-3.17q-1.64-1.59-3.1-3.32c-.41-.47-.8-1-1.19-1.43-.15-.19-.3-.39-.46-.58s.21.26-.05-.07c-.06-.09-.13-.17-.2-.26l-.74-1a1.54,1.54,0,0,0-2.05-.54,1.51,1.51,0,0,0-.54,2Z"/><path d="M531,562.36a20,20,0,0,1-1.65,1.4l.3-.23c-.45.34-.91.67-1.38,1a1.58,1.58,0,0,0-.69.9,1.52,1.52,0,0,0,.15,1.16,1.45,1.45,0,0,0,.89.68,1.47,1.47,0,0,0,1.16-.15,27.37,27.37,0,0,0,2.45-1.83c.3-.26.61-.52.89-.79a1.54,1.54,0,0,0,.44-1.06,1.5,1.5,0,0,0-.44-1.06,1.52,1.52,0,0,0-1.06-.44,1.61,1.61,0,0,0-1.06.44Z"/><path d="M295.59,454.11c-.6,5.16.58,10.83,2.27,15.67A56.66,56.66,0,0,0,304.79,483a50,50,0,0,0,6.12,7.56,15.86,15.86,0,0,0,3,2.46,1.5,1.5,0,0,0,1.51-2.59c-.18-.11-.35-.24-.52-.36-.32-.23.14.11-.07,0l-.36-.3c-.3-.25-.59-.51-.88-.78a41.55,41.55,0,0,1-5.41-6.36c-4.94-7-8.78-14.72-9.51-23.33a25.43,25.43,0,0,1,0-5.16c.22-1.92-2.78-1.9-3,0Z"/><path d="M481.21,166.12c-4.63-3.35-10.82-4.44-16.41-4.7A48.79,48.79,0,0,0,444,165a36,36,0,0,0-17.15,14.21c-4.85,8-5.8,17.56-4.6,26.66a81.84,81.84,0,0,0,4.94,18.55q1.05,2.7,2.22,5.34a22.07,22.07,0,0,0,2.2,4.53c1.2,1.57,2.59,3,3.88,4.5l1.2,1.39c.89,1,2.51.15,2.56-1.06a73.75,73.75,0,0,1,2-13.9c1.82-8.11,4.78-16.77,10.89-22.67a19.11,19.11,0,0,1,11-5.37c5.68-.67,11.43,1.06,16.52,3.46a226.23,226.23,0,0,0,29.2,11.64,233.3,233.3,0,0,0,26.95,6.61c6.86,1.26,13.79,2.25,20.74,2.93a86.94,86.94,0,0,0,10.2.7l.48,0-1.3-.75c10.45,14.6,26.91,29.57,46.28,28a18.55,18.55,0,0,0,3.62-.56l-1.9-1.44c.51,16.22.87,32.51.22,48.73-.1,2.5-.29,5-.17,7.49a50.41,50.41,0,0,0,1.36,9.22,65.11,65.11,0,0,0,6.77,16.95,49.33,49.33,0,0,0,9.84,12.68c3.19,2.8,7.05,4.56,10.1,7.56a29.08,29.08,0,0,1,7.33,11.93c1.85,5.8,1.86,11.73,1.32,17.73a78.11,78.11,0,0,0,.15,12.52c.39,5.38,1,10.74,1.71,16.08,1.46,11.1,3.31,22.15,5.33,33.16.19,1.05.38,2.09.58,3.14a6.91,6.91,0,0,0,1.08,3.31,3.79,3.79,0,0,0,5.65.14c1.07-1.15,1.15-3.19,1.43-4.66l7.31-38.35.19-1c.36-1.88-2.54-2.69-2.9-.79l-6.59,34.62L663.34,445a4.65,4.65,0,0,1-.26,1.23.76.76,0,0,1-1.24.17c-.53-.56-.53-2.37-.67-3.14-1.94-10.42-3.72-20.88-5.2-31.39-1.36-9.71-2.78-19.68-2.43-29.51.09-2.38.42-4.73.49-7.11a45.74,45.74,0,0,0-.61-8.9,32.52,32.52,0,0,0-15.13-22.66,31.53,31.53,0,0,1-4.93-3.59,40.26,40.26,0,0,1-4.81-5.46c-6.83-9.27-11.66-21.09-11.64-32.71,0-4.83.38-9.68.45-14.52.07-5.27.06-10.53,0-15.8q-.11-11.29-.42-22.57c0-.42,0-.84,0-1.25a1.52,1.52,0,0,0-1.9-1.45c-.22.07-.45.11-.68.16l-.73.13-.21,0-.66.08a30.79,30.79,0,0,1-7.05-.12c-8.31-1.07-16.07-5.13-22.51-10.37a79.71,79.71,0,0,1-13.71-14.65c-.77-1.05-1.3-2-2.65-2.08l-2-.09a207.86,207.86,0,0,1-21.4-2.28,234.46,234.46,0,0,1-36.33-8.57,188.29,188.29,0,0,1-20.3-7.85c-4.75-2.17-9.33-4.67-14.46-5.87-6.5-1.52-13.42-1-19,2.86-5,3.38-8.45,8.54-10.87,14a71.64,71.64,0,0,0-4.88,16.54,61.35,61.35,0,0,0-1.27,10.37c0,.17,0,.33,0,.5l2.56-1.06-3.43-4a17.13,17.13,0,0,1-1.58-1.83,31.57,31.57,0,0,1-1.8-4,90.8,90.8,0,0,1-6.11-18.71c-1.77-8.79-1.79-18.4,2.31-26.58A32,32,0,0,1,443.1,168.7a44.84,44.84,0,0,1,19.34-4.32c5.43,0,11.3.78,15.88,3.44.47.27.93.57,1.38.89,1.56,1.13,3.06-1.47,1.51-2.59Z"/></g></g></svg>