<?xml version="1.0" encoding="UTF-8"?>
<svg id="Layer_2" data-name="Layer 2" xmlns="http://www.w3.org/2000/svg" viewBox="0 0 833.33 168.16">
  <defs>
    <style>
      .cls-1 {
        fill: #fce181;
        opacity: .35;
      }

      .cls-2 {
        opacity: .19;
      }

      .cls-3 {
        fill: none;
        stroke: #ffc425;
        stroke-linecap: round;
        stroke-linejoin: round;
        stroke-width: 4.48px;
      }
    </style>
  </defs>
  <g id="Layer_1-2" data-name="Layer 1">
    <path class="cls-1" d="m829.56,12.01v153.91H74.99c2.85-1.81,5.73-3.56,8.62-5.28,8.85-5.25,17.88-10.17,27.09-14.74,8.49-4.23,17.12-8.18,25.87-11.83,8.2-3.43,16.51-6.6,24.91-9.53,7.97-2.78,16.01-5.34,24.13-7.66,7.5-2.16,15.05-4.12,22.65-5.89.27-.06.54-.13.81-.18,7.65-1.78,15.28-3.36,22.91-4.75,54.34-9.95,107.94-10.51,158.44-2.88,77.94,11.78,159.25-3.98,227.65-44.13,29.54-17.34,62.71-30.78,98.66-39.15,38.41-8.95,76.55-11.32,112.83-7.89Z"/>
    <g class="cls-2">
      <line class="cls-3" x1="829.55" y1="127.9" x2="813.64" y2="165.92"/>
      <line class="cls-3" x1="829.55" y1="77.91" x2="792.72" y2="165.92"/>
      <polyline class="cls-3" points="771.79 165.92 829.56 27.86 831.09 24.21"/>
      <line class="cls-3" x1="811.32" y1="21.46" x2="750.86" y2="165.92"/>
      <line class="cls-3" x1="788.04" y1="27.11" x2="729.95" y2="165.92"/>
      <line class="cls-3" x1="764.21" y1="34.06" x2="709.03" y2="165.92"/>
      <line class="cls-3" x1="739.9" y1="42.16" x2="688.11" y2="165.92"/>
      <line class="cls-3" x1="715.2" y1="51.19" x2="667.19" y2="165.92"/>
      <line class="cls-3" x1="690.22" y1="60.9" x2="646.27" y2="165.92"/>
      <line class="cls-3" x1="665.06" y1="71.02" x2="625.34" y2="165.92"/>
      <line class="cls-3" x1="639.86" y1="81.25" x2="604.43" y2="165.92"/>
      <line class="cls-3" x1="614.73" y1="91.31" x2="583.51" y2="165.92"/>
      <line class="cls-3" x1="589.77" y1="100.94" x2="562.58" y2="165.92"/>
      <line class="cls-3" x1="552.96" y1="138.92" x2="565.11" y2="109.88"/>
      <line class="cls-3" x1="545.32" y1="157.19" x2="541.67" y2="165.92"/>
      <line class="cls-3" x1="540.81" y1="117.95" x2="520.73" y2="165.92"/>
      <line class="cls-3" x1="516.95" y1="124.99" x2="499.82" y2="165.92"/>
      <line class="cls-3" x1="493.56" y1="130.88" x2="478.9" y2="165.92"/>
      <line class="cls-3" x1="470.69" y1="135.54" x2="457.98" y2="165.92"/>
      <line class="cls-3" x1="448.36" y1="138.92" x2="437.06" y2="165.92"/>
      <line class="cls-3" x1="426.55" y1="141.02" x2="416.13" y2="165.92"/>
      <line class="cls-3" x1="405.3" y1="141.83" x2="395.22" y2="165.92"/>
      <line class="cls-3" x1="384.56" y1="141.38" x2="374.29" y2="165.92"/>
      <line class="cls-3" x1="364.35" y1="139.69" x2="353.37" y2="165.92"/>
      <line class="cls-3" x1="344.63" y1="136.82" x2="332.45" y2="165.92"/>
      <line class="cls-3" x1="325.4" y1="132.79" x2="311.54" y2="165.92"/>
      <line class="cls-3" x1="306.62" y1="127.67" x2="290.61" y2="165.92"/>
      <line class="cls-3" x1="288.27" y1="121.5" x2="269.68" y2="165.92"/>
      <line class="cls-3" x1="270.36" y1="114.33" x2="248.77" y2="165.92"/>
      <line class="cls-3" x1="252.83" y1="106.21" x2="227.84" y2="165.92"/>
      <polyline class="cls-3" points="235.69 97.19 231.98 106.06 206.93 165.92"/>
      <polyline class="cls-3" points="218.9 87.31 209.07 110.81 186 165.92"/>
      <polyline class="cls-3" points="202.46 76.62 185.61 116.88 165.09 165.92"/>
      <polyline class="cls-3" points="186.34 65.15 161.49 124.54 161.48 124.54 144.17 165.92"/>
      <polyline class="cls-3" points="170.33 53.41 136.57 134.07 123.25 165.92"/>
      <polyline class="cls-3" points="153.91 42.66 110.7 145.9 102.32 165.92"/>
      <polyline class="cls-3" points="137.02 33.02 83.61 160.64 81.4 165.92"/>
      <line class="cls-3" x1="119.65" y1="24.54" x2="60.48" y2="165.92"/>
      <line class="cls-3" x1="101.76" y1="17.28" x2="39.55" y2="165.92"/>
      <line class="cls-3" x1="83.34" y1="11.32" x2="18.64" y2="165.92"/>
      <line class="cls-3" x1="64.33" y1="6.75" x2="2.24" y2="155.11"/>
      <line class="cls-3" x1="3.99" y1="100.94" x2="44.7" y2="3.67"/>
      <line class="cls-3" x1="24.38" y1="2.24" x2="2.24" y2="55.14"/>
      <line class="cls-3" x1="3.3" y1="2.62" x2="2.24" y2="5.15"/>
    </g>
  </g>
</svg>