<?xml version="1.0" encoding="UTF-8"?>
<svg id="Layer_2" data-name="Layer 2" xmlns="http://www.w3.org/2000/svg" viewBox="0 0 2055.3 211.7">
  <defs>
    <style>
      .cls-1 {
        fill: #fce181;
        opacity: .35;
      }

      .cls-2 {
        opacity: .19;
      }

      .cls-3 {
        fill: none;
        stroke: #ffc425;
        stroke-linecap: round;
        stroke-linejoin: round;
        stroke-width: 8px;
      }
    </style>
  </defs>
  <g id="Layer_1-2" data-name="Layer 1">
    <g>
      <path class="cls-1" d="m2001.7,207.7H337.76c61.44-29.91,126.95-51.4,194.06-64.59,112.37-22.09,223.02-21.8,325.74-2.6,138.43,25.89,284.6,2.81,409.22-64.62,53.82-29.12,113.9-51.06,178.6-63.78,229.12-45.04,448.37,38.89,556.32,195.59Z"/>
      <g class="cls-2">
        <polyline class="cls-3" points="2051.3 168.71 2048.56 175.26 2045.83 181.78 2034.98 207.7"/>
        <line class="cls-3" x1="2023.01" y1="146.99" x2="1997.6" y2="207.7"/>
        <line class="cls-3" x1="1993.93" y1="127.15" x2="1960.22" y2="207.7"/>
        <line class="cls-3" x1="1964.02" y1="109.32" x2="1922.85" y2="207.7"/>
        <line class="cls-3" x1="1919.18" y1="127.15" x2="1933.22" y2="93.61"/>
        <line class="cls-3" x1="1906.09" y1="158.43" x2="1885.47" y2="207.7"/>
        <line class="cls-3" x1="1901.48" y1="80.14" x2="1848.1" y2="207.7"/>
        <line class="cls-3" x1="1868.75" y1="69.03" x2="1810.72" y2="207.7"/>
        <line class="cls-3" x1="1834.99" y1="60.39" x2="1773.34" y2="207.7"/>
        <line class="cls-3" x1="1800.15" y1="54.33" x2="1735.96" y2="207.7"/>
        <line class="cls-3" x1="1764.19" y1="50.94" x2="1698.59" y2="207.7"/>
        <line class="cls-3" x1="1727.09" y1="50.28" x2="1661.21" y2="207.7"/>
        <line class="cls-3" x1="1688.83" y1="52.38" x2="1623.83" y2="207.7"/>
        <line class="cls-3" x1="1649.42" y1="57.24" x2="1586.45" y2="207.7"/>
        <line class="cls-3" x1="1608.88" y1="64.79" x2="1549.07" y2="207.7"/>
        <line class="cls-3" x1="1567.28" y1="74.88" x2="1511.7" y2="207.7"/>
        <line class="cls-3" x1="1524.7" y1="87.31" x2="1474.32" y2="207.7"/>
        <line class="cls-3" x1="1481.27" y1="101.78" x2="1436.94" y2="207.7"/>
        <line class="cls-3" x1="1437.15" y1="117.91" x2="1399.57" y2="207.7"/>
        <line class="cls-3" x1="1392.51" y1="135.26" x2="1362.19" y2="207.7"/>
        <line class="cls-3" x1="1347.57" y1="153.33" x2="1324.82" y2="207.7"/>
        <line class="cls-3" x1="1302.54" y1="171.61" x2="1287.44" y2="207.7"/>
        <line class="cls-3" x1="1257.64" y1="189.59" x2="1250.06" y2="207.7"/>
        <line class="cls-3" x1="1213.06" y1="206.79" x2="1212.68" y2="207.7"/>
        <line class="cls-3" x1="580.45" y1="200.09" x2="577.27" y2="207.7"/>
        <line class="cls-3" x1="550.46" y1="182.44" x2="539.89" y2="207.7"/>
        <line class="cls-3" x1="521.08" y1="163.34" x2="502.52" y2="207.7"/>
        <line class="cls-3" x1="492.28" y1="142.85" x2="465.14" y2="207.7"/>
        <line class="cls-3" x1="463.68" y1="121.87" x2="427.76" y2="207.7"/>
        <line class="cls-3" x1="434.34" y1="102.67" x2="390.38" y2="207.7"/>
        <line class="cls-3" x1="404.17" y1="85.45" x2="353.01" y2="207.7"/>
        <line class="cls-3" x1="373.13" y1="70.29" x2="315.63" y2="207.7"/>
        <line class="cls-3" x1="341.18" y1="57.32" x2="278.25" y2="207.7"/>
        <line class="cls-3" x1="308.26" y1="46.67" x2="240.87" y2="207.7"/>
        <line class="cls-3" x1="274.3" y1="38.5" x2="203.49" y2="207.7"/>
        <line class="cls-3" x1="166.5" y1="206.79" x2="239.22" y2="33.01"/>
        <line class="cls-3" x1="202.92" y1="30.44" x2="128.74" y2="207.7"/>
        <line class="cls-3" x1="165.26" y1="31.12" x2="91.36" y2="207.7"/>
        <line class="cls-3" x1="126.06" y1="35.47" x2="53.98" y2="207.7"/>
        <line class="cls-3" x1="85.08" y1="44.09" x2="16.61" y2="207.7"/>
        <line class="cls-3" x1="4" y1="148.51" x2="41.95" y2="57.83"/>
      </g>
    </g>
  </g>
</svg>