<?xml version="1.0" encoding="UTF-8"?>
<svg id="Layer_2" data-name="Layer 2" xmlns="http://www.w3.org/2000/svg" viewBox="0 0 832.53 593.15">
  <defs>
    <style>
      .cls-1 {
        fill: #fce181;
        opacity: .35;
      }

      .cls-2 {
        fill: none;
        stroke: #ffc425;
        stroke-linecap: round;
        stroke-linejoin: round;
        stroke-width: 3.68px;
      }

      .cls-3 {
        opacity: .19;
      }
    </style>
  </defs>
  <g id="Layer_1-2" data-name="Layer 1">
    <path class="cls-1" d="m830.69,68.46v431.23c-1.93,1.84-3.89,3.66-5.87,5.46-8.23,7.45-16.91,14.48-25.99,21.05-7.61,5.52-15.52,10.72-23.69,15.58-7.19,4.27-14.59,8.28-22.19,12.01h-.01c-6.88,3.38-13.92,6.52-21.12,9.43-6.63,2.68-13.39,5.15-20.28,7.41-44.61,14.65-94.4,20.33-147.47,14.62-52.32-5.63-100.82-20.84-143.27-43.28-34.98-18.48-73.71-29.33-113.14-32.09-5.62-.4-11.25-.63-16.89-.69-5.76-.07-11.54.04-17.31.32-5.93.29-11.86.77-17.77,1.44-6.11.68-12.21,1.56-18.28,2.65-1.66.29-3.31.6-4.97.93-4.48.88-8.99,1.66-13.56,2.32h-.01c-5.94.88-11.95,1.56-18.03,2.06-5.79.47-11.64.77-17.54.89h0c-5.66.13-11.36.08-17.11-.14-5.54-.2-11.11-.57-16.71-1.1h-.01c-1.36-.12-2.71-.25-4.07-.4-4.12-.44-8.21-.97-12.26-1.58h-.01c-5.4-.8-10.72-1.75-15.98-2.84-5.28-1.09-10.5-2.31-15.64-3.68-5.17-1.36-10.27-2.86-15.29-4.49-5.06-1.64-10.04-3.41-14.94-5.31-4.96-1.92-9.83-3.97-14.61-6.15-4.85-2.2-9.6-4.53-14.25-6.98-4.74-2.49-9.37-5.11-13.89-7.84-4.62-2.8-9.13-5.72-13.51-8.76-4.5-3.11-8.87-6.35-13.11-9.7-.02-.02-.04-.04-.06-.05V149.14c4.55-3.32,9.25-6.49,14.09-9.51,7.25-4.52,14.8-8.7,22.65-12.49h0s0-.01,0-.01c43.87-21.3,96.44-31.04,151.59-25.1,2.15.23,4.28.49,6.4.76,65.46,8.47,131.24-6.17,184.12-40.16C447.57,19.64,560.43-7.88,652.33,2.01c73.24,7.89,133.41,30.88,178.36,66.45Z"/>
    <g class="cls-3">
      <path class="cls-2" d="m6.25,122.16c-1.47,3.51-2.94,7.01-4.41,10.52"/>
      <path class="cls-2" d="m1.84,174.09c4.19-9.95,8.4-19.92,12.62-29.89.46-.91,0-1.37.46-2.29.34-.77.67-1.53,1.01-2.28,2.83-6.4,5.62-12.51,8.11-18.93.05-.11.09-.23.14-.35"/>
      <path class="cls-2" d="m1.84,215.36c12.21-29.9,24.73-58.8,36.74-88.23h.01c.88-2.14,1.75-4.28,2.62-6.43.04-.09.08-.18.11-.28"/>
      <path class="cls-2" d="m1.84,255.4c.69-1.68,1.38-3.37,2.06-5.06,9.18-21.14,17.91-41.35,26.18-62.49,9.19-22.05,19.3-43.65,27.76-65.87"/>
      <line class="cls-2" x1="73.85" y1="124.78" x2="1.84" y2="296.85"/>
      <line class="cls-2" x1="89.41" y1="128.63" x2="1.84" y2="337.88"/>
      <line class="cls-2" x1="89.07" y1="170.46" x2="104.59" y2="133.39"/>
      <line class="cls-2" x1="83.83" y1="182.98" x2="1.84" y2="378.91"/>
      <line class="cls-2" x1="119.44" y1="138.93" x2="1.84" y2="419.94"/>
      <polyline class="cls-2" points="133.99 145.19 1.9 460.83 1.84 460.97"/>
      <polyline class="cls-2" points="148.28 152.09 15.01 470.53 1.84 502"/>
      <line class="cls-2" x1="162.39" y1="159.4" x2="6.25" y2="532.51"/>
      <line class="cls-2" x1="176.52" y1="166.67" x2="8.36" y2="568.49"/>
      <line class="cls-2" x1="190.67" y1="173.89" x2="23.4" y2="573.59"/>
      <line class="cls-2" x1="148.28" y1="316.23" x2="38.91" y2="577.56"/>
      <line class="cls-2" x1="204.86" y1="181.03" x2="155.52" y2="298.92"/>
      <line class="cls-2" x1="219.08" y1="188.09" x2="54.92" y2="580.34"/>
      <line class="cls-2" x1="233.34" y1="195.05" x2="71.44" y2="581.9"/>
      <line class="cls-2" x1="247.64" y1="201.89" x2="88.49" y2="582.2"/>
      <line class="cls-2" x1="262.01" y1="208.6" x2="106.06" y2="581.24"/>
      <line class="cls-2" x1="191.87" y1="417.25" x2="124.17" y2="579"/>
      <line class="cls-2" x1="276.44" y1="215.14" x2="197.31" y2="404.23"/>
      <line class="cls-2" x1="290.96" y1="221.5" x2="142.8" y2="575.54"/>
      <line class="cls-2" x1="305.57" y1="227.63" x2="161.91" y2="570.9"/>
      <line class="cls-2" x1="320.29" y1="233.49" x2="181.47" y2="565.19"/>
      <line class="cls-2" x1="335.14" y1="239.02" x2="201.43" y2="558.54"/>
      <line class="cls-2" x1="350.17" y1="244.15" x2="221.7" y2="551.13"/>
      <line class="cls-2" x1="365.41" y1="248.77" x2="242.21" y2="543.16"/>
      <line class="cls-2" x1="380.92" y1="252.75" x2="262.86" y2="534.86"/>
      <line class="cls-2" x1="396.8" y1="255.84" x2="283.54" y2="526.46"/>
      <line class="cls-2" x1="413.21" y1="257.66" x2="304.17" y2="518.2"/>
      <line class="cls-2" x1="430.47" y1="257.45" x2="324.65" y2="510.3"/>
      <line class="cls-2" x1="354.87" y1="479.12" x2="344.9" y2="502.95"/>
      <line class="cls-2" x1="449.21" y1="253.7" x2="361.15" y2="464.13"/>
      <line class="cls-2" x1="468.38" y1="248.93" x2="364.84" y2="496.33"/>
      <line class="cls-2" x1="487.44" y1="244.41" x2="384.43" y2="490.55"/>
      <line class="cls-2" x1="506.4" y1="240.15" x2="403.63" y2="485.72"/>
      <line class="cls-2" x1="525.25" y1="236.14" x2="422.4" y2="481.9"/>
      <line class="cls-2" x1="543.98" y1="232.41" x2="440.74" y2="479.12"/>
      <line class="cls-2" x1="562.6" y1="228.95" x2="458.63" y2="477.4"/>
      <line class="cls-2" x1="581.1" y1="225.78" x2="476.08" y2="476.73"/>
      <line class="cls-2" x1="599.48" y1="222.91" x2="493.1" y2="477.1"/>
      <line class="cls-2" x1="617.72" y1="220.35" x2="509.69" y2="478.48"/>
      <line class="cls-2" x1="579.14" y1="353.58" x2="525.88" y2="480.84"/>
      <line class="cls-2" x1="635.84" y1="218.1" x2="585.51" y2="338.35"/>
      <line class="cls-2" x1="653.81" y1="216.19" x2="541.67" y2="484.15"/>
      <line class="cls-2" x1="671.64" y1="214.62" x2="557.08" y2="488.35"/>
      <line class="cls-2" x1="689.32" y1="213.41" x2="572.14" y2="493.41"/>
      <line class="cls-2" x1="706.84" y1="212.58" x2="586.84" y2="499.3"/>
      <line class="cls-2" x1="724.19" y1="212.14" x2="601.23" y2="505.97"/>
      <line class="cls-2" x1="741.38" y1="212.11" x2="615.3" y2="513.37"/>
      <line class="cls-2" x1="719.58" y1="305.24" x2="629.08" y2="521.48"/>
      <line class="cls-2" x1="758.38" y1="212.52" x2="724.19" y2="294.21"/>
      <line class="cls-2" x1="775.19" y1="213.38" x2="642.58" y2="530.26"/>
      <line class="cls-2" x1="791.8" y1="214.74" x2="655.81" y2="539.67"/>
      <line class="cls-2" x1="808.19" y1="216.6" x2="668.95" y2="549.31"/>
      <line class="cls-2" x1="810.92" y1="251.11" x2="682.43" y2="558.13"/>
      <line class="cls-2" x1="824.35" y1="219.02" x2="817.18" y2="236.14"/>
      <line class="cls-2" x1="830.69" y1="244.91" x2="696.3" y2="566.04"/>
      <polyline class="cls-2" points="710.55 573 711.54 570.63 830.69 285.94"/>
      <polyline class="cls-2" points="725.23 578.96 731.82 563.22 830.69 326.97"/>
      <polyline class="cls-2" points="740.36 583.86 752.94 553.79 752.95 553.79 830.69 368.01"/>
      <polyline class="cls-2" points="755.96 587.61 775.14 541.78 830.69 409.04"/>
      <line class="cls-2" x1="805.49" y1="510.3" x2="772.08" y2="590.14"/>
      <line class="cls-2" x1="830.69" y1="450.09" x2="815.78" y2="485.72"/>
      <polyline class="cls-2" points="788.76 591.31 824.82 505.15 830.69 491.12"/>
      <line class="cls-2" x1="830.69" y1="532.15" x2="806.06" y2="591"/>
      <line class="cls-2" x1="830.69" y1="573.18" x2="824.07" y2="589"/>
    </g>
  </g>
</svg>