<?xml version="1.0" encoding="UTF-8"?>
<svg id="Layer_2" data-name="Layer 2" xmlns="http://www.w3.org/2000/svg" viewBox="0 0 2049.83 322.38">
  <defs>
    <style>
      .cls-1 {
        fill: #fce181;
        opacity: .35;
      }

      .cls-2 {
        opacity: .19;
      }

      .cls-3 {
        fill: none;
        stroke: #ffc425;
        stroke-linecap: round;
        stroke-linejoin: round;
        stroke-width: 8px;
      }
    </style>
  </defs>
  <g id="Layer_1-2" data-name="Layer 1">
    <path class="cls-1" d="m1968.07,4c-17.69,15.88-36.2,30.85-55.41,44.86-8.65,6.31-17.44,12.42-26.36,18.33-8.36,5.54-16.83,10.89-25.41,16.06-15.86,9.58-32.09,18.53-48.62,26.86-15.2,7.66-30.66,14.8-46.34,21.41-14.68,6.19-29.55,11.93-44.58,17.21-14.25,5-28.64,9.6-43.15,13.78-13.88,4.01-27.87,7.65-41.94,10.9-9.06,2.11-18.15,4.06-27.28,5.85-4.54.89-9.08,1.75-13.61,2.57-107.69,19.47-213.56,18.46-312.13.03-138.43-25.88-284.6-2.81-409.22,64.62-53.82,29.13-113.9,51.06-178.6,63.78-133.32,26.21-263.3,8.75-369.96-41.32-10.5-4.92-20.77-10.16-30.8-15.72-10.22-5.65-20.19-11.62-29.88-17.91-9.93-6.42-19.57-13.17-28.9-20.24-9.62-7.28-18.91-14.89-27.84-22.81-9.27-8.22-18.16-16.78-26.64-25.66-8.88-9.3-17.31-18.95-25.26-28.95-8.42-10.57-16.31-21.52-23.63-32.84-7.87-12.16-15.08-24.75-21.58-37.72-7.17-14.28-13.48-29.03-18.88-44.23-2.21-6.21-4.27-12.5-6.16-18.86h1882.18Z"/>
    <g class="cls-2">
      <line class="cls-3" x1="25.19" y1="4" x2="4" y2="54.63"/>
      <line class="cls-3" x1="62.57" y1="4" x2="4" y2="143.94"/>
      <polyline class="cls-3" points="26.82 178.73 92.05 22.86 99.95 4"/>
      <polyline class="cls-3" points="55.9 198.57 110.93 67.09 137.33 4"/>
      <polyline class="cls-3" points="85.81 216.4 132.51 104.81 174.7 4"/>
      <line class="cls-3" x1="130.65" y1="198.57" x2="116.61" y2="232.11"/>
      <polyline class="cls-3" points="143.74 167.29 156.14 137.65 212.08 4"/>
      <polyline class="cls-3" points="148.35 245.58 181.4 166.6 249.45 4"/>
      <polyline class="cls-3" points="181.08 256.69 208.04 192.26 286.83 4"/>
      <polyline class="cls-3" points="214.84 265.33 235.88 215.07 324.21 4"/>
      <polyline class="cls-3" points="249.68 271.39 264.78 235.31 361.59 4"/>
      <polyline class="cls-3" points="285.64 274.78 294.66 253.22 398.96 4"/>
      <polyline class="cls-3" points="322.74 275.44 325.46 268.94 436.34 4"/>
      <line class="cls-3" x1="473.72" y1="4" x2="361" y2="273.34"/>
      <line class="cls-3" x1="511.09" y1="4" x2="400.41" y2="268.48"/>
      <line class="cls-3" x1="548.47" y1="4" x2="440.95" y2="260.93"/>
      <line class="cls-3" x1="585.85" y1="4" x2="482.55" y2="250.84"/>
      <line class="cls-3" x1="623.22" y1="4" x2="525.13" y2="238.41"/>
      <line class="cls-3" x1="660.6" y1="4" x2="568.56" y2="223.94"/>
      <line class="cls-3" x1="697.98" y1="4" x2="612.68" y2="207.81"/>
      <line class="cls-3" x1="735.36" y1="4" x2="657.32" y2="190.46"/>
      <line class="cls-3" x1="772.73" y1="4" x2="702.26" y2="172.39"/>
      <line class="cls-3" x1="810.11" y1="4" x2="747.29" y2="154.11"/>
      <line class="cls-3" x1="847.49" y1="4" x2="792.19" y2="136.13"/>
      <line class="cls-3" x1="884.87" y1="4" x2="836.77" y2="118.93"/>
      <line class="cls-3" x1="902.54" y1="51.07" x2="880.84" y2="102.95"/>
      <line class="cls-3" x1="922.24" y1="4" x2="916.2" y2="18.44"/>
      <line class="cls-3" x1="959.62" y1="4" x2="924.25" y2="88.53"/>
      <line class="cls-3" x1="997" y1="4" x2="966.88" y2="75.96"/>
      <line class="cls-3" x1="1034.37" y1="4" x2="1008.66" y2="65.44"/>
      <line class="cls-3" x1="1071.75" y1="4" x2="1049.52" y2="57.12"/>
      <line class="cls-3" x1="1109.13" y1="4" x2="1089.43" y2="51.07"/>
      <line class="cls-3" x1="1146.51" y1="4" x2="1128.38" y2="47.32"/>
      <line class="cls-3" x1="1183.89" y1="4" x2="1166.36" y2="45.88"/>
      <line class="cls-3" x1="1221.26" y1="4" x2="1203.4" y2="46.68"/>
      <line class="cls-3" x1="1258.64" y1="4" x2="1239.52" y2="49.69"/>
      <line class="cls-3" x1="1296.01" y1="4" x2="1274.74" y2="54.83"/>
      <line class="cls-3" x1="1333.39" y1="4" x2="1309.11" y2="62.02"/>
      <line class="cls-3" x1="1370.77" y1="4" x2="1342.66" y2="71.17"/>
      <line class="cls-3" x1="1408.15" y1="4" x2="1375.43" y2="82.19"/>
      <line class="cls-3" x1="1445.52" y1="4" x2="1407.44" y2="95"/>
      <line class="cls-3" x1="1482.91" y1="4" x2="1438.75" y2="109.51"/>
      <line class="cls-3" x1="1520.28" y1="4" x2="1469.38" y2="125.63"/>
      <line class="cls-3" x1="1557.66" y1="4" x2="1499.37" y2="143.28"/>
      <line class="cls-3" x1="1595.03" y1="4" x2="1528.75" y2="162.38"/>
      <line class="cls-3" x1="1632.41" y1="4" x2="1557.55" y2="182.87"/>
      <polyline class="cls-3" points="1586.15 203.85 1595.37 181.83 1669.79 4"/>
      <polyline class="cls-3" points="1615.49 223.05 1636.26 173.41 1707.17 4"/>
      <polyline class="cls-3" points="1645.66 240.27 1678.2 162.51 1744.54 4"/>
      <polyline class="cls-3" points="1676.7 255.43 1721.35 148.73 1781.92 4"/>
      <polyline class="cls-3" points="1708.65 268.4 1765.93 131.52 1819.3 4"/>
      <polyline class="cls-3" points="1741.57 279.05 1812.27 110.11 1856.68 4"/>
      <polyline class="cls-3" points="1775.53 287.22 1860.89 83.25 1894.06 4"/>
      <line class="cls-3" x1="1883.33" y1="118.93" x2="1810.61" y2="292.71"/>
      <polyline class="cls-3" points="1905.72 65.44 1912.66 48.86 1931.43 4"/>
      <line class="cls-3" x1="1968.81" y1="4" x2="1846.91" y2="295.28"/>
      <line class="cls-3" x1="2006.19" y1="4" x2="1884.57" y2="294.6"/>
      <line class="cls-3" x1="2043.57" y1="4" x2="1923.77" y2="290.25"/>
      <line class="cls-3" x1="2045.83" y1="87.89" x2="1964.75" y2="281.63"/>
      <line class="cls-3" x1="2045.83" y1="177.21" x2="2007.88" y2="267.89"/>
    </g>
  </g>
</svg>